%TF.GenerationSoftware,KiCad,Pcbnew,7.0.9*%
%TF.CreationDate,2024-12-06T21:29:17-05:00*%
%TF.ProjectId,tiny-keeb,74696e79-2d6b-4656-9562-2e6b69636164,rev?*%
%TF.SameCoordinates,Original*%
%TF.FileFunction,Drillmap*%
%TF.FilePolarity,Positive*%
%FSLAX45Y45*%
G04 Gerber Fmt 4.5, Leading zero omitted, Abs format (unit mm)*
G04 Created by KiCad (PCBNEW 7.0.9) date 2024-12-06 21:29:17*
%MOMM*%
%LPD*%
G01*
G04 APERTURE LIST*
%ADD10C,0.100000*%
%ADD11C,0.200000*%
G04 APERTURE END LIST*
D10*
X16437100Y-9951300D02*
G75*
G03*
X16637100Y-9751300I0J200000D01*
G01*
X16637100Y-5001300D02*
X16637100Y-9751300D01*
X16437100Y-9951300D02*
X2187100Y-9951300D01*
X1987100Y-9751300D02*
X1987100Y-5001300D01*
X1987100Y-9751300D02*
G75*
G03*
X2187100Y-9951300I200000J0D01*
G01*
X2187100Y-4801300D02*
X16437100Y-4801300D01*
X2187100Y-4801300D02*
G75*
G03*
X1987100Y-5001300I0J-200000D01*
G01*
X16637100Y-5001300D02*
G75*
G03*
X16437100Y-4801300I-200000J0D01*
G01*
D11*
X2242877Y-10267784D02*
X2242877Y-10067784D01*
X2242877Y-10067784D02*
X2290496Y-10067784D01*
X2290496Y-10067784D02*
X2319067Y-10077308D01*
X2319067Y-10077308D02*
X2338115Y-10096355D01*
X2338115Y-10096355D02*
X2347639Y-10115403D01*
X2347639Y-10115403D02*
X2357163Y-10153498D01*
X2357163Y-10153498D02*
X2357163Y-10182070D01*
X2357163Y-10182070D02*
X2347639Y-10220165D01*
X2347639Y-10220165D02*
X2338115Y-10239212D01*
X2338115Y-10239212D02*
X2319067Y-10258260D01*
X2319067Y-10258260D02*
X2290496Y-10267784D01*
X2290496Y-10267784D02*
X2242877Y-10267784D01*
X2442877Y-10267784D02*
X2442877Y-10134450D01*
X2442877Y-10172546D02*
X2452401Y-10153498D01*
X2452401Y-10153498D02*
X2461924Y-10143974D01*
X2461924Y-10143974D02*
X2480972Y-10134450D01*
X2480972Y-10134450D02*
X2500020Y-10134450D01*
X2566686Y-10267784D02*
X2566686Y-10134450D01*
X2566686Y-10067784D02*
X2557163Y-10077308D01*
X2557163Y-10077308D02*
X2566686Y-10086831D01*
X2566686Y-10086831D02*
X2576210Y-10077308D01*
X2576210Y-10077308D02*
X2566686Y-10067784D01*
X2566686Y-10067784D02*
X2566686Y-10086831D01*
X2690496Y-10267784D02*
X2671448Y-10258260D01*
X2671448Y-10258260D02*
X2661924Y-10239212D01*
X2661924Y-10239212D02*
X2661924Y-10067784D01*
X2795258Y-10267784D02*
X2776210Y-10258260D01*
X2776210Y-10258260D02*
X2766686Y-10239212D01*
X2766686Y-10239212D02*
X2766686Y-10067784D01*
X3023829Y-10267784D02*
X3023829Y-10067784D01*
X3023829Y-10067784D02*
X3090496Y-10210641D01*
X3090496Y-10210641D02*
X3157162Y-10067784D01*
X3157162Y-10067784D02*
X3157162Y-10267784D01*
X3338115Y-10267784D02*
X3338115Y-10163022D01*
X3338115Y-10163022D02*
X3328591Y-10143974D01*
X3328591Y-10143974D02*
X3309543Y-10134450D01*
X3309543Y-10134450D02*
X3271448Y-10134450D01*
X3271448Y-10134450D02*
X3252401Y-10143974D01*
X3338115Y-10258260D02*
X3319067Y-10267784D01*
X3319067Y-10267784D02*
X3271448Y-10267784D01*
X3271448Y-10267784D02*
X3252401Y-10258260D01*
X3252401Y-10258260D02*
X3242877Y-10239212D01*
X3242877Y-10239212D02*
X3242877Y-10220165D01*
X3242877Y-10220165D02*
X3252401Y-10201117D01*
X3252401Y-10201117D02*
X3271448Y-10191593D01*
X3271448Y-10191593D02*
X3319067Y-10191593D01*
X3319067Y-10191593D02*
X3338115Y-10182070D01*
X3433353Y-10134450D02*
X3433353Y-10334450D01*
X3433353Y-10143974D02*
X3452401Y-10134450D01*
X3452401Y-10134450D02*
X3490496Y-10134450D01*
X3490496Y-10134450D02*
X3509543Y-10143974D01*
X3509543Y-10143974D02*
X3519067Y-10153498D01*
X3519067Y-10153498D02*
X3528591Y-10172546D01*
X3528591Y-10172546D02*
X3528591Y-10229689D01*
X3528591Y-10229689D02*
X3519067Y-10248736D01*
X3519067Y-10248736D02*
X3509543Y-10258260D01*
X3509543Y-10258260D02*
X3490496Y-10267784D01*
X3490496Y-10267784D02*
X3452401Y-10267784D01*
X3452401Y-10267784D02*
X3433353Y-10258260D01*
X3614305Y-10248736D02*
X3623829Y-10258260D01*
X3623829Y-10258260D02*
X3614305Y-10267784D01*
X3614305Y-10267784D02*
X3604782Y-10258260D01*
X3604782Y-10258260D02*
X3614305Y-10248736D01*
X3614305Y-10248736D02*
X3614305Y-10267784D01*
X3614305Y-10143974D02*
X3623829Y-10153498D01*
X3623829Y-10153498D02*
X3614305Y-10163022D01*
X3614305Y-10163022D02*
X3604782Y-10153498D01*
X3604782Y-10153498D02*
X3614305Y-10143974D01*
X3614305Y-10143974D02*
X3614305Y-10163022D01*
M02*
