%TF.GenerationSoftware,KiCad,Pcbnew,7.0.9*%
%TF.CreationDate,2024-12-06T21:29:14-05:00*%
%TF.ProjectId,tiny-keeb,74696e79-2d6b-4656-9562-2e6b69636164,rev?*%
%TF.SameCoordinates,Original*%
%TF.FileFunction,Legend,Top*%
%TF.FilePolarity,Positive*%
%FSLAX46Y46*%
G04 Gerber Fmt 4.6, Leading zero omitted, Abs format (unit mm)*
G04 Created by KiCad (PCBNEW 7.0.9) date 2024-12-06 21:29:14*
%MOMM*%
%LPD*%
G01*
G04 APERTURE LIST*
%ADD10C,0.200000*%
%ADD11C,0.120000*%
G04 APERTURE END LIST*
D10*
G36*
X84730625Y-92767000D02*
G01*
X84885475Y-92767000D01*
X84885475Y-92611417D01*
X84730625Y-92611417D01*
X84719595Y-92610897D01*
X84708973Y-92609367D01*
X84698802Y-92606870D01*
X84689123Y-92603448D01*
X84679977Y-92599145D01*
X84671407Y-92594003D01*
X84663454Y-92588065D01*
X84656161Y-92581375D01*
X84649569Y-92573975D01*
X84643721Y-92565907D01*
X84638657Y-92557216D01*
X84634420Y-92547944D01*
X84631051Y-92538134D01*
X84628594Y-92527829D01*
X84627088Y-92517071D01*
X84626577Y-92505904D01*
X84626577Y-92188144D01*
X84885475Y-92188144D01*
X84885475Y-92032317D01*
X84626577Y-92032317D01*
X84626577Y-91850356D01*
X84470995Y-91850356D01*
X84470995Y-92032317D01*
X84253863Y-92032317D01*
X84253863Y-92188144D01*
X84470995Y-92188144D01*
X84470995Y-92505904D01*
X84471333Y-92519374D01*
X84472338Y-92532664D01*
X84473992Y-92545757D01*
X84476280Y-92558636D01*
X84479185Y-92571287D01*
X84482690Y-92583692D01*
X84486778Y-92595835D01*
X84491435Y-92607700D01*
X84496642Y-92619271D01*
X84502384Y-92630532D01*
X84508643Y-92641466D01*
X84515405Y-92652057D01*
X84522651Y-92662290D01*
X84530367Y-92672148D01*
X84538534Y-92681615D01*
X84547137Y-92690674D01*
X84556160Y-92699309D01*
X84565585Y-92707505D01*
X84575397Y-92715244D01*
X84585579Y-92722512D01*
X84596114Y-92729291D01*
X84606986Y-92735566D01*
X84618179Y-92741320D01*
X84629676Y-92746537D01*
X84641461Y-92751200D01*
X84653517Y-92755295D01*
X84665827Y-92758804D01*
X84678376Y-92761711D01*
X84691147Y-92764000D01*
X84704123Y-92765656D01*
X84717287Y-92766661D01*
X84730625Y-92767000D01*
G37*
G36*
X85479718Y-92611417D02*
G01*
X85479718Y-92032317D01*
X85093081Y-92032317D01*
X85093081Y-92188144D01*
X85324135Y-92188144D01*
X85324135Y-92611417D01*
X85093081Y-92611417D01*
X85093081Y-92767000D01*
X85724693Y-92767000D01*
X85724693Y-92611417D01*
X85479718Y-92611417D01*
G37*
G36*
X85310213Y-91922408D02*
G01*
X85479718Y-91922408D01*
X85479718Y-91766581D01*
X85310213Y-91766581D01*
X85310213Y-91922408D01*
G37*
G36*
X85932300Y-92032317D02*
G01*
X85932300Y-92767000D01*
X86087882Y-92767000D01*
X86087882Y-92293168D01*
X86242244Y-92188144D01*
X86304281Y-92188144D01*
X86315070Y-92188677D01*
X86325512Y-92190242D01*
X86335560Y-92192792D01*
X86345165Y-92196276D01*
X86354280Y-92200647D01*
X86362855Y-92205854D01*
X86370843Y-92211849D01*
X86378195Y-92218583D01*
X86384863Y-92226006D01*
X86390799Y-92234071D01*
X86395954Y-92242727D01*
X86400280Y-92251926D01*
X86403729Y-92261618D01*
X86406252Y-92271756D01*
X86407802Y-92282289D01*
X86408329Y-92293168D01*
X86408329Y-92767000D01*
X86563912Y-92767000D01*
X86563912Y-92293168D01*
X86563569Y-92279742D01*
X86562552Y-92266491D01*
X86560879Y-92253434D01*
X86558566Y-92240587D01*
X86555631Y-92227965D01*
X86552091Y-92215585D01*
X86547963Y-92203463D01*
X86543265Y-92191617D01*
X86538014Y-92180062D01*
X86532227Y-92168814D01*
X86525922Y-92157890D01*
X86519115Y-92147307D01*
X86511824Y-92137080D01*
X86504066Y-92127226D01*
X86495859Y-92117762D01*
X86487219Y-92108704D01*
X86478165Y-92100068D01*
X86468712Y-92091870D01*
X86458879Y-92084127D01*
X86448683Y-92076856D01*
X86438141Y-92070072D01*
X86427270Y-92063793D01*
X86416088Y-92058033D01*
X86404612Y-92052811D01*
X86392858Y-92048141D01*
X86380845Y-92044041D01*
X86368590Y-92040527D01*
X86356110Y-92037615D01*
X86343421Y-92035322D01*
X86330542Y-92033663D01*
X86317490Y-92032656D01*
X86304281Y-92032317D01*
X86193884Y-92032317D01*
X86087882Y-92104124D01*
X86087882Y-92032317D01*
X85932300Y-92032317D01*
G37*
G36*
X87031148Y-93063999D02*
G01*
X87406549Y-92032317D01*
X87240220Y-92032317D01*
X87080729Y-92469512D01*
X86933451Y-92032317D01*
X86768343Y-92032317D01*
X86996466Y-92703496D01*
X86864819Y-93063999D01*
X87031148Y-93063999D01*
G37*
G36*
X88605538Y-92767000D02*
G01*
X88605538Y-92485143D01*
X88723751Y-92485143D01*
X88904491Y-92767000D01*
X89087917Y-92767000D01*
X88859062Y-92407230D01*
X89087673Y-92032317D01*
X88904247Y-92032317D01*
X88723507Y-92329316D01*
X88605538Y-92329316D01*
X88605538Y-91750949D01*
X88449955Y-91750949D01*
X88449955Y-92767000D01*
X88605538Y-92767000D01*
G37*
G36*
X89674107Y-92032635D02*
G01*
X89686895Y-92033579D01*
X89699505Y-92035135D01*
X89711921Y-92037287D01*
X89724129Y-92040021D01*
X89736115Y-92043321D01*
X89747862Y-92047174D01*
X89759356Y-92051563D01*
X89770583Y-92056474D01*
X89781527Y-92061892D01*
X89792174Y-92067802D01*
X89802509Y-92074190D01*
X89812517Y-92081040D01*
X89822182Y-92088338D01*
X89831492Y-92096068D01*
X89840429Y-92104216D01*
X89848981Y-92112767D01*
X89857131Y-92121706D01*
X89864865Y-92131018D01*
X89872168Y-92140688D01*
X89879025Y-92150701D01*
X89885421Y-92161043D01*
X89891342Y-92171698D01*
X89896773Y-92182652D01*
X89901699Y-92193890D01*
X89906104Y-92205396D01*
X89909975Y-92217157D01*
X89913296Y-92229156D01*
X89916052Y-92241380D01*
X89918229Y-92253813D01*
X89919812Y-92266440D01*
X89920785Y-92279247D01*
X89920785Y-92438737D01*
X89444756Y-92438737D01*
X89444756Y-92503706D01*
X89445286Y-92514723D01*
X89446843Y-92525392D01*
X89449378Y-92535663D01*
X89452843Y-92545487D01*
X89457187Y-92554812D01*
X89462363Y-92563589D01*
X89468321Y-92571768D01*
X89475012Y-92579299D01*
X89482386Y-92586131D01*
X89490396Y-92592215D01*
X89498992Y-92597500D01*
X89508126Y-92601937D01*
X89517747Y-92605475D01*
X89527807Y-92608064D01*
X89538257Y-92609654D01*
X89549048Y-92610196D01*
X89661155Y-92610196D01*
X89671943Y-92609654D01*
X89682386Y-92608064D01*
X89692434Y-92605475D01*
X89702039Y-92601937D01*
X89711154Y-92597500D01*
X89719729Y-92592215D01*
X89727717Y-92586131D01*
X89735069Y-92579299D01*
X89741737Y-92571768D01*
X89747673Y-92563589D01*
X89752828Y-92554812D01*
X89757154Y-92545487D01*
X89760603Y-92535663D01*
X89763126Y-92525392D01*
X89764675Y-92514723D01*
X89765203Y-92503706D01*
X89765203Y-92481724D01*
X89920785Y-92481724D01*
X89920785Y-92503706D01*
X89920447Y-92517118D01*
X89919442Y-92530370D01*
X89917787Y-92543444D01*
X89915500Y-92556322D01*
X89912595Y-92568988D01*
X89909090Y-92581424D01*
X89905001Y-92593612D01*
X89900345Y-92605536D01*
X89895138Y-92617177D01*
X89889396Y-92628519D01*
X89883136Y-92639543D01*
X89876375Y-92650233D01*
X89869128Y-92660571D01*
X89861413Y-92670540D01*
X89853246Y-92680122D01*
X89844643Y-92689300D01*
X89835620Y-92698056D01*
X89826195Y-92706374D01*
X89816383Y-92714235D01*
X89806201Y-92721623D01*
X89795666Y-92728520D01*
X89784794Y-92734908D01*
X89773601Y-92740771D01*
X89762104Y-92746090D01*
X89750319Y-92750849D01*
X89738263Y-92755029D01*
X89725953Y-92758614D01*
X89713404Y-92761587D01*
X89700633Y-92763929D01*
X89687657Y-92765623D01*
X89674492Y-92766652D01*
X89661155Y-92767000D01*
X89549048Y-92767000D01*
X89535817Y-92766652D01*
X89522744Y-92765623D01*
X89509845Y-92763929D01*
X89497139Y-92761587D01*
X89484641Y-92758614D01*
X89472370Y-92755029D01*
X89460343Y-92750849D01*
X89448576Y-92746090D01*
X89437087Y-92740771D01*
X89425894Y-92734908D01*
X89415013Y-92728520D01*
X89404461Y-92721623D01*
X89394257Y-92714235D01*
X89384416Y-92706374D01*
X89374957Y-92698056D01*
X89365896Y-92689300D01*
X89357251Y-92680122D01*
X89349039Y-92670540D01*
X89341277Y-92660571D01*
X89333983Y-92650233D01*
X89327173Y-92639543D01*
X89320865Y-92628519D01*
X89315076Y-92617177D01*
X89309823Y-92605536D01*
X89305124Y-92593612D01*
X89300995Y-92581424D01*
X89297455Y-92568988D01*
X89294519Y-92556322D01*
X89292206Y-92543444D01*
X89290533Y-92530370D01*
X89289516Y-92517118D01*
X89289173Y-92503706D01*
X89289173Y-92311242D01*
X89444756Y-92311242D01*
X89765203Y-92311242D01*
X89765203Y-92293657D01*
X89764689Y-92282490D01*
X89763176Y-92271732D01*
X89760707Y-92261427D01*
X89757326Y-92251617D01*
X89753074Y-92242344D01*
X89747995Y-92233653D01*
X89742132Y-92225586D01*
X89735527Y-92218186D01*
X89728224Y-92211495D01*
X89720266Y-92205558D01*
X89711695Y-92200416D01*
X89702554Y-92196112D01*
X89692887Y-92192691D01*
X89682736Y-92190193D01*
X89672145Y-92188663D01*
X89661155Y-92188144D01*
X89549048Y-92188144D01*
X89538055Y-92188677D01*
X89527456Y-92190243D01*
X89517293Y-92192795D01*
X89507610Y-92196284D01*
X89498451Y-92200662D01*
X89489860Y-92205880D01*
X89481879Y-92211890D01*
X89474554Y-92218644D01*
X89467926Y-92226093D01*
X89462041Y-92234190D01*
X89456941Y-92242886D01*
X89452671Y-92252132D01*
X89449274Y-92261880D01*
X89446793Y-92272083D01*
X89445272Y-92282691D01*
X89444756Y-92293657D01*
X89444756Y-92311242D01*
X89289173Y-92311242D01*
X89289173Y-92293657D01*
X89289516Y-92280186D01*
X89290533Y-92266894D01*
X89292206Y-92253798D01*
X89294519Y-92240914D01*
X89297455Y-92228258D01*
X89300995Y-92215847D01*
X89305124Y-92203696D01*
X89309823Y-92191823D01*
X89315076Y-92180243D01*
X89320865Y-92168973D01*
X89327173Y-92158028D01*
X89333983Y-92147426D01*
X89341277Y-92137182D01*
X89349039Y-92127313D01*
X89357251Y-92117836D01*
X89365896Y-92108765D01*
X89374957Y-92100118D01*
X89384416Y-92091911D01*
X89394257Y-92084160D01*
X89404461Y-92076882D01*
X89415013Y-92070092D01*
X89425894Y-92063807D01*
X89437087Y-92058044D01*
X89448576Y-92052818D01*
X89460343Y-92048146D01*
X89472370Y-92044044D01*
X89484641Y-92040529D01*
X89497139Y-92037616D01*
X89509845Y-92035322D01*
X89522744Y-92033663D01*
X89535817Y-92032656D01*
X89549048Y-92032317D01*
X89661155Y-92032317D01*
X89674107Y-92032635D01*
G37*
G36*
X90513325Y-92032635D02*
G01*
X90526114Y-92033579D01*
X90538723Y-92035135D01*
X90551140Y-92037287D01*
X90563348Y-92040021D01*
X90575333Y-92043321D01*
X90587080Y-92047174D01*
X90598574Y-92051563D01*
X90609801Y-92056474D01*
X90620745Y-92061892D01*
X90631392Y-92067802D01*
X90641727Y-92074190D01*
X90651735Y-92081040D01*
X90661401Y-92088338D01*
X90670710Y-92096068D01*
X90679648Y-92104216D01*
X90688199Y-92112767D01*
X90696349Y-92121706D01*
X90704083Y-92131018D01*
X90711386Y-92140688D01*
X90718243Y-92150701D01*
X90724640Y-92161043D01*
X90730561Y-92171698D01*
X90735992Y-92182652D01*
X90740917Y-92193890D01*
X90745323Y-92205396D01*
X90749193Y-92217157D01*
X90752514Y-92229156D01*
X90755271Y-92241380D01*
X90757447Y-92253813D01*
X90759030Y-92266440D01*
X90760004Y-92279247D01*
X90760004Y-92438737D01*
X90283974Y-92438737D01*
X90283974Y-92503706D01*
X90284504Y-92514723D01*
X90286061Y-92525392D01*
X90288597Y-92535663D01*
X90292061Y-92545487D01*
X90296406Y-92554812D01*
X90301581Y-92563589D01*
X90307539Y-92571768D01*
X90314230Y-92579299D01*
X90321605Y-92586131D01*
X90329615Y-92592215D01*
X90338211Y-92597500D01*
X90347344Y-92601937D01*
X90356965Y-92605475D01*
X90367025Y-92608064D01*
X90377475Y-92609654D01*
X90388266Y-92610196D01*
X90500374Y-92610196D01*
X90511162Y-92609654D01*
X90521604Y-92608064D01*
X90531652Y-92605475D01*
X90541258Y-92601937D01*
X90550372Y-92597500D01*
X90558947Y-92592215D01*
X90566935Y-92586131D01*
X90574288Y-92579299D01*
X90580956Y-92571768D01*
X90586891Y-92563589D01*
X90592046Y-92554812D01*
X90596372Y-92545487D01*
X90599821Y-92535663D01*
X90602344Y-92525392D01*
X90603894Y-92514723D01*
X90604421Y-92503706D01*
X90604421Y-92481724D01*
X90760004Y-92481724D01*
X90760004Y-92503706D01*
X90759665Y-92517118D01*
X90758660Y-92530370D01*
X90757006Y-92543444D01*
X90754718Y-92556322D01*
X90751814Y-92568988D01*
X90748309Y-92581424D01*
X90744220Y-92593612D01*
X90739564Y-92605536D01*
X90734356Y-92617177D01*
X90728615Y-92628519D01*
X90722355Y-92639543D01*
X90715593Y-92650233D01*
X90708347Y-92660571D01*
X90700632Y-92670540D01*
X90692464Y-92680122D01*
X90683861Y-92689300D01*
X90674838Y-92698056D01*
X90665413Y-92706374D01*
X90655601Y-92714235D01*
X90645419Y-92721623D01*
X90634884Y-92728520D01*
X90624012Y-92734908D01*
X90612819Y-92740771D01*
X90601322Y-92746090D01*
X90589538Y-92750849D01*
X90577482Y-92755029D01*
X90565171Y-92758614D01*
X90552622Y-92761587D01*
X90539852Y-92763929D01*
X90526876Y-92765623D01*
X90513711Y-92766652D01*
X90500374Y-92767000D01*
X90388266Y-92767000D01*
X90375035Y-92766652D01*
X90361962Y-92765623D01*
X90349064Y-92763929D01*
X90336357Y-92761587D01*
X90323860Y-92758614D01*
X90311589Y-92755029D01*
X90299561Y-92750849D01*
X90287794Y-92746090D01*
X90276306Y-92740771D01*
X90265112Y-92734908D01*
X90254231Y-92728520D01*
X90243680Y-92721623D01*
X90233475Y-92714235D01*
X90223634Y-92706374D01*
X90214175Y-92698056D01*
X90205114Y-92689300D01*
X90196469Y-92680122D01*
X90188257Y-92670540D01*
X90180496Y-92660571D01*
X90173201Y-92650233D01*
X90166391Y-92639543D01*
X90160083Y-92628519D01*
X90154294Y-92617177D01*
X90149042Y-92605536D01*
X90144342Y-92593612D01*
X90140214Y-92581424D01*
X90136673Y-92568988D01*
X90133738Y-92556322D01*
X90131425Y-92543444D01*
X90129751Y-92530370D01*
X90128734Y-92517118D01*
X90128392Y-92503706D01*
X90128392Y-92311242D01*
X90283974Y-92311242D01*
X90604421Y-92311242D01*
X90604421Y-92293657D01*
X90603907Y-92282490D01*
X90602395Y-92271732D01*
X90599926Y-92261427D01*
X90596544Y-92251617D01*
X90592292Y-92242344D01*
X90587213Y-92233653D01*
X90581350Y-92225586D01*
X90574745Y-92218186D01*
X90567443Y-92211495D01*
X90559484Y-92205558D01*
X90550913Y-92200416D01*
X90541773Y-92196112D01*
X90532106Y-92192691D01*
X90521955Y-92190193D01*
X90511363Y-92188663D01*
X90500374Y-92188144D01*
X90388266Y-92188144D01*
X90377274Y-92188677D01*
X90366674Y-92190243D01*
X90356512Y-92192795D01*
X90346829Y-92196284D01*
X90337670Y-92200662D01*
X90329078Y-92205880D01*
X90321098Y-92211890D01*
X90313772Y-92218644D01*
X90307145Y-92226093D01*
X90301259Y-92234190D01*
X90296160Y-92242886D01*
X90291889Y-92252132D01*
X90288492Y-92261880D01*
X90286011Y-92272083D01*
X90284491Y-92282691D01*
X90283974Y-92293657D01*
X90283974Y-92311242D01*
X90128392Y-92311242D01*
X90128392Y-92293657D01*
X90128734Y-92280186D01*
X90129751Y-92266894D01*
X90131425Y-92253798D01*
X90133738Y-92240914D01*
X90136673Y-92228258D01*
X90140214Y-92215847D01*
X90144342Y-92203696D01*
X90149042Y-92191823D01*
X90154294Y-92180243D01*
X90160083Y-92168973D01*
X90166391Y-92158028D01*
X90173201Y-92147426D01*
X90180496Y-92137182D01*
X90188257Y-92127313D01*
X90196469Y-92117836D01*
X90205114Y-92108765D01*
X90214175Y-92100118D01*
X90223634Y-92091911D01*
X90233475Y-92084160D01*
X90243680Y-92076882D01*
X90254231Y-92070092D01*
X90265112Y-92063807D01*
X90276306Y-92058044D01*
X90287794Y-92052818D01*
X90299561Y-92048146D01*
X90311589Y-92044044D01*
X90323860Y-92040529D01*
X90336357Y-92037616D01*
X90349064Y-92035322D01*
X90361962Y-92033663D01*
X90375035Y-92032656D01*
X90388266Y-92032317D01*
X90500374Y-92032317D01*
X90513325Y-92032635D01*
G37*
G36*
X91123193Y-92104124D02*
G01*
X91229194Y-92032317D01*
X91339592Y-92032317D01*
X91352800Y-92032656D01*
X91365853Y-92033663D01*
X91378732Y-92035322D01*
X91391420Y-92037616D01*
X91403901Y-92040529D01*
X91416156Y-92044044D01*
X91428169Y-92048146D01*
X91439922Y-92052818D01*
X91451399Y-92058044D01*
X91462581Y-92063807D01*
X91473452Y-92070092D01*
X91483994Y-92076882D01*
X91494190Y-92084160D01*
X91504023Y-92091911D01*
X91513475Y-92100118D01*
X91522530Y-92108765D01*
X91531169Y-92117836D01*
X91539377Y-92127313D01*
X91547135Y-92137182D01*
X91554425Y-92147426D01*
X91561232Y-92158028D01*
X91567538Y-92168973D01*
X91573325Y-92180243D01*
X91578576Y-92191823D01*
X91583274Y-92203696D01*
X91587401Y-92215847D01*
X91590941Y-92228258D01*
X91593876Y-92240914D01*
X91596189Y-92253798D01*
X91597863Y-92266894D01*
X91598879Y-92280186D01*
X91599222Y-92293657D01*
X91599222Y-92505904D01*
X91598879Y-92519245D01*
X91597863Y-92532423D01*
X91596189Y-92545418D01*
X91593876Y-92558216D01*
X91590941Y-92570798D01*
X91587401Y-92583147D01*
X91583274Y-92595248D01*
X91578576Y-92607081D01*
X91573325Y-92618632D01*
X91567538Y-92629882D01*
X91561232Y-92640815D01*
X91554425Y-92651413D01*
X91547135Y-92661661D01*
X91539377Y-92671539D01*
X91531169Y-92681033D01*
X91522530Y-92690124D01*
X91513475Y-92698796D01*
X91504023Y-92707031D01*
X91494190Y-92714814D01*
X91483994Y-92722126D01*
X91473452Y-92728950D01*
X91462581Y-92735271D01*
X91451399Y-92741070D01*
X91439922Y-92746330D01*
X91428169Y-92751036D01*
X91416156Y-92755169D01*
X91403901Y-92758713D01*
X91391420Y-92761651D01*
X91378732Y-92763965D01*
X91365853Y-92765640D01*
X91352800Y-92766657D01*
X91339592Y-92767000D01*
X91229194Y-92767000D01*
X91123193Y-92695436D01*
X91123193Y-92767000D01*
X90967610Y-92767000D01*
X90967610Y-92506148D01*
X91123193Y-92506148D01*
X91277554Y-92611417D01*
X91339592Y-92611417D01*
X91350380Y-92610881D01*
X91360822Y-92609307D01*
X91370870Y-92606745D01*
X91380476Y-92603242D01*
X91389590Y-92598850D01*
X91398166Y-92593617D01*
X91406154Y-92587592D01*
X91413506Y-92580825D01*
X91420174Y-92573366D01*
X91426110Y-92565263D01*
X91431265Y-92556567D01*
X91435591Y-92547326D01*
X91439040Y-92537590D01*
X91441563Y-92527408D01*
X91443112Y-92516829D01*
X91443639Y-92505904D01*
X91443639Y-92293657D01*
X91443112Y-92282691D01*
X91441563Y-92272083D01*
X91439040Y-92261880D01*
X91435591Y-92252132D01*
X91431265Y-92242886D01*
X91426110Y-92234190D01*
X91420174Y-92226093D01*
X91413506Y-92218644D01*
X91406154Y-92211890D01*
X91398166Y-92205880D01*
X91389590Y-92200662D01*
X91380476Y-92196284D01*
X91370870Y-92192795D01*
X91360822Y-92190243D01*
X91350380Y-92188677D01*
X91339592Y-92188144D01*
X91277554Y-92188144D01*
X91123193Y-92293413D01*
X91123193Y-92506148D01*
X90967610Y-92506148D01*
X90967610Y-91750949D01*
X91123193Y-91750949D01*
X91123193Y-92104124D01*
G37*
D11*
%TO.C,SW12*%
X36143000Y-91911000D02*
X36143000Y-93411000D01*
X37393000Y-95911000D02*
X41893000Y-95911000D01*
X41893000Y-89411000D02*
X37393000Y-89411000D01*
X43143000Y-93411000D02*
X43143000Y-91911000D01*
%TO.C,SW46*%
X110965000Y-82344000D02*
X110965000Y-83844000D01*
X112215000Y-86344000D02*
X116715000Y-86344000D01*
X116715000Y-79844000D02*
X112215000Y-79844000D01*
X117965000Y-83844000D02*
X117965000Y-82344000D01*
%TO.C,SW13*%
X42108000Y-53953000D02*
X42108000Y-55453000D01*
X43358000Y-57953000D02*
X47858000Y-57953000D01*
X47858000Y-51453000D02*
X43358000Y-51453000D01*
X49108000Y-55453000D02*
X49108000Y-53953000D01*
%TO.C,SW33*%
X77796000Y-72944000D02*
X77796000Y-74444000D01*
X79046000Y-76944000D02*
X83546000Y-76944000D01*
X83546000Y-70444000D02*
X79046000Y-70444000D01*
X84796000Y-74444000D02*
X84796000Y-72944000D01*
%TO.C,SW31*%
X70631000Y-53954000D02*
X70631000Y-55454000D01*
X71881000Y-57954000D02*
X76381000Y-57954000D01*
X76381000Y-51454000D02*
X71881000Y-51454000D01*
X77631000Y-55454000D02*
X77631000Y-53954000D01*
%TO.C,SW39*%
X87299000Y-72961000D02*
X87299000Y-74461000D01*
X88549000Y-76961000D02*
X93049000Y-76961000D01*
X93049000Y-70461000D02*
X88549000Y-70461000D01*
X94299000Y-74461000D02*
X94299000Y-72961000D01*
%TO.C,SW18*%
X134808000Y-72938000D02*
X134808000Y-74438000D01*
X136058000Y-76938000D02*
X140558000Y-76938000D01*
X140558000Y-70438000D02*
X136058000Y-70438000D01*
X141808000Y-74438000D02*
X141808000Y-72938000D01*
%TO.C,SW59*%
X119260000Y-91911000D02*
X119260000Y-93411000D01*
X120510000Y-95911000D02*
X125010000Y-95911000D01*
X125010000Y-89411000D02*
X120510000Y-89411000D01*
X126260000Y-93411000D02*
X126260000Y-91911000D01*
%TO.C,SW74*%
X150270000Y-72920000D02*
X150270000Y-74420000D01*
X151520000Y-76920000D02*
X156020000Y-76920000D01*
X156020000Y-70420000D02*
X151520000Y-70420000D01*
X157270000Y-74420000D02*
X157270000Y-72920000D01*
%TO.C,SW20*%
X65877000Y-63387000D02*
X65877000Y-64887000D01*
X67127000Y-67387000D02*
X71627000Y-67387000D01*
X71627000Y-60887000D02*
X67127000Y-60887000D01*
X72877000Y-64887000D02*
X72877000Y-63387000D01*
%TO.C,SW44*%
X103887000Y-63375000D02*
X103887000Y-64875000D01*
X105137000Y-67375000D02*
X109637000Y-67375000D01*
X109637000Y-60875000D02*
X105137000Y-60875000D01*
X110887000Y-64875000D02*
X110887000Y-63375000D01*
%TO.C,SW23*%
X44447000Y-82382000D02*
X44447000Y-83882000D01*
X45697000Y-86382000D02*
X50197000Y-86382000D01*
X50197000Y-79882000D02*
X45697000Y-79882000D01*
X51447000Y-83882000D02*
X51447000Y-82382000D01*
%TO.C,SW24*%
X129968000Y-82340000D02*
X129968000Y-83840000D01*
X131218000Y-86340000D02*
X135718000Y-86340000D01*
X135718000Y-79840000D02*
X131218000Y-79840000D01*
X136968000Y-83840000D02*
X136968000Y-82340000D01*
%TO.C,SW14*%
X56375000Y-63392000D02*
X56375000Y-64892000D01*
X57625000Y-67392000D02*
X62125000Y-67392000D01*
X62125000Y-60892000D02*
X57625000Y-60892000D01*
X63375000Y-64892000D02*
X63375000Y-63392000D01*
%TO.C,SW38*%
X94384000Y-63377000D02*
X94384000Y-64877000D01*
X95634000Y-67377000D02*
X100134000Y-67377000D01*
X100134000Y-60877000D02*
X95634000Y-60877000D01*
X101384000Y-64877000D02*
X101384000Y-63377000D01*
%TO.C,SW56*%
X122891000Y-63367000D02*
X122891000Y-64867000D01*
X124141000Y-67367000D02*
X128641000Y-67367000D01*
X128641000Y-60867000D02*
X124141000Y-60867000D01*
X129891000Y-64867000D02*
X129891000Y-63367000D01*
%TO.C,SW61*%
X118126000Y-53940000D02*
X118126000Y-55440000D01*
X119376000Y-57940000D02*
X123876000Y-57940000D01*
X123876000Y-51440000D02*
X119376000Y-51440000D01*
X125126000Y-55440000D02*
X125126000Y-53940000D01*
%TO.C,SW17*%
X48218000Y-91907000D02*
X48218000Y-93407000D01*
X49468000Y-95907000D02*
X53968000Y-95907000D01*
X53968000Y-89407000D02*
X49468000Y-89407000D01*
X55218000Y-93407000D02*
X55218000Y-91907000D01*
%TO.C,SW10*%
X39777000Y-72892000D02*
X39777000Y-74392000D01*
X41027000Y-76892000D02*
X45527000Y-76892000D01*
X45527000Y-70392000D02*
X41027000Y-70392000D01*
X46777000Y-74392000D02*
X46777000Y-72892000D01*
%TO.C,SW72*%
X151647000Y-53930000D02*
X151647000Y-55430000D01*
X152897000Y-57930000D02*
X157397000Y-57930000D01*
X157397000Y-51430000D02*
X152897000Y-51430000D01*
X158647000Y-55430000D02*
X158647000Y-53930000D01*
%TO.C,SW26*%
X75380000Y-63384000D02*
X75380000Y-64884000D01*
X76630000Y-67384000D02*
X81130000Y-67384000D01*
X81130000Y-60884000D02*
X76630000Y-60884000D01*
X82380000Y-64884000D02*
X82380000Y-63384000D01*
%TO.C,SW4*%
X26707000Y-72900000D02*
X26707000Y-74400000D01*
X27957000Y-76900000D02*
X32457000Y-76900000D01*
X32457000Y-70400000D02*
X27957000Y-70400000D01*
X33707000Y-74400000D02*
X33707000Y-72900000D01*
%TO.C,SW32*%
X84883000Y-63379000D02*
X84883000Y-64879000D01*
X86133000Y-67379000D02*
X90633000Y-67379000D01*
X90633000Y-60879000D02*
X86133000Y-60879000D01*
X91883000Y-64879000D02*
X91883000Y-63379000D01*
%TO.C,SW7*%
X37363000Y-63409000D02*
X37363000Y-64909000D01*
X38613000Y-67409000D02*
X43113000Y-67409000D01*
X43113000Y-60909000D02*
X38613000Y-60909000D01*
X44363000Y-64909000D02*
X44363000Y-63409000D01*
%TO.C,SW5*%
X29252000Y-82384000D02*
X29252000Y-83884000D01*
X30502000Y-86384000D02*
X35002000Y-86384000D01*
X35002000Y-79884000D02*
X30502000Y-79884000D01*
X36252000Y-83884000D02*
X36252000Y-82384000D01*
%TO.C,SW16*%
X63455000Y-82371000D02*
X63455000Y-83871000D01*
X64705000Y-86371000D02*
X69205000Y-86371000D01*
X69205000Y-79871000D02*
X64705000Y-79871000D01*
X70455000Y-83871000D02*
X70455000Y-82371000D01*
%TO.C,SW41*%
X99448000Y-91912000D02*
X99448000Y-93412000D01*
X100698000Y-95912000D02*
X105198000Y-95912000D01*
X105198000Y-89412000D02*
X100698000Y-89412000D01*
X106448000Y-93412000D02*
X106448000Y-91912000D01*
%TO.C,SW40*%
X101460000Y-82352000D02*
X101460000Y-83852000D01*
X102710000Y-86352000D02*
X107210000Y-86352000D01*
X107210000Y-79852000D02*
X102710000Y-79852000D01*
X108460000Y-83852000D02*
X108460000Y-82352000D01*
%TO.C,SW3*%
X25389000Y-63412000D02*
X25389000Y-64912000D01*
X26639000Y-67412000D02*
X31139000Y-67412000D01*
X31139000Y-60912000D02*
X26639000Y-60912000D01*
X32389000Y-64912000D02*
X32389000Y-63412000D01*
%TO.C,SW67*%
X137136000Y-53929000D02*
X137136000Y-55429000D01*
X138386000Y-57929000D02*
X142886000Y-57929000D01*
X142886000Y-51429000D02*
X138386000Y-51429000D01*
X144136000Y-55429000D02*
X144136000Y-53929000D01*
%TO.C,SW66*%
X142987000Y-91910000D02*
X142987000Y-93410000D01*
X144237000Y-95910000D02*
X148737000Y-95910000D01*
X148737000Y-89410000D02*
X144237000Y-89410000D01*
X149987000Y-93410000D02*
X149987000Y-91910000D01*
%TO.C,SW8*%
X32601000Y-53908000D02*
X32601000Y-55408000D01*
X33851000Y-57908000D02*
X38351000Y-57908000D01*
X38351000Y-51408000D02*
X33851000Y-51408000D01*
X39601000Y-55408000D02*
X39601000Y-53908000D01*
%TO.C,SW27*%
X68292000Y-72934000D02*
X68292000Y-74434000D01*
X69542000Y-76934000D02*
X74042000Y-76934000D01*
X74042000Y-70434000D02*
X69542000Y-70434000D01*
X75292000Y-74434000D02*
X75292000Y-72934000D01*
%TO.C,SW62*%
X132395000Y-63360000D02*
X132395000Y-64860000D01*
X133645000Y-67360000D02*
X138145000Y-67360000D01*
X138145000Y-60860000D02*
X133645000Y-60860000D01*
X139395000Y-64860000D02*
X139395000Y-63360000D01*
%TO.C,SW57*%
X115803000Y-72947000D02*
X115803000Y-74447000D01*
X117053000Y-76947000D02*
X121553000Y-76947000D01*
X121553000Y-70447000D02*
X117053000Y-70447000D01*
X122803000Y-74447000D02*
X122803000Y-72947000D01*
%TO.C,SW21*%
X58790000Y-72920000D02*
X58790000Y-74420000D01*
X60040000Y-76920000D02*
X64540000Y-76920000D01*
X64540000Y-70420000D02*
X60040000Y-70420000D01*
X65790000Y-74420000D02*
X65790000Y-72920000D01*
%TO.C,SW15*%
X49288000Y-72909000D02*
X49288000Y-74409000D01*
X50538000Y-76909000D02*
X55038000Y-76909000D01*
X55038000Y-70409000D02*
X50538000Y-70409000D01*
X56288000Y-74409000D02*
X56288000Y-72909000D01*
%TO.C,SW19*%
X51624000Y-53941000D02*
X51624000Y-55441000D01*
X52874000Y-57941000D02*
X57374000Y-57941000D01*
X57374000Y-51441000D02*
X52874000Y-51441000D01*
X58624000Y-55441000D02*
X58624000Y-53941000D01*
%TO.C,SW34*%
X91958000Y-82358000D02*
X91958000Y-83858000D01*
X93208000Y-86358000D02*
X97708000Y-86358000D01*
X97708000Y-79858000D02*
X93208000Y-79858000D01*
X98958000Y-83858000D02*
X98958000Y-82358000D01*
%TO.C,SW22*%
X72955000Y-82369000D02*
X72955000Y-83869000D01*
X74205000Y-86369000D02*
X78705000Y-86369000D01*
X78705000Y-79869000D02*
X74205000Y-79869000D01*
X79955000Y-83869000D02*
X79955000Y-82369000D01*
%TO.C,SW6*%
X24362000Y-91882000D02*
X24362000Y-93382000D01*
X25612000Y-95882000D02*
X30112000Y-95882000D01*
X30112000Y-89382000D02*
X25612000Y-89382000D01*
X31362000Y-93382000D02*
X31362000Y-91882000D01*
%TO.C,SW50*%
X113391000Y-63370000D02*
X113391000Y-64870000D01*
X114641000Y-67370000D02*
X119141000Y-67370000D01*
X119141000Y-60870000D02*
X114641000Y-60870000D01*
X120391000Y-64870000D02*
X120391000Y-63370000D01*
%TO.C,SW29*%
X127629000Y-53932000D02*
X127629000Y-55432000D01*
X128879000Y-57932000D02*
X133379000Y-57932000D01*
X133379000Y-51432000D02*
X128879000Y-51432000D01*
X134629000Y-55432000D02*
X134629000Y-53932000D01*
%TO.C,SW25*%
X61118000Y-53952000D02*
X61118000Y-55452000D01*
X62368000Y-57952000D02*
X66868000Y-57952000D01*
X66868000Y-51452000D02*
X62368000Y-51452000D01*
X68118000Y-55452000D02*
X68118000Y-53952000D01*
%TO.C,SW51*%
X106299000Y-72953000D02*
X106299000Y-74453000D01*
X107549000Y-76953000D02*
X112049000Y-76953000D01*
X112049000Y-70453000D02*
X107549000Y-70453000D01*
X113299000Y-74453000D02*
X113299000Y-72953000D01*
%TO.C,SW52*%
X120467000Y-82335000D02*
X120467000Y-83835000D01*
X121717000Y-86335000D02*
X126217000Y-86335000D01*
X126217000Y-79835000D02*
X121717000Y-79835000D01*
X127467000Y-83835000D02*
X127467000Y-82335000D01*
%TO.C,SW9*%
X46868000Y-63400000D02*
X46868000Y-64900000D01*
X48118000Y-67400000D02*
X52618000Y-67400000D01*
X52618000Y-60900000D02*
X48118000Y-60900000D01*
X53868000Y-64900000D02*
X53868000Y-63400000D01*
%TO.C,SW30*%
X73853000Y-93387000D02*
X73853000Y-91887000D01*
X72603000Y-89387000D02*
X68103000Y-89387000D01*
X68103000Y-95887000D02*
X72603000Y-95887000D01*
X66853000Y-91887000D02*
X66853000Y-93387000D01*
%TO.C,J2*%
X122891000Y-58105000D02*
X74571000Y-58105000D01*
X122891000Y-58105000D02*
X122891000Y-60765000D01*
X74571000Y-58105000D02*
X74571000Y-60765000D01*
X125491000Y-59435000D02*
X125491000Y-60765000D01*
X125491000Y-60765000D02*
X124161000Y-60765000D01*
X122891000Y-60765000D02*
X74571000Y-60765000D01*
%TO.C,SW35*%
X141900000Y-63351000D02*
X141900000Y-64851000D01*
X143150000Y-67351000D02*
X147650000Y-67351000D01*
X147650000Y-60851000D02*
X143150000Y-60851000D01*
X148900000Y-64851000D02*
X148900000Y-63351000D01*
%TO.C,SW1*%
X154916000Y-91896000D02*
X154916000Y-93396000D01*
X156166000Y-95896000D02*
X160666000Y-95896000D01*
X160666000Y-89396000D02*
X156166000Y-89396000D01*
X161916000Y-93396000D02*
X161916000Y-91896000D01*
%TO.C,SW2*%
X23114000Y-53905000D02*
X23114000Y-55405000D01*
X24364000Y-57905000D02*
X28864000Y-57905000D01*
X28864000Y-51405000D02*
X24364000Y-51405000D01*
X30114000Y-55405000D02*
X30114000Y-53905000D01*
%TO.C,SW11*%
X53948000Y-82376000D02*
X53948000Y-83876000D01*
X55198000Y-86376000D02*
X59698000Y-86376000D01*
X59698000Y-79876000D02*
X55198000Y-79876000D01*
X60948000Y-83876000D02*
X60948000Y-82376000D01*
%TO.C,SW63*%
X125305000Y-72942000D02*
X125305000Y-74442000D01*
X126555000Y-76942000D02*
X131055000Y-76942000D01*
X131055000Y-70442000D02*
X126555000Y-70442000D01*
X132305000Y-74442000D02*
X132305000Y-72942000D01*
%TO.C,SW43*%
X89629000Y-53960000D02*
X89629000Y-55460000D01*
X90879000Y-57960000D02*
X95379000Y-57960000D01*
X95379000Y-51460000D02*
X90879000Y-51460000D01*
X96629000Y-55460000D02*
X96629000Y-53960000D01*
%TO.C,SW73*%
X153829000Y-63346000D02*
X153829000Y-64846000D01*
X155079000Y-67346000D02*
X159579000Y-67346000D01*
X159579000Y-60846000D02*
X155079000Y-60846000D01*
X160829000Y-64846000D02*
X160829000Y-63346000D01*
%TO.C,SW58*%
X148202000Y-82332000D02*
X148202000Y-83832000D01*
X149452000Y-86332000D02*
X153952000Y-86332000D01*
X153952000Y-79832000D02*
X149452000Y-79832000D01*
X155202000Y-83832000D02*
X155202000Y-82332000D01*
%TO.C,SW65*%
X130994000Y-91908000D02*
X130994000Y-93408000D01*
X132244000Y-95908000D02*
X136744000Y-95908000D01*
X136744000Y-89408000D02*
X132244000Y-89408000D01*
X137994000Y-93408000D02*
X137994000Y-91908000D01*
%TO.C,SW55*%
X108620000Y-53948000D02*
X108620000Y-55448000D01*
X109870000Y-57948000D02*
X114370000Y-57948000D01*
X114370000Y-51448000D02*
X109870000Y-51448000D01*
X115620000Y-55448000D02*
X115620000Y-53948000D01*
%TO.C,SW45*%
X96799000Y-72953000D02*
X96799000Y-74453000D01*
X98049000Y-76953000D02*
X102549000Y-76953000D01*
X102549000Y-70453000D02*
X98049000Y-70453000D01*
X103799000Y-74453000D02*
X103799000Y-72953000D01*
%TO.C,SW49*%
X99128000Y-53962000D02*
X99128000Y-55462000D01*
X100378000Y-57962000D02*
X104878000Y-57962000D01*
X104878000Y-51462000D02*
X100378000Y-51462000D01*
X106128000Y-55462000D02*
X106128000Y-53962000D01*
%TO.C,SW28*%
X82456000Y-82369000D02*
X82456000Y-83869000D01*
X83706000Y-86369000D02*
X88206000Y-86369000D01*
X88206000Y-79869000D02*
X83706000Y-79869000D01*
X89456000Y-83869000D02*
X89456000Y-82369000D01*
%TO.C,SW37*%
X80121000Y-53952000D02*
X80121000Y-55452000D01*
X81371000Y-57952000D02*
X85871000Y-57952000D01*
X85871000Y-51452000D02*
X81371000Y-51452000D01*
X87121000Y-55452000D02*
X87121000Y-53952000D01*
%TD*%
M02*
