%TF.GenerationSoftware,KiCad,Pcbnew,7.0.9*%
%TF.CreationDate,2024-12-03T23:44:49-05:00*%
%TF.ProjectId,tiny-keeb,74696e79-2d6b-4656-9562-2e6b69636164,rev?*%
%TF.SameCoordinates,Original*%
%TF.FileFunction,Soldermask,Top*%
%TF.FilePolarity,Negative*%
%FSLAX46Y46*%
G04 Gerber Fmt 4.6, Leading zero omitted, Abs format (unit mm)*
G04 Created by KiCad (PCBNEW 7.0.9) date 2024-12-03 23:44:49*
%MOMM*%
%LPD*%
G01*
G04 APERTURE LIST*
%ADD10C,2.000000*%
%ADD11R,1.700000X1.700000*%
%ADD12O,1.700000X1.700000*%
G04 APERTURE END LIST*
D10*
%TO.C,SW66*%
X149737000Y-94910000D03*
X143237000Y-94910000D03*
X149737000Y-90410000D03*
X143237000Y-90410000D03*
%TD*%
%TO.C,SW67*%
X143886000Y-56929000D03*
X137386000Y-56929000D03*
X143886000Y-52429000D03*
X137386000Y-52429000D03*
%TD*%
%TO.C,SW61*%
X124876000Y-56940000D03*
X118376000Y-56940000D03*
X124876000Y-52440000D03*
X118376000Y-52440000D03*
%TD*%
%TO.C,SW19*%
X58374000Y-56941000D03*
X51874000Y-56941000D03*
X58374000Y-52441000D03*
X51874000Y-52441000D03*
%TD*%
%TO.C,SW17*%
X54968000Y-94907000D03*
X48468000Y-94907000D03*
X54968000Y-90407000D03*
X48468000Y-90407000D03*
%TD*%
%TO.C,SW41*%
X90600000Y-94909000D03*
X84100000Y-94909000D03*
X90600000Y-90409000D03*
X84100000Y-90409000D03*
%TD*%
%TO.C,SW12*%
X42893000Y-94911000D03*
X36393000Y-94911000D03*
X42893000Y-90411000D03*
X36393000Y-90411000D03*
%TD*%
%TO.C,SW1*%
X161666000Y-94896000D03*
X155166000Y-94896000D03*
X161666000Y-90396000D03*
X155166000Y-90396000D03*
%TD*%
%TO.C,SW6*%
X31112000Y-94882000D03*
X24612000Y-94882000D03*
X31112000Y-90382000D03*
X24612000Y-90382000D03*
%TD*%
%TO.C,SW59*%
X126010000Y-94911000D03*
X119510000Y-94911000D03*
X126010000Y-90411000D03*
X119510000Y-90411000D03*
%TD*%
%TO.C,SW65*%
X137744000Y-94908000D03*
X131244000Y-94908000D03*
X137744000Y-90408000D03*
X131244000Y-90408000D03*
%TD*%
%TO.C,SW38*%
X94634000Y-61877000D03*
X101134000Y-61877000D03*
X94634000Y-66377000D03*
X101134000Y-66377000D03*
%TD*%
%TO.C,SW50*%
X113641000Y-61870000D03*
X120141000Y-61870000D03*
X113641000Y-66370000D03*
X120141000Y-66370000D03*
%TD*%
%TO.C,SW73*%
X154079000Y-61846000D03*
X160579000Y-61846000D03*
X154079000Y-66346000D03*
X160579000Y-66346000D03*
%TD*%
%TO.C,SW32*%
X85133000Y-61879000D03*
X91633000Y-61879000D03*
X85133000Y-66379000D03*
X91633000Y-66379000D03*
%TD*%
%TO.C,SW14*%
X56625000Y-61892000D03*
X63125000Y-61892000D03*
X56625000Y-66392000D03*
X63125000Y-66392000D03*
%TD*%
%TO.C,SW20*%
X66127000Y-61887000D03*
X72627000Y-61887000D03*
X66127000Y-66387000D03*
X72627000Y-66387000D03*
%TD*%
%TO.C,SW35*%
X142150000Y-61851000D03*
X148650000Y-61851000D03*
X142150000Y-66351000D03*
X148650000Y-66351000D03*
%TD*%
%TO.C,SW7*%
X37613000Y-61909000D03*
X44113000Y-61909000D03*
X37613000Y-66409000D03*
X44113000Y-66409000D03*
%TD*%
%TO.C,SW3*%
X25639000Y-61912000D03*
X32139000Y-61912000D03*
X25639000Y-66412000D03*
X32139000Y-66412000D03*
%TD*%
%TO.C,SW56*%
X123141000Y-61867000D03*
X129641000Y-61867000D03*
X123141000Y-66367000D03*
X129641000Y-66367000D03*
%TD*%
%TO.C,SW26*%
X75630000Y-61884000D03*
X82130000Y-61884000D03*
X75630000Y-66384000D03*
X82130000Y-66384000D03*
%TD*%
%TO.C,SW62*%
X132645000Y-61860000D03*
X139145000Y-61860000D03*
X132645000Y-66360000D03*
X139145000Y-66360000D03*
%TD*%
%TO.C,SW9*%
X47118000Y-61900000D03*
X53618000Y-61900000D03*
X47118000Y-66400000D03*
X53618000Y-66400000D03*
%TD*%
%TO.C,SW44*%
X104137000Y-61875000D03*
X110637000Y-61875000D03*
X104137000Y-66375000D03*
X110637000Y-66375000D03*
%TD*%
%TO.C,SW43*%
X96379000Y-56960000D03*
X89879000Y-56960000D03*
X96379000Y-52460000D03*
X89879000Y-52460000D03*
%TD*%
%TO.C,SW31*%
X77381000Y-56954000D03*
X70881000Y-56954000D03*
X77381000Y-52454000D03*
X70881000Y-52454000D03*
%TD*%
%TO.C,SW25*%
X67868000Y-56952000D03*
X61368000Y-56952000D03*
X67868000Y-52452000D03*
X61368000Y-52452000D03*
%TD*%
%TO.C,SW13*%
X48858000Y-56953000D03*
X42358000Y-56953000D03*
X48858000Y-52453000D03*
X42358000Y-52453000D03*
%TD*%
%TO.C,SW49*%
X105878000Y-56962000D03*
X99378000Y-56962000D03*
X105878000Y-52462000D03*
X99378000Y-52462000D03*
%TD*%
%TO.C,SW55*%
X115370000Y-56948000D03*
X108870000Y-56948000D03*
X115370000Y-52448000D03*
X108870000Y-52448000D03*
%TD*%
%TO.C,SW37*%
X86871000Y-56952000D03*
X80371000Y-56952000D03*
X86871000Y-52452000D03*
X80371000Y-52452000D03*
%TD*%
%TO.C,SW72*%
X158397000Y-56930000D03*
X151897000Y-56930000D03*
X158397000Y-52430000D03*
X151897000Y-52430000D03*
%TD*%
%TO.C,SW2*%
X29864000Y-56905000D03*
X23364000Y-56905000D03*
X29864000Y-52405000D03*
X23364000Y-52405000D03*
%TD*%
%TO.C,SW29*%
X134379000Y-56932000D03*
X127879000Y-56932000D03*
X134379000Y-52432000D03*
X127879000Y-52432000D03*
%TD*%
%TO.C,SW8*%
X39351000Y-56908000D03*
X32851000Y-56908000D03*
X39351000Y-52408000D03*
X32851000Y-52408000D03*
%TD*%
%TO.C,SW39*%
X94049000Y-75961000D03*
X87549000Y-75961000D03*
X94049000Y-71461000D03*
X87549000Y-71461000D03*
%TD*%
%TO.C,SW45*%
X103549000Y-75953000D03*
X97049000Y-75953000D03*
X103549000Y-71453000D03*
X97049000Y-71453000D03*
%TD*%
%TO.C,SW33*%
X84546000Y-75944000D03*
X78046000Y-75944000D03*
X84546000Y-71444000D03*
X78046000Y-71444000D03*
%TD*%
%TO.C,SW27*%
X75042000Y-75934000D03*
X68542000Y-75934000D03*
X75042000Y-71434000D03*
X68542000Y-71434000D03*
%TD*%
%TO.C,SW51*%
X113049000Y-75953000D03*
X106549000Y-75953000D03*
X113049000Y-71453000D03*
X106549000Y-71453000D03*
%TD*%
%TO.C,SW15*%
X56038000Y-75909000D03*
X49538000Y-75909000D03*
X56038000Y-71409000D03*
X49538000Y-71409000D03*
%TD*%
%TO.C,SW63*%
X132055000Y-75942000D03*
X125555000Y-75942000D03*
X132055000Y-71442000D03*
X125555000Y-71442000D03*
%TD*%
%TO.C,SW4*%
X33457000Y-75900000D03*
X26957000Y-75900000D03*
X33457000Y-71400000D03*
X26957000Y-71400000D03*
%TD*%
%TO.C,SW18*%
X141558000Y-75938000D03*
X135058000Y-75938000D03*
X141558000Y-71438000D03*
X135058000Y-71438000D03*
%TD*%
%TO.C,SW74*%
X157020000Y-75920000D03*
X150520000Y-75920000D03*
X157020000Y-71420000D03*
X150520000Y-71420000D03*
%TD*%
%TO.C,SW21*%
X65540000Y-75920000D03*
X59040000Y-75920000D03*
X65540000Y-71420000D03*
X59040000Y-71420000D03*
%TD*%
%TO.C,SW10*%
X46527000Y-75892000D03*
X40027000Y-75892000D03*
X46527000Y-71392000D03*
X40027000Y-71392000D03*
%TD*%
%TO.C,SW57*%
X122553000Y-75947000D03*
X116053000Y-75947000D03*
X122553000Y-71447000D03*
X116053000Y-71447000D03*
%TD*%
%TO.C,SW40*%
X108210000Y-85352000D03*
X101710000Y-85352000D03*
X108210000Y-80852000D03*
X101710000Y-80852000D03*
%TD*%
%TO.C,SW24*%
X136718000Y-85340000D03*
X130218000Y-85340000D03*
X136718000Y-80840000D03*
X130218000Y-80840000D03*
%TD*%
%TO.C,SW58*%
X154952000Y-85332000D03*
X148452000Y-85332000D03*
X154952000Y-80832000D03*
X148452000Y-80832000D03*
%TD*%
%TO.C,SW16*%
X70205000Y-85371000D03*
X63705000Y-85371000D03*
X70205000Y-80871000D03*
X63705000Y-80871000D03*
%TD*%
%TO.C,SW22*%
X79705000Y-85369000D03*
X73205000Y-85369000D03*
X79705000Y-80869000D03*
X73205000Y-80869000D03*
%TD*%
%TO.C,SW28*%
X89206000Y-85369000D03*
X82706000Y-85369000D03*
X89206000Y-80869000D03*
X82706000Y-80869000D03*
%TD*%
%TO.C,SW23*%
X51197000Y-85382000D03*
X44697000Y-85382000D03*
X51197000Y-80882000D03*
X44697000Y-80882000D03*
%TD*%
%TO.C,SW52*%
X127217000Y-85335000D03*
X120717000Y-85335000D03*
X127217000Y-80835000D03*
X120717000Y-80835000D03*
%TD*%
%TO.C,SW34*%
X98708000Y-85358000D03*
X92208000Y-85358000D03*
X98708000Y-80858000D03*
X92208000Y-80858000D03*
%TD*%
%TO.C,SW5*%
X36002000Y-85384000D03*
X29502000Y-85384000D03*
X36002000Y-80884000D03*
X29502000Y-80884000D03*
%TD*%
%TO.C,SW46*%
X117715000Y-85344000D03*
X111215000Y-85344000D03*
X117715000Y-80844000D03*
X111215000Y-80844000D03*
%TD*%
%TO.C,SW11*%
X60698000Y-85376000D03*
X54198000Y-85376000D03*
X60698000Y-80876000D03*
X54198000Y-80876000D03*
%TD*%
D11*
%TO.C,J2*%
X124161000Y-59435000D03*
D12*
X121621000Y-59435000D03*
X119081000Y-59435000D03*
X116541000Y-59435000D03*
X114001000Y-59435000D03*
X111461000Y-59435000D03*
X108921000Y-59435000D03*
X106381000Y-59435000D03*
X103841000Y-59435000D03*
X101301000Y-59435000D03*
X98761000Y-59435000D03*
X96221000Y-59435000D03*
X93681000Y-59435000D03*
X91141000Y-59435000D03*
X88601000Y-59435000D03*
X86061000Y-59435000D03*
X83521000Y-59435000D03*
X80981000Y-59435000D03*
X78441000Y-59435000D03*
X75901000Y-59435000D03*
%TD*%
M02*
