%TF.GenerationSoftware,KiCad,Pcbnew,7.0.9*%
%TF.CreationDate,2024-12-03T23:44:49-05:00*%
%TF.ProjectId,tiny-keeb,74696e79-2d6b-4656-9562-2e6b69636164,rev?*%
%TF.SameCoordinates,Original*%
%TF.FileFunction,Soldermask,Bot*%
%TF.FilePolarity,Negative*%
%FSLAX46Y46*%
G04 Gerber Fmt 4.6, Leading zero omitted, Abs format (unit mm)*
G04 Created by KiCad (PCBNEW 7.0.9) date 2024-12-03 23:44:49*
%MOMM*%
%LPD*%
G01*
G04 APERTURE LIST*
G04 Aperture macros list*
%AMRoundRect*
0 Rectangle with rounded corners*
0 $1 Rounding radius*
0 $2 $3 $4 $5 $6 $7 $8 $9 X,Y pos of 4 corners*
0 Add a 4 corners polygon primitive as box body*
4,1,4,$2,$3,$4,$5,$6,$7,$8,$9,$2,$3,0*
0 Add four circle primitives for the rounded corners*
1,1,$1+$1,$2,$3*
1,1,$1+$1,$4,$5*
1,1,$1+$1,$6,$7*
1,1,$1+$1,$8,$9*
0 Add four rect primitives between the rounded corners*
20,1,$1+$1,$2,$3,$4,$5,0*
20,1,$1+$1,$4,$5,$6,$7,0*
20,1,$1+$1,$6,$7,$8,$9,0*
20,1,$1+$1,$8,$9,$2,$3,0*%
G04 Aperture macros list end*
%ADD10C,2.000000*%
%ADD11R,1.700000X1.700000*%
%ADD12O,1.700000X1.700000*%
%ADD13RoundRect,0.225000X-0.375000X0.225000X-0.375000X-0.225000X0.375000X-0.225000X0.375000X0.225000X0*%
G04 APERTURE END LIST*
D10*
%TO.C,SW66*%
X149737000Y-94910000D03*
X143237000Y-94910000D03*
X149737000Y-90410000D03*
X143237000Y-90410000D03*
%TD*%
%TO.C,SW67*%
X143886000Y-56929000D03*
X137386000Y-56929000D03*
X143886000Y-52429000D03*
X137386000Y-52429000D03*
%TD*%
%TO.C,SW61*%
X124876000Y-56940000D03*
X118376000Y-56940000D03*
X124876000Y-52440000D03*
X118376000Y-52440000D03*
%TD*%
%TO.C,SW19*%
X58374000Y-56941000D03*
X51874000Y-56941000D03*
X58374000Y-52441000D03*
X51874000Y-52441000D03*
%TD*%
%TO.C,SW17*%
X54968000Y-94907000D03*
X48468000Y-94907000D03*
X54968000Y-90407000D03*
X48468000Y-90407000D03*
%TD*%
%TO.C,SW41*%
X90600000Y-94909000D03*
X84100000Y-94909000D03*
X90600000Y-90409000D03*
X84100000Y-90409000D03*
%TD*%
%TO.C,SW12*%
X42893000Y-94911000D03*
X36393000Y-94911000D03*
X42893000Y-90411000D03*
X36393000Y-90411000D03*
%TD*%
%TO.C,SW1*%
X161666000Y-94896000D03*
X155166000Y-94896000D03*
X161666000Y-90396000D03*
X155166000Y-90396000D03*
%TD*%
%TO.C,SW6*%
X31112000Y-94882000D03*
X24612000Y-94882000D03*
X31112000Y-90382000D03*
X24612000Y-90382000D03*
%TD*%
%TO.C,SW59*%
X126010000Y-94911000D03*
X119510000Y-94911000D03*
X126010000Y-90411000D03*
X119510000Y-90411000D03*
%TD*%
%TO.C,SW65*%
X137744000Y-94908000D03*
X131244000Y-94908000D03*
X137744000Y-90408000D03*
X131244000Y-90408000D03*
%TD*%
%TO.C,SW38*%
X94634000Y-61877000D03*
X101134000Y-61877000D03*
X94634000Y-66377000D03*
X101134000Y-66377000D03*
%TD*%
%TO.C,SW50*%
X113641000Y-61870000D03*
X120141000Y-61870000D03*
X113641000Y-66370000D03*
X120141000Y-66370000D03*
%TD*%
%TO.C,SW73*%
X154079000Y-61846000D03*
X160579000Y-61846000D03*
X154079000Y-66346000D03*
X160579000Y-66346000D03*
%TD*%
%TO.C,SW32*%
X85133000Y-61879000D03*
X91633000Y-61879000D03*
X85133000Y-66379000D03*
X91633000Y-66379000D03*
%TD*%
%TO.C,SW14*%
X56625000Y-61892000D03*
X63125000Y-61892000D03*
X56625000Y-66392000D03*
X63125000Y-66392000D03*
%TD*%
%TO.C,SW20*%
X66127000Y-61887000D03*
X72627000Y-61887000D03*
X66127000Y-66387000D03*
X72627000Y-66387000D03*
%TD*%
%TO.C,SW35*%
X142150000Y-61851000D03*
X148650000Y-61851000D03*
X142150000Y-66351000D03*
X148650000Y-66351000D03*
%TD*%
%TO.C,SW7*%
X37613000Y-61909000D03*
X44113000Y-61909000D03*
X37613000Y-66409000D03*
X44113000Y-66409000D03*
%TD*%
%TO.C,SW3*%
X25639000Y-61912000D03*
X32139000Y-61912000D03*
X25639000Y-66412000D03*
X32139000Y-66412000D03*
%TD*%
%TO.C,SW56*%
X123141000Y-61867000D03*
X129641000Y-61867000D03*
X123141000Y-66367000D03*
X129641000Y-66367000D03*
%TD*%
%TO.C,SW26*%
X75630000Y-61884000D03*
X82130000Y-61884000D03*
X75630000Y-66384000D03*
X82130000Y-66384000D03*
%TD*%
%TO.C,SW62*%
X132645000Y-61860000D03*
X139145000Y-61860000D03*
X132645000Y-66360000D03*
X139145000Y-66360000D03*
%TD*%
%TO.C,SW9*%
X47118000Y-61900000D03*
X53618000Y-61900000D03*
X47118000Y-66400000D03*
X53618000Y-66400000D03*
%TD*%
%TO.C,SW44*%
X104137000Y-61875000D03*
X110637000Y-61875000D03*
X104137000Y-66375000D03*
X110637000Y-66375000D03*
%TD*%
%TO.C,SW43*%
X96379000Y-56960000D03*
X89879000Y-56960000D03*
X96379000Y-52460000D03*
X89879000Y-52460000D03*
%TD*%
%TO.C,SW31*%
X77381000Y-56954000D03*
X70881000Y-56954000D03*
X77381000Y-52454000D03*
X70881000Y-52454000D03*
%TD*%
%TO.C,SW25*%
X67868000Y-56952000D03*
X61368000Y-56952000D03*
X67868000Y-52452000D03*
X61368000Y-52452000D03*
%TD*%
%TO.C,SW13*%
X48858000Y-56953000D03*
X42358000Y-56953000D03*
X48858000Y-52453000D03*
X42358000Y-52453000D03*
%TD*%
%TO.C,SW49*%
X105878000Y-56962000D03*
X99378000Y-56962000D03*
X105878000Y-52462000D03*
X99378000Y-52462000D03*
%TD*%
%TO.C,SW55*%
X115370000Y-56948000D03*
X108870000Y-56948000D03*
X115370000Y-52448000D03*
X108870000Y-52448000D03*
%TD*%
%TO.C,SW37*%
X86871000Y-56952000D03*
X80371000Y-56952000D03*
X86871000Y-52452000D03*
X80371000Y-52452000D03*
%TD*%
%TO.C,SW72*%
X158397000Y-56930000D03*
X151897000Y-56930000D03*
X158397000Y-52430000D03*
X151897000Y-52430000D03*
%TD*%
%TO.C,SW2*%
X29864000Y-56905000D03*
X23364000Y-56905000D03*
X29864000Y-52405000D03*
X23364000Y-52405000D03*
%TD*%
%TO.C,SW29*%
X134379000Y-56932000D03*
X127879000Y-56932000D03*
X134379000Y-52432000D03*
X127879000Y-52432000D03*
%TD*%
%TO.C,SW8*%
X39351000Y-56908000D03*
X32851000Y-56908000D03*
X39351000Y-52408000D03*
X32851000Y-52408000D03*
%TD*%
%TO.C,SW39*%
X94049000Y-75961000D03*
X87549000Y-75961000D03*
X94049000Y-71461000D03*
X87549000Y-71461000D03*
%TD*%
%TO.C,SW45*%
X103549000Y-75953000D03*
X97049000Y-75953000D03*
X103549000Y-71453000D03*
X97049000Y-71453000D03*
%TD*%
%TO.C,SW33*%
X84546000Y-75944000D03*
X78046000Y-75944000D03*
X84546000Y-71444000D03*
X78046000Y-71444000D03*
%TD*%
%TO.C,SW27*%
X75042000Y-75934000D03*
X68542000Y-75934000D03*
X75042000Y-71434000D03*
X68542000Y-71434000D03*
%TD*%
%TO.C,SW51*%
X113049000Y-75953000D03*
X106549000Y-75953000D03*
X113049000Y-71453000D03*
X106549000Y-71453000D03*
%TD*%
%TO.C,SW15*%
X56038000Y-75909000D03*
X49538000Y-75909000D03*
X56038000Y-71409000D03*
X49538000Y-71409000D03*
%TD*%
%TO.C,SW63*%
X132055000Y-75942000D03*
X125555000Y-75942000D03*
X132055000Y-71442000D03*
X125555000Y-71442000D03*
%TD*%
%TO.C,SW4*%
X33457000Y-75900000D03*
X26957000Y-75900000D03*
X33457000Y-71400000D03*
X26957000Y-71400000D03*
%TD*%
%TO.C,SW18*%
X141558000Y-75938000D03*
X135058000Y-75938000D03*
X141558000Y-71438000D03*
X135058000Y-71438000D03*
%TD*%
%TO.C,SW74*%
X157020000Y-75920000D03*
X150520000Y-75920000D03*
X157020000Y-71420000D03*
X150520000Y-71420000D03*
%TD*%
%TO.C,SW21*%
X65540000Y-75920000D03*
X59040000Y-75920000D03*
X65540000Y-71420000D03*
X59040000Y-71420000D03*
%TD*%
%TO.C,SW10*%
X46527000Y-75892000D03*
X40027000Y-75892000D03*
X46527000Y-71392000D03*
X40027000Y-71392000D03*
%TD*%
%TO.C,SW57*%
X122553000Y-75947000D03*
X116053000Y-75947000D03*
X122553000Y-71447000D03*
X116053000Y-71447000D03*
%TD*%
%TO.C,SW40*%
X108210000Y-85352000D03*
X101710000Y-85352000D03*
X108210000Y-80852000D03*
X101710000Y-80852000D03*
%TD*%
%TO.C,SW24*%
X136718000Y-85340000D03*
X130218000Y-85340000D03*
X136718000Y-80840000D03*
X130218000Y-80840000D03*
%TD*%
%TO.C,SW58*%
X154952000Y-85332000D03*
X148452000Y-85332000D03*
X154952000Y-80832000D03*
X148452000Y-80832000D03*
%TD*%
%TO.C,SW16*%
X70205000Y-85371000D03*
X63705000Y-85371000D03*
X70205000Y-80871000D03*
X63705000Y-80871000D03*
%TD*%
%TO.C,SW22*%
X79705000Y-85369000D03*
X73205000Y-85369000D03*
X79705000Y-80869000D03*
X73205000Y-80869000D03*
%TD*%
%TO.C,SW28*%
X89206000Y-85369000D03*
X82706000Y-85369000D03*
X89206000Y-80869000D03*
X82706000Y-80869000D03*
%TD*%
%TO.C,SW23*%
X51197000Y-85382000D03*
X44697000Y-85382000D03*
X51197000Y-80882000D03*
X44697000Y-80882000D03*
%TD*%
%TO.C,SW52*%
X127217000Y-85335000D03*
X120717000Y-85335000D03*
X127217000Y-80835000D03*
X120717000Y-80835000D03*
%TD*%
%TO.C,SW34*%
X98708000Y-85358000D03*
X92208000Y-85358000D03*
X98708000Y-80858000D03*
X92208000Y-80858000D03*
%TD*%
%TO.C,SW5*%
X36002000Y-85384000D03*
X29502000Y-85384000D03*
X36002000Y-80884000D03*
X29502000Y-80884000D03*
%TD*%
%TO.C,SW46*%
X117715000Y-85344000D03*
X111215000Y-85344000D03*
X117715000Y-80844000D03*
X111215000Y-80844000D03*
%TD*%
%TO.C,SW11*%
X60698000Y-85376000D03*
X54198000Y-85376000D03*
X60698000Y-80876000D03*
X54198000Y-80876000D03*
%TD*%
D11*
%TO.C,J2*%
X124161000Y-59435000D03*
D12*
X121621000Y-59435000D03*
X119081000Y-59435000D03*
X116541000Y-59435000D03*
X114001000Y-59435000D03*
X111461000Y-59435000D03*
X108921000Y-59435000D03*
X106381000Y-59435000D03*
X103841000Y-59435000D03*
X101301000Y-59435000D03*
X98761000Y-59435000D03*
X96221000Y-59435000D03*
X93681000Y-59435000D03*
X91141000Y-59435000D03*
X88601000Y-59435000D03*
X86061000Y-59435000D03*
X83521000Y-59435000D03*
X80981000Y-59435000D03*
X78441000Y-59435000D03*
X75901000Y-59435000D03*
%TD*%
D13*
%TO.C,D74*%
X153097000Y-72027500D03*
X153097000Y-75327500D03*
%TD*%
%TO.C,D12*%
X39002000Y-91016000D03*
X39002000Y-94316000D03*
%TD*%
%TO.C,D11*%
X56816000Y-81512500D03*
X56816000Y-84812500D03*
%TD*%
%TO.C,D72*%
X154400000Y-53088000D03*
X154400000Y-56388000D03*
%TD*%
%TO.C,D22*%
X75775000Y-81461500D03*
X75775000Y-84761500D03*
%TD*%
%TO.C,D63*%
X128009000Y-72074500D03*
X128009000Y-75374500D03*
%TD*%
%TO.C,D1*%
X157570000Y-91075500D03*
X157570000Y-94375500D03*
%TD*%
%TO.C,D52*%
X123298000Y-81371500D03*
X123298000Y-84671500D03*
%TD*%
%TO.C,D17*%
X50955000Y-90984500D03*
X50955000Y-94284500D03*
%TD*%
%TO.C,D73*%
X156536000Y-62321000D03*
X156536000Y-65621000D03*
%TD*%
%TO.C,D55*%
X111458000Y-52890000D03*
X111458000Y-56190000D03*
%TD*%
%TO.C,D56*%
X125742000Y-62470500D03*
X125742000Y-65770500D03*
%TD*%
%TO.C,D7*%
X40305000Y-62558500D03*
X40305000Y-65858500D03*
%TD*%
%TO.C,D35*%
X144860000Y-62306000D03*
X144860000Y-65606000D03*
%TD*%
%TO.C,D37*%
X83052000Y-52966500D03*
X83052000Y-56266500D03*
%TD*%
%TO.C,D31*%
X73315000Y-53088000D03*
X73315000Y-56388000D03*
%TD*%
%TO.C,D29*%
X130294000Y-53127000D03*
X130294000Y-56427000D03*
%TD*%
%TO.C,D65*%
X133679000Y-91041500D03*
X133679000Y-94341500D03*
%TD*%
%TO.C,D67*%
X139917000Y-52909500D03*
X139917000Y-56209500D03*
%TD*%
%TO.C,D59*%
X122157000Y-91125000D03*
X122157000Y-94425000D03*
%TD*%
%TO.C,D3*%
X28058000Y-62670500D03*
X28058000Y-65970500D03*
%TD*%
%TO.C,D18*%
X137508000Y-72081500D03*
X137508000Y-75381500D03*
%TD*%
%TO.C,D43*%
X92503000Y-53073000D03*
X92503000Y-56373000D03*
%TD*%
%TO.C,D13*%
X44868000Y-53107500D03*
X44868000Y-56407500D03*
%TD*%
%TO.C,D19*%
X54412000Y-52980000D03*
X54412000Y-56280000D03*
%TD*%
%TO.C,D4*%
X29412000Y-72047000D03*
X29412000Y-75347000D03*
%TD*%
%TO.C,D21*%
X61545000Y-71973000D03*
X61545000Y-75273000D03*
%TD*%
%TO.C,D38*%
X97174000Y-62503000D03*
X97174000Y-65803000D03*
%TD*%
%TO.C,D5*%
X31920000Y-81522500D03*
X31920000Y-84822500D03*
%TD*%
%TO.C,D45*%
X99525000Y-72056500D03*
X99525000Y-75356500D03*
%TD*%
%TO.C,D26*%
X78128000Y-62559000D03*
X78128000Y-65859000D03*
%TD*%
%TO.C,D58*%
X151160000Y-81512000D03*
X151160000Y-84812000D03*
%TD*%
%TO.C,D61*%
X120908000Y-53107000D03*
X120908000Y-56407000D03*
%TD*%
%TO.C,D46*%
X113654000Y-81473000D03*
X113654000Y-84773000D03*
%TD*%
%TO.C,D57*%
X118627000Y-71953000D03*
X118627000Y-75253000D03*
%TD*%
%TO.C,D24*%
X132720000Y-81437500D03*
X132720000Y-84737500D03*
%TD*%
%TO.C,D2*%
X25820000Y-53057000D03*
X25820000Y-56357000D03*
%TD*%
%TO.C,D49*%
X102062000Y-52966500D03*
X102062000Y-56266500D03*
%TD*%
%TO.C,D50*%
X116291000Y-62525500D03*
X116291000Y-65825500D03*
%TD*%
%TO.C,D6*%
X27037000Y-91034500D03*
X27037000Y-94334500D03*
%TD*%
%TO.C,D66*%
X145746000Y-91034000D03*
X145746000Y-94334000D03*
%TD*%
%TO.C,D33*%
X80554000Y-71953000D03*
X80554000Y-75253000D03*
%TD*%
%TO.C,D25*%
X63863000Y-53145000D03*
X63863000Y-56445000D03*
%TD*%
%TO.C,D20*%
X68678000Y-62524500D03*
X68678000Y-65824500D03*
%TD*%
%TO.C,D32*%
X87621000Y-62454000D03*
X87621000Y-65754000D03*
%TD*%
%TO.C,D8*%
X35526000Y-52890500D03*
X35526000Y-56190500D03*
%TD*%
%TO.C,D14*%
X59059000Y-62491500D03*
X59059000Y-65791500D03*
%TD*%
%TO.C,D62*%
X135061000Y-62538000D03*
X135061000Y-65838000D03*
%TD*%
%TO.C,D41*%
X86691000Y-91146000D03*
X86691000Y-94446000D03*
%TD*%
%TO.C,D34*%
X94892000Y-81349000D03*
X94892000Y-84649000D03*
%TD*%
%TO.C,D10*%
X42586000Y-72040000D03*
X42586000Y-75340000D03*
%TD*%
%TO.C,D9*%
X49701000Y-62503500D03*
X49701000Y-65803500D03*
%TD*%
%TO.C,D16*%
X66127000Y-81559500D03*
X66127000Y-84859500D03*
%TD*%
%TO.C,D23*%
X47279000Y-81316500D03*
X47279000Y-84616500D03*
%TD*%
%TO.C,D15*%
X51952000Y-72070500D03*
X51952000Y-75370500D03*
%TD*%
%TO.C,D51*%
X109177000Y-72084500D03*
X109177000Y-75384500D03*
%TD*%
%TO.C,D27*%
X71080000Y-72059500D03*
X71080000Y-75359500D03*
%TD*%
%TO.C,D28*%
X85180000Y-81505000D03*
X85180000Y-84805000D03*
%TD*%
%TO.C,D39*%
X90167000Y-72029500D03*
X90167000Y-75329500D03*
%TD*%
%TO.C,D40*%
X104343000Y-81425500D03*
X104343000Y-84725500D03*
%TD*%
%TO.C,D44*%
X106566000Y-62545000D03*
X106566000Y-65845000D03*
%TD*%
M02*
