M48
; DRILL file {KiCad 7.0.9} date Tue Dec  3 23:44:50 2024
; FORMAT={-:-/ absolute / inch / decimal}
; #@! TF.CreationDate,2024-12-03T23:44:50-05:00
; #@! TF.GenerationSoftware,Kicad,Pcbnew,7.0.9
; #@! TF.FileFunction,Plated,1,2,PTH
FMAT,2
INCH
; #@! TA.AperFunction,Plated,PTH,ViaDrill
T1C0.0157
; #@! TA.AperFunction,Plated,PTH,ComponentDrill
T2C0.0394
; #@! TA.AperFunction,Plated,PTH,ComponentDrill
T3C0.0433
%
G90
G05
T1
X1.3426Y-2.438
X1.4523Y-2.2058
X1.6234Y-3.6481
X1.6493Y-2.4356
X1.6623Y-2.5315
X1.7535Y-2.7054
X1.7552Y-2.5246
X1.829Y-2.8945
X1.8305Y-2.2187
X1.852Y-2.3267
X1.8672Y-2.7014
X1.8695Y-3.0892
X1.9264Y-2.9032
X1.938Y-3.2822
X1.9793Y-2.1654
X2.0204Y-2.5373
X2.022Y-2.4411
X2.0351Y-3.2774
X2.0394Y-3.0728
X2.0492Y-2.7065
X2.0618Y-3.5816
X2.0683Y-2.1458
X2.0909Y-3.6519
X2.1117Y-3.2771
X2.1167Y-2.3342
X2.1435Y-3.4567
X2.2026Y-2.0684
X2.2121Y-2.1495
X2.2335Y-2.8925
X2.2368Y-2.3442
X2.2907Y-3.1924
X2.2987Y-2.71
X2.3181Y-3.2756
X2.321Y-2.1654
X2.4067Y-2.5853
X2.4257Y-3.0872
X2.441Y-2.1662
X2.4448Y-3.2852
X2.51Y-2.8983
X2.5252Y-2.3394
X2.5498Y-2.5409
X2.5847Y-2.2058
X2.6548Y-2.7054
X2.6802Y-3.2785
X2.7674Y-2.3386
X2.7688Y-3.0937
X2.7724Y-2.5421
X2.8246Y-2.184
X2.8722Y-2.2872
X2.8816Y-2.9069
X2.8898Y-2.3741
X2.9547Y-2.0861
X2.956Y-2.194
X3.0006Y-2.71
X3.0089Y-2.9185
X3.0106Y-2.5399
X3.0584Y-3.2804
X3.1014Y-2.9072
X3.1131Y-2.4268
X3.1682Y-3.0819
X3.2141Y-2.5358
X3.2415Y-2.7048
X3.2533Y-2.55
X3.257Y-2.9088
X3.2943Y-2.5508
X3.3354Y-2.2017
X3.341Y-2.9012
X3.345Y-2.7192
X3.4338Y-3.2746
X3.4713Y-2.1879
X3.4917Y-3.6538
X3.4956Y-3.2757
X3.5702Y-2.5296
X3.589Y-2.1905
X3.6125Y-2.5288
X3.62Y-3.0453
X3.6248Y-2.9069
X3.7365Y-2.9078
X3.7647Y-2.5573
X3.7781Y-2.1526
X3.7784Y-2.7009
X3.8139Y-3.2765
X3.9107Y-3.0806
X3.9246Y-2.5429
X3.9926Y-2.905
X4.0661Y-2.2356
X4.1176Y-2.7192
X4.1817Y-3.2737
X4.2279Y-2.163
X4.2473Y-2.5374
X4.2983Y-3.0846
X4.3177Y-2.5176
X4.3708Y-2.9069
X4.3735Y-2.5358
X4.479Y-2.7009
X4.4798Y-2.149
X4.558Y-3.2746
X4.6232Y-2.1546
X4.6635Y-2.5239
X4.6702Y-3.1042
X4.7452Y-2.905
X4.8153Y-2.0636
X4.8307Y-2.1575
X4.8666Y-2.6996
X4.9147Y-3.6465
X4.9296Y-3.2718
X5.0322Y-2.5277
X5.042Y-3.0859
X5.1178Y-2.9059
X5.1496Y-2.5325
X5.1754Y-2.2129
X5.1887Y-2.3434
X5.2058Y-2.0581
X5.2516Y-2.7205
X5.3021Y-3.2737
X5.3444Y-3.6501
X5.378Y-1.9728
X5.3934Y-2.5296
X5.4846Y-2.9135
X5.54Y-2.2704
X5.5554Y-2.3473
X5.5732Y-2.0612
X5.5996Y-2.148
X5.7152Y-2.7781
X5.7802Y-2.5296
X5.8349Y-3.7014
T2
X2.9882Y-2.34
X3.0882Y-2.34
X3.1882Y-2.34
X3.2882Y-2.34
X3.3882Y-2.34
X3.4882Y-2.34
X3.5882Y-2.34
X3.6882Y-2.34
X3.7882Y-2.34
X3.8882Y-2.34
X3.9882Y-2.34
X4.0882Y-2.34
X4.1882Y-2.34
X4.2882Y-2.34
X4.3882Y-2.34
X4.4882Y-2.34
X4.5882Y-2.34
X4.6882Y-2.34
X4.7882Y-2.34
X4.8882Y-2.34
T3
X0.9198Y-2.0632
X0.9198Y-2.2404
X0.969Y-3.5583
X0.969Y-3.7355
X1.0094Y-2.4375
X1.0094Y-2.6146
X1.0613Y-2.811
X1.0613Y-2.9882
X1.1615Y-3.1844
X1.1615Y-3.3616
X1.1757Y-2.0632
X1.1757Y-2.2404
X1.2249Y-3.5583
X1.2249Y-3.7355
X1.2653Y-2.4375
X1.2653Y-2.6146
X1.2933Y-2.0633
X1.2933Y-2.2405
X1.3172Y-2.811
X1.3172Y-2.9882
X1.4174Y-3.1844
X1.4174Y-3.3616
X1.4328Y-3.5595
X1.4328Y-3.7367
X1.4808Y-2.4374
X1.4808Y-2.6145
X1.5493Y-2.0633
X1.5493Y-2.2405
X1.5759Y-2.8107
X1.5759Y-2.9879
X1.6676Y-2.0651
X1.6676Y-2.2422
X1.6887Y-3.5595
X1.6887Y-3.7367
X1.7367Y-2.4374
X1.7367Y-2.6145
X1.7597Y-3.1843
X1.7597Y-3.3615
X1.8318Y-2.8107
X1.8318Y-2.9879
X1.855Y-2.437
X1.855Y-2.6142
X1.9082Y-3.5593
X1.9082Y-3.7365
X1.9235Y-2.0651
X1.9235Y-2.2422
X1.9503Y-2.8114
X1.9503Y-2.9885
X2.0156Y-3.1843
X2.0156Y-3.3615
X2.0423Y-2.0646
X2.0423Y-2.2418
X2.1109Y-2.437
X2.1109Y-2.6142
X2.1338Y-3.1841
X2.1338Y-3.3613
X2.1641Y-3.5593
X2.1641Y-3.7365
X2.2062Y-2.8114
X2.2062Y-2.9885
X2.2293Y-2.4367
X2.2293Y-2.6139
X2.2982Y-2.0646
X2.2982Y-2.2418
X2.3244Y-2.8118
X2.3244Y-2.989
X2.3897Y-3.1841
X2.3897Y-3.3613
X2.4161Y-2.065
X2.4161Y-2.2422
X2.4852Y-2.4367
X2.4852Y-2.6139
X2.5081Y-3.1839
X2.5081Y-3.3611
X2.5803Y-2.8118
X2.5803Y-2.989
X2.6034Y-2.4365
X2.6034Y-2.6137
X2.672Y-2.065
X2.672Y-2.2422
X2.6985Y-2.8124
X2.6985Y-2.9895
X2.764Y-3.1839
X2.764Y-3.3611
X2.7906Y-2.0651
X2.7906Y-2.2423
X2.8593Y-2.4365
X2.8593Y-2.6137
X2.8821Y-3.1838
X2.8821Y-3.361
X2.9544Y-2.8124
X2.9544Y-2.9895
X2.9776Y-2.4364
X2.9776Y-2.6135
X3.0465Y-2.0651
X3.0465Y-2.2423
X3.0727Y-2.8128
X3.0727Y-2.9899
X3.138Y-3.1838
X3.138Y-3.361
X3.1642Y-2.065
X3.1642Y-2.2422
X3.2335Y-2.4364
X3.2335Y-2.6135
X3.2561Y-3.1838
X3.2561Y-3.361
X3.311Y-3.5594
X3.311Y-3.7366
X3.3286Y-2.8128
X3.3286Y-2.9899
X3.3517Y-2.4362
X3.3517Y-2.6133
X3.4201Y-2.065
X3.4201Y-2.2422
X3.4468Y-2.8134
X3.4468Y-2.9906
X3.512Y-3.1838
X3.512Y-3.361
X3.5385Y-2.0654
X3.5385Y-2.2425
X3.5669Y-3.5594
X3.5669Y-3.7366
X3.6076Y-2.4362
X3.6076Y-2.6133
X3.6302Y-3.1834
X3.6302Y-3.3606
X3.7027Y-2.8134
X3.7027Y-2.9906
X3.7257Y-2.4361
X3.7257Y-2.6133
X3.7944Y-2.0654
X3.7944Y-2.2425
X3.8208Y-2.8131
X3.8208Y-2.9903
X3.8861Y-3.1834
X3.8861Y-3.3606
X3.9125Y-2.0654
X3.9125Y-2.2426
X3.9817Y-2.4361
X3.9817Y-2.6133
X4.0043Y-3.1831
X4.0043Y-3.3603
X4.0767Y-2.8131
X4.0767Y-2.9903
X4.0999Y-2.436
X4.0999Y-2.6132
X4.1684Y-2.0654
X4.1684Y-2.2426
X4.1948Y-2.8131
X4.1948Y-2.9903
X4.2602Y-3.1831
X4.2602Y-3.3603
X4.2862Y-2.0649
X4.2862Y-2.242
X4.3558Y-2.436
X4.3558Y-2.6132
X4.3785Y-3.1828
X4.3785Y-3.36
X4.4507Y-2.8131
X4.4507Y-2.9903
X4.4741Y-2.4358
X4.4741Y-2.613
X4.5421Y-2.0649
X4.5421Y-2.242
X4.569Y-2.8129
X4.569Y-2.99
X4.6344Y-3.1828
X4.6344Y-3.36
X4.6605Y-2.0646
X4.6605Y-2.2417
X4.7051Y-3.5595
X4.7051Y-3.7367
X4.73Y-2.4358
X4.73Y-2.613
X4.7526Y-3.1825
X4.7526Y-3.3596
X4.8249Y-2.8129
X4.8249Y-2.99
X4.8481Y-2.4357
X4.8481Y-2.6129
X4.9164Y-2.0646
X4.9164Y-2.2417
X4.9431Y-2.8127
X4.9431Y-2.9898
X4.961Y-3.5595
X4.961Y-3.7367
X5.0085Y-3.1825
X5.0085Y-3.3596
X5.0346Y-2.0643
X5.0346Y-2.2414
X5.104Y-2.4357
X5.104Y-2.6129
X5.1267Y-3.1827
X5.1267Y-3.3598
X5.1671Y-3.5594
X5.1671Y-3.7365
X5.199Y-2.8127
X5.199Y-2.9898
X5.2222Y-2.4354
X5.2222Y-2.6126
X5.2905Y-2.0643
X5.2905Y-2.2414
X5.3172Y-2.8125
X5.3172Y-2.9897
X5.3826Y-3.1827
X5.3826Y-3.3598
X5.4089Y-2.0641
X5.4089Y-2.2413
X5.423Y-3.5594
X5.423Y-3.7365
X5.4781Y-2.4354
X5.4781Y-2.6126
X5.5731Y-2.8125
X5.5731Y-2.9897
X5.5965Y-2.4351
X5.5965Y-2.6122
X5.6393Y-3.5594
X5.6393Y-3.7366
X5.6648Y-2.0641
X5.6648Y-2.2413
X5.8446Y-3.1824
X5.8446Y-3.3595
X5.8524Y-2.4351
X5.8524Y-2.6122
X5.8952Y-3.5594
X5.8952Y-3.7366
X5.926Y-2.8118
X5.926Y-2.989
X5.9802Y-2.0642
X5.9802Y-2.2413
X6.0661Y-2.4349
X6.0661Y-2.612
X6.1005Y-3.1824
X6.1005Y-3.3595
X6.1089Y-3.5589
X6.1089Y-3.7361
X6.1819Y-2.8118
X6.1819Y-2.989
X6.2361Y-2.0642
X6.2361Y-2.2413
X6.322Y-2.4349
X6.322Y-2.612
X6.3648Y-3.5589
X6.3648Y-3.7361
T0
M30
