%TF.GenerationSoftware,KiCad,Pcbnew,7.0.9*%
%TF.CreationDate,2024-12-03T23:44:49-05:00*%
%TF.ProjectId,tiny-keeb,74696e79-2d6b-4656-9562-2e6b69636164,rev?*%
%TF.SameCoordinates,Original*%
%TF.FileFunction,Paste,Bot*%
%TF.FilePolarity,Positive*%
%FSLAX46Y46*%
G04 Gerber Fmt 4.6, Leading zero omitted, Abs format (unit mm)*
G04 Created by KiCad (PCBNEW 7.0.9) date 2024-12-03 23:44:49*
%MOMM*%
%LPD*%
G01*
G04 APERTURE LIST*
G04 Aperture macros list*
%AMRoundRect*
0 Rectangle with rounded corners*
0 $1 Rounding radius*
0 $2 $3 $4 $5 $6 $7 $8 $9 X,Y pos of 4 corners*
0 Add a 4 corners polygon primitive as box body*
4,1,4,$2,$3,$4,$5,$6,$7,$8,$9,$2,$3,0*
0 Add four circle primitives for the rounded corners*
1,1,$1+$1,$2,$3*
1,1,$1+$1,$4,$5*
1,1,$1+$1,$6,$7*
1,1,$1+$1,$8,$9*
0 Add four rect primitives between the rounded corners*
20,1,$1+$1,$2,$3,$4,$5,0*
20,1,$1+$1,$4,$5,$6,$7,0*
20,1,$1+$1,$6,$7,$8,$9,0*
20,1,$1+$1,$8,$9,$2,$3,0*%
G04 Aperture macros list end*
%ADD10RoundRect,0.225000X-0.375000X0.225000X-0.375000X-0.225000X0.375000X-0.225000X0.375000X0.225000X0*%
G04 APERTURE END LIST*
D10*
%TO.C,D74*%
X153097000Y-72027500D03*
X153097000Y-75327500D03*
%TD*%
%TO.C,D12*%
X39002000Y-91016000D03*
X39002000Y-94316000D03*
%TD*%
%TO.C,D11*%
X56816000Y-81512500D03*
X56816000Y-84812500D03*
%TD*%
%TO.C,D72*%
X154400000Y-53088000D03*
X154400000Y-56388000D03*
%TD*%
%TO.C,D22*%
X75775000Y-81461500D03*
X75775000Y-84761500D03*
%TD*%
%TO.C,D63*%
X128009000Y-72074500D03*
X128009000Y-75374500D03*
%TD*%
%TO.C,D1*%
X157570000Y-91075500D03*
X157570000Y-94375500D03*
%TD*%
%TO.C,D52*%
X123298000Y-81371500D03*
X123298000Y-84671500D03*
%TD*%
%TO.C,D17*%
X50955000Y-90984500D03*
X50955000Y-94284500D03*
%TD*%
%TO.C,D73*%
X156536000Y-62321000D03*
X156536000Y-65621000D03*
%TD*%
%TO.C,D55*%
X111458000Y-52890000D03*
X111458000Y-56190000D03*
%TD*%
%TO.C,D56*%
X125742000Y-62470500D03*
X125742000Y-65770500D03*
%TD*%
%TO.C,D7*%
X40305000Y-62558500D03*
X40305000Y-65858500D03*
%TD*%
%TO.C,D35*%
X144860000Y-62306000D03*
X144860000Y-65606000D03*
%TD*%
%TO.C,D37*%
X83052000Y-52966500D03*
X83052000Y-56266500D03*
%TD*%
%TO.C,D31*%
X73315000Y-53088000D03*
X73315000Y-56388000D03*
%TD*%
%TO.C,D29*%
X130294000Y-53127000D03*
X130294000Y-56427000D03*
%TD*%
%TO.C,D65*%
X133679000Y-91041500D03*
X133679000Y-94341500D03*
%TD*%
%TO.C,D67*%
X139917000Y-52909500D03*
X139917000Y-56209500D03*
%TD*%
%TO.C,D59*%
X122157000Y-91125000D03*
X122157000Y-94425000D03*
%TD*%
%TO.C,D3*%
X28058000Y-62670500D03*
X28058000Y-65970500D03*
%TD*%
%TO.C,D18*%
X137508000Y-72081500D03*
X137508000Y-75381500D03*
%TD*%
%TO.C,D43*%
X92503000Y-53073000D03*
X92503000Y-56373000D03*
%TD*%
%TO.C,D13*%
X44868000Y-53107500D03*
X44868000Y-56407500D03*
%TD*%
%TO.C,D19*%
X54412000Y-52980000D03*
X54412000Y-56280000D03*
%TD*%
%TO.C,D4*%
X29412000Y-72047000D03*
X29412000Y-75347000D03*
%TD*%
%TO.C,D21*%
X61545000Y-71973000D03*
X61545000Y-75273000D03*
%TD*%
%TO.C,D38*%
X97174000Y-62503000D03*
X97174000Y-65803000D03*
%TD*%
%TO.C,D5*%
X31920000Y-81522500D03*
X31920000Y-84822500D03*
%TD*%
%TO.C,D45*%
X99525000Y-72056500D03*
X99525000Y-75356500D03*
%TD*%
%TO.C,D26*%
X78128000Y-62559000D03*
X78128000Y-65859000D03*
%TD*%
%TO.C,D58*%
X151160000Y-81512000D03*
X151160000Y-84812000D03*
%TD*%
%TO.C,D61*%
X120908000Y-53107000D03*
X120908000Y-56407000D03*
%TD*%
%TO.C,D46*%
X113654000Y-81473000D03*
X113654000Y-84773000D03*
%TD*%
%TO.C,D57*%
X118627000Y-71953000D03*
X118627000Y-75253000D03*
%TD*%
%TO.C,D24*%
X132720000Y-81437500D03*
X132720000Y-84737500D03*
%TD*%
%TO.C,D2*%
X25820000Y-53057000D03*
X25820000Y-56357000D03*
%TD*%
%TO.C,D49*%
X102062000Y-52966500D03*
X102062000Y-56266500D03*
%TD*%
%TO.C,D50*%
X116291000Y-62525500D03*
X116291000Y-65825500D03*
%TD*%
%TO.C,D6*%
X27037000Y-91034500D03*
X27037000Y-94334500D03*
%TD*%
%TO.C,D66*%
X145746000Y-91034000D03*
X145746000Y-94334000D03*
%TD*%
%TO.C,D33*%
X80554000Y-71953000D03*
X80554000Y-75253000D03*
%TD*%
%TO.C,D25*%
X63863000Y-53145000D03*
X63863000Y-56445000D03*
%TD*%
%TO.C,D20*%
X68678000Y-62524500D03*
X68678000Y-65824500D03*
%TD*%
%TO.C,D32*%
X87621000Y-62454000D03*
X87621000Y-65754000D03*
%TD*%
%TO.C,D8*%
X35526000Y-52890500D03*
X35526000Y-56190500D03*
%TD*%
%TO.C,D14*%
X59059000Y-62491500D03*
X59059000Y-65791500D03*
%TD*%
%TO.C,D62*%
X135061000Y-62538000D03*
X135061000Y-65838000D03*
%TD*%
%TO.C,D41*%
X86691000Y-91146000D03*
X86691000Y-94446000D03*
%TD*%
%TO.C,D34*%
X94892000Y-81349000D03*
X94892000Y-84649000D03*
%TD*%
%TO.C,D10*%
X42586000Y-72040000D03*
X42586000Y-75340000D03*
%TD*%
%TO.C,D9*%
X49701000Y-62503500D03*
X49701000Y-65803500D03*
%TD*%
%TO.C,D16*%
X66127000Y-81559500D03*
X66127000Y-84859500D03*
%TD*%
%TO.C,D23*%
X47279000Y-81316500D03*
X47279000Y-84616500D03*
%TD*%
%TO.C,D15*%
X51952000Y-72070500D03*
X51952000Y-75370500D03*
%TD*%
%TO.C,D51*%
X109177000Y-72084500D03*
X109177000Y-75384500D03*
%TD*%
%TO.C,D27*%
X71080000Y-72059500D03*
X71080000Y-75359500D03*
%TD*%
%TO.C,D28*%
X85180000Y-81505000D03*
X85180000Y-84805000D03*
%TD*%
%TO.C,D39*%
X90167000Y-72029500D03*
X90167000Y-75329500D03*
%TD*%
%TO.C,D40*%
X104343000Y-81425500D03*
X104343000Y-84725500D03*
%TD*%
%TO.C,D44*%
X106566000Y-62545000D03*
X106566000Y-65845000D03*
%TD*%
M02*
