M48
; DRILL file {KiCad 7.0.9} date Fri Dec  6 21:36:14 2024
; FORMAT={-:-/ absolute / inch / decimal}
; #@! TF.CreationDate,2024-12-06T21:36:14-05:00
; #@! TF.GenerationSoftware,Kicad,Pcbnew,7.0.9
; #@! TF.FileFunction,Plated,1,2,PTH
FMAT,2
INCH
; #@! TA.AperFunction,Plated,PTH,ViaDrill
T1C0.0157
; #@! TA.AperFunction,Plated,PTH,ComponentDrill
T2C0.0394
; #@! TA.AperFunction,Plated,PTH,ComponentDrill
T3C0.0433
%
G90
G05
T1
X3.5228Y-1.5319
X3.6326Y-1.2998
X3.8037Y-2.7421
X3.8296Y-1.5296
X3.8426Y-1.6255
X3.9338Y-1.7993
X3.9355Y-1.6185
X4.0093Y-1.9885
X4.0108Y-1.3127
X4.0322Y-1.4207
X4.0474Y-1.7954
X4.0498Y-2.1832
X4.1067Y-1.9972
X4.1182Y-2.3762
X4.1596Y-1.2594
X4.2007Y-1.6313
X4.2023Y-1.5351
X4.2154Y-2.3714
X4.2197Y-2.1667
X4.2294Y-1.8005
X4.2421Y-2.6756
X4.2486Y-1.2397
X4.2712Y-2.7459
X4.292Y-2.3711
X4.2969Y-1.4282
X4.3237Y-2.5507
X4.3829Y-1.1624
X4.3924Y-1.2435
X4.4138Y-1.9865
X4.417Y-1.4382
X4.4709Y-2.2864
X4.4789Y-1.804
X4.4983Y-2.3696
X4.5013Y-1.2594
X4.587Y-1.6793
X4.606Y-2.1811
X4.6213Y-1.2602
X4.625Y-2.3791
X4.6903Y-1.9923
X4.7055Y-1.4334
X4.7301Y-1.6348
X4.765Y-1.2998
X4.79Y-2.7408
X4.8351Y-1.7994
X4.8604Y-2.3724
X4.9476Y-1.4326
X4.9491Y-2.1877
X4.9527Y-1.6361
X5.0048Y-1.278
X5.0525Y-1.3812
X5.0619Y-2.0008
X5.0701Y-1.4681
X5.135Y-1.1801
X5.1363Y-1.288
X5.1808Y-1.804
X5.1891Y-2.0125
X5.1908Y-1.6339
X5.2387Y-2.3743
X5.2817Y-2.0012
X5.2934Y-1.5208
X5.3485Y-2.1759
X5.3943Y-1.6297
X5.4218Y-1.7988
X5.4335Y-1.644
X5.4373Y-2.0028
X5.4746Y-1.6448
X5.5157Y-1.2957
X5.5213Y-1.9952
X5.5252Y-1.8132
X5.6141Y-2.3686
X5.6515Y-1.2819
X5.6758Y-2.3697
X5.7505Y-1.6236
X5.7693Y-1.2845
X5.7928Y-1.6228
X5.8002Y-2.1393
X5.8051Y-2.0008
X5.9168Y-2.0018
X5.945Y-1.6513
X5.9584Y-1.2466
X5.9587Y-1.7948
X5.9942Y-2.3705
X6.0909Y-2.1746
X6.1049Y-1.6369
X6.1728Y-1.9989
X6.2464Y-1.3296
X6.2978Y-1.8132
X6.362Y-2.3677
X6.4082Y-1.257
X6.4276Y-1.6313
X6.4785Y-2.1785
X6.498Y-1.6115
X6.5511Y-2.0008
X6.5538Y-1.6298
X6.6593Y-1.7948
X6.6601Y-1.243
X6.7383Y-2.3686
X6.8035Y-1.2486
X6.8438Y-1.6179
X6.8504Y-2.1982
X6.9255Y-1.9989
X6.9956Y-1.1576
X7.011Y-1.2515
X7.0469Y-1.7935
X7.095Y-2.7404
X7.1099Y-2.3658
X7.2125Y-1.6217
X7.2223Y-2.1798
X7.2981Y-1.9999
X7.3299Y-1.6265
X7.3557Y-1.3069
X7.369Y-1.4374
X7.3861Y-1.152
X7.4319Y-1.8145
X7.4824Y-2.3677
X7.5247Y-2.7441
X7.5583Y-1.0667
X7.5737Y-1.6235
X7.6649Y-2.0075
X7.7203Y-1.3644
X7.7357Y-1.4413
X7.7535Y-1.1552
X7.7798Y-1.242
X7.8954Y-1.8721
X7.9604Y-1.6235
X8.0152Y-2.7954
T2
X5.1685Y-1.4339
X5.2685Y-1.4339
X5.3685Y-1.4339
X5.4685Y-1.4339
X5.5685Y-1.4339
X5.6685Y-1.4339
X5.7685Y-1.4339
X5.8685Y-1.4339
X5.9685Y-1.4339
X6.0685Y-1.4339
X6.1685Y-1.4339
X6.2685Y-1.4339
X6.3685Y-1.4339
X6.4685Y-1.4339
X6.5685Y-1.4339
X6.6685Y-1.4339
X6.7685Y-1.4339
X6.8685Y-1.4339
X6.9685Y-1.4339
X7.0685Y-1.4339
T3
X3.1001Y-1.1572
X3.1001Y-1.3343
X3.1493Y-2.6523
X3.1493Y-2.8295
X3.1897Y-1.5315
X3.1897Y-1.7086
X3.2416Y-1.905
X3.2416Y-2.0822
X3.3418Y-2.2784
X3.3418Y-2.4556
X3.356Y-1.1572
X3.356Y-1.3343
X3.4052Y-2.6523
X3.4052Y-2.8295
X3.4456Y-1.5315
X3.4456Y-1.7086
X3.4736Y-1.1573
X3.4736Y-1.3344
X3.4975Y-1.905
X3.4975Y-2.0822
X3.5977Y-2.2784
X3.5977Y-2.4556
X3.6131Y-2.6535
X3.6131Y-2.8306
X3.6611Y-1.5313
X3.6611Y-1.7085
X3.7295Y-1.1573
X3.7295Y-1.3344
X3.7561Y-1.9047
X3.7561Y-2.0819
X3.8479Y-1.1591
X3.8479Y-1.3362
X3.869Y-2.6535
X3.869Y-2.8306
X3.917Y-1.5313
X3.917Y-1.7085
X3.94Y-2.2783
X3.94Y-2.4555
X4.012Y-1.9047
X4.012Y-2.0819
X4.0353Y-1.531
X4.0353Y-1.7081
X4.0885Y-2.6533
X4.0885Y-2.8305
X4.1038Y-1.1591
X4.1038Y-1.3362
X4.1306Y-1.9054
X4.1306Y-2.0825
X4.1959Y-2.2783
X4.1959Y-2.4555
X4.2226Y-1.1586
X4.2226Y-1.3357
X4.2912Y-1.531
X4.2912Y-1.7081
X4.3141Y-2.2781
X4.3141Y-2.4552
X4.3444Y-2.6533
X4.3444Y-2.8305
X4.3865Y-1.9054
X4.3865Y-2.0825
X4.4096Y-1.5307
X4.4096Y-1.7078
X4.4785Y-1.1586
X4.4785Y-1.3357
X4.5047Y-1.9058
X4.5047Y-2.083
X4.57Y-2.2781
X4.57Y-2.4552
X4.5963Y-1.159
X4.5963Y-1.3362
X4.6655Y-1.5307
X4.6655Y-1.7078
X4.6883Y-2.2779
X4.6883Y-2.455
X4.7606Y-1.9058
X4.7606Y-2.083
X4.7837Y-1.5305
X4.7837Y-1.7076
X4.8221Y-2.6525
X4.8221Y-2.8297
X4.8522Y-1.159
X4.8522Y-1.3362
X4.8788Y-1.9063
X4.8788Y-2.0835
X4.9443Y-2.2779
X4.9443Y-2.455
X4.9709Y-1.1591
X4.9709Y-1.3363
X5.0396Y-1.5305
X5.0396Y-1.7076
X5.0624Y-2.2778
X5.0624Y-2.455
X5.078Y-2.6525
X5.078Y-2.8297
X5.1347Y-1.9063
X5.1347Y-2.0835
X5.1578Y-1.5304
X5.1578Y-1.7075
X5.2268Y-1.1591
X5.2268Y-1.3363
X5.253Y-1.9067
X5.253Y-2.0839
X5.3183Y-2.2778
X5.3183Y-2.455
X5.3445Y-1.159
X5.3445Y-1.3362
X5.4137Y-1.5304
X5.4137Y-1.7075
X5.4364Y-2.2778
X5.4364Y-2.455
X5.5089Y-1.9067
X5.5089Y-2.0839
X5.532Y-1.5302
X5.532Y-1.7073
X5.6004Y-1.159
X5.6004Y-1.3362
X5.6271Y-1.9074
X5.6271Y-2.0846
X5.6923Y-2.2778
X5.6923Y-2.455
X5.7188Y-1.1593
X5.7188Y-1.3365
X5.7879Y-1.5302
X5.7879Y-1.7073
X5.8105Y-2.2774
X5.8105Y-2.4545
X5.883Y-1.9074
X5.883Y-2.0846
X5.906Y-1.5301
X5.906Y-1.7072
X5.9747Y-1.1593
X5.9747Y-1.3365
X6.0011Y-1.9071
X6.0011Y-2.0843
X6.0664Y-2.2774
X6.0664Y-2.4545
X6.0928Y-1.1594
X6.0928Y-1.3366
X6.1054Y-2.6535
X6.1054Y-2.8307
X6.1619Y-1.5301
X6.1619Y-1.7072
X6.1846Y-2.2771
X6.1846Y-2.4543
X6.257Y-1.9071
X6.257Y-2.0843
X6.2802Y-1.53
X6.2802Y-1.7072
X6.3487Y-1.1594
X6.3487Y-1.3366
X6.3613Y-2.6535
X6.3613Y-2.8307
X6.3751Y-1.9071
X6.3751Y-2.0843
X6.4405Y-2.2771
X6.4405Y-2.4543
X6.4665Y-1.1589
X6.4665Y-1.336
X6.5361Y-1.53
X6.5361Y-1.7072
X6.5588Y-2.2768
X6.5588Y-2.454
X6.631Y-1.9071
X6.631Y-2.0843
X6.6543Y-1.5298
X6.6543Y-1.707
X6.7224Y-1.1589
X6.7224Y-1.336
X6.7493Y-1.9069
X6.7493Y-2.084
X6.8147Y-2.2768
X6.8147Y-2.454
X6.8407Y-1.1585
X6.8407Y-1.3357
X6.8854Y-2.6535
X6.8854Y-2.8306
X6.9102Y-1.5298
X6.9102Y-1.707
X6.9329Y-2.2765
X6.9329Y-2.4536
X7.0052Y-1.9069
X7.0052Y-2.084
X7.0283Y-1.5297
X7.0283Y-1.7069
X7.0967Y-1.1585
X7.0967Y-1.3357
X7.1234Y-1.9067
X7.1234Y-2.0838
X7.1413Y-2.6535
X7.1413Y-2.8306
X7.1888Y-2.2765
X7.1888Y-2.4536
X7.2149Y-1.1582
X7.2149Y-1.3354
X7.2843Y-1.5297
X7.2843Y-1.7069
X7.307Y-2.2767
X7.307Y-2.4538
X7.3474Y-2.6533
X7.3474Y-2.8305
X7.3793Y-1.9067
X7.3793Y-2.0838
X7.4025Y-1.5294
X7.4025Y-1.7066
X7.4708Y-1.1582
X7.4708Y-1.3354
X7.4975Y-1.9065
X7.4975Y-2.0837
X7.5629Y-2.2767
X7.5629Y-2.4538
X7.5892Y-1.1581
X7.5892Y-1.3353
X7.6033Y-2.6533
X7.6033Y-2.8305
X7.6584Y-1.5294
X7.6584Y-1.7066
X7.7534Y-1.9065
X7.7534Y-2.0837
X7.7767Y-1.5291
X7.7767Y-1.7062
X7.8195Y-2.6534
X7.8195Y-2.8306
X7.8451Y-1.1581
X7.8451Y-1.3353
X8.0248Y-2.2763
X8.0248Y-2.4535
X8.0326Y-1.5291
X8.0326Y-1.7062
X8.0754Y-2.6534
X8.0754Y-2.8306
X8.1063Y-1.9058
X8.1063Y-2.083
X8.1605Y-1.1581
X8.1605Y-1.3353
X8.2464Y-1.5289
X8.2464Y-1.706
X8.2807Y-2.2763
X8.2807Y-2.4535
X8.2892Y-2.6529
X8.2892Y-2.83
X8.3622Y-1.9058
X8.3622Y-2.083
X8.4164Y-1.1581
X8.4164Y-1.3353
X8.5023Y-1.5289
X8.5023Y-1.706
X8.5451Y-2.6529
X8.5451Y-2.83
T0
M30
