%TF.GenerationSoftware,KiCad,Pcbnew,7.0.9*%
%TF.CreationDate,2024-12-06T21:36:11-05:00*%
%TF.ProjectId,panel,70616e65-6c2e-46b6-9963-61645f706362,rev?*%
%TF.SameCoordinates,Original*%
%TF.FileFunction,Soldermask,Top*%
%TF.FilePolarity,Negative*%
%FSLAX46Y46*%
G04 Gerber Fmt 4.6, Leading zero omitted, Abs format (unit mm)*
G04 Created by KiCad (PCBNEW 7.0.9) date 2024-12-06 21:36:11*
%MOMM*%
%LPD*%
G01*
G04 APERTURE LIST*
%ADD10C,0.200000*%
%ADD11C,2.000000*%
%ADD12R,1.700000X1.700000*%
%ADD13O,1.700000X1.700000*%
G04 APERTURE END LIST*
D10*
%TO.C,KiKit_MB_7_5*%
X75250000Y-21666667D03*
%TD*%
%TO.C,KiKit_MB_3_6*%
X124726191Y-25000000D03*
%TD*%
%TO.C,KiKit_MB_6_3*%
X173559523Y-76500000D03*
%TD*%
%TO.C,KiKit_MB_14_6*%
X225833333Y-76500000D03*
%TD*%
D11*
%TO.C,SW63*%
X180934000Y-48429000D03*
X187434000Y-48429000D03*
X180934000Y-52929000D03*
X187434000Y-52929000D03*
%TD*%
D10*
%TO.C,KiKit_MB_11_1*%
X70750000Y-25000000D03*
%TD*%
%TO.C,KiKit_MB_14_5*%
X225416666Y-76500000D03*
%TD*%
D11*
%TO.C,SW11*%
X109577000Y-57863000D03*
X116077000Y-57863000D03*
X109577000Y-62363000D03*
X116077000Y-62363000D03*
%TD*%
%TO.C,SW43*%
X145258000Y-29447000D03*
X151758000Y-29447000D03*
X145258000Y-33947000D03*
X151758000Y-33947000D03*
%TD*%
D10*
%TO.C,KiKit_MB_2_1*%
X221750000Y-49250000D03*
%TD*%
%TO.C,KiKit_MB_3_5*%
X124297620Y-25000000D03*
%TD*%
D11*
%TO.C,SW66*%
X198616000Y-67397000D03*
X205116000Y-67397000D03*
X198616000Y-71897000D03*
X205116000Y-71897000D03*
%TD*%
%TO.C,SW14*%
X112004000Y-38879000D03*
X118504000Y-38879000D03*
X112004000Y-43379000D03*
X118504000Y-43379000D03*
%TD*%
D10*
%TO.C,KiKit_MB_11_7*%
X73250000Y-25000000D03*
%TD*%
%TO.C,KiKit_MB_6_4*%
X173130952Y-76500000D03*
%TD*%
%TO.C,KiKit_MB_6_5*%
X172702380Y-76500000D03*
%TD*%
%TO.C,KiKit_MB_5_3*%
X124726191Y-76500000D03*
%TD*%
D11*
%TO.C,SW4*%
X82336000Y-48387000D03*
X88836000Y-48387000D03*
X82336000Y-52887000D03*
X88836000Y-52887000D03*
%TD*%
%TO.C,SW33*%
X133425000Y-48431000D03*
X139925000Y-48431000D03*
X133425000Y-52931000D03*
X139925000Y-52931000D03*
%TD*%
D10*
%TO.C,KiKit_MB_1_7*%
X75250000Y-49678572D03*
%TD*%
%TO.C,KiKit_MB_8_3*%
X221750000Y-20833334D03*
%TD*%
%TO.C,KiKit_MB_13_1*%
X223750000Y-25000000D03*
%TD*%
%TO.C,KiKit_MB_13_3*%
X224583333Y-25000000D03*
%TD*%
D11*
%TO.C,SW17*%
X103847000Y-67394000D03*
X110347000Y-67394000D03*
X103847000Y-71894000D03*
X110347000Y-71894000D03*
%TD*%
D10*
%TO.C,KiKit_MB_4_6*%
X173559523Y-25000000D03*
%TD*%
%TO.C,KiKit_MB_1_5*%
X75250000Y-50535715D03*
%TD*%
%TO.C,KiKit_MB_4_8*%
X174416666Y-25000000D03*
%TD*%
%TO.C,KiKit_MB_7_2*%
X75250000Y-20416667D03*
%TD*%
D11*
%TO.C,SW32*%
X140512000Y-38866000D03*
X147012000Y-38866000D03*
X140512000Y-43366000D03*
X147012000Y-43366000D03*
%TD*%
D10*
%TO.C,KiKit_MB_10_3*%
X221750000Y-79833333D03*
%TD*%
D11*
%TO.C,SW22*%
X128584000Y-57856000D03*
X135084000Y-57856000D03*
X128584000Y-62356000D03*
X135084000Y-62356000D03*
%TD*%
D10*
%TO.C,KiKit_MB_5_5*%
X123869048Y-76500000D03*
%TD*%
%TO.C,KiKit_MB_1_3*%
X75250000Y-51392857D03*
%TD*%
D11*
%TO.C,SW39*%
X142928000Y-48448000D03*
X149428000Y-48448000D03*
X142928000Y-52948000D03*
X149428000Y-52948000D03*
%TD*%
%TO.C,SW30*%
X128982000Y-71874000D03*
X122482000Y-71874000D03*
X128982000Y-67374000D03*
X122482000Y-67374000D03*
%TD*%
%TO.C,SW56*%
X178520000Y-38854000D03*
X185020000Y-38854000D03*
X178520000Y-43354000D03*
X185020000Y-43354000D03*
%TD*%
%TO.C,SW44*%
X159516000Y-38862000D03*
X166016000Y-38862000D03*
X159516000Y-43362000D03*
X166016000Y-43362000D03*
%TD*%
D10*
%TO.C,KiKit_MB_3_7*%
X125154762Y-25000000D03*
%TD*%
%TO.C,KiKit_MB_12_3*%
X71583334Y-76500000D03*
%TD*%
D11*
%TO.C,SW15*%
X104917000Y-48396000D03*
X111417000Y-48396000D03*
X104917000Y-52896000D03*
X111417000Y-52896000D03*
%TD*%
D10*
%TO.C,KiKit_MB_3_4*%
X123869048Y-25000000D03*
%TD*%
%TO.C,KiKit_MB_10_1*%
X221750000Y-79000000D03*
%TD*%
%TO.C,KiKit_MB_11_5*%
X72416667Y-25000000D03*
%TD*%
D11*
%TO.C,SW9*%
X102497000Y-38887000D03*
X108997000Y-38887000D03*
X102497000Y-43387000D03*
X108997000Y-43387000D03*
%TD*%
D10*
%TO.C,KiKit_MB_6_6*%
X172273809Y-76500000D03*
%TD*%
D11*
%TO.C,SW29*%
X183258000Y-29419000D03*
X189758000Y-29419000D03*
X183258000Y-33919000D03*
X189758000Y-33919000D03*
%TD*%
%TO.C,SW26*%
X131009000Y-38871000D03*
X137509000Y-38871000D03*
X131009000Y-43371000D03*
X137509000Y-43371000D03*
%TD*%
%TO.C,SW74*%
X205899000Y-48407000D03*
X212399000Y-48407000D03*
X205899000Y-52907000D03*
X212399000Y-52907000D03*
%TD*%
D10*
%TO.C,KiKit_MB_2_5*%
X221750000Y-50964285D03*
%TD*%
%TO.C,KiKit_MB_2_8*%
X221750000Y-52250000D03*
%TD*%
D11*
%TO.C,SW21*%
X114419000Y-48407000D03*
X120919000Y-48407000D03*
X114419000Y-52907000D03*
X120919000Y-52907000D03*
%TD*%
D10*
%TO.C,KiKit_MB_3_2*%
X123011905Y-25000000D03*
%TD*%
%TO.C,KiKit_MB_13_4*%
X225000000Y-25000000D03*
%TD*%
%TO.C,KiKit_MB_2_7*%
X221750000Y-51821428D03*
%TD*%
D11*
%TO.C,SW7*%
X92992000Y-38896000D03*
X99492000Y-38896000D03*
X92992000Y-43396000D03*
X99492000Y-43396000D03*
%TD*%
%TO.C,SW57*%
X171432000Y-48434000D03*
X177932000Y-48434000D03*
X171432000Y-52934000D03*
X177932000Y-52934000D03*
%TD*%
D10*
%TO.C,KiKit_MB_7_7*%
X75250000Y-22500000D03*
%TD*%
D11*
%TO.C,SW55*%
X164249000Y-29435000D03*
X170749000Y-29435000D03*
X164249000Y-33935000D03*
X170749000Y-33935000D03*
%TD*%
D10*
%TO.C,KiKit_MB_9_1*%
X75250000Y-79000000D03*
%TD*%
%TO.C,KiKit_MB_9_7*%
X75250000Y-81500000D03*
%TD*%
D11*
%TO.C,SW45*%
X152428000Y-48440000D03*
X158928000Y-48440000D03*
X152428000Y-52940000D03*
X158928000Y-52940000D03*
%TD*%
D10*
%TO.C,KiKit_MB_8_4*%
X221750000Y-21250000D03*
%TD*%
%TO.C,KiKit_MB_3_3*%
X123440477Y-25000000D03*
%TD*%
%TO.C,KiKit_MB_12_6*%
X72833334Y-76500000D03*
%TD*%
%TO.C,KiKit_MB_11_4*%
X72000000Y-25000000D03*
%TD*%
%TO.C,KiKit_MB_4_1*%
X171416666Y-25000000D03*
%TD*%
D11*
%TO.C,SW8*%
X88230000Y-29395000D03*
X94730000Y-29395000D03*
X88230000Y-33895000D03*
X94730000Y-33895000D03*
%TD*%
D10*
%TO.C,KiKit_MB_4_3*%
X172273809Y-25000000D03*
%TD*%
%TO.C,KiKit_MB_3_1*%
X122583334Y-25000000D03*
%TD*%
%TO.C,KiKit_MB_13_7*%
X226250000Y-25000000D03*
%TD*%
%TO.C,KiKit_MB_1_6*%
X75250000Y-50107143D03*
%TD*%
%TO.C,KiKit_MB_7_6*%
X75250000Y-22083334D03*
%TD*%
D11*
%TO.C,SW59*%
X174889000Y-67398000D03*
X181389000Y-67398000D03*
X174889000Y-71898000D03*
X181389000Y-71898000D03*
%TD*%
%TO.C,SW12*%
X91772000Y-67398000D03*
X98272000Y-67398000D03*
X91772000Y-71898000D03*
X98272000Y-71898000D03*
%TD*%
D10*
%TO.C,KiKit_MB_5_1*%
X125583334Y-76500000D03*
%TD*%
D11*
%TO.C,SW3*%
X81018000Y-38899000D03*
X87518000Y-38899000D03*
X81018000Y-43399000D03*
X87518000Y-43399000D03*
%TD*%
D10*
%TO.C,KiKit_MB_10_4*%
X221750000Y-80250000D03*
%TD*%
%TO.C,KiKit_MB_8_2*%
X221750000Y-20416667D03*
%TD*%
D11*
%TO.C,SW65*%
X186623000Y-67395000D03*
X193123000Y-67395000D03*
X186623000Y-71895000D03*
X193123000Y-71895000D03*
%TD*%
%TO.C,SW41*%
X155077000Y-67399000D03*
X161577000Y-67399000D03*
X155077000Y-71899000D03*
X161577000Y-71899000D03*
%TD*%
%TO.C,SW31*%
X126260000Y-29441000D03*
X132760000Y-29441000D03*
X126260000Y-33941000D03*
X132760000Y-33941000D03*
%TD*%
D12*
%TO.C,J2*%
X179540000Y-36422000D03*
D13*
X177000000Y-36422000D03*
X174460000Y-36422000D03*
X171920000Y-36422000D03*
X169380000Y-36422000D03*
X166840000Y-36422000D03*
X164300000Y-36422000D03*
X161760000Y-36422000D03*
X159220000Y-36422000D03*
X156680000Y-36422000D03*
X154140000Y-36422000D03*
X151600000Y-36422000D03*
X149060000Y-36422000D03*
X146520000Y-36422000D03*
X143980000Y-36422000D03*
X141440000Y-36422000D03*
X138900000Y-36422000D03*
X136360000Y-36422000D03*
X133820000Y-36422000D03*
X131280000Y-36422000D03*
%TD*%
D10*
%TO.C,KiKit_MB_12_2*%
X71166667Y-76500000D03*
%TD*%
D11*
%TO.C,SW23*%
X100076000Y-57869000D03*
X106576000Y-57869000D03*
X100076000Y-62369000D03*
X106576000Y-62369000D03*
%TD*%
D10*
%TO.C,KiKit_MB_9_6*%
X75250000Y-81083333D03*
%TD*%
D11*
%TO.C,SW13*%
X97737000Y-29440000D03*
X104237000Y-29440000D03*
X97737000Y-33940000D03*
X104237000Y-33940000D03*
%TD*%
D10*
%TO.C,KiKit_MB_11_2*%
X71166667Y-25000000D03*
%TD*%
%TO.C,KiKit_MB_9_4*%
X75250000Y-80250000D03*
%TD*%
D11*
%TO.C,SW28*%
X138085000Y-57856000D03*
X144585000Y-57856000D03*
X138085000Y-62356000D03*
X144585000Y-62356000D03*
%TD*%
%TO.C,SW2*%
X78743000Y-29392000D03*
X85243000Y-29392000D03*
X78743000Y-33892000D03*
X85243000Y-33892000D03*
%TD*%
%TO.C,SW58*%
X203831000Y-57819000D03*
X210331000Y-57819000D03*
X203831000Y-62319000D03*
X210331000Y-62319000D03*
%TD*%
D10*
%TO.C,KiKit_MB_9_5*%
X75250000Y-80666666D03*
%TD*%
D11*
%TO.C,SW20*%
X121506000Y-38874000D03*
X128006000Y-38874000D03*
X121506000Y-43374000D03*
X128006000Y-43374000D03*
%TD*%
%TO.C,SW50*%
X169020000Y-38857000D03*
X175520000Y-38857000D03*
X169020000Y-43357000D03*
X175520000Y-43357000D03*
%TD*%
D10*
%TO.C,KiKit_MB_13_6*%
X225833333Y-25000000D03*
%TD*%
D11*
%TO.C,SW35*%
X197529000Y-38838000D03*
X204029000Y-38838000D03*
X197529000Y-43338000D03*
X204029000Y-43338000D03*
%TD*%
%TO.C,SW24*%
X185597000Y-57827000D03*
X192097000Y-57827000D03*
X185597000Y-62327000D03*
X192097000Y-62327000D03*
%TD*%
%TO.C,SW34*%
X147587000Y-57845000D03*
X154087000Y-57845000D03*
X147587000Y-62345000D03*
X154087000Y-62345000D03*
%TD*%
%TO.C,SW73*%
X209458000Y-38833000D03*
X215958000Y-38833000D03*
X209458000Y-43333000D03*
X215958000Y-43333000D03*
%TD*%
%TO.C,SW52*%
X176096000Y-57822000D03*
X182596000Y-57822000D03*
X176096000Y-62322000D03*
X182596000Y-62322000D03*
%TD*%
D10*
%TO.C,KiKit_MB_7_4*%
X75250000Y-21250000D03*
%TD*%
%TO.C,KiKit_MB_14_3*%
X224583333Y-76500000D03*
%TD*%
%TO.C,KiKit_MB_6_2*%
X173988095Y-76500000D03*
%TD*%
D11*
%TO.C,SW37*%
X135750000Y-29439000D03*
X142250000Y-29439000D03*
X135750000Y-33939000D03*
X142250000Y-33939000D03*
%TD*%
%TO.C,SW40*%
X157089000Y-57839000D03*
X163589000Y-57839000D03*
X157089000Y-62339000D03*
X163589000Y-62339000D03*
%TD*%
D10*
%TO.C,KiKit_MB_5_7*%
X123011905Y-76500000D03*
%TD*%
D11*
%TO.C,SW67*%
X192765000Y-29416000D03*
X199265000Y-29416000D03*
X192765000Y-33916000D03*
X199265000Y-33916000D03*
%TD*%
%TO.C,SW49*%
X154757000Y-29449000D03*
X161257000Y-29449000D03*
X154757000Y-33949000D03*
X161257000Y-33949000D03*
%TD*%
D10*
%TO.C,KiKit_MB_6_7*%
X171845238Y-76500000D03*
%TD*%
%TO.C,KiKit_MB_6_1*%
X174416666Y-76500000D03*
%TD*%
%TO.C,KiKit_MB_2_4*%
X221750000Y-50535715D03*
%TD*%
%TO.C,KiKit_MB_10_2*%
X221750000Y-79416666D03*
%TD*%
%TO.C,KiKit_MB_12_7*%
X73250000Y-76500000D03*
%TD*%
D11*
%TO.C,SW1*%
X210545000Y-67383000D03*
X217045000Y-67383000D03*
X210545000Y-71883000D03*
X217045000Y-71883000D03*
%TD*%
D10*
%TO.C,KiKit_MB_4_4*%
X172702380Y-25000000D03*
%TD*%
%TO.C,KiKit_MB_12_4*%
X72000000Y-76500000D03*
%TD*%
%TO.C,KiKit_MB_2_3*%
X221750000Y-50107143D03*
%TD*%
%TO.C,KiKit_MB_14_2*%
X224166666Y-76500000D03*
%TD*%
D11*
%TO.C,SW51*%
X161928000Y-48440000D03*
X168428000Y-48440000D03*
X161928000Y-52940000D03*
X168428000Y-52940000D03*
%TD*%
D10*
%TO.C,KiKit_MB_11_6*%
X72833334Y-25000000D03*
%TD*%
%TO.C,KiKit_MB_7_3*%
X75250000Y-20833334D03*
%TD*%
%TO.C,KiKit_MB_4_2*%
X171845238Y-25000000D03*
%TD*%
%TO.C,KiKit_MB_5_8*%
X122583334Y-76500000D03*
%TD*%
%TO.C,KiKit_MB_8_1*%
X221750000Y-20000000D03*
%TD*%
%TO.C,KiKit_MB_1_8*%
X75250000Y-49250000D03*
%TD*%
D11*
%TO.C,SW18*%
X190437000Y-48425000D03*
X196937000Y-48425000D03*
X190437000Y-52925000D03*
X196937000Y-52925000D03*
%TD*%
D10*
%TO.C,KiKit_MB_1_1*%
X75250000Y-52250000D03*
%TD*%
D11*
%TO.C,SW72*%
X207276000Y-29417000D03*
X213776000Y-29417000D03*
X207276000Y-33917000D03*
X213776000Y-33917000D03*
%TD*%
D10*
%TO.C,KiKit_MB_6_8*%
X171416666Y-76500000D03*
%TD*%
D11*
%TO.C,SW5*%
X84881000Y-57871000D03*
X91381000Y-57871000D03*
X84881000Y-62371000D03*
X91381000Y-62371000D03*
%TD*%
%TO.C,SW6*%
X79991000Y-67369000D03*
X86491000Y-67369000D03*
X79991000Y-71869000D03*
X86491000Y-71869000D03*
%TD*%
D10*
%TO.C,KiKit_MB_1_2*%
X75250000Y-51821428D03*
%TD*%
%TO.C,KiKit_MB_10_6*%
X221750000Y-81083333D03*
%TD*%
D11*
%TO.C,SW25*%
X116747000Y-29439000D03*
X123247000Y-29439000D03*
X116747000Y-33939000D03*
X123247000Y-33939000D03*
%TD*%
%TO.C,SW38*%
X150013000Y-38864000D03*
X156513000Y-38864000D03*
X150013000Y-43364000D03*
X156513000Y-43364000D03*
%TD*%
D10*
%TO.C,KiKit_MB_13_5*%
X225416666Y-25000000D03*
%TD*%
%TO.C,KiKit_MB_9_2*%
X75250000Y-79416666D03*
%TD*%
%TO.C,KiKit_MB_5_4*%
X124297620Y-76500000D03*
%TD*%
%TO.C,KiKit_MB_12_5*%
X72416667Y-76500000D03*
%TD*%
%TO.C,KiKit_MB_10_5*%
X221750000Y-80666666D03*
%TD*%
%TO.C,KiKit_MB_10_7*%
X221750000Y-81500000D03*
%TD*%
%TO.C,KiKit_MB_11_3*%
X71583334Y-25000000D03*
%TD*%
D11*
%TO.C,SW27*%
X123921000Y-48421000D03*
X130421000Y-48421000D03*
X123921000Y-52921000D03*
X130421000Y-52921000D03*
%TD*%
D10*
%TO.C,KiKit_MB_7_1*%
X75250000Y-20000000D03*
%TD*%
%TO.C,KiKit_MB_9_3*%
X75250000Y-79833333D03*
%TD*%
%TO.C,KiKit_MB_14_4*%
X225000000Y-76500000D03*
%TD*%
D11*
%TO.C,SW19*%
X107253000Y-29428000D03*
X113753000Y-29428000D03*
X107253000Y-33928000D03*
X113753000Y-33928000D03*
%TD*%
%TO.C,SW10*%
X95406000Y-48379000D03*
X101906000Y-48379000D03*
X95406000Y-52879000D03*
X101906000Y-52879000D03*
%TD*%
D10*
%TO.C,KiKit_MB_14_1*%
X223750000Y-76500000D03*
%TD*%
%TO.C,KiKit_MB_1_4*%
X75250000Y-50964285D03*
%TD*%
D11*
%TO.C,SW61*%
X173755000Y-29427000D03*
X180255000Y-29427000D03*
X173755000Y-33927000D03*
X180255000Y-33927000D03*
%TD*%
D10*
%TO.C,KiKit_MB_14_7*%
X226250000Y-76500000D03*
%TD*%
D11*
%TO.C,SW46*%
X166594000Y-57831000D03*
X173094000Y-57831000D03*
X166594000Y-62331000D03*
X173094000Y-62331000D03*
%TD*%
D10*
%TO.C,KiKit_MB_12_1*%
X70750000Y-76500000D03*
%TD*%
%TO.C,KiKit_MB_8_7*%
X221750000Y-22500000D03*
%TD*%
%TO.C,KiKit_MB_4_7*%
X173988095Y-25000000D03*
%TD*%
%TO.C,KiKit_MB_8_5*%
X221750000Y-21666667D03*
%TD*%
%TO.C,KiKit_MB_5_6*%
X123440477Y-76500000D03*
%TD*%
%TO.C,KiKit_MB_8_6*%
X221750000Y-22083334D03*
%TD*%
%TO.C,KiKit_MB_13_2*%
X224166666Y-25000000D03*
%TD*%
D11*
%TO.C,SW16*%
X119084000Y-57858000D03*
X125584000Y-57858000D03*
X119084000Y-62358000D03*
X125584000Y-62358000D03*
%TD*%
D10*
%TO.C,KiKit_MB_5_2*%
X125154762Y-76500000D03*
%TD*%
%TO.C,KiKit_MB_2_6*%
X221750000Y-51392857D03*
%TD*%
%TO.C,KiKit_MB_3_8*%
X125583334Y-25000000D03*
%TD*%
D11*
%TO.C,SW62*%
X188024000Y-38847000D03*
X194524000Y-38847000D03*
X188024000Y-43347000D03*
X194524000Y-43347000D03*
%TD*%
D10*
%TO.C,KiKit_MB_2_2*%
X221750000Y-49678572D03*
%TD*%
%TO.C,KiKit_MB_4_5*%
X173130952Y-25000000D03*
%TD*%
M02*
