%TF.GenerationSoftware,KiCad,Pcbnew,7.0.9*%
%TF.CreationDate,2024-12-06T21:36:14-05:00*%
%TF.ProjectId,panel,70616e65-6c2e-46b6-9963-61645f706362,rev?*%
%TF.SameCoordinates,Original*%
%TF.FileFunction,Drillmap*%
%TF.FilePolarity,Positive*%
%FSLAX45Y45*%
G04 Gerber Fmt 4.5, Leading zero omitted, Abs format (unit mm)*
G04 Created by KiCad (PCBNEW 7.0.9) date 2024-12-06 21:36:14*
%MOMM*%
%LPD*%
G01*
G04 APERTURE LIST*
%ADD10C,0.100000*%
%ADD11C,0.200000*%
%ADD12C,0.110000*%
G04 APERTURE END LIST*
D10*
X7395971Y-5229306D02*
X7400702Y-5227997D01*
X12558333Y-7750000D02*
X12558454Y-7745093D01*
X12611194Y-2261808D02*
X12615578Y-2259601D01*
X7325000Y-4825000D02*
X7325000Y-2350000D01*
X7434802Y-5225482D02*
X7439673Y-5226082D01*
X7339227Y-4876410D02*
X7336808Y-4872140D01*
X17140584Y-7735327D02*
X17141185Y-7740198D01*
X22088196Y-2535150D02*
X22081851Y-2530968D01*
X17503398Y-7657612D02*
X17507978Y-7655845D01*
X7336808Y-5277860D02*
X7339227Y-5273590D01*
X22173814Y-7471490D02*
X22174070Y-7468970D01*
X22360773Y-4876410D02*
X22358147Y-4880557D01*
X21974367Y-2500000D02*
X17541667Y-2500000D01*
X17135821Y-2316311D02*
X17137361Y-2320971D01*
X22055022Y-7633263D02*
X22061928Y-7630090D01*
X22308689Y-5230846D02*
X22313268Y-5232612D01*
X22352301Y-2286561D02*
X22355321Y-2290430D01*
X17453475Y-7847140D02*
X17451268Y-7842755D01*
X7492156Y-4899095D02*
X7488439Y-4902301D01*
X17129859Y-7702860D02*
X17132066Y-7707244D01*
X7377860Y-7888192D02*
X7373590Y-7885773D01*
X7499095Y-4892156D02*
X7495711Y-4895711D01*
X22255491Y-4923079D02*
X22250702Y-4922003D01*
X22304029Y-2254306D02*
X22308689Y-2255846D01*
X22365399Y-5282244D02*
X22367388Y-5286732D01*
X7524518Y-5315198D02*
X7524879Y-5320093D01*
X17526994Y-2251082D02*
X17531865Y-2250482D01*
X22081851Y-2530968D02*
X22079701Y-2529628D01*
X17132066Y-7842755D02*
X17129859Y-7847140D01*
X12201089Y-7659601D02*
X12205473Y-7661808D01*
X22043262Y-2512040D02*
X22036071Y-2509582D01*
X22079701Y-2529628D02*
X22073152Y-2525773D01*
X22236732Y-4917388D02*
X22232244Y-4915399D01*
X12244106Y-2298590D02*
X12246525Y-2302860D01*
X17101237Y-7880321D02*
X17097224Y-7883147D01*
X22200905Y-5257844D02*
X22204289Y-5254289D01*
X22219443Y-5241853D02*
X22223590Y-5239227D01*
X22338439Y-5247699D02*
X22342156Y-5250905D01*
X7620299Y-7620371D02*
X7626848Y-7624227D01*
X12587623Y-2470711D02*
X12584238Y-2467156D01*
X22166176Y-2641345D02*
X22165418Y-2638929D01*
X7369443Y-7883147D02*
X7365430Y-7880321D01*
X7519154Y-5291311D02*
X7520694Y-5295971D01*
X12643660Y-7898918D02*
X12638824Y-7898078D01*
X22090275Y-7613403D02*
X22096400Y-7608905D01*
X12229044Y-7679289D02*
X12232428Y-7682844D01*
X12232428Y-2282844D02*
X12235634Y-2286561D01*
X7629062Y-7625456D02*
X7635798Y-7628974D01*
X7329306Y-5295971D02*
X7330845Y-5291311D01*
X17088806Y-7888192D02*
X17084422Y-7890399D01*
X7400702Y-4922003D02*
X7395971Y-4920694D01*
X22176921Y-5305491D02*
X22177997Y-5300702D01*
X7365430Y-7880321D02*
X7361561Y-7877301D01*
X22227860Y-5236808D02*
X22232244Y-5234601D01*
X12591177Y-2474095D02*
X12587623Y-2470711D01*
X7505321Y-5265430D02*
X7508147Y-5269443D01*
X22322140Y-4913192D02*
X22317756Y-4915399D01*
X22373918Y-5310327D02*
X22374518Y-5315198D01*
X22365399Y-2307244D02*
X22367388Y-2311732D01*
X22370694Y-5295971D02*
X22372003Y-5300702D01*
X7377860Y-5236808D02*
X7382244Y-5234601D01*
X17458520Y-2294443D02*
X17461346Y-2290430D01*
X12252488Y-7833689D02*
X12250721Y-7838268D01*
X22090275Y-2536597D02*
X22088196Y-2535150D01*
X22064202Y-2521026D02*
X22061928Y-2519910D01*
X17536760Y-7650120D02*
X17541667Y-7650000D01*
X17536760Y-2250120D02*
X17541667Y-2250000D01*
X22317756Y-7890399D02*
X22313268Y-7892388D01*
X7528870Y-2660987D02*
X7527530Y-2668467D01*
X7554628Y-2595299D02*
X7550773Y-2601848D01*
X12565945Y-2438268D02*
X12564179Y-2433689D01*
X7586311Y-7594063D02*
X7588147Y-7595808D01*
X7330845Y-2316311D02*
X7332612Y-2311732D01*
X12205473Y-2261808D02*
X12209744Y-2264227D01*
X12196602Y-2257612D02*
X12201089Y-2259601D01*
X17118968Y-2286561D02*
X17121987Y-2290430D01*
X7525930Y-2681030D02*
X7525353Y-2688607D01*
X22144032Y-2593149D02*
X22139850Y-2586804D01*
X22304029Y-5229306D02*
X22308689Y-5230846D01*
X12594894Y-7672699D02*
X12598763Y-7669679D01*
X12217903Y-2480321D02*
X12213890Y-2483147D01*
X7377860Y-4913192D02*
X7373590Y-4910773D01*
X12606923Y-7885773D02*
X12602776Y-7883147D01*
X17041667Y-2250000D02*
X17046574Y-2250120D01*
X7076227Y-8150000D02*
X22623773Y-8150000D01*
X7480557Y-5241853D02*
X7484570Y-5244679D01*
X17046574Y-7899879D02*
X17041667Y-7900000D01*
X7454028Y-5229306D02*
X7458689Y-5230846D01*
X7327997Y-7824298D02*
X7326921Y-7819509D01*
X7525353Y-7461393D02*
X7525930Y-7468970D01*
X22370694Y-2320971D02*
X22372003Y-2325702D01*
X7635798Y-7628974D02*
X7638072Y-7630090D01*
X7534582Y-2638929D02*
X7533824Y-2641345D01*
X17442148Y-7740198D02*
X17442749Y-7735327D01*
X17507978Y-7894154D02*
X17503398Y-7892388D01*
X22372003Y-7824298D02*
X22370694Y-7829028D01*
X12232428Y-2467156D02*
X12229044Y-2470711D01*
X22166176Y-7508655D02*
X22168267Y-7501348D01*
X12602776Y-7883147D02*
X12598763Y-7880321D01*
X17441787Y-7804907D02*
X17441667Y-7800000D01*
X7524879Y-4829907D02*
X7524518Y-4834802D01*
X12250721Y-2311732D02*
X12252488Y-2316311D01*
X22070938Y-7625456D02*
X22073152Y-7624227D01*
X12658333Y-7900000D02*
X12653426Y-7899879D01*
X12173006Y-7898918D02*
X12168135Y-7899518D01*
X7463268Y-4917388D02*
X7458689Y-4919154D01*
X12252488Y-2316311D02*
X12254027Y-2320971D01*
X17140584Y-7814673D02*
X17139745Y-7819509D01*
X12558454Y-7745093D02*
X12558815Y-7740198D01*
X12158333Y-7900000D02*
X7425000Y-7900000D01*
X17442148Y-2340198D02*
X17442749Y-2335327D01*
X17441787Y-7745093D02*
X17442148Y-7740198D01*
X22111853Y-7595808D02*
X22113689Y-7594063D01*
X12256412Y-7730491D02*
X12257251Y-7735327D01*
X17093077Y-2264227D02*
X17097224Y-2266853D01*
X22374518Y-4834802D02*
X22373918Y-4839673D01*
X7725633Y-2500000D02*
X7724367Y-2500016D01*
X7350905Y-2282844D02*
X7354289Y-2279289D01*
X17445973Y-7720971D02*
X17447512Y-7716311D01*
X17449279Y-7711731D02*
X17451268Y-7707244D01*
X17474511Y-2275905D02*
X17478227Y-2272699D01*
X7609725Y-2536597D02*
X7603600Y-2541095D01*
X12182631Y-2252997D02*
X12187362Y-2254306D01*
X22624970Y-2000029D02*
X22623773Y-2000000D01*
X12257852Y-2340198D02*
X12258213Y-2345093D01*
X12615578Y-2490399D02*
X12611194Y-2488192D01*
X22289673Y-5226082D02*
X22294509Y-5226921D01*
X17127440Y-7698590D02*
X17129859Y-7702860D01*
X7685987Y-7646129D02*
X7693467Y-7647470D01*
X22186808Y-5277860D02*
X22189227Y-5273590D01*
X7350905Y-4892156D02*
X7347699Y-4888439D01*
X12620065Y-7657612D02*
X12624644Y-7655845D01*
X22365399Y-4867756D02*
X22363192Y-4872140D01*
X17084422Y-2490399D02*
X17079935Y-2492388D01*
X7354289Y-5254289D02*
X7357844Y-5250905D01*
X22373078Y-5305491D02*
X22373918Y-5310327D01*
X7425000Y-4925000D02*
X7420093Y-4924880D01*
X7373590Y-2264227D02*
X7377860Y-2261808D01*
X17536760Y-2499880D02*
X17531865Y-2499518D01*
X12221773Y-7877301D02*
X12217903Y-7880321D01*
X12248732Y-7842755D02*
X12246525Y-7847140D01*
X22175482Y-4834802D02*
X22175120Y-4829907D01*
X17449279Y-2438268D02*
X17447512Y-2433689D01*
X22299298Y-5227997D02*
X22304029Y-5229306D01*
X22275000Y-4925000D02*
X22270093Y-4924880D01*
X22374879Y-7804907D02*
X22374518Y-7809802D01*
X7525000Y-2700633D02*
X7525000Y-4825000D01*
X22207844Y-5250905D02*
X22211561Y-5247699D01*
X7341853Y-4880557D02*
X7339227Y-4876410D01*
X17140584Y-2414673D02*
X17139745Y-2419509D01*
X22073152Y-7624227D02*
X22079701Y-7620371D01*
X7550773Y-7548152D02*
X7554628Y-7554701D01*
X17075356Y-7655845D02*
X17079935Y-7657612D01*
X17079935Y-7657612D02*
X17084422Y-7659601D01*
X7354289Y-2279289D02*
X7357844Y-2275905D01*
X22370694Y-4854029D02*
X22369154Y-4858689D01*
X22174984Y-7450633D02*
X22175000Y-7449367D01*
X7537919Y-2629362D02*
X7537040Y-2631738D01*
X17474511Y-7874095D02*
X17470956Y-7870711D01*
X7336808Y-7847140D02*
X7334601Y-7842755D01*
X7444509Y-4923079D02*
X7439673Y-4923918D01*
X7492156Y-5250905D02*
X7495711Y-5254289D01*
X7495711Y-4895711D02*
X7492156Y-4899095D01*
X7410327Y-7898918D02*
X7405491Y-7898078D01*
X12192022Y-2255846D02*
X12196602Y-2257612D01*
X17101237Y-7669679D02*
X17105106Y-7672699D01*
X22245971Y-4920694D02*
X22241311Y-4919154D01*
X7663929Y-2509582D02*
X7656738Y-2512040D01*
X17455894Y-7698590D02*
X17458520Y-7694443D01*
X22360773Y-7851410D02*
X22358147Y-7855557D01*
X7555968Y-7556850D02*
X7560150Y-7563196D01*
X12182631Y-2497003D02*
X12177842Y-2498079D01*
X7635798Y-2521026D02*
X7629062Y-2524544D01*
X22111853Y-2554192D02*
X22106215Y-2549098D01*
X22211561Y-4902301D02*
X22207844Y-4899095D01*
X7075029Y-2000029D02*
X7075000Y-2001227D01*
X17441667Y-7800000D02*
X17441667Y-7750000D01*
X7373590Y-4910773D02*
X7369443Y-4908147D01*
X12575186Y-2455557D02*
X12572560Y-2451410D01*
X17531865Y-7899518D02*
X17526994Y-7898918D01*
X17451268Y-2307244D02*
X17453475Y-2302860D01*
X17474511Y-7675905D02*
X17478227Y-7672699D01*
X7716136Y-7649775D02*
X7724367Y-7649984D01*
X22365399Y-7842755D02*
X22363192Y-7847140D01*
X7334601Y-5282244D02*
X7336808Y-5277860D01*
X17442749Y-2414673D02*
X17442148Y-2409802D01*
X12192022Y-2494154D02*
X12187362Y-2495694D01*
X22204289Y-5254289D02*
X22207844Y-5250905D01*
X17084422Y-7659601D02*
X17088806Y-7661808D01*
X22330557Y-7883147D02*
X22326410Y-7885773D01*
X22250702Y-5227997D02*
X22255491Y-5226921D01*
X22133905Y-7571400D02*
X22138403Y-7565275D01*
X17051468Y-7899518D02*
X17046574Y-7899879D01*
X22367388Y-4863268D02*
X22365399Y-4867756D01*
X12187362Y-2495694D02*
X12182631Y-2497003D01*
X7076227Y-2000000D02*
X7075029Y-2000029D01*
X12559416Y-7814673D02*
X12558815Y-7809802D01*
X7580937Y-2561311D02*
X7579192Y-2563147D01*
X12561330Y-2325702D02*
X12562639Y-2320971D01*
X22369154Y-7833689D02*
X22367388Y-7838268D01*
X7609725Y-7613403D02*
X7611804Y-7614850D01*
X22375000Y-4825000D02*
X22374879Y-4829907D01*
X22120808Y-7586853D02*
X22125902Y-7581214D01*
X22165418Y-7511071D02*
X22166176Y-7508655D01*
X12205473Y-7888192D02*
X12201089Y-7890399D01*
X7601597Y-2542645D02*
X7595707Y-2547448D01*
X7075000Y-2001227D02*
X7075000Y-8148773D01*
X17470956Y-2279289D02*
X17474511Y-2275905D01*
X12602776Y-2266853D02*
X12606923Y-2264227D01*
X12572560Y-2451410D02*
X12570141Y-2447140D01*
X7365430Y-5244679D02*
X7369443Y-5241853D01*
X12258333Y-7750000D02*
X12258333Y-7800000D01*
X7593785Y-2549098D02*
X7588147Y-2554192D01*
X7544910Y-7536928D02*
X7546026Y-7539202D01*
X7341853Y-2294443D02*
X7344679Y-2290430D01*
X17522158Y-7651921D02*
X17526994Y-7651082D01*
X7334601Y-4867756D02*
X7332612Y-4863268D01*
X7588147Y-2554192D02*
X7586311Y-2555937D01*
X22334570Y-7880321D02*
X22330557Y-7883147D01*
X17498911Y-2259601D02*
X17503398Y-2257612D01*
X7326082Y-2335327D02*
X7326921Y-2330491D01*
X7523078Y-4844509D02*
X7522003Y-4849298D01*
X22355321Y-5265430D02*
X22358147Y-5269443D01*
X17121987Y-2459570D02*
X17118968Y-2463439D01*
X7410327Y-5226082D02*
X7415198Y-5225482D01*
X17470956Y-2470711D02*
X17467572Y-2467156D01*
X7382244Y-4915399D02*
X7377860Y-4913192D01*
X12567934Y-2442756D02*
X12565945Y-2438268D01*
X17046574Y-7650120D02*
X17051468Y-7650481D01*
X12620065Y-2492388D02*
X12615578Y-2490399D01*
X17445973Y-7829028D02*
X17444664Y-7824298D01*
X12624644Y-2494154D02*
X12620065Y-2492388D01*
X22194679Y-5265430D02*
X22197699Y-5261561D01*
X7326921Y-7819509D02*
X7326082Y-7814673D01*
X22374518Y-2340198D02*
X22374879Y-2345093D01*
X7510773Y-4876410D02*
X7508147Y-4880557D01*
X17139745Y-7730491D02*
X17140584Y-7735327D01*
X12246525Y-7847140D02*
X12244106Y-7851410D01*
X7339227Y-7851410D02*
X7336808Y-7847140D01*
X7429907Y-5225120D02*
X7434802Y-5225482D01*
X22338439Y-2272699D02*
X22342156Y-2275905D01*
X17129859Y-2302860D02*
X17132066Y-2307244D01*
X7566095Y-7571400D02*
X7567645Y-7573403D01*
X12252488Y-2433689D02*
X12250721Y-2438268D01*
X17455894Y-7851410D02*
X17453475Y-7847140D01*
X17474511Y-2474095D02*
X17470956Y-2470711D01*
X22177997Y-4849298D02*
X22176921Y-4844509D01*
X17447512Y-7716311D02*
X17449279Y-7711731D01*
X22374518Y-7809802D02*
X22373918Y-7814673D01*
X7344679Y-7859570D02*
X7341853Y-7855557D01*
X7567645Y-2576597D02*
X7566095Y-2578600D01*
X22036071Y-2509582D02*
X22033655Y-2508824D01*
X22175482Y-5315198D02*
X22176082Y-5310327D01*
X7354289Y-4895711D02*
X7350905Y-4892156D01*
X7325481Y-4834802D02*
X7325120Y-4829907D01*
X7467755Y-4915399D02*
X7463268Y-4917388D01*
X21996490Y-7648814D02*
X22004029Y-7647854D01*
X22372003Y-4849298D02*
X22370694Y-4854029D01*
X22373078Y-2330491D02*
X22373918Y-2335327D01*
X12643660Y-7651082D02*
X12648531Y-7650481D01*
X7528870Y-7489013D02*
X7529380Y-7491494D01*
X17101237Y-2480321D02*
X17097224Y-2483147D01*
X7531098Y-7498896D02*
X7531733Y-7501348D01*
X22227860Y-4913192D02*
X22223590Y-4910773D01*
X12587623Y-7679289D02*
X12591177Y-7675905D01*
X12250721Y-2438268D02*
X12248732Y-2442756D01*
X17443588Y-7730491D02*
X17444664Y-7725702D01*
X12241480Y-7694443D02*
X12244106Y-7698590D01*
X17503398Y-2492388D02*
X17498911Y-2490399D01*
X7325000Y-5325000D02*
X7325120Y-5320093D01*
X17056340Y-7898918D02*
X17051468Y-7899518D01*
X12177842Y-7898078D02*
X12173006Y-7898918D01*
X12258213Y-2345093D02*
X12258333Y-2350000D01*
X22016494Y-7645620D02*
X22023896Y-7643902D01*
X22294509Y-4923079D02*
X22289673Y-4923918D01*
X22349095Y-7867156D02*
X22345711Y-7870711D01*
X22113689Y-2555937D02*
X22111853Y-2554192D01*
X22284802Y-2250482D02*
X22289673Y-2251082D01*
X12558815Y-7740198D02*
X12559416Y-7735327D01*
X12213890Y-7883147D02*
X12209744Y-7885773D01*
X22186808Y-4872140D02*
X22184601Y-4867756D01*
X12615578Y-7659601D02*
X12620065Y-7657612D01*
X12611194Y-7888192D02*
X12606923Y-7885773D01*
X22299298Y-4922003D02*
X22294509Y-4923079D01*
X12256412Y-7819509D02*
X12255336Y-7824298D01*
X7580937Y-7588689D02*
X7586311Y-7594063D01*
X17121987Y-7859570D02*
X17118968Y-7863439D01*
X17115762Y-7682844D02*
X17118968Y-7686561D01*
X17541667Y-2250000D02*
X22275000Y-2250000D01*
X22349095Y-2282844D02*
X22352301Y-2286561D01*
X22342156Y-5250905D02*
X22345711Y-5254289D01*
X12562639Y-7829028D02*
X12561330Y-7824298D01*
X7341853Y-7855557D02*
X7339227Y-7851410D01*
X22079701Y-7620371D02*
X22081851Y-7619032D01*
X7574098Y-7581214D02*
X7579192Y-7586853D01*
X7463268Y-5232612D02*
X7467755Y-5234601D01*
X22223590Y-4910773D02*
X22219443Y-4908147D01*
X7391311Y-5230846D02*
X7395971Y-5229306D01*
X22284802Y-5225482D02*
X22289673Y-5226082D01*
X12620065Y-7892388D02*
X12615578Y-7890399D01*
X17536760Y-7899879D02*
X17531865Y-7899518D01*
X17531865Y-2499518D02*
X17526994Y-2498918D01*
X17097224Y-7883147D02*
X17093077Y-7885773D01*
X22194679Y-4884570D02*
X22191853Y-4880557D01*
X12615578Y-2259601D02*
X12620065Y-2257612D01*
X17046574Y-2250120D02*
X17051468Y-2250482D01*
X12209744Y-2264227D02*
X12213890Y-2266853D01*
X22270093Y-5225120D02*
X22275000Y-5225000D01*
X17065965Y-7652997D02*
X17070695Y-7654306D01*
X17112377Y-7679289D02*
X17115762Y-7682844D01*
X7546026Y-2610798D02*
X7544910Y-2613072D01*
X12168135Y-7899518D02*
X12163240Y-7899879D01*
X12558815Y-7809802D02*
X12558454Y-7804907D01*
X17112377Y-2279289D02*
X17115762Y-2282844D01*
X22373918Y-4839673D02*
X22373078Y-4844509D01*
X17084422Y-7890399D02*
X17079935Y-7892388D01*
X22352301Y-5261561D02*
X22355321Y-5265430D01*
X17134055Y-2438268D02*
X17132066Y-2442756D01*
X22155090Y-2613072D02*
X22153974Y-2610798D01*
X22014013Y-2503871D02*
X22006533Y-2502530D01*
X22345711Y-7870711D02*
X22342156Y-7874095D01*
X17482097Y-7669679D02*
X17486110Y-7666853D01*
X7666345Y-7641176D02*
X7673651Y-7643267D01*
X7467755Y-5234601D02*
X7472140Y-5236808D01*
X7593785Y-7600902D02*
X7595707Y-7602552D01*
X17046574Y-2499880D02*
X17041667Y-2500000D01*
X17138670Y-2325702D02*
X17139745Y-2330491D01*
X17061176Y-2251921D02*
X17065965Y-2252997D01*
X22177997Y-5300702D02*
X22179306Y-5295971D01*
X17041667Y-2500000D02*
X12658333Y-2500000D01*
X22352301Y-4888439D02*
X22349095Y-4892156D01*
X22270093Y-4924880D02*
X22265198Y-4924518D01*
X17138670Y-2424298D02*
X17137361Y-2429029D01*
X7554628Y-7554701D02*
X7555968Y-7556850D01*
X17141667Y-7800000D02*
X17141546Y-7804907D01*
X22367388Y-2311732D02*
X22369154Y-2316311D01*
X7444509Y-5226921D02*
X7449298Y-5227997D01*
X17464366Y-7686561D02*
X17467572Y-7682844D01*
X12567934Y-2307244D02*
X12570141Y-2302860D01*
X22145372Y-2595299D02*
X22144032Y-2593149D01*
X22369154Y-4858689D02*
X22367388Y-4863268D01*
X22338439Y-4902301D02*
X22334570Y-4905321D01*
X7484570Y-4905321D02*
X7480557Y-4908147D01*
X12205473Y-2488192D02*
X12201089Y-2490399D01*
X12570141Y-2302860D02*
X12572560Y-2298590D01*
X7365430Y-2269679D02*
X7369443Y-2266853D01*
X22162960Y-2631738D02*
X22162080Y-2629362D01*
X17507978Y-2255846D02*
X17512638Y-2254306D01*
X12201089Y-2259601D02*
X12205473Y-2261808D01*
X22250702Y-4922003D02*
X22245971Y-4920694D01*
X7525353Y-2688607D02*
X7525225Y-2691137D01*
X7400702Y-2252997D02*
X7405491Y-2251921D01*
X12187362Y-2254306D02*
X12192022Y-2255846D01*
X7484570Y-5244679D02*
X7488439Y-5247699D01*
X17451268Y-7707244D02*
X17453475Y-7702860D01*
X12192022Y-7894154D02*
X12187362Y-7895694D01*
X7325120Y-5320093D02*
X7325481Y-5315198D01*
X17482097Y-7880321D02*
X17478227Y-7877301D01*
X22179306Y-4854029D02*
X22177997Y-4849298D01*
X7693467Y-7647470D02*
X7695971Y-7647854D01*
X7365430Y-4905321D02*
X7361561Y-4902301D01*
X22232244Y-5234601D02*
X22236732Y-5232612D01*
X17075356Y-2494154D02*
X17070695Y-2495694D01*
X7325481Y-5315198D02*
X7326082Y-5310327D01*
X22294509Y-7898078D02*
X22289673Y-7898918D01*
X12584238Y-2282844D02*
X12587623Y-2279289D01*
X22172854Y-2670971D02*
X22172470Y-2668467D01*
X22189227Y-4876410D02*
X22186808Y-4872140D01*
X12241480Y-2455557D02*
X12238654Y-2459570D01*
X7386731Y-4917388D02*
X7382244Y-4915399D01*
X7566095Y-2578600D02*
X7561597Y-2584725D01*
X22363192Y-5277860D02*
X22365399Y-5282244D01*
X12561330Y-7725702D02*
X12562639Y-7720971D01*
X22275000Y-5225000D02*
X22279907Y-5225120D01*
X12584238Y-2467156D02*
X12581032Y-2463439D01*
X17464366Y-7863439D02*
X17461346Y-7859570D01*
X7391311Y-2255846D02*
X7395971Y-2254306D01*
X12606923Y-2264227D02*
X12611194Y-2261808D01*
X7329306Y-2320971D02*
X7330845Y-2316311D01*
X12570141Y-7847140D02*
X12567934Y-7842755D01*
X7382244Y-5234601D02*
X7386731Y-5232612D01*
X22189227Y-5273590D02*
X22191853Y-5269443D01*
X17137361Y-7829028D02*
X17135821Y-7833689D01*
X7513192Y-5277860D02*
X7515399Y-5282244D01*
X7325000Y-7800000D02*
X7325000Y-5325000D01*
X22172470Y-7481532D02*
X22172854Y-7479029D01*
X7326921Y-2330491D02*
X7327997Y-2325702D01*
X22358147Y-7855557D02*
X22355321Y-7859570D01*
X17461346Y-7859570D02*
X17458520Y-7855557D01*
X12163240Y-7650120D02*
X12168135Y-7650481D01*
X17129859Y-2447140D02*
X17127440Y-2451410D01*
X22153974Y-2610798D02*
X22150456Y-2604062D01*
X7527146Y-2670971D02*
X7526186Y-2678510D01*
X22304029Y-7895694D02*
X22299298Y-7897003D01*
X7527146Y-7479029D02*
X7527530Y-7481532D01*
X17526994Y-7651082D02*
X17531865Y-7650481D01*
X17124814Y-7855557D02*
X17121987Y-7859570D01*
X12209744Y-7885773D02*
X12205473Y-7888192D01*
X7626848Y-2525773D02*
X7620299Y-2529628D01*
X17093077Y-7885773D02*
X17088806Y-7888192D01*
X22098403Y-7607354D02*
X22104293Y-7602552D01*
X12558454Y-7804907D02*
X12558333Y-7800000D01*
X12560255Y-7819509D02*
X12559416Y-7814673D01*
X17138670Y-7725702D02*
X17139745Y-7730491D01*
X22026348Y-2506733D02*
X22023896Y-2506098D01*
X12629305Y-2254306D02*
X12634035Y-2252997D01*
X12168135Y-7650481D02*
X12173006Y-7651082D01*
X17137361Y-2320971D02*
X17138670Y-2325702D01*
X7439673Y-4923918D02*
X7434802Y-4924518D01*
X12258333Y-7800000D02*
X12258213Y-7804907D01*
X7425000Y-2250000D02*
X12158333Y-2250000D01*
X12653426Y-2499880D02*
X12648531Y-2499518D01*
X22279907Y-7899879D02*
X22275000Y-7900000D01*
X12238654Y-7859570D02*
X12235634Y-7863439D01*
X22104293Y-2547448D02*
X22098403Y-2542645D01*
X22139850Y-2586804D02*
X22138403Y-2584725D01*
X7525000Y-7449367D02*
X7525016Y-7450633D01*
X22197699Y-5261561D02*
X22200905Y-5257844D01*
X12258213Y-7804907D02*
X12257852Y-7809802D01*
X17512638Y-2495694D02*
X17507978Y-2494154D01*
X7549544Y-2604062D02*
X7546026Y-2610798D01*
X12638824Y-7898078D02*
X12634035Y-7897003D01*
X22204289Y-4895711D02*
X22200905Y-4892156D01*
X22132355Y-7573403D02*
X22133905Y-7571400D01*
X7654362Y-7637080D02*
X7656738Y-7637960D01*
X7395971Y-4920694D02*
X7391311Y-4919154D01*
X12205473Y-7661808D02*
X12209744Y-7664227D01*
X12575186Y-7855557D02*
X12572560Y-7851410D01*
X7373590Y-5239227D02*
X7377860Y-5236808D01*
X17132066Y-7707244D02*
X17134055Y-7711731D01*
X7517388Y-5286732D02*
X7519154Y-5291311D01*
X17070695Y-7654306D02*
X17075356Y-7655845D01*
X7350905Y-5257844D02*
X7354289Y-5254289D01*
X12213890Y-2483147D02*
X12209744Y-2485773D01*
X17467572Y-2467156D02*
X17464366Y-2463439D01*
X17075356Y-2255846D02*
X17079935Y-2257612D01*
X22176082Y-4839673D02*
X22175482Y-4834802D01*
X17464366Y-2463439D02*
X17461346Y-2459570D01*
X17108823Y-2275905D02*
X17112377Y-2279289D01*
X12572560Y-7698590D02*
X12575186Y-7694443D01*
X22043262Y-7637960D02*
X22045638Y-7637080D01*
X22372003Y-2325702D02*
X22373078Y-2330491D01*
X7713607Y-7649647D02*
X7716136Y-7649775D01*
X7683506Y-2504380D02*
X7676103Y-2506098D01*
X7611804Y-2535150D02*
X7609725Y-2536597D01*
X12229044Y-7870711D02*
X12225489Y-7874095D01*
X7685987Y-2503871D02*
X7683506Y-2504380D01*
X22175000Y-2700633D02*
X22174984Y-2699367D01*
X17442148Y-2409802D02*
X17441787Y-2404907D01*
X12606923Y-2485773D02*
X12602776Y-2483147D01*
X22374879Y-5320093D02*
X22375000Y-5325000D01*
X7420093Y-5225120D02*
X7425000Y-5225000D01*
X7386731Y-5232612D02*
X7391311Y-5230846D01*
X7347699Y-7863439D02*
X7344679Y-7859570D01*
X17105106Y-2272699D02*
X17108823Y-2275905D01*
X22349095Y-4892156D02*
X22345711Y-4895711D01*
X22241311Y-5230846D02*
X22245971Y-5229306D01*
X22171129Y-2660987D02*
X22170620Y-2658506D01*
X12221773Y-2272699D02*
X12225489Y-2275905D01*
X7405491Y-2251921D02*
X7410327Y-2251082D01*
X7332612Y-7838268D02*
X7330845Y-7833689D01*
X7703510Y-7648814D02*
X7706029Y-7649070D01*
X22326410Y-2264227D02*
X22330557Y-2266853D01*
X17079935Y-2257612D02*
X17084422Y-2259601D01*
X17132066Y-2442756D02*
X17129859Y-2447140D01*
X7572448Y-7579293D02*
X7574098Y-7581214D01*
X22360773Y-5273590D02*
X22363192Y-5277860D01*
X12634035Y-7897003D02*
X12629305Y-7895694D01*
X21996490Y-2501186D02*
X21993970Y-2500930D01*
X12221773Y-7672699D02*
X12225489Y-7675905D01*
X17512638Y-2254306D02*
X17517369Y-2252997D01*
X7344679Y-4884570D02*
X7341853Y-4880557D01*
X17141546Y-7804907D02*
X17141185Y-7809802D01*
X22197699Y-4888439D02*
X22194679Y-4884570D01*
X22279907Y-5225120D02*
X22284802Y-5225482D01*
X22304029Y-4920694D02*
X22299298Y-4922003D01*
X7656738Y-7637960D02*
X7663929Y-7640418D01*
X22370694Y-7829028D02*
X22369154Y-7833689D01*
X22241311Y-4919154D02*
X22236732Y-4917388D01*
X12255336Y-7725702D02*
X12256412Y-7730491D01*
X7525225Y-7458863D02*
X7525353Y-7461393D01*
X22138403Y-2584725D02*
X22133905Y-2578600D01*
X12581032Y-2463439D02*
X12578012Y-2459570D01*
X12256412Y-2330491D02*
X12257251Y-2335327D01*
X12177842Y-7651921D02*
X12182631Y-7652997D01*
X17526994Y-2498918D02*
X17522158Y-2498079D01*
X7663929Y-7640418D02*
X7666345Y-7641176D01*
X17088806Y-7661808D02*
X17093077Y-7664227D01*
X17061176Y-7898078D02*
X17056340Y-7898918D01*
X17503398Y-2257612D02*
X17507978Y-2255846D01*
X12246525Y-2302860D02*
X12248732Y-2307244D01*
X7377860Y-2261808D02*
X7382244Y-2259601D01*
X7515399Y-5282244D02*
X7517388Y-5286732D01*
X7339227Y-5273590D02*
X7341853Y-5269443D01*
X7373590Y-7885773D02*
X7369443Y-7883147D01*
X7620299Y-2529628D02*
X7618149Y-2530968D01*
X7546026Y-7539202D02*
X7549544Y-7545937D01*
X7075000Y-8148773D02*
X7075029Y-8149970D01*
X12658333Y-2250000D02*
X17041667Y-2250000D01*
X7534582Y-7511071D02*
X7537040Y-7518262D01*
X12562639Y-7720971D02*
X12564179Y-7716311D01*
X17135821Y-7833689D02*
X17134055Y-7838268D01*
X12570141Y-7702860D02*
X12572560Y-7698590D01*
X7523918Y-4839673D02*
X7523078Y-4844509D01*
X17461346Y-2290430D02*
X17464366Y-2286561D01*
X7654362Y-2512920D02*
X7647305Y-2515739D01*
X12177842Y-2251921D02*
X12182631Y-2252997D01*
X21993970Y-2500930D02*
X21986393Y-2500353D01*
X7391311Y-7894154D02*
X7386731Y-7892388D01*
X7520694Y-4854029D02*
X7519154Y-4858689D01*
X7595707Y-7602552D02*
X7601597Y-7607354D01*
X22308689Y-4919154D02*
X22304029Y-4920694D01*
X22289673Y-7898918D02*
X22284802Y-7899518D01*
X12643660Y-2251082D02*
X12648531Y-2250482D01*
X17141667Y-7750000D02*
X17141667Y-7800000D01*
X22127552Y-7579293D02*
X22132355Y-7573403D01*
X7425000Y-7900000D02*
X7420093Y-7899879D01*
X17127440Y-2298590D02*
X17129859Y-2302860D01*
X17097224Y-7666853D02*
X17101237Y-7669679D01*
X22045638Y-7637080D02*
X22052695Y-7634261D01*
X7527530Y-2668467D02*
X7527146Y-2670971D01*
X12225489Y-2474095D02*
X12221773Y-2477301D01*
X12225489Y-2275905D02*
X12229044Y-2279289D01*
X17093077Y-7664227D02*
X17097224Y-7666853D01*
X12611194Y-2488192D02*
X12606923Y-2485773D01*
X12257251Y-2335327D02*
X12257852Y-2340198D01*
X17141546Y-2345093D02*
X17141667Y-2350000D01*
X17517369Y-2252997D02*
X17522158Y-2251921D01*
X7629062Y-2524544D02*
X7626848Y-2525773D01*
X22168902Y-2651104D02*
X22168267Y-2648652D01*
X22330557Y-4908147D02*
X22326410Y-4910773D01*
X7638072Y-7630090D02*
X7644978Y-7633263D01*
X12648531Y-7650481D02*
X12653426Y-7650120D01*
X17453475Y-7702860D02*
X17455894Y-7698590D01*
X22036071Y-7640418D02*
X22043262Y-7637960D01*
X7499095Y-5257844D02*
X7502301Y-5261561D01*
X22334570Y-4905321D02*
X22330557Y-4908147D01*
X12562639Y-2429029D02*
X12561330Y-2424298D01*
X17118968Y-7863439D02*
X17115762Y-7867156D01*
X22168267Y-2648652D02*
X22166176Y-2641345D01*
X7425000Y-5225000D02*
X7429907Y-5225120D01*
X7560150Y-2586804D02*
X7555968Y-2593149D01*
X17494527Y-2488192D02*
X17490256Y-2485773D01*
X22125902Y-7581214D02*
X22127552Y-7579293D01*
X22260327Y-4923918D02*
X22255491Y-4923079D01*
X17135821Y-7716311D02*
X17137361Y-7720971D01*
X22182612Y-4863268D02*
X22180846Y-4858689D01*
X12201089Y-7890399D02*
X12196602Y-7892388D01*
X12558815Y-2340198D02*
X12559416Y-2335327D01*
X7325120Y-7804907D02*
X7325000Y-7800000D01*
X17486110Y-2266853D02*
X17490256Y-2264227D01*
X12602776Y-2483147D02*
X12598763Y-2480321D01*
X17441667Y-2350000D02*
X17441787Y-2345093D01*
X17522158Y-2498079D02*
X17517369Y-2497003D01*
X7525000Y-5325000D02*
X7525000Y-7449367D01*
X17065965Y-2252997D02*
X17070695Y-2254306D01*
X22322140Y-5236808D02*
X22326410Y-5239227D01*
X22006533Y-2502530D02*
X22004029Y-2502146D01*
X22175120Y-4829907D02*
X22175000Y-4825000D01*
X22159261Y-2622305D02*
X22158263Y-2619978D01*
X22342156Y-2275905D02*
X22345711Y-2279289D01*
X22289673Y-2251082D02*
X22294509Y-2251921D01*
X17079935Y-2492388D02*
X17075356Y-2494154D01*
X7327997Y-4849298D02*
X7326921Y-4844509D01*
X12602776Y-7666853D02*
X12606923Y-7664227D01*
X22284802Y-7899518D02*
X22279907Y-7899879D01*
X22299298Y-7897003D02*
X22294509Y-7898078D01*
X22184601Y-4867756D02*
X22182612Y-4863268D01*
X12648531Y-2499518D02*
X12643660Y-2498918D01*
X22158263Y-7530022D02*
X22159261Y-7527695D01*
X22373918Y-7814673D02*
X22373078Y-7819509D01*
X7488439Y-4902301D02*
X7484570Y-4905321D01*
X7330845Y-7833689D02*
X7329306Y-7829028D01*
X22322140Y-7888192D02*
X22317756Y-7890399D01*
X17139745Y-2419509D02*
X17138670Y-2424298D01*
X12598763Y-2269679D02*
X12602776Y-2266853D01*
X7561597Y-2584725D02*
X7560150Y-2586804D01*
X22061928Y-7630090D02*
X22064202Y-7628974D01*
X22260327Y-5226082D02*
X22265198Y-5225482D01*
X12254027Y-7720971D02*
X12255336Y-7725702D01*
X7369443Y-2266853D02*
X7373590Y-2264227D01*
X12560255Y-2419509D02*
X12559416Y-2414673D01*
X22096400Y-2541095D02*
X22090275Y-2536597D01*
X7339227Y-2298590D02*
X7341853Y-2294443D01*
X17490256Y-7664227D02*
X17494527Y-7661808D01*
X17124814Y-2455557D02*
X17121987Y-2459570D01*
X7647305Y-7634261D02*
X7654362Y-7637080D01*
X22175000Y-7449367D02*
X22175000Y-5325000D01*
X7415198Y-4924518D02*
X7410327Y-4923918D01*
X12257251Y-7814673D02*
X12256412Y-7819509D01*
X7586311Y-2555937D02*
X7580937Y-2561311D01*
X7326082Y-4839673D02*
X7325481Y-4834802D01*
X22369154Y-5291311D02*
X22370694Y-5295971D01*
X22175000Y-4825000D02*
X22175000Y-2700633D01*
X7325120Y-2345093D02*
X7325481Y-2340198D01*
X12163240Y-7899879D02*
X12158333Y-7900000D01*
X22345711Y-2279289D02*
X22349095Y-2282844D01*
X21983863Y-7649775D02*
X21986393Y-7649647D01*
X22330557Y-5241853D02*
X22334570Y-5244679D01*
X22052695Y-2515739D02*
X22045638Y-2512920D01*
X7644978Y-7633263D02*
X7647305Y-7634261D01*
X7603600Y-2541095D02*
X7601597Y-2542645D01*
X22275000Y-7900000D02*
X17541667Y-7900000D01*
X17140584Y-2335327D02*
X17141185Y-2340198D01*
X22363192Y-4872140D02*
X22360773Y-4876410D01*
X7529380Y-7491494D02*
X7531098Y-7498896D01*
X12257852Y-2409802D02*
X12257251Y-2414673D01*
X21975633Y-7649984D02*
X21983863Y-7649775D01*
X22625000Y-2001227D02*
X22624970Y-2000029D01*
X7524879Y-5320093D02*
X7525000Y-5325000D01*
X12634035Y-2497003D02*
X12629305Y-2495694D01*
X12578012Y-2459570D02*
X12575186Y-2455557D01*
X12213890Y-2266853D02*
X12217903Y-2269679D01*
X22125902Y-2568785D02*
X22120808Y-2563147D01*
X22175000Y-5325000D02*
X22175120Y-5320093D01*
X22133905Y-2578600D02*
X22132355Y-2576597D01*
X7525225Y-2691137D02*
X7525016Y-2699367D01*
X17467572Y-7867156D02*
X17464366Y-7863439D01*
X12173006Y-2251082D02*
X12177842Y-2251921D01*
X22322140Y-2261808D02*
X22326410Y-2264227D01*
X22132355Y-2576597D02*
X22127552Y-2570707D01*
X22004029Y-7647854D02*
X22006533Y-7647470D01*
X22200905Y-4892156D02*
X22197699Y-4888439D01*
X22173814Y-2678510D02*
X22172854Y-2670971D01*
X22168267Y-7501348D02*
X22168902Y-7498896D01*
X22215430Y-5244679D02*
X22219443Y-5241853D01*
X22014013Y-7646129D02*
X22016494Y-7645620D01*
X22334570Y-5244679D02*
X22338439Y-5247699D01*
X22367388Y-5286732D02*
X22369154Y-5291311D01*
X12158333Y-2250000D02*
X12163240Y-2250120D01*
X17108823Y-7675905D02*
X17112377Y-7679289D01*
X7695971Y-7647854D02*
X7703510Y-7648814D01*
X7391311Y-4919154D02*
X7386731Y-4917388D01*
X17467572Y-2282844D02*
X17470956Y-2279289D01*
X12565945Y-7838268D02*
X12564179Y-7833689D01*
X7560150Y-7563196D02*
X7561597Y-7565275D01*
X7526186Y-7471490D02*
X7527146Y-7479029D01*
X7341853Y-5269443D02*
X7344679Y-5265430D01*
X22174775Y-2691137D02*
X22174647Y-2688607D01*
X12606923Y-7664227D02*
X12611194Y-7661808D01*
X12255336Y-2424298D02*
X12254027Y-2429029D01*
X22294509Y-2251921D02*
X22299298Y-2252997D01*
X12257852Y-7809802D02*
X12257251Y-7814673D01*
X7537919Y-7520637D02*
X7540738Y-7527695D01*
X12559416Y-2335327D02*
X12560255Y-2330491D01*
X17137361Y-2429029D02*
X17135821Y-2433689D01*
X12598763Y-2480321D02*
X12594894Y-2477301D01*
X22289673Y-4923918D02*
X22284802Y-4924518D01*
X7519154Y-4858689D02*
X7517388Y-4863268D01*
X17444664Y-7725702D02*
X17445973Y-7720971D01*
X12182631Y-7652997D02*
X12187362Y-7654306D01*
X17115762Y-7867156D02*
X17112377Y-7870711D01*
X12248732Y-2442756D02*
X12246525Y-2447140D01*
X17541667Y-7900000D02*
X17536760Y-7899879D01*
X17447512Y-2316311D02*
X17449279Y-2311732D01*
X12653426Y-2250120D02*
X12658333Y-2250000D01*
X22625000Y-8148773D02*
X22625000Y-2001227D01*
X17118968Y-2463439D02*
X17115762Y-2467156D01*
X17443588Y-2419509D02*
X17442749Y-2414673D01*
X17088806Y-2261808D02*
X17093077Y-2264227D01*
X12168135Y-2250482D02*
X12173006Y-2251082D01*
X7382244Y-2259601D02*
X7386731Y-2257612D01*
X22326410Y-7885773D02*
X22322140Y-7888192D01*
X7405491Y-7898078D02*
X7400702Y-7897003D01*
X7330845Y-5291311D02*
X7332612Y-5286732D01*
X17517369Y-7897003D02*
X17512638Y-7895694D01*
X12258213Y-7745093D02*
X12258333Y-7750000D01*
X22342156Y-4899095D02*
X22338439Y-4902301D01*
X22113689Y-7594063D02*
X22119063Y-7588689D01*
X22179306Y-5295971D02*
X22180846Y-5291311D01*
X12581032Y-2286561D02*
X12584238Y-2282844D01*
X7601597Y-7607354D02*
X7603600Y-7608905D01*
X12629305Y-7654306D02*
X12634035Y-7652997D01*
X17461346Y-7690430D02*
X17464366Y-7686561D01*
X7533824Y-7508655D02*
X7534582Y-7511071D01*
X22150456Y-7545937D02*
X22153974Y-7539202D01*
X7347699Y-4888439D02*
X7344679Y-4884570D01*
X7326921Y-4844509D02*
X7326082Y-4839673D01*
X12255336Y-2325702D02*
X12256412Y-2330491D01*
X22081851Y-7619032D02*
X22088196Y-7614850D01*
X17464366Y-2286561D02*
X17467572Y-2282844D01*
X17486110Y-2483147D02*
X17482097Y-2480321D01*
X17141546Y-7745093D02*
X17141667Y-7750000D01*
X22624970Y-8149970D02*
X22625000Y-8148773D01*
X7531098Y-2651104D02*
X7529380Y-2658506D01*
X17118968Y-7686561D02*
X17121987Y-7690430D01*
X22223590Y-5239227D02*
X22227860Y-5236808D01*
X22342156Y-7874095D02*
X22338439Y-7877301D01*
X17115762Y-2467156D02*
X17112377Y-2470711D01*
X17498911Y-2490399D02*
X17494527Y-2488192D01*
X7325481Y-7809802D02*
X7325120Y-7804907D01*
X22016494Y-2504380D02*
X22014013Y-2503871D01*
X22172470Y-2668467D02*
X22171129Y-2660987D01*
X17124814Y-2294443D02*
X17127440Y-2298590D01*
X17141667Y-2400000D02*
X17141546Y-2404907D01*
X12565945Y-2311732D02*
X12567934Y-2307244D01*
X12232428Y-7682844D02*
X12235634Y-7686561D01*
X17445973Y-2429029D02*
X17444664Y-2424298D01*
X7325481Y-2340198D02*
X7326082Y-2335327D01*
X22119063Y-2561311D02*
X22113689Y-2555937D01*
X22373078Y-7819509D02*
X22372003Y-7824298D01*
X7522003Y-4849298D02*
X7520694Y-4854029D01*
X7354289Y-7870711D02*
X7350905Y-7867156D01*
X7588147Y-7595808D02*
X7593785Y-7600902D01*
X12624644Y-2255846D02*
X12629305Y-2254306D01*
X12235634Y-2463439D02*
X12232428Y-2467156D01*
X22176082Y-5310327D02*
X22176921Y-5305491D01*
X17455894Y-2298590D02*
X17458520Y-2294443D01*
X7326082Y-7814673D02*
X7325481Y-7809802D01*
X7525000Y-4825000D02*
X7524879Y-4829907D01*
X17441667Y-7750000D02*
X17441787Y-7745093D01*
X12246525Y-7702860D02*
X12248732Y-7707244D01*
X17061176Y-7651921D02*
X17065965Y-7652997D01*
X12653426Y-7899879D02*
X12648531Y-7899518D01*
X21986393Y-7649647D02*
X21993970Y-7649070D01*
X12561330Y-7824298D02*
X12560255Y-7819509D01*
X22317756Y-4915399D02*
X22313268Y-4917388D01*
X7325120Y-4829907D02*
X7325000Y-4825000D01*
X12598763Y-7880321D02*
X12594894Y-7877301D01*
X17105106Y-7672699D02*
X17108823Y-7675905D01*
X17442749Y-7735327D02*
X17443588Y-7730491D01*
X17494527Y-2261808D02*
X17498911Y-2259601D01*
X17461346Y-2459570D02*
X17458520Y-2455557D01*
X12570141Y-2447140D02*
X12567934Y-2442756D01*
X7706029Y-2500930D02*
X7703510Y-2501186D01*
X22162080Y-2629362D02*
X22159261Y-2622305D01*
X12567934Y-7707244D02*
X12570141Y-7702860D01*
X22023896Y-7643902D02*
X22026348Y-7643267D01*
X7458689Y-4919154D02*
X7454028Y-4920694D01*
X7540738Y-2622305D02*
X7537919Y-2629362D01*
X12587623Y-7870711D02*
X12584238Y-7867156D01*
X22373918Y-2335327D02*
X22374518Y-2340198D01*
X17051468Y-2499518D02*
X17046574Y-2499880D01*
X7541737Y-2619978D02*
X7540738Y-2622305D01*
X12250721Y-7838268D02*
X12248732Y-7842755D01*
X22174647Y-7461393D02*
X22174775Y-7458863D01*
X22176921Y-4844509D02*
X22176082Y-4839673D01*
X17134055Y-7711731D02*
X17135821Y-7716311D01*
X7706029Y-7649070D02*
X7713607Y-7649647D01*
X22104293Y-7602552D02*
X22106215Y-7600902D01*
X12158333Y-2500000D02*
X7725633Y-2500000D01*
X12648531Y-7899518D02*
X12643660Y-7898918D01*
X17453475Y-2302860D02*
X17455894Y-2298590D01*
X12594894Y-2272699D02*
X12598763Y-2269679D01*
X7508147Y-4880557D02*
X7505321Y-4884570D01*
X7405491Y-5226921D02*
X7410327Y-5226082D01*
X17517369Y-2497003D02*
X17512638Y-2495694D01*
X12575186Y-7694443D02*
X12578012Y-7690430D01*
X7361561Y-7877301D02*
X7357844Y-7874095D01*
X12559416Y-2414673D02*
X12558815Y-2409802D01*
X17522158Y-7898078D02*
X17517369Y-7897003D01*
X17127440Y-2451410D02*
X17124814Y-2455557D01*
X12257251Y-2414673D02*
X12256412Y-2419509D01*
X7666345Y-2508824D02*
X7663929Y-2509582D01*
X7449298Y-4922003D02*
X7444509Y-4923079D01*
X12629305Y-7895694D02*
X12624644Y-7894154D01*
X22623773Y-2000000D02*
X7076227Y-2000000D01*
X7415198Y-7899518D02*
X7410327Y-7898918D01*
X17127440Y-7851410D02*
X17124814Y-7855557D01*
X22096400Y-7608905D02*
X22098403Y-7607354D01*
X22165418Y-2638929D02*
X22162960Y-2631738D01*
X22358147Y-5269443D02*
X22360773Y-5273590D01*
X12578012Y-2290430D02*
X12581032Y-2286561D01*
X12221773Y-2477301D02*
X12217903Y-2480321D01*
X17141185Y-2340198D02*
X17141546Y-2345093D01*
X17443588Y-2330491D02*
X17444664Y-2325702D01*
X12558333Y-2400000D02*
X12558333Y-2350000D01*
X7647305Y-2515739D02*
X7644978Y-2516737D01*
X22375000Y-2350000D02*
X22375000Y-4825000D01*
X12163240Y-2499880D02*
X12158333Y-2500000D01*
X21975633Y-2500016D02*
X21974367Y-2500000D01*
X12250721Y-7711731D02*
X12252488Y-7716311D01*
X12209744Y-2485773D02*
X12205473Y-2488192D01*
X22191853Y-5269443D02*
X22194679Y-5265430D01*
X12634035Y-2252997D02*
X12638824Y-2251921D01*
X22144032Y-7556850D02*
X22145372Y-7554701D01*
X22363192Y-2302860D02*
X22365399Y-2307244D01*
X12638824Y-7651921D02*
X12643660Y-7651082D01*
X17498911Y-7890399D02*
X17494527Y-7888192D01*
X12558333Y-2350000D02*
X12558454Y-2345093D01*
X7525930Y-7468970D02*
X7526186Y-7471490D01*
X12238654Y-7690430D02*
X12241480Y-7694443D01*
X12196602Y-7892388D02*
X12192022Y-7894154D01*
X22358147Y-4880557D02*
X22355321Y-4884570D01*
X22064202Y-7628974D02*
X22070938Y-7625456D01*
X17097224Y-2266853D02*
X17101237Y-2269679D01*
X7638072Y-2519910D02*
X7635798Y-2521026D01*
X12584238Y-7682844D02*
X12587623Y-7679289D01*
X17134055Y-2311732D02*
X17135821Y-2316311D01*
X22174070Y-7468970D02*
X22174647Y-7461393D01*
X17112377Y-7870711D02*
X17108823Y-7874095D01*
X7344679Y-5265430D02*
X7347699Y-5261561D01*
X22174984Y-2699367D02*
X22174775Y-2691137D01*
X7357844Y-4899095D02*
X7354289Y-4895711D01*
X22308689Y-2255846D02*
X22313268Y-2257612D01*
X17138670Y-7824298D02*
X17137361Y-7829028D01*
X12572560Y-2298590D02*
X12575186Y-2294443D01*
X7476410Y-4910773D02*
X7472140Y-4913192D01*
X17490256Y-2264227D02*
X17494527Y-2261808D01*
X7458689Y-5230846D02*
X7463268Y-5232612D01*
X7495711Y-5254289D02*
X7499095Y-5257844D01*
X7676103Y-7643902D02*
X7683506Y-7645620D01*
X22170620Y-7491494D02*
X22171129Y-7489013D01*
X22006533Y-7647470D02*
X22014013Y-7646129D01*
X22345711Y-5254289D02*
X22349095Y-5257844D01*
X7395971Y-2254306D02*
X7400702Y-2252997D01*
X22317756Y-2259601D02*
X22322140Y-2261808D01*
X17061176Y-2498079D02*
X17056340Y-2498918D01*
X7572448Y-2570707D02*
X7567645Y-2576597D01*
X22174070Y-2681030D02*
X22173814Y-2678510D01*
X22207844Y-4899095D02*
X22204289Y-4895711D01*
X7517388Y-4863268D02*
X7515399Y-4867756D01*
X12598763Y-7669679D02*
X12602776Y-7666853D01*
X17137361Y-7720971D02*
X17138670Y-7725702D01*
X12648531Y-2250482D02*
X12653426Y-2250120D01*
X22355321Y-2290430D02*
X22358147Y-2294443D01*
X22033655Y-2508824D02*
X22026348Y-2506733D01*
X17478227Y-7672699D02*
X17482097Y-7669679D01*
X7334601Y-2307244D02*
X7336808Y-2302860D01*
X12558815Y-2409802D02*
X12558454Y-2404907D01*
X21983863Y-2500225D02*
X21975633Y-2500016D01*
X17108823Y-2474095D02*
X17105106Y-2477301D01*
X22363192Y-7847140D02*
X22360773Y-7851410D01*
X17482097Y-2269679D02*
X17486110Y-2266853D01*
X12235634Y-7686561D02*
X12238654Y-7690430D01*
X22265198Y-4924518D02*
X22260327Y-4923918D01*
X22313268Y-7892388D02*
X22308689Y-7894154D01*
X12213890Y-7666853D02*
X12217903Y-7669679D01*
X22180846Y-5291311D02*
X22182612Y-5286732D01*
X7420093Y-7899879D02*
X7415198Y-7899518D01*
X12643660Y-2498918D02*
X12638824Y-2498079D01*
X7611804Y-7614850D02*
X7618149Y-7619032D01*
X22168902Y-7498896D02*
X22170620Y-7491494D01*
X22159261Y-7527695D02*
X22162080Y-7520637D01*
X12163240Y-2250120D02*
X12168135Y-2250482D01*
X7420093Y-2250120D02*
X7425000Y-2250000D01*
X12258213Y-2404907D02*
X12257852Y-2409802D01*
X7541737Y-7530022D02*
X7544910Y-7536928D01*
X7555968Y-2593149D02*
X7554628Y-2595299D01*
X17051468Y-7650481D02*
X17056340Y-7651082D01*
X12591177Y-7675905D02*
X12594894Y-7672699D01*
X7526186Y-2678510D02*
X7525930Y-2681030D01*
X12624644Y-7655845D02*
X12629305Y-7654306D01*
X7369443Y-4908147D02*
X7365430Y-4905321D01*
X17121987Y-2290430D02*
X17124814Y-2294443D01*
X17444664Y-2325702D02*
X17445973Y-2320971D01*
X22374879Y-2345093D02*
X22375000Y-2350000D01*
X17139745Y-2330491D02*
X17140584Y-2335327D01*
X12229044Y-2279289D02*
X12232428Y-2282844D01*
X7369443Y-5241853D02*
X7373590Y-5239227D01*
X12562639Y-2320971D02*
X12564179Y-2316311D01*
X22334570Y-2269679D02*
X22338439Y-2272699D01*
X12615578Y-7890399D02*
X12611194Y-7888192D01*
X17494527Y-7661808D02*
X17498911Y-7659601D01*
X17070695Y-2254306D02*
X17075356Y-2255846D01*
X17132066Y-2307244D02*
X17134055Y-2311732D01*
X17134055Y-7838268D02*
X17132066Y-7842755D01*
X7524518Y-4834802D02*
X7523918Y-4839673D01*
X12255336Y-7824298D02*
X12254027Y-7829028D01*
X12591177Y-2275905D02*
X12594894Y-2272699D01*
X12587623Y-2279289D02*
X12591177Y-2275905D01*
X17486110Y-7666853D02*
X17490256Y-7664227D01*
X17447512Y-2433689D02*
X17445973Y-2429029D01*
X22326410Y-5239227D02*
X22330557Y-5241853D01*
X17498911Y-7659601D02*
X17503398Y-7657612D01*
X12560255Y-2330491D02*
X12561330Y-2325702D01*
X22211561Y-5247699D02*
X22215430Y-5244679D01*
X17112377Y-2470711D02*
X17108823Y-2474095D01*
X22158263Y-2619978D02*
X22155090Y-2613072D01*
X7531733Y-2648652D02*
X7531098Y-2651104D01*
X7716136Y-2500225D02*
X7713607Y-2500353D01*
X7527530Y-7481532D02*
X7528870Y-7489013D01*
X17141185Y-7740198D02*
X17141546Y-7745093D01*
X7683506Y-7645620D02*
X7685987Y-7646129D01*
X12624644Y-7894154D02*
X12620065Y-7892388D01*
X22138403Y-7565275D02*
X22139850Y-7563196D01*
X17478227Y-7877301D02*
X17474511Y-7874095D01*
X17075356Y-7894154D02*
X17070695Y-7895694D01*
X22374879Y-4829907D02*
X22374518Y-4834802D01*
X17458520Y-2455557D02*
X17455894Y-2451410D01*
X7472140Y-4913192D02*
X7467755Y-4915399D01*
X7561597Y-7565275D02*
X7566095Y-7571400D01*
X12248732Y-7707244D02*
X12250721Y-7711731D01*
X12225489Y-7874095D02*
X12221773Y-7877301D01*
X17517369Y-7652997D02*
X17522158Y-7651921D01*
X17494527Y-7888192D02*
X17490256Y-7885773D01*
X7529380Y-2658506D02*
X7528870Y-2660987D01*
X7334601Y-7842755D02*
X7332612Y-7838268D01*
X12564179Y-2433689D02*
X12562639Y-2429029D01*
X7505321Y-4884570D02*
X7502301Y-4888439D01*
X17449279Y-2311732D02*
X17451268Y-2307244D01*
X12201089Y-2490399D02*
X12196602Y-2492388D01*
X12225489Y-7675905D02*
X12229044Y-7679289D01*
X12578012Y-7690430D02*
X12581032Y-7686561D01*
X12187362Y-7654306D02*
X12192022Y-7655845D01*
X17441787Y-2404907D02*
X17441667Y-2400000D01*
X17135821Y-2433689D02*
X17134055Y-2438268D01*
X17486110Y-7883147D02*
X17482097Y-7880321D01*
X17451268Y-2442756D02*
X17449279Y-2438268D01*
X22355321Y-7859570D02*
X22352301Y-7863439D01*
X12256412Y-2419509D02*
X12255336Y-2424298D01*
X22317756Y-5234601D02*
X22322140Y-5236808D01*
X17041667Y-7900000D02*
X12658333Y-7900000D01*
X7075029Y-8149970D02*
X7076227Y-8150000D01*
X12559416Y-7735327D02*
X12560255Y-7730491D01*
X12572560Y-7851410D02*
X12570141Y-7847140D01*
X7347699Y-2286561D02*
X7350905Y-2282844D01*
X17121987Y-7690430D02*
X17124814Y-7694443D01*
X22284802Y-4924518D02*
X22279907Y-4924880D01*
X22149227Y-7548152D02*
X22150456Y-7545937D01*
X22127552Y-2570707D02*
X22125902Y-2568785D01*
X12173006Y-2498918D02*
X12168135Y-2499518D01*
X7525016Y-7450633D02*
X7525225Y-7458863D01*
X22355321Y-4884570D02*
X22352301Y-4888439D01*
X7713607Y-2500353D02*
X7706029Y-2500930D01*
X17070695Y-2495694D02*
X17065965Y-2497003D01*
X17445973Y-2320971D02*
X17447512Y-2316311D01*
X12611194Y-7661808D02*
X12615578Y-7659601D01*
X12257251Y-7735327D02*
X12257852Y-7740198D01*
X22106215Y-2549098D02*
X22104293Y-2547448D01*
X22150456Y-2604062D02*
X22149227Y-2601848D01*
X12558454Y-2404907D02*
X12558333Y-2400000D01*
X17442749Y-2335327D02*
X17443588Y-2330491D01*
X17115762Y-2282844D02*
X17118968Y-2286561D01*
X7537040Y-2631738D02*
X7534582Y-2638929D01*
X7567645Y-7573403D02*
X7572448Y-7579293D01*
X7330845Y-4858689D02*
X7329306Y-4854029D01*
X17065965Y-7897003D02*
X17061176Y-7898078D01*
X21974367Y-7650000D02*
X21975633Y-7649984D01*
X17512638Y-7654306D02*
X17517369Y-7652997D01*
X12252488Y-7716311D02*
X12254027Y-7720971D01*
X7673651Y-2506733D02*
X7666345Y-2508824D01*
X12629305Y-2495694D02*
X12624644Y-2494154D01*
X12196602Y-2492388D02*
X12192022Y-2494154D01*
X12564179Y-7833689D02*
X12562639Y-7829028D01*
X12187362Y-7895694D02*
X12182631Y-7897003D01*
X22120808Y-2563147D02*
X22119063Y-2561311D01*
X12158333Y-7650000D02*
X12163240Y-7650120D01*
X7350905Y-7867156D02*
X7347699Y-7863439D01*
X7540738Y-7527695D02*
X7541737Y-7530022D01*
X22232244Y-4915399D02*
X22227860Y-4913192D01*
X22373078Y-4844509D02*
X22372003Y-4849298D01*
X7400702Y-7897003D02*
X7395971Y-7895694D01*
X22313268Y-2257612D02*
X22317756Y-2259601D01*
X7332612Y-2311732D02*
X7334601Y-2307244D01*
X7449298Y-5227997D02*
X7454028Y-5229306D01*
X22145372Y-7554701D02*
X22149227Y-7548152D01*
X7400702Y-5227997D02*
X7405491Y-5226921D01*
X12192022Y-7655845D02*
X12196602Y-7657612D01*
X7537040Y-7518262D02*
X7537919Y-7520637D01*
X17108823Y-7874095D02*
X17105106Y-7877301D01*
X17442749Y-7814673D02*
X17442148Y-7809802D01*
X12638824Y-2251921D02*
X12643660Y-2251082D01*
X22358147Y-2294443D02*
X22360773Y-2298590D01*
X7336808Y-2302860D02*
X7339227Y-2298590D01*
X7508147Y-5269443D02*
X7510773Y-5273590D01*
X22175120Y-5320093D02*
X22175482Y-5315198D01*
X7410327Y-2251082D02*
X7415198Y-2250482D01*
X12241480Y-2294443D02*
X12244106Y-2298590D01*
X7695971Y-2502146D02*
X7693467Y-2502530D01*
X12564179Y-7716311D02*
X12565945Y-7711731D01*
X22279907Y-2250120D02*
X22284802Y-2250482D01*
X22369154Y-2316311D02*
X22370694Y-2320971D01*
X7344679Y-2290430D02*
X7347699Y-2286561D01*
X7347699Y-5261561D02*
X7350905Y-5257844D01*
X17079935Y-7892388D02*
X17075356Y-7894154D01*
X17482097Y-2480321D02*
X17478227Y-2477301D01*
X7676103Y-2506098D02*
X7673651Y-2506733D01*
X22275000Y-2250000D02*
X22279907Y-2250120D01*
X17541667Y-2500000D02*
X17536760Y-2499880D01*
X7405491Y-4923079D02*
X7400702Y-4922003D01*
X12658333Y-2500000D02*
X12653426Y-2499880D01*
X7544910Y-2613072D02*
X7541737Y-2619978D01*
X17141185Y-7809802D02*
X17140584Y-7814673D01*
X7618149Y-7619032D02*
X7620299Y-7620371D01*
X12258333Y-2350000D02*
X12258333Y-2400000D01*
X7332612Y-4863268D02*
X7330845Y-4858689D01*
X17507978Y-7655845D02*
X17512638Y-7654306D01*
X7361561Y-4902301D02*
X7357844Y-4899095D01*
X17443588Y-7819509D02*
X17442749Y-7814673D01*
X12558454Y-2345093D02*
X12558815Y-2340198D01*
X17478227Y-2272699D02*
X17482097Y-2269679D01*
X12254027Y-7829028D02*
X12252488Y-7833689D01*
X12594894Y-7877301D02*
X12591177Y-7874095D01*
X7531733Y-7501348D02*
X7533824Y-7508655D01*
X7325000Y-2350000D02*
X7325120Y-2345093D01*
X22299298Y-2252997D02*
X22304029Y-2254306D01*
X17051468Y-2250482D02*
X17056340Y-2251082D01*
X22180846Y-4858689D02*
X22179306Y-4854029D01*
X12217903Y-7669679D02*
X12221773Y-7672699D01*
X7502301Y-5261561D02*
X7505321Y-5265430D01*
X22255491Y-5226921D02*
X22260327Y-5226082D01*
X22155090Y-7536928D02*
X22158263Y-7530022D01*
X12173006Y-7651082D02*
X12177842Y-7651921D01*
X17041667Y-7650000D02*
X17046574Y-7650120D01*
X12217903Y-7880321D02*
X12213890Y-7883147D01*
X22349095Y-5257844D02*
X22352301Y-5261561D01*
X22219443Y-4908147D02*
X22215430Y-4905321D01*
X22330557Y-2266853D02*
X22334570Y-2269679D01*
X7434802Y-4924518D02*
X7429907Y-4924880D01*
X12591177Y-7874095D02*
X12587623Y-7870711D01*
X7513192Y-4872140D02*
X7510773Y-4876410D01*
X22153974Y-7539202D02*
X22155090Y-7536928D01*
X22352301Y-7863439D02*
X22349095Y-7867156D01*
X12168135Y-2499518D02*
X12163240Y-2499880D01*
X12581032Y-7863439D02*
X12578012Y-7859570D01*
X17470956Y-7870711D02*
X17467572Y-7867156D01*
X17490256Y-2485773D02*
X17486110Y-2483147D01*
X17105106Y-2477301D02*
X17101237Y-2480321D01*
X17101237Y-2269679D02*
X17105106Y-2272699D01*
X7329306Y-7829028D02*
X7327997Y-7824298D01*
X12578012Y-7859570D02*
X12575186Y-7855557D01*
X7725633Y-7650000D02*
X12158333Y-7650000D01*
X7724367Y-2500016D02*
X7716136Y-2500225D01*
X7361561Y-5247699D02*
X7365430Y-5244679D01*
X17056340Y-2498918D02*
X17051468Y-2499518D01*
X12581032Y-7686561D02*
X12584238Y-7682844D01*
X12232428Y-7867156D02*
X12229044Y-7870711D01*
X17141546Y-2404907D02*
X17141185Y-2409802D01*
X7549544Y-7545937D02*
X7550773Y-7548152D01*
X22149227Y-2601848D02*
X22145372Y-2595299D01*
X22174647Y-2688607D02*
X22174070Y-2681030D01*
X17458520Y-7694443D02*
X17461346Y-7690430D01*
X17490256Y-7885773D02*
X17486110Y-7883147D01*
X22279907Y-4924880D02*
X22275000Y-4925000D01*
X22174775Y-7458863D02*
X22174984Y-7450633D01*
X17458520Y-7855557D02*
X17455894Y-7851410D01*
X7386731Y-7892388D02*
X7382244Y-7890399D01*
X17444664Y-7824298D02*
X17443588Y-7819509D01*
X22004029Y-2502146D02*
X21996490Y-2501186D01*
X7533824Y-2641345D02*
X7531733Y-2648652D01*
X12217903Y-2269679D02*
X12221773Y-2272699D01*
X7410327Y-4923918D02*
X7405491Y-4923079D01*
X17467572Y-7682844D02*
X17470956Y-7679289D01*
X17139745Y-7819509D02*
X17138670Y-7824298D01*
X22308689Y-7894154D02*
X22304029Y-7895694D01*
X17093077Y-2485773D02*
X17088806Y-2488192D01*
X7703510Y-2501186D02*
X7695971Y-2502146D01*
X17444664Y-2424298D02*
X17443588Y-2419509D01*
X7579192Y-2563147D02*
X7574098Y-2568785D01*
X22106215Y-7600902D02*
X22111853Y-7595808D01*
X22623773Y-8150000D02*
X22624970Y-8149970D01*
X12575186Y-2294443D02*
X12578012Y-2290430D01*
X17056340Y-7651082D02*
X17061176Y-7651921D01*
X7332612Y-5286732D02*
X7334601Y-5282244D01*
X7693467Y-2502530D02*
X7685987Y-2503871D01*
X22061928Y-2519910D02*
X22055022Y-2516737D01*
X12235634Y-7863439D02*
X12232428Y-7867156D01*
X7510773Y-5273590D02*
X7513192Y-5277860D01*
X7429907Y-4924880D02*
X7425000Y-4925000D01*
X7656738Y-2512040D02*
X7654362Y-2512920D01*
X12238654Y-2290430D02*
X12241480Y-2294443D01*
X17441787Y-2345093D02*
X17442148Y-2340198D01*
X7357844Y-2275905D02*
X7361561Y-2272699D01*
X17124814Y-7694443D02*
X17127440Y-7698590D01*
X12177842Y-2498079D02*
X12173006Y-2498918D01*
X17455894Y-2451410D02*
X17453475Y-2447140D01*
X7626848Y-7624227D02*
X7629062Y-7625456D01*
X17447512Y-7833689D02*
X17445973Y-7829028D01*
X7326082Y-5310327D02*
X7326921Y-5305491D01*
X7454028Y-4920694D02*
X7449298Y-4922003D01*
X12244106Y-7851410D02*
X12241480Y-7855557D01*
X17541667Y-7650000D02*
X21974367Y-7650000D01*
X7550773Y-2601848D02*
X7549544Y-2604062D01*
X12257852Y-7740198D02*
X12258213Y-7745093D01*
X22236732Y-5232612D02*
X22241311Y-5230846D01*
X12634035Y-7652997D02*
X12638824Y-7651921D01*
X17531865Y-2250482D02*
X17536760Y-2250120D01*
X7382244Y-7890399D02*
X7377860Y-7888192D01*
X17088806Y-2488192D02*
X17084422Y-2490399D01*
X7515399Y-4867756D02*
X7513192Y-4872140D01*
X22326410Y-4910773D02*
X22322140Y-4913192D01*
X22162080Y-7520637D02*
X22162960Y-7518262D01*
X12241480Y-7855557D02*
X12238654Y-7859570D01*
X22026348Y-7643267D02*
X22033655Y-7641176D01*
X17070695Y-7895694D02*
X17065965Y-7897003D01*
X12558333Y-7800000D02*
X12558333Y-7750000D01*
X12564179Y-2316311D02*
X12565945Y-2311732D01*
X7439673Y-5226082D02*
X7444509Y-5226921D01*
X12254027Y-2429029D02*
X12252488Y-2433689D01*
X7523918Y-5310327D02*
X7524518Y-5315198D01*
X7595707Y-2547448D02*
X7593785Y-2549098D01*
X7724367Y-7649984D02*
X7725633Y-7650000D01*
X17453475Y-2447140D02*
X17451268Y-2442756D01*
X12653426Y-7650120D02*
X12658333Y-7650000D01*
X7329306Y-4854029D02*
X7327997Y-4849298D01*
X12238654Y-2459570D02*
X12235634Y-2463439D01*
X17522158Y-2251921D02*
X17526994Y-2251082D01*
X7574098Y-2568785D02*
X7572448Y-2570707D01*
X22294509Y-5226921D02*
X22299298Y-5227997D01*
X12594894Y-2477301D02*
X12591177Y-2474095D01*
X12235634Y-2286561D02*
X12238654Y-2290430D01*
X17129859Y-7847140D02*
X17127440Y-7851410D01*
X22055022Y-2516737D02*
X22052695Y-2515739D01*
X17512638Y-7895694D02*
X17507978Y-7894154D01*
X7415198Y-2250482D02*
X7420093Y-2250120D01*
X17442148Y-7809802D02*
X17441787Y-7804907D01*
X22172854Y-7479029D02*
X22173814Y-7471490D01*
X7522003Y-5300702D02*
X7523078Y-5305491D01*
X22313268Y-4917388D02*
X22308689Y-4919154D01*
X22171129Y-7489013D02*
X22172470Y-7481532D01*
X22184601Y-5282244D02*
X22186808Y-5277860D01*
X22033655Y-7641176D02*
X22036071Y-7640418D01*
X7476410Y-5239227D02*
X7480557Y-5241853D01*
X22374518Y-5315198D02*
X22374879Y-5320093D01*
X12209744Y-7664227D02*
X12213890Y-7666853D01*
X7673651Y-7643267D02*
X7676103Y-7643902D01*
X7395971Y-7895694D02*
X7391311Y-7894154D01*
X12248732Y-2307244D02*
X12250721Y-2311732D01*
X22265198Y-5225482D02*
X22270093Y-5225120D01*
X7472140Y-5236808D02*
X7476410Y-5239227D01*
X12229044Y-2470711D02*
X12225489Y-2474095D01*
X17531865Y-7650481D02*
X17536760Y-7650120D01*
X22182612Y-5286732D02*
X22184601Y-5282244D01*
X17503398Y-7892388D02*
X17498911Y-7890399D01*
X12244106Y-7698590D02*
X12246525Y-7702860D01*
X7579192Y-7586853D02*
X7580937Y-7588689D01*
X22375000Y-5325000D02*
X22375000Y-7800000D01*
X7357844Y-7874095D02*
X7354289Y-7870711D01*
X22045638Y-2512920D02*
X22043262Y-2512040D01*
X7327997Y-5300702D02*
X7329306Y-5295971D01*
X22023896Y-2506098D02*
X22016494Y-2504380D01*
X7480557Y-4908147D02*
X7476410Y-4910773D01*
X22170620Y-2658506D02*
X22168902Y-2651104D01*
X22052695Y-7634261D02*
X22055022Y-7633263D01*
X7420093Y-4924880D02*
X7415198Y-4924518D01*
X7386731Y-2257612D02*
X7391311Y-2255846D01*
X22245971Y-5229306D02*
X22250702Y-5227997D01*
X7644978Y-2516737D02*
X7638072Y-2519910D01*
X22360773Y-2298590D02*
X22363192Y-2302860D01*
X12638824Y-2498079D02*
X12634035Y-2497003D01*
X17526994Y-7898918D02*
X17522158Y-7898078D01*
X22313268Y-5232612D02*
X22317756Y-5234601D01*
X12196602Y-7657612D02*
X12201089Y-7659601D01*
X12254027Y-2320971D02*
X12255336Y-2325702D01*
X22375000Y-7800000D02*
X22374879Y-7804907D01*
X21986393Y-2500353D02*
X21983863Y-2500225D01*
X12658333Y-7650000D02*
X17041667Y-7650000D01*
X7520694Y-5295971D02*
X7522003Y-5300702D01*
X17507978Y-2494154D02*
X17503398Y-2492388D01*
X12565945Y-7711731D02*
X12567934Y-7707244D01*
X12246525Y-2447140D02*
X12244106Y-2451410D01*
X22338439Y-7877301D02*
X22334570Y-7880321D01*
X17441667Y-2400000D02*
X17441667Y-2350000D01*
X17141667Y-2350000D02*
X17141667Y-2400000D01*
X17449279Y-7838268D02*
X17447512Y-7833689D01*
X22088196Y-7614850D02*
X22090275Y-7613403D01*
X22070938Y-2524544D02*
X22064202Y-2521026D01*
X17141185Y-2409802D02*
X17140584Y-2414673D01*
X17065965Y-2497003D02*
X17061176Y-2498079D01*
X22367388Y-7838268D02*
X22365399Y-7842755D01*
X22191853Y-4880557D02*
X22189227Y-4876410D01*
X7415198Y-5225482D02*
X7420093Y-5225120D01*
X22098403Y-2542645D02*
X22096400Y-2541095D01*
X17105106Y-7877301D02*
X17101237Y-7880321D01*
X7357844Y-5250905D02*
X7361561Y-5247699D01*
X17451268Y-7842755D02*
X17449279Y-7838268D01*
X12567934Y-7842755D02*
X12565945Y-7838268D01*
X7327997Y-2325702D02*
X7329306Y-2320971D01*
X22073152Y-2525773D02*
X22070938Y-2524544D01*
X7618149Y-2530968D02*
X7611804Y-2535150D01*
X22139850Y-7563196D02*
X22144032Y-7556850D01*
X7361561Y-2272699D02*
X7365430Y-2269679D01*
X7523078Y-5305491D02*
X7523918Y-5310327D01*
X22345711Y-4895711D02*
X22342156Y-4899095D01*
X17097224Y-2483147D02*
X17093077Y-2485773D01*
X7488439Y-5247699D02*
X7492156Y-5250905D01*
X17084422Y-2259601D02*
X17088806Y-2261808D01*
X12620065Y-2257612D02*
X12624644Y-2255846D01*
X12584238Y-7867156D02*
X12581032Y-7863439D01*
X22119063Y-7588689D02*
X22120808Y-7586853D01*
X12560255Y-7730491D02*
X12561330Y-7725702D01*
X17470956Y-7679289D02*
X17474511Y-7675905D01*
X7603600Y-7608905D02*
X7609725Y-7613403D01*
X12561330Y-2424298D02*
X12560255Y-2419509D01*
X12258333Y-2400000D02*
X12258213Y-2404907D01*
X12244106Y-2451410D02*
X12241480Y-2455557D01*
X7336808Y-4872140D02*
X7334601Y-4867756D01*
X22162960Y-7518262D02*
X22165418Y-7511071D01*
X17056340Y-2251082D02*
X17061176Y-2251921D01*
X17478227Y-2477301D02*
X17474511Y-2474095D01*
X22215430Y-4905321D02*
X22211561Y-4902301D01*
X22372003Y-5300702D02*
X22373078Y-5305491D01*
X12182631Y-7897003D02*
X12177842Y-7898078D01*
X7525016Y-2699367D02*
X7525000Y-2700633D01*
X7326921Y-5305491D02*
X7327997Y-5300702D01*
X7502301Y-4888439D02*
X7499095Y-4892156D01*
X21993970Y-7649070D02*
X21996490Y-7648814D01*
D11*
D10*
X8928000Y-3871100D02*
X8968000Y-3911100D01*
X8968000Y-3871100D02*
X8928000Y-3911100D01*
X9206800Y-3281400D02*
X9246800Y-3321400D01*
X9246800Y-3281400D02*
X9206800Y-3321400D01*
X9641300Y-6945000D02*
X9681300Y-6985000D01*
X9681300Y-6945000D02*
X9641300Y-6985000D01*
X9707200Y-3865100D02*
X9747200Y-3905100D01*
X9747200Y-3865100D02*
X9707200Y-3905100D01*
X9740200Y-4108700D02*
X9780200Y-4148700D01*
X9780200Y-4108700D02*
X9740200Y-4148700D01*
X9971800Y-4550300D02*
X10011800Y-4590300D01*
X10011800Y-4550300D02*
X9971800Y-4590300D01*
X9976100Y-4091100D02*
X10016100Y-4131100D01*
X10016100Y-4091100D02*
X9976100Y-4131100D01*
X10163600Y-5030700D02*
X10203600Y-5070700D01*
X10203600Y-5030700D02*
X10163600Y-5070700D01*
X10167400Y-3314300D02*
X10207400Y-3354300D01*
X10207400Y-3314300D02*
X10167400Y-3354300D01*
X10221900Y-3588500D02*
X10261900Y-3628500D01*
X10261900Y-3588500D02*
X10221900Y-3628500D01*
X10260500Y-4540200D02*
X10300500Y-4580200D01*
X10300500Y-4540200D02*
X10260500Y-4580200D01*
X10266500Y-5525300D02*
X10306500Y-5565300D01*
X10306500Y-5525300D02*
X10266500Y-5565300D01*
X10410900Y-5052900D02*
X10450900Y-5092900D01*
X10450900Y-5052900D02*
X10410900Y-5092900D01*
X10440300Y-6015600D02*
X10480300Y-6055600D01*
X10480300Y-6015600D02*
X10440300Y-6055600D01*
X10545300Y-3178800D02*
X10585300Y-3218800D01*
X10585300Y-3178800D02*
X10545300Y-3218800D01*
X10649800Y-4123400D02*
X10689800Y-4163400D01*
X10689800Y-4123400D02*
X10649800Y-4163400D01*
X10653800Y-3879200D02*
X10693800Y-3919200D01*
X10693800Y-3879200D02*
X10653800Y-3919200D01*
X10687100Y-6003400D02*
X10727100Y-6043400D01*
X10727100Y-6003400D02*
X10687100Y-6043400D01*
X10698000Y-5483500D02*
X10738000Y-5523500D01*
X10738000Y-5483500D02*
X10698000Y-5523500D01*
X10722800Y-4553300D02*
X10762800Y-4593300D01*
X10762800Y-4553300D02*
X10722800Y-4593300D01*
X10754900Y-6775900D02*
X10794900Y-6815900D01*
X10794900Y-6775900D02*
X10754900Y-6815900D01*
X10771400Y-3128950D02*
X10811400Y-3168950D01*
X10811400Y-3128950D02*
X10771400Y-3168950D01*
X10828900Y-6954600D02*
X10868900Y-6994600D01*
X10868900Y-6954600D02*
X10828900Y-6994600D01*
X10881700Y-6002500D02*
X10921700Y-6042500D01*
X10921700Y-6002500D02*
X10881700Y-6042500D01*
X10894200Y-3607600D02*
X10934200Y-3647600D01*
X10934200Y-3607600D02*
X10894200Y-3647600D01*
X10962300Y-6458700D02*
X11002300Y-6498700D01*
X11002300Y-6458700D02*
X10962300Y-6498700D01*
X11112500Y-2932500D02*
X11152500Y-2972500D01*
X11152500Y-2932500D02*
X11112500Y-2972500D01*
X11136700Y-3138400D02*
X11176700Y-3178400D01*
X11176700Y-3138400D02*
X11136700Y-3178400D01*
X11191000Y-5025650D02*
X11231000Y-5065650D01*
X11231000Y-5025650D02*
X11191000Y-5065650D01*
X11199300Y-3633000D02*
X11239300Y-3673000D01*
X11239300Y-3633000D02*
X11199300Y-3673000D01*
X11336200Y-5787400D02*
X11376200Y-5827400D01*
X11376200Y-5787400D02*
X11336200Y-5827400D01*
X11356500Y-4562200D02*
X11396500Y-4602200D01*
X11396500Y-4562200D02*
X11356500Y-4602200D01*
X11405800Y-5998700D02*
X11445800Y-6038700D01*
X11445800Y-5998700D02*
X11405800Y-6038700D01*
X11413300Y-3178800D02*
X11453300Y-3218800D01*
X11453300Y-3178800D02*
X11413300Y-3218800D01*
X11631000Y-4245450D02*
X11671000Y-4285450D01*
X11671000Y-4245450D02*
X11631000Y-4285450D01*
X11679200Y-5520100D02*
X11719200Y-5560100D01*
X11719200Y-5520100D02*
X11679200Y-5560100D01*
X11718100Y-3180800D02*
X11758100Y-3220800D01*
X11758100Y-3180800D02*
X11718100Y-3220800D01*
X11727600Y-6023000D02*
X11767600Y-6063000D01*
X11767600Y-6023000D02*
X11727600Y-6063000D01*
X11893400Y-5040400D02*
X11933400Y-5080400D01*
X11933400Y-5040400D02*
X11893400Y-5080400D01*
X11931900Y-3620900D02*
X11971900Y-3660900D01*
X11971900Y-3620900D02*
X11931900Y-3660900D01*
X11994400Y-4132500D02*
X12034400Y-4172500D01*
X12034400Y-4132500D02*
X11994400Y-4172500D01*
X12083020Y-3281420D02*
X12123020Y-3321420D01*
X12123020Y-3281420D02*
X12083020Y-3321420D01*
X12146700Y-6941700D02*
X12186700Y-6981700D01*
X12186700Y-6941700D02*
X12146700Y-6981700D01*
X12261200Y-4550500D02*
X12301200Y-4590500D01*
X12301200Y-4550500D02*
X12261200Y-4590500D01*
X12325500Y-6006000D02*
X12365500Y-6046000D01*
X12365500Y-6006000D02*
X12325500Y-6046000D01*
X12547000Y-3618800D02*
X12587000Y-3658800D01*
X12587000Y-3618800D02*
X12547000Y-3658800D01*
X12550600Y-5536800D02*
X12590600Y-5576800D01*
X12590600Y-5536800D02*
X12550600Y-5576800D01*
X12559900Y-4135600D02*
X12599900Y-4175600D01*
X12599900Y-4135600D02*
X12559900Y-4175600D01*
X12692300Y-3226050D02*
X12732300Y-3266050D01*
X12732300Y-3226050D02*
X12692300Y-3266050D01*
X12813400Y-3488300D02*
X12853400Y-3528300D01*
X12853400Y-3488300D02*
X12813400Y-3528300D01*
X12837200Y-5062100D02*
X12877200Y-5102100D01*
X12877200Y-5062100D02*
X12837200Y-5102100D01*
X12858050Y-3708900D02*
X12898050Y-3748900D01*
X12898050Y-3708900D02*
X12858050Y-3748900D01*
X13022800Y-2977500D02*
X13062800Y-3017500D01*
X13062800Y-2977500D02*
X13022800Y-3017500D01*
X13026100Y-3251400D02*
X13066100Y-3291400D01*
X13066100Y-3251400D02*
X13026100Y-3291400D01*
X13139300Y-4562200D02*
X13179300Y-4602200D01*
X13179300Y-4562200D02*
X13139300Y-4602200D01*
X13160400Y-5091700D02*
X13200400Y-5131700D01*
X13200400Y-5091700D02*
X13160400Y-5131700D01*
X13164700Y-4130100D02*
X13204700Y-4170100D01*
X13204700Y-4130100D02*
X13164700Y-4170100D01*
X13286200Y-6010800D02*
X13326200Y-6050800D01*
X13326200Y-6010800D02*
X13286200Y-6050800D01*
X13395400Y-5063100D02*
X13435400Y-5103100D01*
X13435400Y-5063100D02*
X13395400Y-5103100D01*
X13425200Y-3842800D02*
X13465200Y-3882800D01*
X13465200Y-3842800D02*
X13425200Y-3882800D01*
X13565100Y-5506800D02*
X13605100Y-5546800D01*
X13605100Y-5506800D02*
X13565100Y-5546800D01*
X13681600Y-4119550D02*
X13721600Y-4159550D01*
X13721600Y-4119550D02*
X13681600Y-4159550D01*
X13751300Y-4548900D02*
X13791300Y-4588900D01*
X13791300Y-4548900D02*
X13751300Y-4588900D01*
X13781200Y-4155800D02*
X13821200Y-4195800D01*
X13821200Y-4155800D02*
X13781200Y-4195800D01*
X13790700Y-5067000D02*
X13830700Y-5107000D01*
X13830700Y-5067000D02*
X13790700Y-5107000D01*
X13885530Y-4157670D02*
X13925530Y-4197670D01*
X13925530Y-4157670D02*
X13885530Y-4197670D01*
X13989850Y-3271050D02*
X14029850Y-3311050D01*
X14029850Y-3271050D02*
X13989850Y-3311050D01*
X14004100Y-5047800D02*
X14044100Y-5087800D01*
X14044100Y-5047800D02*
X14004100Y-5087800D01*
X14014100Y-4585500D02*
X14054100Y-4625500D01*
X14054100Y-4585500D02*
X14014100Y-4625500D01*
X14239700Y-5996300D02*
X14279700Y-6036300D01*
X14279700Y-5996300D02*
X14239700Y-6036300D01*
X14334900Y-3235900D02*
X14374900Y-3275900D01*
X14374900Y-3235900D02*
X14334900Y-3275900D01*
X14396600Y-5999100D02*
X14436600Y-6039100D01*
X14436600Y-5999100D02*
X14396600Y-6039100D01*
X14586175Y-4103850D02*
X14626175Y-4143850D01*
X14626175Y-4103850D02*
X14586175Y-4143850D01*
X14633900Y-3242600D02*
X14673900Y-3282600D01*
X14673900Y-3242600D02*
X14633900Y-3282600D01*
X14693600Y-4101900D02*
X14733600Y-4141900D01*
X14733600Y-4101900D02*
X14693600Y-4141900D01*
X14712600Y-5413700D02*
X14752600Y-5453700D01*
X14752600Y-5413700D02*
X14712600Y-5453700D01*
X14724900Y-5062100D02*
X14764900Y-5102100D01*
X14764900Y-5062100D02*
X14724900Y-5102100D01*
X15008600Y-5064500D02*
X15048600Y-5104500D01*
X15048600Y-5064500D02*
X15008600Y-5104500D01*
X15080300Y-4174200D02*
X15120300Y-4214200D01*
X15120300Y-4174200D02*
X15080300Y-4214200D01*
X15114400Y-3146400D02*
X15154400Y-3186400D01*
X15154400Y-3146400D02*
X15114400Y-3186400D01*
X15115000Y-4538900D02*
X15155000Y-4578900D01*
X15155000Y-4538900D02*
X15115000Y-4578900D01*
X15205200Y-6001100D02*
X15245200Y-6041100D01*
X15245200Y-6001100D02*
X15205200Y-6041100D01*
X15451000Y-5503500D02*
X15491000Y-5543500D01*
X15491000Y-5503500D02*
X15451000Y-5543500D01*
X15486400Y-4137600D02*
X15526400Y-4177600D01*
X15526400Y-4137600D02*
X15486400Y-4177600D01*
X15659000Y-5057300D02*
X15699000Y-5097300D01*
X15699000Y-5057300D02*
X15659000Y-5097300D01*
X15845800Y-3357150D02*
X15885800Y-3397150D01*
X15885800Y-3357150D02*
X15845800Y-3397150D01*
X15976500Y-4585500D02*
X16016500Y-4625500D01*
X16016500Y-4585500D02*
X15976500Y-4625500D01*
X16139400Y-5993900D02*
X16179400Y-6033900D01*
X16179400Y-5993900D02*
X16139400Y-6033900D01*
X16256800Y-3172700D02*
X16296800Y-3212700D01*
X16296800Y-3172700D02*
X16256800Y-3212700D01*
X16306100Y-4123600D02*
X16346100Y-4163600D01*
X16346100Y-4123600D02*
X16306100Y-4163600D01*
X16435500Y-5513500D02*
X16475500Y-5553500D01*
X16475500Y-5513500D02*
X16435500Y-5553500D01*
X16484850Y-4073300D02*
X16524850Y-4113300D01*
X16524850Y-4073300D02*
X16484850Y-4113300D01*
X16619800Y-5062100D02*
X16659800Y-5102100D01*
X16659800Y-5062100D02*
X16619800Y-5102100D01*
X16626700Y-4119600D02*
X16666700Y-4159600D01*
X16666700Y-4119600D02*
X16626700Y-4159600D01*
X16894500Y-4538900D02*
X16934500Y-4578900D01*
X16934500Y-4538900D02*
X16894500Y-4578900D01*
X16896600Y-3137150D02*
X16936600Y-3177150D01*
X16936600Y-3137150D02*
X16896600Y-3177150D01*
X17095300Y-5996300D02*
X17135300Y-6036300D01*
X17135300Y-5996300D02*
X17095300Y-6036300D01*
X17260800Y-3151400D02*
X17300800Y-3191400D01*
X17300800Y-3151400D02*
X17260800Y-3191400D01*
X17363200Y-4089400D02*
X17403200Y-4129400D01*
X17403200Y-4089400D02*
X17363200Y-4129400D01*
X17380100Y-5563400D02*
X17420100Y-5603400D01*
X17420100Y-5563400D02*
X17380100Y-5603400D01*
X17570800Y-5057300D02*
X17610800Y-5097300D01*
X17610800Y-5057300D02*
X17570800Y-5097300D01*
X17748800Y-2920300D02*
X17788800Y-2960300D01*
X17788800Y-2920300D02*
X17748800Y-2960300D01*
X17788000Y-3158800D02*
X17828000Y-3198800D01*
X17828000Y-3158800D02*
X17788000Y-3198800D01*
X17879000Y-4535600D02*
X17919000Y-4575600D01*
X17919000Y-4535600D02*
X17879000Y-4575600D01*
X18001300Y-6940700D02*
X18041300Y-6980700D01*
X18041300Y-6940700D02*
X18001300Y-6980700D01*
X18039100Y-5989100D02*
X18079100Y-6029100D01*
X18079100Y-5989100D02*
X18039100Y-6029100D01*
X18299800Y-4099000D02*
X18339800Y-4139000D01*
X18339800Y-4099000D02*
X18299800Y-4139000D01*
X18324700Y-5516800D02*
X18364700Y-5556800D01*
X18364700Y-5516800D02*
X18324700Y-5556800D01*
X18517100Y-5059700D02*
X18557100Y-5099700D01*
X18557100Y-5059700D02*
X18517100Y-5099700D01*
X18597900Y-4111300D02*
X18637900Y-4151300D01*
X18637900Y-4111300D02*
X18597900Y-4151300D01*
X18663500Y-3299450D02*
X18703500Y-3339450D01*
X18703500Y-3299450D02*
X18663500Y-3339450D01*
X18697300Y-3630900D02*
X18737300Y-3670900D01*
X18737300Y-3630900D02*
X18697300Y-3670900D01*
X18740600Y-2906200D02*
X18780600Y-2946200D01*
X18780600Y-2906200D02*
X18740600Y-2946200D01*
X18856900Y-4588800D02*
X18896900Y-4628800D01*
X18896900Y-4588800D02*
X18856900Y-4628800D01*
X18985300Y-5993900D02*
X19025300Y-6033900D01*
X19025300Y-5993900D02*
X18985300Y-6033900D01*
X19092800Y-6950000D02*
X19132800Y-6990000D01*
X19132800Y-6950000D02*
X19092800Y-6990000D01*
X19178000Y-2689500D02*
X19218000Y-2729500D01*
X19218000Y-2689500D02*
X19178000Y-2729500D01*
X19217100Y-4103800D02*
X19257100Y-4143800D01*
X19257100Y-4103800D02*
X19217100Y-4143800D01*
X19448800Y-5079000D02*
X19488800Y-5119000D01*
X19488800Y-5079000D02*
X19448800Y-5119000D01*
X19589500Y-3445500D02*
X19629500Y-3485500D01*
X19629500Y-3445500D02*
X19589500Y-3485500D01*
X19628600Y-3640900D02*
X19668600Y-3680900D01*
X19668600Y-3640900D02*
X19628600Y-3680900D01*
X19673800Y-2914200D02*
X19713800Y-2954200D01*
X19713800Y-2914200D02*
X19673800Y-2954200D01*
X19740800Y-3134700D02*
X19780800Y-3174700D01*
X19780800Y-3134700D02*
X19740800Y-3174700D01*
X20034400Y-4735200D02*
X20074400Y-4775200D01*
X20074400Y-4735200D02*
X20034400Y-4775200D01*
X20199500Y-4103800D02*
X20239500Y-4143800D01*
X20239500Y-4103800D02*
X20199500Y-4143800D01*
X20338500Y-7080200D02*
X20378500Y-7120200D01*
X20378500Y-7080200D02*
X20338500Y-7120200D01*
X13178000Y-3642200D02*
G75*
G03*
X13178000Y-3642200I-50000J0D01*
G01*
X13432000Y-3642200D02*
G75*
G03*
X13432000Y-3642200I-50000J0D01*
G01*
X13686000Y-3642200D02*
G75*
G03*
X13686000Y-3642200I-50000J0D01*
G01*
X13940000Y-3642200D02*
G75*
G03*
X13940000Y-3642200I-50000J0D01*
G01*
X14194000Y-3642200D02*
G75*
G03*
X14194000Y-3642200I-50000J0D01*
G01*
X14448000Y-3642200D02*
G75*
G03*
X14448000Y-3642200I-50000J0D01*
G01*
X14702000Y-3642200D02*
G75*
G03*
X14702000Y-3642200I-50000J0D01*
G01*
X14956000Y-3642200D02*
G75*
G03*
X14956000Y-3642200I-50000J0D01*
G01*
X15210000Y-3642200D02*
G75*
G03*
X15210000Y-3642200I-50000J0D01*
G01*
X15464000Y-3642200D02*
G75*
G03*
X15464000Y-3642200I-50000J0D01*
G01*
X15718000Y-3642200D02*
G75*
G03*
X15718000Y-3642200I-50000J0D01*
G01*
X15972000Y-3642200D02*
G75*
G03*
X15972000Y-3642200I-50000J0D01*
G01*
X16226000Y-3642200D02*
G75*
G03*
X16226000Y-3642200I-50000J0D01*
G01*
X16480000Y-3642200D02*
G75*
G03*
X16480000Y-3642200I-50000J0D01*
G01*
X16734000Y-3642200D02*
G75*
G03*
X16734000Y-3642200I-50000J0D01*
G01*
X16988000Y-3642200D02*
G75*
G03*
X16988000Y-3642200I-50000J0D01*
G01*
X17242000Y-3642200D02*
G75*
G03*
X17242000Y-3642200I-50000J0D01*
G01*
X17496000Y-3642200D02*
G75*
G03*
X17496000Y-3642200I-50000J0D01*
G01*
X17750000Y-3642200D02*
G75*
G03*
X17750000Y-3642200I-50000J0D01*
G01*
X18004000Y-3642200D02*
G75*
G03*
X18004000Y-3642200I-50000J0D01*
G01*
D12*
X7874300Y-2884200D02*
X7874300Y-2994200D01*
X7819300Y-2939200D02*
X7929300Y-2939200D01*
X7874300Y-3334200D02*
X7874300Y-3444200D01*
X7819300Y-3389200D02*
X7929300Y-3389200D01*
X7999100Y-6681900D02*
X7999100Y-6791900D01*
X7944100Y-6736900D02*
X8054100Y-6736900D01*
X7999100Y-7131900D02*
X7999100Y-7241900D01*
X7944100Y-7186900D02*
X8054100Y-7186900D01*
X8101800Y-3834900D02*
X8101800Y-3944900D01*
X8046800Y-3889900D02*
X8156800Y-3889900D01*
X8101800Y-4284900D02*
X8101800Y-4394900D01*
X8046800Y-4339900D02*
X8156800Y-4339900D01*
X8233600Y-4783700D02*
X8233600Y-4893700D01*
X8178600Y-4838700D02*
X8288600Y-4838700D01*
X8233600Y-5233700D02*
X8233600Y-5343700D01*
X8178600Y-5288700D02*
X8288600Y-5288700D01*
X8488100Y-5732100D02*
X8488100Y-5842100D01*
X8433100Y-5787100D02*
X8543100Y-5787100D01*
X8488100Y-6182100D02*
X8488100Y-6292100D01*
X8433100Y-6237100D02*
X8543100Y-6237100D01*
X8524300Y-2884200D02*
X8524300Y-2994200D01*
X8469300Y-2939200D02*
X8579300Y-2939200D01*
X8524300Y-3334200D02*
X8524300Y-3444200D01*
X8469300Y-3389200D02*
X8579300Y-3389200D01*
X8649100Y-6681900D02*
X8649100Y-6791900D01*
X8594100Y-6736900D02*
X8704100Y-6736900D01*
X8649100Y-7131900D02*
X8649100Y-7241900D01*
X8594100Y-7186900D02*
X8704100Y-7186900D01*
X8751800Y-3834900D02*
X8751800Y-3944900D01*
X8696800Y-3889900D02*
X8806800Y-3889900D01*
X8751800Y-4284900D02*
X8751800Y-4394900D01*
X8696800Y-4339900D02*
X8806800Y-4339900D01*
X8823000Y-2884500D02*
X8823000Y-2994500D01*
X8768000Y-2939500D02*
X8878000Y-2939500D01*
X8823000Y-3334500D02*
X8823000Y-3444500D01*
X8768000Y-3389500D02*
X8878000Y-3389500D01*
X8883600Y-4783700D02*
X8883600Y-4893700D01*
X8828600Y-4838700D02*
X8938600Y-4838700D01*
X8883600Y-5233700D02*
X8883600Y-5343700D01*
X8828600Y-5288700D02*
X8938600Y-5288700D01*
X9138100Y-5732100D02*
X9138100Y-5842100D01*
X9083100Y-5787100D02*
X9193100Y-5787100D01*
X9138100Y-6182100D02*
X9138100Y-6292100D01*
X9083100Y-6237100D02*
X9193100Y-6237100D01*
X9177200Y-6684800D02*
X9177200Y-6794800D01*
X9122200Y-6739800D02*
X9232200Y-6739800D01*
X9177200Y-7134800D02*
X9177200Y-7244800D01*
X9122200Y-7189800D02*
X9232200Y-7189800D01*
X9299200Y-3834600D02*
X9299200Y-3944600D01*
X9244200Y-3889600D02*
X9354200Y-3889600D01*
X9299200Y-4284600D02*
X9299200Y-4394600D01*
X9244200Y-4339600D02*
X9354200Y-4339600D01*
X9473000Y-2884500D02*
X9473000Y-2994500D01*
X9418000Y-2939500D02*
X9528000Y-2939500D01*
X9473000Y-3334500D02*
X9473000Y-3444500D01*
X9418000Y-3389500D02*
X9528000Y-3389500D01*
X9540600Y-4782900D02*
X9540600Y-4892900D01*
X9485600Y-4837900D02*
X9595600Y-4837900D01*
X9540600Y-5232900D02*
X9540600Y-5342900D01*
X9485600Y-5287900D02*
X9595600Y-5287900D01*
X9773700Y-2889000D02*
X9773700Y-2999000D01*
X9718700Y-2944000D02*
X9828700Y-2944000D01*
X9773700Y-3339000D02*
X9773700Y-3449000D01*
X9718700Y-3394000D02*
X9828700Y-3394000D01*
X9827200Y-6684800D02*
X9827200Y-6794800D01*
X9772200Y-6739800D02*
X9882200Y-6739800D01*
X9827200Y-7134800D02*
X9827200Y-7244800D01*
X9772200Y-7189800D02*
X9882200Y-7189800D01*
X9949200Y-3834600D02*
X9949200Y-3944600D01*
X9894200Y-3889600D02*
X10004200Y-3889600D01*
X9949200Y-4284600D02*
X9949200Y-4394600D01*
X9894200Y-4339600D02*
X10004200Y-4339600D01*
X10007600Y-5731900D02*
X10007600Y-5841900D01*
X9952600Y-5786900D02*
X10062600Y-5786900D01*
X10007600Y-6181900D02*
X10007600Y-6291900D01*
X9952600Y-6236900D02*
X10062600Y-6236900D01*
X10190600Y-4782900D02*
X10190600Y-4892900D01*
X10135600Y-4837900D02*
X10245600Y-4837900D01*
X10190600Y-5232900D02*
X10190600Y-5342900D01*
X10135600Y-5287900D02*
X10245600Y-5287900D01*
X10249700Y-3833700D02*
X10249700Y-3943700D01*
X10194700Y-3888700D02*
X10304700Y-3888700D01*
X10249700Y-4283700D02*
X10249700Y-4393700D01*
X10194700Y-4338700D02*
X10304700Y-4338700D01*
X10384700Y-6684400D02*
X10384700Y-6794400D01*
X10329700Y-6739400D02*
X10439700Y-6739400D01*
X10384700Y-7134400D02*
X10384700Y-7244400D01*
X10329700Y-7189400D02*
X10439700Y-7189400D01*
X10423700Y-2889000D02*
X10423700Y-2999000D01*
X10368700Y-2944000D02*
X10478700Y-2944000D01*
X10423700Y-3339000D02*
X10423700Y-3449000D01*
X10368700Y-3394000D02*
X10478700Y-3394000D01*
X10491700Y-4784600D02*
X10491700Y-4894600D01*
X10436700Y-4839600D02*
X10546700Y-4839600D01*
X10491700Y-5234600D02*
X10491700Y-5344600D01*
X10436700Y-5289600D02*
X10546700Y-5289600D01*
X10657600Y-5731900D02*
X10657600Y-5841900D01*
X10602600Y-5786900D02*
X10712600Y-5786900D01*
X10657600Y-6181900D02*
X10657600Y-6291900D01*
X10602600Y-6236900D02*
X10712600Y-6236900D01*
X10725300Y-2887800D02*
X10725300Y-2997800D01*
X10670300Y-2942800D02*
X10780300Y-2942800D01*
X10725300Y-3337800D02*
X10725300Y-3447800D01*
X10670300Y-3392800D02*
X10780300Y-3392800D01*
X10899700Y-3833700D02*
X10899700Y-3943700D01*
X10844700Y-3888700D02*
X10954700Y-3888700D01*
X10899700Y-4283700D02*
X10899700Y-4393700D01*
X10844700Y-4338700D02*
X10954700Y-4338700D01*
X10957700Y-5731300D02*
X10957700Y-5841300D01*
X10902700Y-5786300D02*
X11012700Y-5786300D01*
X10957700Y-6181300D02*
X10957700Y-6291300D01*
X10902700Y-6236300D02*
X11012700Y-6236300D01*
X11034700Y-6684400D02*
X11034700Y-6794400D01*
X10979700Y-6739400D02*
X11089700Y-6739400D01*
X11034700Y-7134400D02*
X11034700Y-7244400D01*
X10979700Y-7189400D02*
X11089700Y-7189400D01*
X11141700Y-4784600D02*
X11141700Y-4894600D01*
X11086700Y-4839600D02*
X11196700Y-4839600D01*
X11141700Y-5234600D02*
X11141700Y-5344600D01*
X11086700Y-5289600D02*
X11196700Y-5289600D01*
X11200400Y-3832900D02*
X11200400Y-3942900D01*
X11145400Y-3887900D02*
X11255400Y-3887900D01*
X11200400Y-4282900D02*
X11200400Y-4392900D01*
X11145400Y-4337900D02*
X11255400Y-4337900D01*
X11375300Y-2887800D02*
X11375300Y-2997800D01*
X11320300Y-2942800D02*
X11430300Y-2942800D01*
X11375300Y-3337800D02*
X11375300Y-3447800D01*
X11320300Y-3392800D02*
X11430300Y-3392800D01*
X11441900Y-4785700D02*
X11441900Y-4895700D01*
X11386900Y-4840700D02*
X11496900Y-4840700D01*
X11441900Y-5235700D02*
X11441900Y-5345700D01*
X11386900Y-5290700D02*
X11496900Y-5290700D01*
X11607700Y-5731300D02*
X11607700Y-5841300D01*
X11552700Y-5786300D02*
X11662700Y-5786300D01*
X11607700Y-6181300D02*
X11607700Y-6291300D01*
X11552700Y-6236300D02*
X11662700Y-6236300D01*
X11674700Y-2888900D02*
X11674700Y-2998900D01*
X11619700Y-2943900D02*
X11729700Y-2943900D01*
X11674700Y-3338900D02*
X11674700Y-3448900D01*
X11619700Y-3393900D02*
X11729700Y-3393900D01*
X11850400Y-3832900D02*
X11850400Y-3942900D01*
X11795400Y-3887900D02*
X11905400Y-3887900D01*
X11850400Y-4282900D02*
X11850400Y-4392900D01*
X11795400Y-4337900D02*
X11905400Y-4337900D01*
X11908400Y-5730800D02*
X11908400Y-5840800D01*
X11853400Y-5785800D02*
X11963400Y-5785800D01*
X11908400Y-6180800D02*
X11908400Y-6290800D01*
X11853400Y-6235800D02*
X11963400Y-6235800D01*
X12091900Y-4785700D02*
X12091900Y-4895700D01*
X12036900Y-4840700D02*
X12146900Y-4840700D01*
X12091900Y-5235700D02*
X12091900Y-5345700D01*
X12036900Y-5290700D02*
X12146900Y-5290700D01*
X12150600Y-3832400D02*
X12150600Y-3942400D01*
X12095600Y-3887400D02*
X12205600Y-3887400D01*
X12150600Y-4282400D02*
X12150600Y-4392400D01*
X12095600Y-4337400D02*
X12205600Y-4337400D01*
X12248200Y-6682400D02*
X12248200Y-6792400D01*
X12193200Y-6737400D02*
X12303200Y-6737400D01*
X12248200Y-7132400D02*
X12248200Y-7242400D01*
X12193200Y-7187400D02*
X12303200Y-7187400D01*
X12324700Y-2888900D02*
X12324700Y-2998900D01*
X12269700Y-2943900D02*
X12379700Y-2943900D01*
X12324700Y-3338900D02*
X12324700Y-3448900D01*
X12269700Y-3393900D02*
X12379700Y-3393900D01*
X12392100Y-4787100D02*
X12392100Y-4897100D01*
X12337100Y-4842100D02*
X12447100Y-4842100D01*
X12392100Y-5237100D02*
X12392100Y-5347100D01*
X12337100Y-5292100D02*
X12447100Y-5292100D01*
X12558400Y-5730800D02*
X12558400Y-5840800D01*
X12503400Y-5785800D02*
X12613400Y-5785800D01*
X12558400Y-6180800D02*
X12558400Y-6290800D01*
X12503400Y-6235800D02*
X12613400Y-6235800D01*
X12626000Y-2889100D02*
X12626000Y-2999100D01*
X12571000Y-2944100D02*
X12681000Y-2944100D01*
X12626000Y-3339100D02*
X12626000Y-3449100D01*
X12571000Y-3394100D02*
X12681000Y-3394100D01*
X12800600Y-3832400D02*
X12800600Y-3942400D01*
X12745600Y-3887400D02*
X12855600Y-3887400D01*
X12800600Y-4282400D02*
X12800600Y-4392400D01*
X12745600Y-4337400D02*
X12855600Y-4337400D01*
X12858400Y-5730600D02*
X12858400Y-5840600D01*
X12803400Y-5785600D02*
X12913400Y-5785600D01*
X12858400Y-6180600D02*
X12858400Y-6290600D01*
X12803400Y-6235600D02*
X12913400Y-6235600D01*
X12898200Y-6682400D02*
X12898200Y-6792400D01*
X12843200Y-6737400D02*
X12953200Y-6737400D01*
X12898200Y-7132400D02*
X12898200Y-7242400D01*
X12843200Y-7187400D02*
X12953200Y-7187400D01*
X13042100Y-4787100D02*
X13042100Y-4897100D01*
X12987100Y-4842100D02*
X13097100Y-4842100D01*
X13042100Y-5237100D02*
X13042100Y-5347100D01*
X12987100Y-5292100D02*
X13097100Y-5292100D01*
X13100900Y-3832100D02*
X13100900Y-3942100D01*
X13045900Y-3887100D02*
X13155900Y-3887100D01*
X13100900Y-4282100D02*
X13100900Y-4392100D01*
X13045900Y-4337100D02*
X13155900Y-4337100D01*
X13276000Y-2889100D02*
X13276000Y-2999100D01*
X13221000Y-2944100D02*
X13331000Y-2944100D01*
X13276000Y-3339100D02*
X13276000Y-3449100D01*
X13221000Y-3394100D02*
X13331000Y-3394100D01*
X13342500Y-4788100D02*
X13342500Y-4898100D01*
X13287500Y-4843100D02*
X13397500Y-4843100D01*
X13342500Y-5238100D02*
X13342500Y-5348100D01*
X13287500Y-5293100D02*
X13397500Y-5293100D01*
X13508400Y-5730600D02*
X13508400Y-5840600D01*
X13453400Y-5785600D02*
X13563400Y-5785600D01*
X13508400Y-6180600D02*
X13508400Y-6290600D01*
X13453400Y-6235600D02*
X13563400Y-6235600D01*
X13575000Y-2888900D02*
X13575000Y-2998900D01*
X13520000Y-2943900D02*
X13630000Y-2943900D01*
X13575000Y-3338900D02*
X13575000Y-3448900D01*
X13520000Y-3393900D02*
X13630000Y-3393900D01*
X13750900Y-3832100D02*
X13750900Y-3942100D01*
X13695900Y-3887100D02*
X13805900Y-3887100D01*
X13750900Y-4282100D02*
X13750900Y-4392100D01*
X13695900Y-4337100D02*
X13805900Y-4337100D01*
X13808500Y-5730600D02*
X13808500Y-5840600D01*
X13753500Y-5785600D02*
X13863500Y-5785600D01*
X13808500Y-6180600D02*
X13808500Y-6290600D01*
X13753500Y-6235600D02*
X13863500Y-6235600D01*
X13992500Y-4788100D02*
X13992500Y-4898100D01*
X13937500Y-4843100D02*
X14047500Y-4843100D01*
X13992500Y-5238100D02*
X13992500Y-5348100D01*
X13937500Y-5293100D02*
X14047500Y-5293100D01*
X14051200Y-3831600D02*
X14051200Y-3941600D01*
X13996200Y-3886600D02*
X14106200Y-3886600D01*
X14051200Y-4281600D02*
X14051200Y-4391600D01*
X13996200Y-4336600D02*
X14106200Y-4336600D01*
X14225000Y-2888900D02*
X14225000Y-2998900D01*
X14170000Y-2943900D02*
X14280000Y-2943900D01*
X14225000Y-3338900D02*
X14225000Y-3448900D01*
X14170000Y-3393900D02*
X14280000Y-3393900D01*
X14292800Y-4789800D02*
X14292800Y-4899800D01*
X14237800Y-4844800D02*
X14347800Y-4844800D01*
X14292800Y-5239800D02*
X14292800Y-5349800D01*
X14237800Y-5294800D02*
X14347800Y-5294800D01*
X14458500Y-5730600D02*
X14458500Y-5840600D01*
X14403500Y-5785600D02*
X14513500Y-5785600D01*
X14458500Y-6180600D02*
X14458500Y-6290600D01*
X14403500Y-6235600D02*
X14513500Y-6235600D01*
X14525800Y-2889700D02*
X14525800Y-2999700D01*
X14470800Y-2944700D02*
X14580800Y-2944700D01*
X14525800Y-3339700D02*
X14525800Y-3449700D01*
X14470800Y-3394700D02*
X14580800Y-3394700D01*
X14701200Y-3831600D02*
X14701200Y-3941600D01*
X14646200Y-3886600D02*
X14756200Y-3886600D01*
X14701200Y-4281600D02*
X14701200Y-4391600D01*
X14646200Y-4336600D02*
X14756200Y-4336600D01*
X14758700Y-5729500D02*
X14758700Y-5839500D01*
X14703700Y-5784500D02*
X14813700Y-5784500D01*
X14758700Y-6179500D02*
X14758700Y-6289500D01*
X14703700Y-6234500D02*
X14813700Y-6234500D01*
X14942800Y-4789800D02*
X14942800Y-4899800D01*
X14887800Y-4844800D02*
X14997800Y-4844800D01*
X14942800Y-5239800D02*
X14942800Y-5349800D01*
X14887800Y-5294800D02*
X14997800Y-5294800D01*
X15001300Y-3831400D02*
X15001300Y-3941400D01*
X14946300Y-3886400D02*
X15056300Y-3886400D01*
X15001300Y-4281400D02*
X15001300Y-4391400D01*
X14946300Y-4336400D02*
X15056300Y-4336400D01*
X15175800Y-2889700D02*
X15175800Y-2999700D01*
X15120800Y-2944700D02*
X15230800Y-2944700D01*
X15175800Y-3339700D02*
X15175800Y-3449700D01*
X15120800Y-3394700D02*
X15230800Y-3394700D01*
X15242800Y-4789000D02*
X15242800Y-4899000D01*
X15187800Y-4844000D02*
X15297800Y-4844000D01*
X15242800Y-5239000D02*
X15242800Y-5349000D01*
X15187800Y-5294000D02*
X15297800Y-5294000D01*
X15408700Y-5729500D02*
X15408700Y-5839500D01*
X15353700Y-5784500D02*
X15463700Y-5784500D01*
X15408700Y-6179500D02*
X15408700Y-6289500D01*
X15353700Y-6234500D02*
X15463700Y-6234500D01*
X15475700Y-2889900D02*
X15475700Y-2999900D01*
X15420700Y-2944900D02*
X15530700Y-2944900D01*
X15475700Y-3339900D02*
X15475700Y-3449900D01*
X15420700Y-3394900D02*
X15530700Y-3394900D01*
X15507700Y-6684900D02*
X15507700Y-6794900D01*
X15452700Y-6739900D02*
X15562700Y-6739900D01*
X15507700Y-7134900D02*
X15507700Y-7244900D01*
X15452700Y-7189900D02*
X15562700Y-7189900D01*
X15651300Y-3831400D02*
X15651300Y-3941400D01*
X15596300Y-3886400D02*
X15706300Y-3886400D01*
X15651300Y-4281400D02*
X15651300Y-4391400D01*
X15596300Y-4336400D02*
X15706300Y-4336400D01*
X15708900Y-5728900D02*
X15708900Y-5838900D01*
X15653900Y-5783900D02*
X15763900Y-5783900D01*
X15708900Y-6178900D02*
X15708900Y-6288900D01*
X15653900Y-6233900D02*
X15763900Y-6233900D01*
X15892800Y-4789000D02*
X15892800Y-4899000D01*
X15837800Y-4844000D02*
X15947800Y-4844000D01*
X15892800Y-5239000D02*
X15892800Y-5349000D01*
X15837800Y-5294000D02*
X15947800Y-5294000D01*
X15951600Y-3831200D02*
X15951600Y-3941200D01*
X15896600Y-3886200D02*
X16006600Y-3886200D01*
X15951600Y-4281200D02*
X15951600Y-4391200D01*
X15896600Y-4336200D02*
X16006600Y-4336200D01*
X16125700Y-2889900D02*
X16125700Y-2999900D01*
X16070700Y-2944900D02*
X16180700Y-2944900D01*
X16125700Y-3339900D02*
X16125700Y-3449900D01*
X16070700Y-3394900D02*
X16180700Y-3394900D01*
X16157700Y-6684900D02*
X16157700Y-6794900D01*
X16102700Y-6739900D02*
X16212700Y-6739900D01*
X16157700Y-7134900D02*
X16157700Y-7244900D01*
X16102700Y-7189900D02*
X16212700Y-7189900D01*
X16192800Y-4789000D02*
X16192800Y-4899000D01*
X16137800Y-4844000D02*
X16247800Y-4844000D01*
X16192800Y-5239000D02*
X16192800Y-5349000D01*
X16137800Y-5294000D02*
X16247800Y-5294000D01*
X16358900Y-5728900D02*
X16358900Y-5838900D01*
X16303900Y-5783900D02*
X16413900Y-5783900D01*
X16358900Y-6178900D02*
X16358900Y-6288900D01*
X16303900Y-6233900D02*
X16413900Y-6233900D01*
X16424900Y-2888500D02*
X16424900Y-2998500D01*
X16369900Y-2943500D02*
X16479900Y-2943500D01*
X16424900Y-3338500D02*
X16424900Y-3448500D01*
X16369900Y-3393500D02*
X16479900Y-3393500D01*
X16601600Y-3831200D02*
X16601600Y-3941200D01*
X16546600Y-3886200D02*
X16656600Y-3886200D01*
X16601600Y-4281200D02*
X16601600Y-4391200D01*
X16546600Y-4336200D02*
X16656600Y-4336200D01*
X16659400Y-5728100D02*
X16659400Y-5838100D01*
X16604400Y-5783100D02*
X16714400Y-5783100D01*
X16659400Y-6178100D02*
X16659400Y-6288100D01*
X16604400Y-6233100D02*
X16714400Y-6233100D01*
X16842800Y-4789000D02*
X16842800Y-4899000D01*
X16787800Y-4844000D02*
X16897800Y-4844000D01*
X16842800Y-5239000D02*
X16842800Y-5349000D01*
X16787800Y-5294000D02*
X16897800Y-5294000D01*
X16902000Y-3830700D02*
X16902000Y-3940700D01*
X16847000Y-3885700D02*
X16957000Y-3885700D01*
X16902000Y-4280700D02*
X16902000Y-4390700D01*
X16847000Y-4335700D02*
X16957000Y-4335700D01*
X17074900Y-2888500D02*
X17074900Y-2998500D01*
X17019900Y-2943500D02*
X17129900Y-2943500D01*
X17074900Y-3338500D02*
X17074900Y-3448500D01*
X17019900Y-3393500D02*
X17129900Y-3393500D01*
X17143200Y-4788400D02*
X17143200Y-4898400D01*
X17088200Y-4843400D02*
X17198200Y-4843400D01*
X17143200Y-5238400D02*
X17143200Y-5348400D01*
X17088200Y-5293400D02*
X17198200Y-5293400D01*
X17309400Y-5728100D02*
X17309400Y-5838100D01*
X17254400Y-5783100D02*
X17364400Y-5783100D01*
X17309400Y-6178100D02*
X17309400Y-6288100D01*
X17254400Y-6233100D02*
X17364400Y-6233100D01*
X17375500Y-2887700D02*
X17375500Y-2997700D01*
X17320500Y-2942700D02*
X17430500Y-2942700D01*
X17375500Y-3337700D02*
X17375500Y-3447700D01*
X17320500Y-3392700D02*
X17430500Y-3392700D01*
X17488900Y-6684800D02*
X17488900Y-6794800D01*
X17433900Y-6739800D02*
X17543900Y-6739800D01*
X17488900Y-7134800D02*
X17488900Y-7244800D01*
X17433900Y-7189800D02*
X17543900Y-7189800D01*
X17552000Y-3830700D02*
X17552000Y-3940700D01*
X17497000Y-3885700D02*
X17607000Y-3885700D01*
X17552000Y-4280700D02*
X17552000Y-4390700D01*
X17497000Y-4335700D02*
X17607000Y-4335700D01*
X17609600Y-5727200D02*
X17609600Y-5837200D01*
X17554600Y-5782200D02*
X17664600Y-5782200D01*
X17609600Y-6177200D02*
X17609600Y-6287200D01*
X17554600Y-6232200D02*
X17664600Y-6232200D01*
X17793200Y-4788400D02*
X17793200Y-4898400D01*
X17738200Y-4843400D02*
X17848200Y-4843400D01*
X17793200Y-5238400D02*
X17793200Y-5348400D01*
X17738200Y-5293400D02*
X17848200Y-5293400D01*
X17852000Y-3830400D02*
X17852000Y-3940400D01*
X17797000Y-3885400D02*
X17907000Y-3885400D01*
X17852000Y-4280400D02*
X17852000Y-4390400D01*
X17797000Y-4335400D02*
X17907000Y-4335400D01*
X18025500Y-2887700D02*
X18025500Y-2997700D01*
X17970500Y-2942700D02*
X18080500Y-2942700D01*
X18025500Y-3337700D02*
X18025500Y-3447700D01*
X17970500Y-3392700D02*
X18080500Y-3392700D01*
X18093400Y-4787900D02*
X18093400Y-4897900D01*
X18038400Y-4842900D02*
X18148400Y-4842900D01*
X18093400Y-5237900D02*
X18093400Y-5347900D01*
X18038400Y-5292900D02*
X18148400Y-5292900D01*
X18138900Y-6684800D02*
X18138900Y-6794800D01*
X18083900Y-6739800D02*
X18193900Y-6739800D01*
X18138900Y-7134800D02*
X18138900Y-7244800D01*
X18083900Y-7189800D02*
X18193900Y-7189800D01*
X18259600Y-5727200D02*
X18259600Y-5837200D01*
X18204600Y-5782200D02*
X18314600Y-5782200D01*
X18259600Y-6177200D02*
X18259600Y-6287200D01*
X18204600Y-6232200D02*
X18314600Y-6232200D01*
X18325800Y-2886900D02*
X18325800Y-2996900D01*
X18270800Y-2941900D02*
X18380800Y-2941900D01*
X18325800Y-3336900D02*
X18325800Y-3446900D01*
X18270800Y-3391900D02*
X18380800Y-3391900D01*
X18502000Y-3830400D02*
X18502000Y-3940400D01*
X18447000Y-3885400D02*
X18557000Y-3885400D01*
X18502000Y-4280400D02*
X18502000Y-4390400D01*
X18447000Y-4335400D02*
X18557000Y-4335400D01*
X18559700Y-5727700D02*
X18559700Y-5837700D01*
X18504700Y-5782700D02*
X18614700Y-5782700D01*
X18559700Y-6177700D02*
X18559700Y-6287700D01*
X18504700Y-6232700D02*
X18614700Y-6232700D01*
X18662300Y-6684500D02*
X18662300Y-6794500D01*
X18607300Y-6739500D02*
X18717300Y-6739500D01*
X18662300Y-7134500D02*
X18662300Y-7244500D01*
X18607300Y-7189500D02*
X18717300Y-7189500D01*
X18743400Y-4787900D02*
X18743400Y-4897900D01*
X18688400Y-4842900D02*
X18798400Y-4842900D01*
X18743400Y-5237900D02*
X18743400Y-5347900D01*
X18688400Y-5292900D02*
X18798400Y-5292900D01*
X18802400Y-3829700D02*
X18802400Y-3939700D01*
X18747400Y-3884700D02*
X18857400Y-3884700D01*
X18802400Y-4279700D02*
X18802400Y-4389700D01*
X18747400Y-4334700D02*
X18857400Y-4334700D01*
X18975800Y-2886900D02*
X18975800Y-2996900D01*
X18920800Y-2941900D02*
X19030800Y-2941900D01*
X18975800Y-3336900D02*
X18975800Y-3446900D01*
X18920800Y-3391900D02*
X19030800Y-3391900D01*
X19043700Y-4787500D02*
X19043700Y-4897500D01*
X18988700Y-4842500D02*
X19098700Y-4842500D01*
X19043700Y-5237500D02*
X19043700Y-5347500D01*
X18988700Y-5292500D02*
X19098700Y-5292500D01*
X19209700Y-5727700D02*
X19209700Y-5837700D01*
X19154700Y-5782700D02*
X19264700Y-5782700D01*
X19209700Y-6177700D02*
X19209700Y-6287700D01*
X19154700Y-6232700D02*
X19264700Y-6232700D01*
X19276500Y-2886600D02*
X19276500Y-2996600D01*
X19221500Y-2941600D02*
X19331500Y-2941600D01*
X19276500Y-3336600D02*
X19276500Y-3446600D01*
X19221500Y-3391600D02*
X19331500Y-3391600D01*
X19312300Y-6684500D02*
X19312300Y-6794500D01*
X19257300Y-6739500D02*
X19367300Y-6739500D01*
X19312300Y-7134500D02*
X19312300Y-7244500D01*
X19257300Y-7189500D02*
X19367300Y-7189500D01*
X19452400Y-3829700D02*
X19452400Y-3939700D01*
X19397400Y-3884700D02*
X19507400Y-3884700D01*
X19452400Y-4279700D02*
X19452400Y-4389700D01*
X19397400Y-4334700D02*
X19507400Y-4334700D01*
X19693700Y-4787500D02*
X19693700Y-4897500D01*
X19638700Y-4842500D02*
X19748700Y-4842500D01*
X19693700Y-5237500D02*
X19693700Y-5347500D01*
X19638700Y-5292500D02*
X19748700Y-5292500D01*
X19752900Y-3828800D02*
X19752900Y-3938800D01*
X19697900Y-3883800D02*
X19807900Y-3883800D01*
X19752900Y-4278800D02*
X19752900Y-4388800D01*
X19697900Y-4333800D02*
X19807900Y-4333800D01*
X19861600Y-6684700D02*
X19861600Y-6794700D01*
X19806600Y-6739700D02*
X19916600Y-6739700D01*
X19861600Y-7134700D02*
X19861600Y-7244700D01*
X19806600Y-7189700D02*
X19916600Y-7189700D01*
X19926500Y-2886600D02*
X19926500Y-2996600D01*
X19871500Y-2941600D02*
X19981500Y-2941600D01*
X19926500Y-3336600D02*
X19926500Y-3446600D01*
X19871500Y-3391600D02*
X19981500Y-3391600D01*
X20383100Y-5726900D02*
X20383100Y-5836900D01*
X20328100Y-5781900D02*
X20438100Y-5781900D01*
X20383100Y-6176900D02*
X20383100Y-6286900D01*
X20328100Y-6231900D02*
X20438100Y-6231900D01*
X20402900Y-3828800D02*
X20402900Y-3938800D01*
X20347900Y-3883800D02*
X20457900Y-3883800D01*
X20402900Y-4278800D02*
X20402900Y-4388800D01*
X20347900Y-4333800D02*
X20457900Y-4333800D01*
X20511600Y-6684700D02*
X20511600Y-6794700D01*
X20456600Y-6739700D02*
X20566600Y-6739700D01*
X20511600Y-7134700D02*
X20511600Y-7244700D01*
X20456600Y-7189700D02*
X20566600Y-7189700D01*
X20589900Y-4785700D02*
X20589900Y-4895700D01*
X20534900Y-4840700D02*
X20644900Y-4840700D01*
X20589900Y-5235700D02*
X20589900Y-5345700D01*
X20534900Y-5290700D02*
X20644900Y-5290700D01*
X20727600Y-2886700D02*
X20727600Y-2996700D01*
X20672600Y-2941700D02*
X20782600Y-2941700D01*
X20727600Y-3336700D02*
X20727600Y-3446700D01*
X20672600Y-3391700D02*
X20782600Y-3391700D01*
X20945800Y-3828300D02*
X20945800Y-3938300D01*
X20890800Y-3883300D02*
X21000800Y-3883300D01*
X20945800Y-4278300D02*
X20945800Y-4388300D01*
X20890800Y-4333300D02*
X21000800Y-4333300D01*
X21033100Y-5726900D02*
X21033100Y-5836900D01*
X20978100Y-5781900D02*
X21088100Y-5781900D01*
X21033100Y-6176900D02*
X21033100Y-6286900D01*
X20978100Y-6231900D02*
X21088100Y-6231900D01*
X21054500Y-6683300D02*
X21054500Y-6793300D01*
X20999500Y-6738300D02*
X21109500Y-6738300D01*
X21054500Y-7133300D02*
X21054500Y-7243300D01*
X20999500Y-7188300D02*
X21109500Y-7188300D01*
X21239900Y-4785700D02*
X21239900Y-4895700D01*
X21184900Y-4840700D02*
X21294900Y-4840700D01*
X21239900Y-5235700D02*
X21239900Y-5345700D01*
X21184900Y-5290700D02*
X21294900Y-5290700D01*
X21377600Y-2886700D02*
X21377600Y-2996700D01*
X21322600Y-2941700D02*
X21432600Y-2941700D01*
X21377600Y-3336700D02*
X21377600Y-3446700D01*
X21322600Y-3391700D02*
X21432600Y-3391700D01*
X21595800Y-3828300D02*
X21595800Y-3938300D01*
X21540800Y-3883300D02*
X21650800Y-3883300D01*
X21595800Y-4278300D02*
X21595800Y-4388300D01*
X21540800Y-4333300D02*
X21650800Y-4333300D01*
X21704500Y-6683300D02*
X21704500Y-6793300D01*
X21649500Y-6738300D02*
X21759500Y-6738300D01*
X21704500Y-7133300D02*
X21704500Y-7243300D01*
X21649500Y-7188300D02*
X21759500Y-7188300D01*
D11*
X7330777Y-8466484D02*
X7330777Y-8266484D01*
X7330777Y-8266484D02*
X7378396Y-8266484D01*
X7378396Y-8266484D02*
X7406967Y-8276008D01*
X7406967Y-8276008D02*
X7426015Y-8295055D01*
X7426015Y-8295055D02*
X7435539Y-8314103D01*
X7435539Y-8314103D02*
X7445062Y-8352198D01*
X7445062Y-8352198D02*
X7445062Y-8380769D01*
X7445062Y-8380769D02*
X7435539Y-8418865D01*
X7435539Y-8418865D02*
X7426015Y-8437912D01*
X7426015Y-8437912D02*
X7406967Y-8456960D01*
X7406967Y-8456960D02*
X7378396Y-8466484D01*
X7378396Y-8466484D02*
X7330777Y-8466484D01*
X7530777Y-8466484D02*
X7530777Y-8333150D01*
X7530777Y-8371246D02*
X7540301Y-8352198D01*
X7540301Y-8352198D02*
X7549824Y-8342674D01*
X7549824Y-8342674D02*
X7568872Y-8333150D01*
X7568872Y-8333150D02*
X7587920Y-8333150D01*
X7654586Y-8466484D02*
X7654586Y-8333150D01*
X7654586Y-8266484D02*
X7645062Y-8276008D01*
X7645062Y-8276008D02*
X7654586Y-8285531D01*
X7654586Y-8285531D02*
X7664110Y-8276008D01*
X7664110Y-8276008D02*
X7654586Y-8266484D01*
X7654586Y-8266484D02*
X7654586Y-8285531D01*
X7778396Y-8466484D02*
X7759348Y-8456960D01*
X7759348Y-8456960D02*
X7749824Y-8437912D01*
X7749824Y-8437912D02*
X7749824Y-8266484D01*
X7883158Y-8466484D02*
X7864110Y-8456960D01*
X7864110Y-8456960D02*
X7854586Y-8437912D01*
X7854586Y-8437912D02*
X7854586Y-8266484D01*
X8111729Y-8466484D02*
X8111729Y-8266484D01*
X8111729Y-8266484D02*
X8178396Y-8409341D01*
X8178396Y-8409341D02*
X8245062Y-8266484D01*
X8245062Y-8266484D02*
X8245062Y-8466484D01*
X8426015Y-8466484D02*
X8426015Y-8361722D01*
X8426015Y-8361722D02*
X8416491Y-8342674D01*
X8416491Y-8342674D02*
X8397444Y-8333150D01*
X8397444Y-8333150D02*
X8359348Y-8333150D01*
X8359348Y-8333150D02*
X8340301Y-8342674D01*
X8426015Y-8456960D02*
X8406967Y-8466484D01*
X8406967Y-8466484D02*
X8359348Y-8466484D01*
X8359348Y-8466484D02*
X8340301Y-8456960D01*
X8340301Y-8456960D02*
X8330777Y-8437912D01*
X8330777Y-8437912D02*
X8330777Y-8418865D01*
X8330777Y-8418865D02*
X8340301Y-8399817D01*
X8340301Y-8399817D02*
X8359348Y-8390293D01*
X8359348Y-8390293D02*
X8406967Y-8390293D01*
X8406967Y-8390293D02*
X8426015Y-8380769D01*
X8521253Y-8333150D02*
X8521253Y-8533150D01*
X8521253Y-8342674D02*
X8540301Y-8333150D01*
X8540301Y-8333150D02*
X8578396Y-8333150D01*
X8578396Y-8333150D02*
X8597444Y-8342674D01*
X8597444Y-8342674D02*
X8606967Y-8352198D01*
X8606967Y-8352198D02*
X8616491Y-8371246D01*
X8616491Y-8371246D02*
X8616491Y-8428389D01*
X8616491Y-8428389D02*
X8606967Y-8447436D01*
X8606967Y-8447436D02*
X8597444Y-8456960D01*
X8597444Y-8456960D02*
X8578396Y-8466484D01*
X8578396Y-8466484D02*
X8540301Y-8466484D01*
X8540301Y-8466484D02*
X8521253Y-8456960D01*
X8702205Y-8447436D02*
X8711729Y-8456960D01*
X8711729Y-8456960D02*
X8702205Y-8466484D01*
X8702205Y-8466484D02*
X8692682Y-8456960D01*
X8692682Y-8456960D02*
X8702205Y-8447436D01*
X8702205Y-8447436D02*
X8702205Y-8466484D01*
X8702205Y-8342674D02*
X8711729Y-8352198D01*
X8711729Y-8352198D02*
X8702205Y-8361722D01*
X8702205Y-8361722D02*
X8692682Y-8352198D01*
X8692682Y-8352198D02*
X8702205Y-8342674D01*
X8702205Y-8342674D02*
X8702205Y-8361722D01*
D10*
X7030000Y-8775000D02*
X7070000Y-8815000D01*
X7070000Y-8775000D02*
X7030000Y-8815000D01*
D11*
X7368872Y-8686484D02*
X7387920Y-8686484D01*
X7387920Y-8686484D02*
X7406967Y-8696008D01*
X7406967Y-8696008D02*
X7416491Y-8705531D01*
X7416491Y-8705531D02*
X7426015Y-8724579D01*
X7426015Y-8724579D02*
X7435539Y-8762674D01*
X7435539Y-8762674D02*
X7435539Y-8810293D01*
X7435539Y-8810293D02*
X7426015Y-8848389D01*
X7426015Y-8848389D02*
X7416491Y-8867436D01*
X7416491Y-8867436D02*
X7406967Y-8876960D01*
X7406967Y-8876960D02*
X7387920Y-8886484D01*
X7387920Y-8886484D02*
X7368872Y-8886484D01*
X7368872Y-8886484D02*
X7349824Y-8876960D01*
X7349824Y-8876960D02*
X7340301Y-8867436D01*
X7340301Y-8867436D02*
X7330777Y-8848389D01*
X7330777Y-8848389D02*
X7321253Y-8810293D01*
X7321253Y-8810293D02*
X7321253Y-8762674D01*
X7321253Y-8762674D02*
X7330777Y-8724579D01*
X7330777Y-8724579D02*
X7340301Y-8705531D01*
X7340301Y-8705531D02*
X7349824Y-8696008D01*
X7349824Y-8696008D02*
X7368872Y-8686484D01*
X7521253Y-8867436D02*
X7530777Y-8876960D01*
X7530777Y-8876960D02*
X7521253Y-8886484D01*
X7521253Y-8886484D02*
X7511729Y-8876960D01*
X7511729Y-8876960D02*
X7521253Y-8867436D01*
X7521253Y-8867436D02*
X7521253Y-8886484D01*
X7702205Y-8753150D02*
X7702205Y-8886484D01*
X7654586Y-8676960D02*
X7606967Y-8819817D01*
X7606967Y-8819817D02*
X7730777Y-8819817D01*
X7845062Y-8686484D02*
X7864110Y-8686484D01*
X7864110Y-8686484D02*
X7883158Y-8696008D01*
X7883158Y-8696008D02*
X7892682Y-8705531D01*
X7892682Y-8705531D02*
X7902205Y-8724579D01*
X7902205Y-8724579D02*
X7911729Y-8762674D01*
X7911729Y-8762674D02*
X7911729Y-8810293D01*
X7911729Y-8810293D02*
X7902205Y-8848389D01*
X7902205Y-8848389D02*
X7892682Y-8867436D01*
X7892682Y-8867436D02*
X7883158Y-8876960D01*
X7883158Y-8876960D02*
X7864110Y-8886484D01*
X7864110Y-8886484D02*
X7845062Y-8886484D01*
X7845062Y-8886484D02*
X7826015Y-8876960D01*
X7826015Y-8876960D02*
X7816491Y-8867436D01*
X7816491Y-8867436D02*
X7806967Y-8848389D01*
X7806967Y-8848389D02*
X7797443Y-8810293D01*
X7797443Y-8810293D02*
X7797443Y-8762674D01*
X7797443Y-8762674D02*
X7806967Y-8724579D01*
X7806967Y-8724579D02*
X7816491Y-8705531D01*
X7816491Y-8705531D02*
X7826015Y-8696008D01*
X7826015Y-8696008D02*
X7845062Y-8686484D01*
X8035539Y-8686484D02*
X8054586Y-8686484D01*
X8054586Y-8686484D02*
X8073634Y-8696008D01*
X8073634Y-8696008D02*
X8083158Y-8705531D01*
X8083158Y-8705531D02*
X8092682Y-8724579D01*
X8092682Y-8724579D02*
X8102205Y-8762674D01*
X8102205Y-8762674D02*
X8102205Y-8810293D01*
X8102205Y-8810293D02*
X8092682Y-8848389D01*
X8092682Y-8848389D02*
X8083158Y-8867436D01*
X8083158Y-8867436D02*
X8073634Y-8876960D01*
X8073634Y-8876960D02*
X8054586Y-8886484D01*
X8054586Y-8886484D02*
X8035539Y-8886484D01*
X8035539Y-8886484D02*
X8016491Y-8876960D01*
X8016491Y-8876960D02*
X8006967Y-8867436D01*
X8006967Y-8867436D02*
X7997443Y-8848389D01*
X7997443Y-8848389D02*
X7987920Y-8810293D01*
X7987920Y-8810293D02*
X7987920Y-8762674D01*
X7987920Y-8762674D02*
X7997443Y-8724579D01*
X7997443Y-8724579D02*
X8006967Y-8705531D01*
X8006967Y-8705531D02*
X8016491Y-8696008D01*
X8016491Y-8696008D02*
X8035539Y-8686484D01*
X8187920Y-8886484D02*
X8187920Y-8753150D01*
X8187920Y-8772198D02*
X8197443Y-8762674D01*
X8197443Y-8762674D02*
X8216491Y-8753150D01*
X8216491Y-8753150D02*
X8245063Y-8753150D01*
X8245063Y-8753150D02*
X8264110Y-8762674D01*
X8264110Y-8762674D02*
X8273634Y-8781722D01*
X8273634Y-8781722D02*
X8273634Y-8886484D01*
X8273634Y-8781722D02*
X8283158Y-8762674D01*
X8283158Y-8762674D02*
X8302205Y-8753150D01*
X8302205Y-8753150D02*
X8330777Y-8753150D01*
X8330777Y-8753150D02*
X8349824Y-8762674D01*
X8349824Y-8762674D02*
X8359348Y-8781722D01*
X8359348Y-8781722D02*
X8359348Y-8886484D01*
X8454586Y-8886484D02*
X8454586Y-8753150D01*
X8454586Y-8772198D02*
X8464110Y-8762674D01*
X8464110Y-8762674D02*
X8483158Y-8753150D01*
X8483158Y-8753150D02*
X8511729Y-8753150D01*
X8511729Y-8753150D02*
X8530777Y-8762674D01*
X8530777Y-8762674D02*
X8540301Y-8781722D01*
X8540301Y-8781722D02*
X8540301Y-8886484D01*
X8540301Y-8781722D02*
X8549825Y-8762674D01*
X8549825Y-8762674D02*
X8568872Y-8753150D01*
X8568872Y-8753150D02*
X8597444Y-8753150D01*
X8597444Y-8753150D02*
X8616491Y-8762674D01*
X8616491Y-8762674D02*
X8626015Y-8781722D01*
X8626015Y-8781722D02*
X8626015Y-8886484D01*
X9016491Y-8676960D02*
X8845063Y-8934103D01*
X9273634Y-8686484D02*
X9292682Y-8686484D01*
X9292682Y-8686484D02*
X9311729Y-8696008D01*
X9311729Y-8696008D02*
X9321253Y-8705531D01*
X9321253Y-8705531D02*
X9330777Y-8724579D01*
X9330777Y-8724579D02*
X9340301Y-8762674D01*
X9340301Y-8762674D02*
X9340301Y-8810293D01*
X9340301Y-8810293D02*
X9330777Y-8848389D01*
X9330777Y-8848389D02*
X9321253Y-8867436D01*
X9321253Y-8867436D02*
X9311729Y-8876960D01*
X9311729Y-8876960D02*
X9292682Y-8886484D01*
X9292682Y-8886484D02*
X9273634Y-8886484D01*
X9273634Y-8886484D02*
X9254587Y-8876960D01*
X9254587Y-8876960D02*
X9245063Y-8867436D01*
X9245063Y-8867436D02*
X9235539Y-8848389D01*
X9235539Y-8848389D02*
X9226015Y-8810293D01*
X9226015Y-8810293D02*
X9226015Y-8762674D01*
X9226015Y-8762674D02*
X9235539Y-8724579D01*
X9235539Y-8724579D02*
X9245063Y-8705531D01*
X9245063Y-8705531D02*
X9254587Y-8696008D01*
X9254587Y-8696008D02*
X9273634Y-8686484D01*
X9426015Y-8867436D02*
X9435539Y-8876960D01*
X9435539Y-8876960D02*
X9426015Y-8886484D01*
X9426015Y-8886484D02*
X9416491Y-8876960D01*
X9416491Y-8876960D02*
X9426015Y-8867436D01*
X9426015Y-8867436D02*
X9426015Y-8886484D01*
X9559348Y-8686484D02*
X9578396Y-8686484D01*
X9578396Y-8686484D02*
X9597444Y-8696008D01*
X9597444Y-8696008D02*
X9606968Y-8705531D01*
X9606968Y-8705531D02*
X9616491Y-8724579D01*
X9616491Y-8724579D02*
X9626015Y-8762674D01*
X9626015Y-8762674D02*
X9626015Y-8810293D01*
X9626015Y-8810293D02*
X9616491Y-8848389D01*
X9616491Y-8848389D02*
X9606968Y-8867436D01*
X9606968Y-8867436D02*
X9597444Y-8876960D01*
X9597444Y-8876960D02*
X9578396Y-8886484D01*
X9578396Y-8886484D02*
X9559348Y-8886484D01*
X9559348Y-8886484D02*
X9540301Y-8876960D01*
X9540301Y-8876960D02*
X9530777Y-8867436D01*
X9530777Y-8867436D02*
X9521253Y-8848389D01*
X9521253Y-8848389D02*
X9511729Y-8810293D01*
X9511729Y-8810293D02*
X9511729Y-8762674D01*
X9511729Y-8762674D02*
X9521253Y-8724579D01*
X9521253Y-8724579D02*
X9530777Y-8705531D01*
X9530777Y-8705531D02*
X9540301Y-8696008D01*
X9540301Y-8696008D02*
X9559348Y-8686484D01*
X9816491Y-8886484D02*
X9702206Y-8886484D01*
X9759348Y-8886484D02*
X9759348Y-8686484D01*
X9759348Y-8686484D02*
X9740301Y-8715055D01*
X9740301Y-8715055D02*
X9721253Y-8734103D01*
X9721253Y-8734103D02*
X9702206Y-8743627D01*
X9997444Y-8686484D02*
X9902206Y-8686484D01*
X9902206Y-8686484D02*
X9892682Y-8781722D01*
X9892682Y-8781722D02*
X9902206Y-8772198D01*
X9902206Y-8772198D02*
X9921253Y-8762674D01*
X9921253Y-8762674D02*
X9968872Y-8762674D01*
X9968872Y-8762674D02*
X9987920Y-8772198D01*
X9987920Y-8772198D02*
X9997444Y-8781722D01*
X9997444Y-8781722D02*
X10006968Y-8800770D01*
X10006968Y-8800770D02*
X10006968Y-8848389D01*
X10006968Y-8848389D02*
X9997444Y-8867436D01*
X9997444Y-8867436D02*
X9987920Y-8876960D01*
X9987920Y-8876960D02*
X9968872Y-8886484D01*
X9968872Y-8886484D02*
X9921253Y-8886484D01*
X9921253Y-8886484D02*
X9902206Y-8876960D01*
X9902206Y-8876960D02*
X9892682Y-8867436D01*
X10073634Y-8686484D02*
X10206968Y-8686484D01*
X10206968Y-8686484D02*
X10121253Y-8886484D01*
X10273634Y-8686484D02*
X10273634Y-8724579D01*
X10349825Y-8686484D02*
X10349825Y-8724579D01*
X10645063Y-8962674D02*
X10635539Y-8953150D01*
X10635539Y-8953150D02*
X10616491Y-8924579D01*
X10616491Y-8924579D02*
X10606968Y-8905531D01*
X10606968Y-8905531D02*
X10597444Y-8876960D01*
X10597444Y-8876960D02*
X10587920Y-8829341D01*
X10587920Y-8829341D02*
X10587920Y-8791246D01*
X10587920Y-8791246D02*
X10597444Y-8743627D01*
X10597444Y-8743627D02*
X10606968Y-8715055D01*
X10606968Y-8715055D02*
X10616491Y-8696008D01*
X10616491Y-8696008D02*
X10635539Y-8667436D01*
X10635539Y-8667436D02*
X10645063Y-8657912D01*
X10826015Y-8886484D02*
X10711730Y-8886484D01*
X10768872Y-8886484D02*
X10768872Y-8686484D01*
X10768872Y-8686484D02*
X10749825Y-8715055D01*
X10749825Y-8715055D02*
X10730777Y-8734103D01*
X10730777Y-8734103D02*
X10711730Y-8743627D01*
X10902206Y-8705531D02*
X10911730Y-8696008D01*
X10911730Y-8696008D02*
X10930777Y-8686484D01*
X10930777Y-8686484D02*
X10978396Y-8686484D01*
X10978396Y-8686484D02*
X10997444Y-8696008D01*
X10997444Y-8696008D02*
X11006968Y-8705531D01*
X11006968Y-8705531D02*
X11016491Y-8724579D01*
X11016491Y-8724579D02*
X11016491Y-8743627D01*
X11016491Y-8743627D02*
X11006968Y-8772198D01*
X11006968Y-8772198D02*
X10892682Y-8886484D01*
X10892682Y-8886484D02*
X11016491Y-8886484D01*
X11187920Y-8686484D02*
X11149825Y-8686484D01*
X11149825Y-8686484D02*
X11130777Y-8696008D01*
X11130777Y-8696008D02*
X11121253Y-8705531D01*
X11121253Y-8705531D02*
X11102206Y-8734103D01*
X11102206Y-8734103D02*
X11092682Y-8772198D01*
X11092682Y-8772198D02*
X11092682Y-8848389D01*
X11092682Y-8848389D02*
X11102206Y-8867436D01*
X11102206Y-8867436D02*
X11111730Y-8876960D01*
X11111730Y-8876960D02*
X11130777Y-8886484D01*
X11130777Y-8886484D02*
X11168872Y-8886484D01*
X11168872Y-8886484D02*
X11187920Y-8876960D01*
X11187920Y-8876960D02*
X11197444Y-8867436D01*
X11197444Y-8867436D02*
X11206968Y-8848389D01*
X11206968Y-8848389D02*
X11206968Y-8800770D01*
X11206968Y-8800770D02*
X11197444Y-8781722D01*
X11197444Y-8781722D02*
X11187920Y-8772198D01*
X11187920Y-8772198D02*
X11168872Y-8762674D01*
X11168872Y-8762674D02*
X11130777Y-8762674D01*
X11130777Y-8762674D02*
X11111730Y-8772198D01*
X11111730Y-8772198D02*
X11102206Y-8781722D01*
X11102206Y-8781722D02*
X11092682Y-8800770D01*
X11445063Y-8886484D02*
X11445063Y-8686484D01*
X11530777Y-8886484D02*
X11530777Y-8781722D01*
X11530777Y-8781722D02*
X11521253Y-8762674D01*
X11521253Y-8762674D02*
X11502206Y-8753150D01*
X11502206Y-8753150D02*
X11473634Y-8753150D01*
X11473634Y-8753150D02*
X11454587Y-8762674D01*
X11454587Y-8762674D02*
X11445063Y-8772198D01*
X11654587Y-8886484D02*
X11635539Y-8876960D01*
X11635539Y-8876960D02*
X11626015Y-8867436D01*
X11626015Y-8867436D02*
X11616491Y-8848389D01*
X11616491Y-8848389D02*
X11616491Y-8791246D01*
X11616491Y-8791246D02*
X11626015Y-8772198D01*
X11626015Y-8772198D02*
X11635539Y-8762674D01*
X11635539Y-8762674D02*
X11654587Y-8753150D01*
X11654587Y-8753150D02*
X11683158Y-8753150D01*
X11683158Y-8753150D02*
X11702206Y-8762674D01*
X11702206Y-8762674D02*
X11711730Y-8772198D01*
X11711730Y-8772198D02*
X11721253Y-8791246D01*
X11721253Y-8791246D02*
X11721253Y-8848389D01*
X11721253Y-8848389D02*
X11711730Y-8867436D01*
X11711730Y-8867436D02*
X11702206Y-8876960D01*
X11702206Y-8876960D02*
X11683158Y-8886484D01*
X11683158Y-8886484D02*
X11654587Y-8886484D01*
X11835539Y-8886484D02*
X11816491Y-8876960D01*
X11816491Y-8876960D02*
X11806968Y-8857912D01*
X11806968Y-8857912D02*
X11806968Y-8686484D01*
X11987920Y-8876960D02*
X11968872Y-8886484D01*
X11968872Y-8886484D02*
X11930777Y-8886484D01*
X11930777Y-8886484D02*
X11911730Y-8876960D01*
X11911730Y-8876960D02*
X11902206Y-8857912D01*
X11902206Y-8857912D02*
X11902206Y-8781722D01*
X11902206Y-8781722D02*
X11911730Y-8762674D01*
X11911730Y-8762674D02*
X11930777Y-8753150D01*
X11930777Y-8753150D02*
X11968872Y-8753150D01*
X11968872Y-8753150D02*
X11987920Y-8762674D01*
X11987920Y-8762674D02*
X11997444Y-8781722D01*
X11997444Y-8781722D02*
X11997444Y-8800770D01*
X11997444Y-8800770D02*
X11902206Y-8819817D01*
X12073634Y-8876960D02*
X12092682Y-8886484D01*
X12092682Y-8886484D02*
X12130777Y-8886484D01*
X12130777Y-8886484D02*
X12149825Y-8876960D01*
X12149825Y-8876960D02*
X12159349Y-8857912D01*
X12159349Y-8857912D02*
X12159349Y-8848389D01*
X12159349Y-8848389D02*
X12149825Y-8829341D01*
X12149825Y-8829341D02*
X12130777Y-8819817D01*
X12130777Y-8819817D02*
X12102206Y-8819817D01*
X12102206Y-8819817D02*
X12083158Y-8810293D01*
X12083158Y-8810293D02*
X12073634Y-8791246D01*
X12073634Y-8791246D02*
X12073634Y-8781722D01*
X12073634Y-8781722D02*
X12083158Y-8762674D01*
X12083158Y-8762674D02*
X12102206Y-8753150D01*
X12102206Y-8753150D02*
X12130777Y-8753150D01*
X12130777Y-8753150D02*
X12149825Y-8762674D01*
X12226015Y-8962674D02*
X12235539Y-8953150D01*
X12235539Y-8953150D02*
X12254587Y-8924579D01*
X12254587Y-8924579D02*
X12264111Y-8905531D01*
X12264111Y-8905531D02*
X12273634Y-8876960D01*
X12273634Y-8876960D02*
X12283158Y-8829341D01*
X12283158Y-8829341D02*
X12283158Y-8791246D01*
X12283158Y-8791246D02*
X12273634Y-8743627D01*
X12273634Y-8743627D02*
X12264111Y-8715055D01*
X12264111Y-8715055D02*
X12254587Y-8696008D01*
X12254587Y-8696008D02*
X12235539Y-8667436D01*
X12235539Y-8667436D02*
X12226015Y-8657912D01*
D10*
X7070000Y-9059000D02*
G75*
G03*
X7070000Y-9059000I-50000J0D01*
G01*
D11*
X7435539Y-9150484D02*
X7321253Y-9150484D01*
X7378396Y-9150484D02*
X7378396Y-8950484D01*
X7378396Y-8950484D02*
X7359348Y-8979055D01*
X7359348Y-8979055D02*
X7340301Y-8998103D01*
X7340301Y-8998103D02*
X7321253Y-9007627D01*
X7521253Y-9131436D02*
X7530777Y-9140960D01*
X7530777Y-9140960D02*
X7521253Y-9150484D01*
X7521253Y-9150484D02*
X7511729Y-9140960D01*
X7511729Y-9140960D02*
X7521253Y-9131436D01*
X7521253Y-9131436D02*
X7521253Y-9150484D01*
X7654586Y-8950484D02*
X7673634Y-8950484D01*
X7673634Y-8950484D02*
X7692682Y-8960008D01*
X7692682Y-8960008D02*
X7702205Y-8969531D01*
X7702205Y-8969531D02*
X7711729Y-8988579D01*
X7711729Y-8988579D02*
X7721253Y-9026674D01*
X7721253Y-9026674D02*
X7721253Y-9074293D01*
X7721253Y-9074293D02*
X7711729Y-9112389D01*
X7711729Y-9112389D02*
X7702205Y-9131436D01*
X7702205Y-9131436D02*
X7692682Y-9140960D01*
X7692682Y-9140960D02*
X7673634Y-9150484D01*
X7673634Y-9150484D02*
X7654586Y-9150484D01*
X7654586Y-9150484D02*
X7635539Y-9140960D01*
X7635539Y-9140960D02*
X7626015Y-9131436D01*
X7626015Y-9131436D02*
X7616491Y-9112389D01*
X7616491Y-9112389D02*
X7606967Y-9074293D01*
X7606967Y-9074293D02*
X7606967Y-9026674D01*
X7606967Y-9026674D02*
X7616491Y-8988579D01*
X7616491Y-8988579D02*
X7626015Y-8969531D01*
X7626015Y-8969531D02*
X7635539Y-8960008D01*
X7635539Y-8960008D02*
X7654586Y-8950484D01*
X7845062Y-8950484D02*
X7864110Y-8950484D01*
X7864110Y-8950484D02*
X7883158Y-8960008D01*
X7883158Y-8960008D02*
X7892682Y-8969531D01*
X7892682Y-8969531D02*
X7902205Y-8988579D01*
X7902205Y-8988579D02*
X7911729Y-9026674D01*
X7911729Y-9026674D02*
X7911729Y-9074293D01*
X7911729Y-9074293D02*
X7902205Y-9112389D01*
X7902205Y-9112389D02*
X7892682Y-9131436D01*
X7892682Y-9131436D02*
X7883158Y-9140960D01*
X7883158Y-9140960D02*
X7864110Y-9150484D01*
X7864110Y-9150484D02*
X7845062Y-9150484D01*
X7845062Y-9150484D02*
X7826015Y-9140960D01*
X7826015Y-9140960D02*
X7816491Y-9131436D01*
X7816491Y-9131436D02*
X7806967Y-9112389D01*
X7806967Y-9112389D02*
X7797443Y-9074293D01*
X7797443Y-9074293D02*
X7797443Y-9026674D01*
X7797443Y-9026674D02*
X7806967Y-8988579D01*
X7806967Y-8988579D02*
X7816491Y-8969531D01*
X7816491Y-8969531D02*
X7826015Y-8960008D01*
X7826015Y-8960008D02*
X7845062Y-8950484D01*
X8035539Y-8950484D02*
X8054586Y-8950484D01*
X8054586Y-8950484D02*
X8073634Y-8960008D01*
X8073634Y-8960008D02*
X8083158Y-8969531D01*
X8083158Y-8969531D02*
X8092682Y-8988579D01*
X8092682Y-8988579D02*
X8102205Y-9026674D01*
X8102205Y-9026674D02*
X8102205Y-9074293D01*
X8102205Y-9074293D02*
X8092682Y-9112389D01*
X8092682Y-9112389D02*
X8083158Y-9131436D01*
X8083158Y-9131436D02*
X8073634Y-9140960D01*
X8073634Y-9140960D02*
X8054586Y-9150484D01*
X8054586Y-9150484D02*
X8035539Y-9150484D01*
X8035539Y-9150484D02*
X8016491Y-9140960D01*
X8016491Y-9140960D02*
X8006967Y-9131436D01*
X8006967Y-9131436D02*
X7997443Y-9112389D01*
X7997443Y-9112389D02*
X7987920Y-9074293D01*
X7987920Y-9074293D02*
X7987920Y-9026674D01*
X7987920Y-9026674D02*
X7997443Y-8988579D01*
X7997443Y-8988579D02*
X8006967Y-8969531D01*
X8006967Y-8969531D02*
X8016491Y-8960008D01*
X8016491Y-8960008D02*
X8035539Y-8950484D01*
X8187920Y-9150484D02*
X8187920Y-9017150D01*
X8187920Y-9036198D02*
X8197443Y-9026674D01*
X8197443Y-9026674D02*
X8216491Y-9017150D01*
X8216491Y-9017150D02*
X8245063Y-9017150D01*
X8245063Y-9017150D02*
X8264110Y-9026674D01*
X8264110Y-9026674D02*
X8273634Y-9045722D01*
X8273634Y-9045722D02*
X8273634Y-9150484D01*
X8273634Y-9045722D02*
X8283158Y-9026674D01*
X8283158Y-9026674D02*
X8302205Y-9017150D01*
X8302205Y-9017150D02*
X8330777Y-9017150D01*
X8330777Y-9017150D02*
X8349824Y-9026674D01*
X8349824Y-9026674D02*
X8359348Y-9045722D01*
X8359348Y-9045722D02*
X8359348Y-9150484D01*
X8454586Y-9150484D02*
X8454586Y-9017150D01*
X8454586Y-9036198D02*
X8464110Y-9026674D01*
X8464110Y-9026674D02*
X8483158Y-9017150D01*
X8483158Y-9017150D02*
X8511729Y-9017150D01*
X8511729Y-9017150D02*
X8530777Y-9026674D01*
X8530777Y-9026674D02*
X8540301Y-9045722D01*
X8540301Y-9045722D02*
X8540301Y-9150484D01*
X8540301Y-9045722D02*
X8549825Y-9026674D01*
X8549825Y-9026674D02*
X8568872Y-9017150D01*
X8568872Y-9017150D02*
X8597444Y-9017150D01*
X8597444Y-9017150D02*
X8616491Y-9026674D01*
X8616491Y-9026674D02*
X8626015Y-9045722D01*
X8626015Y-9045722D02*
X8626015Y-9150484D01*
X9016491Y-8940960D02*
X8845063Y-9198103D01*
X9273634Y-8950484D02*
X9292682Y-8950484D01*
X9292682Y-8950484D02*
X9311729Y-8960008D01*
X9311729Y-8960008D02*
X9321253Y-8969531D01*
X9321253Y-8969531D02*
X9330777Y-8988579D01*
X9330777Y-8988579D02*
X9340301Y-9026674D01*
X9340301Y-9026674D02*
X9340301Y-9074293D01*
X9340301Y-9074293D02*
X9330777Y-9112389D01*
X9330777Y-9112389D02*
X9321253Y-9131436D01*
X9321253Y-9131436D02*
X9311729Y-9140960D01*
X9311729Y-9140960D02*
X9292682Y-9150484D01*
X9292682Y-9150484D02*
X9273634Y-9150484D01*
X9273634Y-9150484D02*
X9254587Y-9140960D01*
X9254587Y-9140960D02*
X9245063Y-9131436D01*
X9245063Y-9131436D02*
X9235539Y-9112389D01*
X9235539Y-9112389D02*
X9226015Y-9074293D01*
X9226015Y-9074293D02*
X9226015Y-9026674D01*
X9226015Y-9026674D02*
X9235539Y-8988579D01*
X9235539Y-8988579D02*
X9245063Y-8969531D01*
X9245063Y-8969531D02*
X9254587Y-8960008D01*
X9254587Y-8960008D02*
X9273634Y-8950484D01*
X9426015Y-9131436D02*
X9435539Y-9140960D01*
X9435539Y-9140960D02*
X9426015Y-9150484D01*
X9426015Y-9150484D02*
X9416491Y-9140960D01*
X9416491Y-9140960D02*
X9426015Y-9131436D01*
X9426015Y-9131436D02*
X9426015Y-9150484D01*
X9559348Y-8950484D02*
X9578396Y-8950484D01*
X9578396Y-8950484D02*
X9597444Y-8960008D01*
X9597444Y-8960008D02*
X9606968Y-8969531D01*
X9606968Y-8969531D02*
X9616491Y-8988579D01*
X9616491Y-8988579D02*
X9626015Y-9026674D01*
X9626015Y-9026674D02*
X9626015Y-9074293D01*
X9626015Y-9074293D02*
X9616491Y-9112389D01*
X9616491Y-9112389D02*
X9606968Y-9131436D01*
X9606968Y-9131436D02*
X9597444Y-9140960D01*
X9597444Y-9140960D02*
X9578396Y-9150484D01*
X9578396Y-9150484D02*
X9559348Y-9150484D01*
X9559348Y-9150484D02*
X9540301Y-9140960D01*
X9540301Y-9140960D02*
X9530777Y-9131436D01*
X9530777Y-9131436D02*
X9521253Y-9112389D01*
X9521253Y-9112389D02*
X9511729Y-9074293D01*
X9511729Y-9074293D02*
X9511729Y-9026674D01*
X9511729Y-9026674D02*
X9521253Y-8988579D01*
X9521253Y-8988579D02*
X9530777Y-8969531D01*
X9530777Y-8969531D02*
X9540301Y-8960008D01*
X9540301Y-8960008D02*
X9559348Y-8950484D01*
X9692682Y-8950484D02*
X9816491Y-8950484D01*
X9816491Y-8950484D02*
X9749825Y-9026674D01*
X9749825Y-9026674D02*
X9778396Y-9026674D01*
X9778396Y-9026674D02*
X9797444Y-9036198D01*
X9797444Y-9036198D02*
X9806968Y-9045722D01*
X9806968Y-9045722D02*
X9816491Y-9064770D01*
X9816491Y-9064770D02*
X9816491Y-9112389D01*
X9816491Y-9112389D02*
X9806968Y-9131436D01*
X9806968Y-9131436D02*
X9797444Y-9140960D01*
X9797444Y-9140960D02*
X9778396Y-9150484D01*
X9778396Y-9150484D02*
X9721253Y-9150484D01*
X9721253Y-9150484D02*
X9702206Y-9140960D01*
X9702206Y-9140960D02*
X9692682Y-9131436D01*
X9911729Y-9150484D02*
X9949825Y-9150484D01*
X9949825Y-9150484D02*
X9968872Y-9140960D01*
X9968872Y-9140960D02*
X9978396Y-9131436D01*
X9978396Y-9131436D02*
X9997444Y-9102865D01*
X9997444Y-9102865D02*
X10006968Y-9064770D01*
X10006968Y-9064770D02*
X10006968Y-8988579D01*
X10006968Y-8988579D02*
X9997444Y-8969531D01*
X9997444Y-8969531D02*
X9987920Y-8960008D01*
X9987920Y-8960008D02*
X9968872Y-8950484D01*
X9968872Y-8950484D02*
X9930777Y-8950484D01*
X9930777Y-8950484D02*
X9911729Y-8960008D01*
X9911729Y-8960008D02*
X9902206Y-8969531D01*
X9902206Y-8969531D02*
X9892682Y-8988579D01*
X9892682Y-8988579D02*
X9892682Y-9036198D01*
X9892682Y-9036198D02*
X9902206Y-9055246D01*
X9902206Y-9055246D02*
X9911729Y-9064770D01*
X9911729Y-9064770D02*
X9930777Y-9074293D01*
X9930777Y-9074293D02*
X9968872Y-9074293D01*
X9968872Y-9074293D02*
X9987920Y-9064770D01*
X9987920Y-9064770D02*
X9997444Y-9055246D01*
X9997444Y-9055246D02*
X10006968Y-9036198D01*
X10178396Y-9017150D02*
X10178396Y-9150484D01*
X10130777Y-8940960D02*
X10083158Y-9083817D01*
X10083158Y-9083817D02*
X10206968Y-9083817D01*
X10273634Y-8950484D02*
X10273634Y-8988579D01*
X10349825Y-8950484D02*
X10349825Y-8988579D01*
X10645063Y-9226674D02*
X10635539Y-9217150D01*
X10635539Y-9217150D02*
X10616491Y-9188579D01*
X10616491Y-9188579D02*
X10606968Y-9169531D01*
X10606968Y-9169531D02*
X10597444Y-9140960D01*
X10597444Y-9140960D02*
X10587920Y-9093341D01*
X10587920Y-9093341D02*
X10587920Y-9055246D01*
X10587920Y-9055246D02*
X10597444Y-9007627D01*
X10597444Y-9007627D02*
X10606968Y-8979055D01*
X10606968Y-8979055D02*
X10616491Y-8960008D01*
X10616491Y-8960008D02*
X10635539Y-8931436D01*
X10635539Y-8931436D02*
X10645063Y-8921912D01*
X10711730Y-8969531D02*
X10721253Y-8960008D01*
X10721253Y-8960008D02*
X10740301Y-8950484D01*
X10740301Y-8950484D02*
X10787920Y-8950484D01*
X10787920Y-8950484D02*
X10806968Y-8960008D01*
X10806968Y-8960008D02*
X10816491Y-8969531D01*
X10816491Y-8969531D02*
X10826015Y-8988579D01*
X10826015Y-8988579D02*
X10826015Y-9007627D01*
X10826015Y-9007627D02*
X10816491Y-9036198D01*
X10816491Y-9036198D02*
X10702206Y-9150484D01*
X10702206Y-9150484D02*
X10826015Y-9150484D01*
X10949825Y-8950484D02*
X10968872Y-8950484D01*
X10968872Y-8950484D02*
X10987920Y-8960008D01*
X10987920Y-8960008D02*
X10997444Y-8969531D01*
X10997444Y-8969531D02*
X11006968Y-8988579D01*
X11006968Y-8988579D02*
X11016491Y-9026674D01*
X11016491Y-9026674D02*
X11016491Y-9074293D01*
X11016491Y-9074293D02*
X11006968Y-9112389D01*
X11006968Y-9112389D02*
X10997444Y-9131436D01*
X10997444Y-9131436D02*
X10987920Y-9140960D01*
X10987920Y-9140960D02*
X10968872Y-9150484D01*
X10968872Y-9150484D02*
X10949825Y-9150484D01*
X10949825Y-9150484D02*
X10930777Y-9140960D01*
X10930777Y-9140960D02*
X10921253Y-9131436D01*
X10921253Y-9131436D02*
X10911730Y-9112389D01*
X10911730Y-9112389D02*
X10902206Y-9074293D01*
X10902206Y-9074293D02*
X10902206Y-9026674D01*
X10902206Y-9026674D02*
X10911730Y-8988579D01*
X10911730Y-8988579D02*
X10921253Y-8969531D01*
X10921253Y-8969531D02*
X10930777Y-8960008D01*
X10930777Y-8960008D02*
X10949825Y-8950484D01*
X11254587Y-9150484D02*
X11254587Y-8950484D01*
X11340301Y-9150484D02*
X11340301Y-9045722D01*
X11340301Y-9045722D02*
X11330777Y-9026674D01*
X11330777Y-9026674D02*
X11311730Y-9017150D01*
X11311730Y-9017150D02*
X11283158Y-9017150D01*
X11283158Y-9017150D02*
X11264110Y-9026674D01*
X11264110Y-9026674D02*
X11254587Y-9036198D01*
X11464110Y-9150484D02*
X11445063Y-9140960D01*
X11445063Y-9140960D02*
X11435539Y-9131436D01*
X11435539Y-9131436D02*
X11426015Y-9112389D01*
X11426015Y-9112389D02*
X11426015Y-9055246D01*
X11426015Y-9055246D02*
X11435539Y-9036198D01*
X11435539Y-9036198D02*
X11445063Y-9026674D01*
X11445063Y-9026674D02*
X11464110Y-9017150D01*
X11464110Y-9017150D02*
X11492682Y-9017150D01*
X11492682Y-9017150D02*
X11511730Y-9026674D01*
X11511730Y-9026674D02*
X11521253Y-9036198D01*
X11521253Y-9036198D02*
X11530777Y-9055246D01*
X11530777Y-9055246D02*
X11530777Y-9112389D01*
X11530777Y-9112389D02*
X11521253Y-9131436D01*
X11521253Y-9131436D02*
X11511730Y-9140960D01*
X11511730Y-9140960D02*
X11492682Y-9150484D01*
X11492682Y-9150484D02*
X11464110Y-9150484D01*
X11645063Y-9150484D02*
X11626015Y-9140960D01*
X11626015Y-9140960D02*
X11616491Y-9121912D01*
X11616491Y-9121912D02*
X11616491Y-8950484D01*
X11797444Y-9140960D02*
X11778396Y-9150484D01*
X11778396Y-9150484D02*
X11740301Y-9150484D01*
X11740301Y-9150484D02*
X11721253Y-9140960D01*
X11721253Y-9140960D02*
X11711730Y-9121912D01*
X11711730Y-9121912D02*
X11711730Y-9045722D01*
X11711730Y-9045722D02*
X11721253Y-9026674D01*
X11721253Y-9026674D02*
X11740301Y-9017150D01*
X11740301Y-9017150D02*
X11778396Y-9017150D01*
X11778396Y-9017150D02*
X11797444Y-9026674D01*
X11797444Y-9026674D02*
X11806968Y-9045722D01*
X11806968Y-9045722D02*
X11806968Y-9064770D01*
X11806968Y-9064770D02*
X11711730Y-9083817D01*
X11883158Y-9140960D02*
X11902206Y-9150484D01*
X11902206Y-9150484D02*
X11940301Y-9150484D01*
X11940301Y-9150484D02*
X11959349Y-9140960D01*
X11959349Y-9140960D02*
X11968872Y-9121912D01*
X11968872Y-9121912D02*
X11968872Y-9112389D01*
X11968872Y-9112389D02*
X11959349Y-9093341D01*
X11959349Y-9093341D02*
X11940301Y-9083817D01*
X11940301Y-9083817D02*
X11911730Y-9083817D01*
X11911730Y-9083817D02*
X11892682Y-9074293D01*
X11892682Y-9074293D02*
X11883158Y-9055246D01*
X11883158Y-9055246D02*
X11883158Y-9045722D01*
X11883158Y-9045722D02*
X11892682Y-9026674D01*
X11892682Y-9026674D02*
X11911730Y-9017150D01*
X11911730Y-9017150D02*
X11940301Y-9017150D01*
X11940301Y-9017150D02*
X11959349Y-9026674D01*
X12035539Y-9226674D02*
X12045063Y-9217150D01*
X12045063Y-9217150D02*
X12064111Y-9188579D01*
X12064111Y-9188579D02*
X12073634Y-9169531D01*
X12073634Y-9169531D02*
X12083158Y-9140960D01*
X12083158Y-9140960D02*
X12092682Y-9093341D01*
X12092682Y-9093341D02*
X12092682Y-9055246D01*
X12092682Y-9055246D02*
X12083158Y-9007627D01*
X12083158Y-9007627D02*
X12073634Y-8979055D01*
X12073634Y-8979055D02*
X12064111Y-8960008D01*
X12064111Y-8960008D02*
X12045063Y-8931436D01*
X12045063Y-8931436D02*
X12035539Y-8921912D01*
D12*
X7015000Y-9268000D02*
X7015000Y-9378000D01*
X6960000Y-9323000D02*
X7070000Y-9323000D01*
D11*
X7435539Y-9414484D02*
X7321253Y-9414484D01*
X7378396Y-9414484D02*
X7378396Y-9214484D01*
X7378396Y-9214484D02*
X7359348Y-9243055D01*
X7359348Y-9243055D02*
X7340301Y-9262103D01*
X7340301Y-9262103D02*
X7321253Y-9271627D01*
X7521253Y-9395436D02*
X7530777Y-9404960D01*
X7530777Y-9404960D02*
X7521253Y-9414484D01*
X7521253Y-9414484D02*
X7511729Y-9404960D01*
X7511729Y-9404960D02*
X7521253Y-9395436D01*
X7521253Y-9395436D02*
X7521253Y-9414484D01*
X7721253Y-9414484D02*
X7606967Y-9414484D01*
X7664110Y-9414484D02*
X7664110Y-9214484D01*
X7664110Y-9214484D02*
X7645062Y-9243055D01*
X7645062Y-9243055D02*
X7626015Y-9262103D01*
X7626015Y-9262103D02*
X7606967Y-9271627D01*
X7845062Y-9214484D02*
X7864110Y-9214484D01*
X7864110Y-9214484D02*
X7883158Y-9224008D01*
X7883158Y-9224008D02*
X7892682Y-9233531D01*
X7892682Y-9233531D02*
X7902205Y-9252579D01*
X7902205Y-9252579D02*
X7911729Y-9290674D01*
X7911729Y-9290674D02*
X7911729Y-9338293D01*
X7911729Y-9338293D02*
X7902205Y-9376389D01*
X7902205Y-9376389D02*
X7892682Y-9395436D01*
X7892682Y-9395436D02*
X7883158Y-9404960D01*
X7883158Y-9404960D02*
X7864110Y-9414484D01*
X7864110Y-9414484D02*
X7845062Y-9414484D01*
X7845062Y-9414484D02*
X7826015Y-9404960D01*
X7826015Y-9404960D02*
X7816491Y-9395436D01*
X7816491Y-9395436D02*
X7806967Y-9376389D01*
X7806967Y-9376389D02*
X7797443Y-9338293D01*
X7797443Y-9338293D02*
X7797443Y-9290674D01*
X7797443Y-9290674D02*
X7806967Y-9252579D01*
X7806967Y-9252579D02*
X7816491Y-9233531D01*
X7816491Y-9233531D02*
X7826015Y-9224008D01*
X7826015Y-9224008D02*
X7845062Y-9214484D01*
X8035539Y-9214484D02*
X8054586Y-9214484D01*
X8054586Y-9214484D02*
X8073634Y-9224008D01*
X8073634Y-9224008D02*
X8083158Y-9233531D01*
X8083158Y-9233531D02*
X8092682Y-9252579D01*
X8092682Y-9252579D02*
X8102205Y-9290674D01*
X8102205Y-9290674D02*
X8102205Y-9338293D01*
X8102205Y-9338293D02*
X8092682Y-9376389D01*
X8092682Y-9376389D02*
X8083158Y-9395436D01*
X8083158Y-9395436D02*
X8073634Y-9404960D01*
X8073634Y-9404960D02*
X8054586Y-9414484D01*
X8054586Y-9414484D02*
X8035539Y-9414484D01*
X8035539Y-9414484D02*
X8016491Y-9404960D01*
X8016491Y-9404960D02*
X8006967Y-9395436D01*
X8006967Y-9395436D02*
X7997443Y-9376389D01*
X7997443Y-9376389D02*
X7987920Y-9338293D01*
X7987920Y-9338293D02*
X7987920Y-9290674D01*
X7987920Y-9290674D02*
X7997443Y-9252579D01*
X7997443Y-9252579D02*
X8006967Y-9233531D01*
X8006967Y-9233531D02*
X8016491Y-9224008D01*
X8016491Y-9224008D02*
X8035539Y-9214484D01*
X8187920Y-9414484D02*
X8187920Y-9281150D01*
X8187920Y-9300198D02*
X8197443Y-9290674D01*
X8197443Y-9290674D02*
X8216491Y-9281150D01*
X8216491Y-9281150D02*
X8245063Y-9281150D01*
X8245063Y-9281150D02*
X8264110Y-9290674D01*
X8264110Y-9290674D02*
X8273634Y-9309722D01*
X8273634Y-9309722D02*
X8273634Y-9414484D01*
X8273634Y-9309722D02*
X8283158Y-9290674D01*
X8283158Y-9290674D02*
X8302205Y-9281150D01*
X8302205Y-9281150D02*
X8330777Y-9281150D01*
X8330777Y-9281150D02*
X8349824Y-9290674D01*
X8349824Y-9290674D02*
X8359348Y-9309722D01*
X8359348Y-9309722D02*
X8359348Y-9414484D01*
X8454586Y-9414484D02*
X8454586Y-9281150D01*
X8454586Y-9300198D02*
X8464110Y-9290674D01*
X8464110Y-9290674D02*
X8483158Y-9281150D01*
X8483158Y-9281150D02*
X8511729Y-9281150D01*
X8511729Y-9281150D02*
X8530777Y-9290674D01*
X8530777Y-9290674D02*
X8540301Y-9309722D01*
X8540301Y-9309722D02*
X8540301Y-9414484D01*
X8540301Y-9309722D02*
X8549825Y-9290674D01*
X8549825Y-9290674D02*
X8568872Y-9281150D01*
X8568872Y-9281150D02*
X8597444Y-9281150D01*
X8597444Y-9281150D02*
X8616491Y-9290674D01*
X8616491Y-9290674D02*
X8626015Y-9309722D01*
X8626015Y-9309722D02*
X8626015Y-9414484D01*
X9016491Y-9204960D02*
X8845063Y-9462103D01*
X9273634Y-9214484D02*
X9292682Y-9214484D01*
X9292682Y-9214484D02*
X9311729Y-9224008D01*
X9311729Y-9224008D02*
X9321253Y-9233531D01*
X9321253Y-9233531D02*
X9330777Y-9252579D01*
X9330777Y-9252579D02*
X9340301Y-9290674D01*
X9340301Y-9290674D02*
X9340301Y-9338293D01*
X9340301Y-9338293D02*
X9330777Y-9376389D01*
X9330777Y-9376389D02*
X9321253Y-9395436D01*
X9321253Y-9395436D02*
X9311729Y-9404960D01*
X9311729Y-9404960D02*
X9292682Y-9414484D01*
X9292682Y-9414484D02*
X9273634Y-9414484D01*
X9273634Y-9414484D02*
X9254587Y-9404960D01*
X9254587Y-9404960D02*
X9245063Y-9395436D01*
X9245063Y-9395436D02*
X9235539Y-9376389D01*
X9235539Y-9376389D02*
X9226015Y-9338293D01*
X9226015Y-9338293D02*
X9226015Y-9290674D01*
X9226015Y-9290674D02*
X9235539Y-9252579D01*
X9235539Y-9252579D02*
X9245063Y-9233531D01*
X9245063Y-9233531D02*
X9254587Y-9224008D01*
X9254587Y-9224008D02*
X9273634Y-9214484D01*
X9426015Y-9395436D02*
X9435539Y-9404960D01*
X9435539Y-9404960D02*
X9426015Y-9414484D01*
X9426015Y-9414484D02*
X9416491Y-9404960D01*
X9416491Y-9404960D02*
X9426015Y-9395436D01*
X9426015Y-9395436D02*
X9426015Y-9414484D01*
X9559348Y-9214484D02*
X9578396Y-9214484D01*
X9578396Y-9214484D02*
X9597444Y-9224008D01*
X9597444Y-9224008D02*
X9606968Y-9233531D01*
X9606968Y-9233531D02*
X9616491Y-9252579D01*
X9616491Y-9252579D02*
X9626015Y-9290674D01*
X9626015Y-9290674D02*
X9626015Y-9338293D01*
X9626015Y-9338293D02*
X9616491Y-9376389D01*
X9616491Y-9376389D02*
X9606968Y-9395436D01*
X9606968Y-9395436D02*
X9597444Y-9404960D01*
X9597444Y-9404960D02*
X9578396Y-9414484D01*
X9578396Y-9414484D02*
X9559348Y-9414484D01*
X9559348Y-9414484D02*
X9540301Y-9404960D01*
X9540301Y-9404960D02*
X9530777Y-9395436D01*
X9530777Y-9395436D02*
X9521253Y-9376389D01*
X9521253Y-9376389D02*
X9511729Y-9338293D01*
X9511729Y-9338293D02*
X9511729Y-9290674D01*
X9511729Y-9290674D02*
X9521253Y-9252579D01*
X9521253Y-9252579D02*
X9530777Y-9233531D01*
X9530777Y-9233531D02*
X9540301Y-9224008D01*
X9540301Y-9224008D02*
X9559348Y-9214484D01*
X9797444Y-9281150D02*
X9797444Y-9414484D01*
X9749825Y-9204960D02*
X9702206Y-9347817D01*
X9702206Y-9347817D02*
X9826015Y-9347817D01*
X9883158Y-9214484D02*
X10006968Y-9214484D01*
X10006968Y-9214484D02*
X9940301Y-9290674D01*
X9940301Y-9290674D02*
X9968872Y-9290674D01*
X9968872Y-9290674D02*
X9987920Y-9300198D01*
X9987920Y-9300198D02*
X9997444Y-9309722D01*
X9997444Y-9309722D02*
X10006968Y-9328770D01*
X10006968Y-9328770D02*
X10006968Y-9376389D01*
X10006968Y-9376389D02*
X9997444Y-9395436D01*
X9997444Y-9395436D02*
X9987920Y-9404960D01*
X9987920Y-9404960D02*
X9968872Y-9414484D01*
X9968872Y-9414484D02*
X9911729Y-9414484D01*
X9911729Y-9414484D02*
X9892682Y-9404960D01*
X9892682Y-9404960D02*
X9883158Y-9395436D01*
X10073634Y-9214484D02*
X10197444Y-9214484D01*
X10197444Y-9214484D02*
X10130777Y-9290674D01*
X10130777Y-9290674D02*
X10159349Y-9290674D01*
X10159349Y-9290674D02*
X10178396Y-9300198D01*
X10178396Y-9300198D02*
X10187920Y-9309722D01*
X10187920Y-9309722D02*
X10197444Y-9328770D01*
X10197444Y-9328770D02*
X10197444Y-9376389D01*
X10197444Y-9376389D02*
X10187920Y-9395436D01*
X10187920Y-9395436D02*
X10178396Y-9404960D01*
X10178396Y-9404960D02*
X10159349Y-9414484D01*
X10159349Y-9414484D02*
X10102206Y-9414484D01*
X10102206Y-9414484D02*
X10083158Y-9404960D01*
X10083158Y-9404960D02*
X10073634Y-9395436D01*
X10273634Y-9214484D02*
X10273634Y-9252579D01*
X10349825Y-9214484D02*
X10349825Y-9252579D01*
X10645063Y-9490674D02*
X10635539Y-9481150D01*
X10635539Y-9481150D02*
X10616491Y-9452579D01*
X10616491Y-9452579D02*
X10606968Y-9433531D01*
X10606968Y-9433531D02*
X10597444Y-9404960D01*
X10597444Y-9404960D02*
X10587920Y-9357341D01*
X10587920Y-9357341D02*
X10587920Y-9319246D01*
X10587920Y-9319246D02*
X10597444Y-9271627D01*
X10597444Y-9271627D02*
X10606968Y-9243055D01*
X10606968Y-9243055D02*
X10616491Y-9224008D01*
X10616491Y-9224008D02*
X10635539Y-9195436D01*
X10635539Y-9195436D02*
X10645063Y-9185912D01*
X10711730Y-9233531D02*
X10721253Y-9224008D01*
X10721253Y-9224008D02*
X10740301Y-9214484D01*
X10740301Y-9214484D02*
X10787920Y-9214484D01*
X10787920Y-9214484D02*
X10806968Y-9224008D01*
X10806968Y-9224008D02*
X10816491Y-9233531D01*
X10816491Y-9233531D02*
X10826015Y-9252579D01*
X10826015Y-9252579D02*
X10826015Y-9271627D01*
X10826015Y-9271627D02*
X10816491Y-9300198D01*
X10816491Y-9300198D02*
X10702206Y-9414484D01*
X10702206Y-9414484D02*
X10826015Y-9414484D01*
X10997444Y-9281150D02*
X10997444Y-9414484D01*
X10949825Y-9204960D02*
X10902206Y-9347817D01*
X10902206Y-9347817D02*
X11026015Y-9347817D01*
X11130777Y-9300198D02*
X11111730Y-9290674D01*
X11111730Y-9290674D02*
X11102206Y-9281150D01*
X11102206Y-9281150D02*
X11092682Y-9262103D01*
X11092682Y-9262103D02*
X11092682Y-9252579D01*
X11092682Y-9252579D02*
X11102206Y-9233531D01*
X11102206Y-9233531D02*
X11111730Y-9224008D01*
X11111730Y-9224008D02*
X11130777Y-9214484D01*
X11130777Y-9214484D02*
X11168872Y-9214484D01*
X11168872Y-9214484D02*
X11187920Y-9224008D01*
X11187920Y-9224008D02*
X11197444Y-9233531D01*
X11197444Y-9233531D02*
X11206968Y-9252579D01*
X11206968Y-9252579D02*
X11206968Y-9262103D01*
X11206968Y-9262103D02*
X11197444Y-9281150D01*
X11197444Y-9281150D02*
X11187920Y-9290674D01*
X11187920Y-9290674D02*
X11168872Y-9300198D01*
X11168872Y-9300198D02*
X11130777Y-9300198D01*
X11130777Y-9300198D02*
X11111730Y-9309722D01*
X11111730Y-9309722D02*
X11102206Y-9319246D01*
X11102206Y-9319246D02*
X11092682Y-9338293D01*
X11092682Y-9338293D02*
X11092682Y-9376389D01*
X11092682Y-9376389D02*
X11102206Y-9395436D01*
X11102206Y-9395436D02*
X11111730Y-9404960D01*
X11111730Y-9404960D02*
X11130777Y-9414484D01*
X11130777Y-9414484D02*
X11168872Y-9414484D01*
X11168872Y-9414484D02*
X11187920Y-9404960D01*
X11187920Y-9404960D02*
X11197444Y-9395436D01*
X11197444Y-9395436D02*
X11206968Y-9376389D01*
X11206968Y-9376389D02*
X11206968Y-9338293D01*
X11206968Y-9338293D02*
X11197444Y-9319246D01*
X11197444Y-9319246D02*
X11187920Y-9309722D01*
X11187920Y-9309722D02*
X11168872Y-9300198D01*
X11445063Y-9414484D02*
X11445063Y-9214484D01*
X11530777Y-9414484D02*
X11530777Y-9309722D01*
X11530777Y-9309722D02*
X11521253Y-9290674D01*
X11521253Y-9290674D02*
X11502206Y-9281150D01*
X11502206Y-9281150D02*
X11473634Y-9281150D01*
X11473634Y-9281150D02*
X11454587Y-9290674D01*
X11454587Y-9290674D02*
X11445063Y-9300198D01*
X11654587Y-9414484D02*
X11635539Y-9404960D01*
X11635539Y-9404960D02*
X11626015Y-9395436D01*
X11626015Y-9395436D02*
X11616491Y-9376389D01*
X11616491Y-9376389D02*
X11616491Y-9319246D01*
X11616491Y-9319246D02*
X11626015Y-9300198D01*
X11626015Y-9300198D02*
X11635539Y-9290674D01*
X11635539Y-9290674D02*
X11654587Y-9281150D01*
X11654587Y-9281150D02*
X11683158Y-9281150D01*
X11683158Y-9281150D02*
X11702206Y-9290674D01*
X11702206Y-9290674D02*
X11711730Y-9300198D01*
X11711730Y-9300198D02*
X11721253Y-9319246D01*
X11721253Y-9319246D02*
X11721253Y-9376389D01*
X11721253Y-9376389D02*
X11711730Y-9395436D01*
X11711730Y-9395436D02*
X11702206Y-9404960D01*
X11702206Y-9404960D02*
X11683158Y-9414484D01*
X11683158Y-9414484D02*
X11654587Y-9414484D01*
X11835539Y-9414484D02*
X11816491Y-9404960D01*
X11816491Y-9404960D02*
X11806968Y-9385912D01*
X11806968Y-9385912D02*
X11806968Y-9214484D01*
X11987920Y-9404960D02*
X11968872Y-9414484D01*
X11968872Y-9414484D02*
X11930777Y-9414484D01*
X11930777Y-9414484D02*
X11911730Y-9404960D01*
X11911730Y-9404960D02*
X11902206Y-9385912D01*
X11902206Y-9385912D02*
X11902206Y-9309722D01*
X11902206Y-9309722D02*
X11911730Y-9290674D01*
X11911730Y-9290674D02*
X11930777Y-9281150D01*
X11930777Y-9281150D02*
X11968872Y-9281150D01*
X11968872Y-9281150D02*
X11987920Y-9290674D01*
X11987920Y-9290674D02*
X11997444Y-9309722D01*
X11997444Y-9309722D02*
X11997444Y-9328770D01*
X11997444Y-9328770D02*
X11902206Y-9347817D01*
X12073634Y-9404960D02*
X12092682Y-9414484D01*
X12092682Y-9414484D02*
X12130777Y-9414484D01*
X12130777Y-9414484D02*
X12149825Y-9404960D01*
X12149825Y-9404960D02*
X12159349Y-9385912D01*
X12159349Y-9385912D02*
X12159349Y-9376389D01*
X12159349Y-9376389D02*
X12149825Y-9357341D01*
X12149825Y-9357341D02*
X12130777Y-9347817D01*
X12130777Y-9347817D02*
X12102206Y-9347817D01*
X12102206Y-9347817D02*
X12083158Y-9338293D01*
X12083158Y-9338293D02*
X12073634Y-9319246D01*
X12073634Y-9319246D02*
X12073634Y-9309722D01*
X12073634Y-9309722D02*
X12083158Y-9290674D01*
X12083158Y-9290674D02*
X12102206Y-9281150D01*
X12102206Y-9281150D02*
X12130777Y-9281150D01*
X12130777Y-9281150D02*
X12149825Y-9290674D01*
X12226015Y-9490674D02*
X12235539Y-9481150D01*
X12235539Y-9481150D02*
X12254587Y-9452579D01*
X12254587Y-9452579D02*
X12264111Y-9433531D01*
X12264111Y-9433531D02*
X12273634Y-9404960D01*
X12273634Y-9404960D02*
X12283158Y-9357341D01*
X12283158Y-9357341D02*
X12283158Y-9319246D01*
X12283158Y-9319246D02*
X12273634Y-9271627D01*
X12273634Y-9271627D02*
X12264111Y-9243055D01*
X12264111Y-9243055D02*
X12254587Y-9224008D01*
X12254587Y-9224008D02*
X12235539Y-9195436D01*
X12235539Y-9195436D02*
X12226015Y-9185912D01*
M02*
