M48
; DRILL file {KiCad 7.0.9} date Fri Dec  6 21:36:14 2024
; FORMAT={-:-/ absolute / inch / decimal}
; #@! TF.CreationDate,2024-12-06T21:36:14-05:00
; #@! TF.GenerationSoftware,Kicad,Pcbnew,7.0.9
; #@! TF.FileFunction,NonPlated,1,2,NPTH
FMAT,2
INCH
; #@! TA.AperFunction,NonPlated,NPTH,ComponentDrill
T1C0.0079
%
G90
G05
T1
X2.7854Y-0.9843
X2.7854Y-3.0118
X2.8018Y-0.9843
X2.8018Y-3.0118
X2.8182Y-0.9843
X2.8182Y-3.0118
X2.8346Y-0.9843
X2.8346Y-3.0118
X2.851Y-0.9843
X2.851Y-3.0118
X2.8675Y-0.9843
X2.8675Y-3.0118
X2.8839Y-0.9843
X2.8839Y-3.0118
X2.9626Y-0.7874
X2.9626Y-0.8038
X2.9626Y-0.8202
X2.9626Y-0.8366
X2.9626Y-0.853
X2.9626Y-0.8694
X2.9626Y-0.8858
X2.9626Y-1.939
X2.9626Y-1.9558
X2.9626Y-1.9727
X2.9626Y-1.9896
X2.9626Y-2.0065
X2.9626Y-2.0233
X2.9626Y-2.0402
X2.9626Y-2.0571
X2.9626Y-3.1102
X2.9626Y-3.1266
X2.9626Y-3.143
X2.9626Y-3.1594
X2.9626Y-3.1759
X2.9626Y-3.1923
X2.9626Y-3.2087
X4.8261Y-0.9843
X4.8261Y-3.0118
X4.843Y-0.9843
X4.843Y-3.0118
X4.8599Y-0.9843
X4.8599Y-3.0118
X4.8767Y-0.9843
X4.8767Y-3.0118
X4.8936Y-0.9843
X4.8936Y-3.0118
X4.9105Y-0.9843
X4.9105Y-3.0118
X4.9274Y-0.9843
X4.9274Y-3.0118
X4.9442Y-0.9843
X4.9442Y-3.0118
X6.7487Y-0.9843
X6.7487Y-3.0118
X6.7656Y-0.9843
X6.7656Y-3.0118
X6.7824Y-0.9843
X6.7824Y-3.0118
X6.7993Y-0.9843
X6.7993Y-3.0118
X6.8162Y-0.9843
X6.8162Y-3.0118
X6.8331Y-0.9843
X6.8331Y-3.0118
X6.8499Y-0.9843
X6.8499Y-3.0118
X6.8668Y-0.9843
X6.8668Y-3.0118
X8.7303Y-0.7874
X8.7303Y-0.8038
X8.7303Y-0.8202
X8.7303Y-0.8366
X8.7303Y-0.853
X8.7303Y-0.8694
X8.7303Y-0.8858
X8.7303Y-1.939
X8.7303Y-1.9558
X8.7303Y-1.9727
X8.7303Y-1.9896
X8.7303Y-2.0065
X8.7303Y-2.0233
X8.7303Y-2.0402
X8.7303Y-2.0571
X8.7303Y-3.1102
X8.7303Y-3.1266
X8.7303Y-3.143
X8.7303Y-3.1594
X8.7303Y-3.1759
X8.7303Y-3.1923
X8.7303Y-3.2087
X8.8091Y-0.9843
X8.8091Y-3.0118
X8.8255Y-0.9843
X8.8255Y-3.0118
X8.8419Y-0.9843
X8.8419Y-3.0118
X8.8583Y-0.9843
X8.8583Y-3.0118
X8.8747Y-0.9843
X8.8747Y-3.0118
X8.8911Y-0.9843
X8.8911Y-3.0118
X8.9075Y-0.9843
X8.9075Y-3.0118
T0
M30
