%TF.GenerationSoftware,KiCad,Pcbnew,7.0.9*%
%TF.CreationDate,2024-12-06T21:36:11-05:00*%
%TF.ProjectId,panel,70616e65-6c2e-46b6-9963-61645f706362,rev?*%
%TF.SameCoordinates,Original*%
%TF.FileFunction,Legend,Top*%
%TF.FilePolarity,Positive*%
%FSLAX46Y46*%
G04 Gerber Fmt 4.6, Leading zero omitted, Abs format (unit mm)*
G04 Created by KiCad (PCBNEW 7.0.9) date 2024-12-06 21:36:11*
%MOMM*%
%LPD*%
G01*
G04 APERTURE LIST*
%ADD10C,0.200000*%
%ADD11C,0.120000*%
G04 APERTURE END LIST*
D10*
G36*
X140109625Y-69754000D02*
G01*
X140264475Y-69754000D01*
X140264475Y-69598417D01*
X140109625Y-69598417D01*
X140098595Y-69597897D01*
X140087973Y-69596367D01*
X140077802Y-69593870D01*
X140068123Y-69590448D01*
X140058977Y-69586145D01*
X140050407Y-69581003D01*
X140042454Y-69575065D01*
X140035161Y-69568375D01*
X140028569Y-69560975D01*
X140022721Y-69552907D01*
X140017657Y-69544216D01*
X140013420Y-69534944D01*
X140010051Y-69525134D01*
X140007594Y-69514829D01*
X140006088Y-69504071D01*
X140005577Y-69492904D01*
X140005577Y-69175144D01*
X140264475Y-69175144D01*
X140264475Y-69019317D01*
X140005577Y-69019317D01*
X140005577Y-68837356D01*
X139849995Y-68837356D01*
X139849995Y-69019317D01*
X139632863Y-69019317D01*
X139632863Y-69175144D01*
X139849995Y-69175144D01*
X139849995Y-69492904D01*
X139850333Y-69506374D01*
X139851338Y-69519664D01*
X139852992Y-69532757D01*
X139855280Y-69545636D01*
X139858185Y-69558287D01*
X139861690Y-69570692D01*
X139865778Y-69582835D01*
X139870435Y-69594700D01*
X139875642Y-69606271D01*
X139881384Y-69617532D01*
X139887643Y-69628466D01*
X139894405Y-69639057D01*
X139901651Y-69649290D01*
X139909367Y-69659148D01*
X139917534Y-69668615D01*
X139926137Y-69677674D01*
X139935160Y-69686309D01*
X139944585Y-69694505D01*
X139954397Y-69702244D01*
X139964579Y-69709512D01*
X139975114Y-69716291D01*
X139985986Y-69722566D01*
X139997179Y-69728320D01*
X140008676Y-69733537D01*
X140020461Y-69738200D01*
X140032517Y-69742295D01*
X140044827Y-69745804D01*
X140057376Y-69748711D01*
X140070147Y-69751000D01*
X140083123Y-69752656D01*
X140096287Y-69753661D01*
X140109625Y-69754000D01*
G37*
G36*
X140858718Y-69598417D02*
G01*
X140858718Y-69019317D01*
X140472081Y-69019317D01*
X140472081Y-69175144D01*
X140703135Y-69175144D01*
X140703135Y-69598417D01*
X140472081Y-69598417D01*
X140472081Y-69754000D01*
X141103693Y-69754000D01*
X141103693Y-69598417D01*
X140858718Y-69598417D01*
G37*
G36*
X140689213Y-68909408D02*
G01*
X140858718Y-68909408D01*
X140858718Y-68753581D01*
X140689213Y-68753581D01*
X140689213Y-68909408D01*
G37*
G36*
X141311300Y-69019317D02*
G01*
X141311300Y-69754000D01*
X141466882Y-69754000D01*
X141466882Y-69280168D01*
X141621244Y-69175144D01*
X141683281Y-69175144D01*
X141694070Y-69175677D01*
X141704512Y-69177242D01*
X141714560Y-69179792D01*
X141724165Y-69183276D01*
X141733280Y-69187647D01*
X141741855Y-69192854D01*
X141749843Y-69198849D01*
X141757195Y-69205583D01*
X141763863Y-69213006D01*
X141769799Y-69221071D01*
X141774954Y-69229727D01*
X141779280Y-69238926D01*
X141782729Y-69248618D01*
X141785252Y-69258756D01*
X141786802Y-69269289D01*
X141787329Y-69280168D01*
X141787329Y-69754000D01*
X141942912Y-69754000D01*
X141942912Y-69280168D01*
X141942569Y-69266742D01*
X141941552Y-69253491D01*
X141939879Y-69240434D01*
X141937566Y-69227587D01*
X141934631Y-69214965D01*
X141931091Y-69202585D01*
X141926963Y-69190463D01*
X141922265Y-69178617D01*
X141917014Y-69167062D01*
X141911227Y-69155814D01*
X141904922Y-69144890D01*
X141898115Y-69134307D01*
X141890824Y-69124080D01*
X141883066Y-69114226D01*
X141874859Y-69104762D01*
X141866219Y-69095704D01*
X141857165Y-69087068D01*
X141847712Y-69078870D01*
X141837879Y-69071127D01*
X141827683Y-69063856D01*
X141817141Y-69057072D01*
X141806270Y-69050793D01*
X141795088Y-69045033D01*
X141783612Y-69039811D01*
X141771858Y-69035141D01*
X141759845Y-69031041D01*
X141747590Y-69027527D01*
X141735110Y-69024615D01*
X141722421Y-69022322D01*
X141709542Y-69020663D01*
X141696490Y-69019656D01*
X141683281Y-69019317D01*
X141572884Y-69019317D01*
X141466882Y-69091124D01*
X141466882Y-69019317D01*
X141311300Y-69019317D01*
G37*
G36*
X142410148Y-70050999D02*
G01*
X142785549Y-69019317D01*
X142619220Y-69019317D01*
X142459729Y-69456512D01*
X142312451Y-69019317D01*
X142147343Y-69019317D01*
X142375466Y-69690496D01*
X142243819Y-70050999D01*
X142410148Y-70050999D01*
G37*
G36*
X143984538Y-69754000D02*
G01*
X143984538Y-69472143D01*
X144102751Y-69472143D01*
X144283491Y-69754000D01*
X144466917Y-69754000D01*
X144238062Y-69394230D01*
X144466673Y-69019317D01*
X144283247Y-69019317D01*
X144102507Y-69316316D01*
X143984538Y-69316316D01*
X143984538Y-68737949D01*
X143828955Y-68737949D01*
X143828955Y-69754000D01*
X143984538Y-69754000D01*
G37*
G36*
X145053107Y-69019635D02*
G01*
X145065895Y-69020579D01*
X145078505Y-69022135D01*
X145090921Y-69024287D01*
X145103129Y-69027021D01*
X145115115Y-69030321D01*
X145126862Y-69034174D01*
X145138356Y-69038563D01*
X145149583Y-69043474D01*
X145160527Y-69048892D01*
X145171174Y-69054802D01*
X145181509Y-69061190D01*
X145191517Y-69068040D01*
X145201182Y-69075338D01*
X145210492Y-69083068D01*
X145219429Y-69091216D01*
X145227981Y-69099767D01*
X145236131Y-69108706D01*
X145243865Y-69118018D01*
X145251168Y-69127688D01*
X145258025Y-69137701D01*
X145264421Y-69148043D01*
X145270342Y-69158698D01*
X145275773Y-69169652D01*
X145280699Y-69180890D01*
X145285104Y-69192396D01*
X145288975Y-69204157D01*
X145292296Y-69216156D01*
X145295052Y-69228380D01*
X145297229Y-69240813D01*
X145298812Y-69253440D01*
X145299785Y-69266247D01*
X145299785Y-69425737D01*
X144823756Y-69425737D01*
X144823756Y-69490706D01*
X144824286Y-69501723D01*
X144825843Y-69512392D01*
X144828378Y-69522663D01*
X144831843Y-69532487D01*
X144836187Y-69541812D01*
X144841363Y-69550589D01*
X144847321Y-69558768D01*
X144854012Y-69566299D01*
X144861386Y-69573131D01*
X144869396Y-69579215D01*
X144877992Y-69584500D01*
X144887126Y-69588937D01*
X144896747Y-69592475D01*
X144906807Y-69595064D01*
X144917257Y-69596654D01*
X144928048Y-69597196D01*
X145040155Y-69597196D01*
X145050943Y-69596654D01*
X145061386Y-69595064D01*
X145071434Y-69592475D01*
X145081039Y-69588937D01*
X145090154Y-69584500D01*
X145098729Y-69579215D01*
X145106717Y-69573131D01*
X145114069Y-69566299D01*
X145120737Y-69558768D01*
X145126673Y-69550589D01*
X145131828Y-69541812D01*
X145136154Y-69532487D01*
X145139603Y-69522663D01*
X145142126Y-69512392D01*
X145143675Y-69501723D01*
X145144203Y-69490706D01*
X145144203Y-69468724D01*
X145299785Y-69468724D01*
X145299785Y-69490706D01*
X145299447Y-69504118D01*
X145298442Y-69517370D01*
X145296787Y-69530444D01*
X145294500Y-69543322D01*
X145291595Y-69555988D01*
X145288090Y-69568424D01*
X145284001Y-69580612D01*
X145279345Y-69592536D01*
X145274138Y-69604177D01*
X145268396Y-69615519D01*
X145262136Y-69626543D01*
X145255375Y-69637233D01*
X145248128Y-69647571D01*
X145240413Y-69657540D01*
X145232246Y-69667122D01*
X145223643Y-69676300D01*
X145214620Y-69685056D01*
X145205195Y-69693374D01*
X145195383Y-69701235D01*
X145185201Y-69708623D01*
X145174666Y-69715520D01*
X145163794Y-69721908D01*
X145152601Y-69727771D01*
X145141104Y-69733090D01*
X145129319Y-69737849D01*
X145117263Y-69742029D01*
X145104953Y-69745614D01*
X145092404Y-69748587D01*
X145079633Y-69750929D01*
X145066657Y-69752623D01*
X145053492Y-69753652D01*
X145040155Y-69754000D01*
X144928048Y-69754000D01*
X144914817Y-69753652D01*
X144901744Y-69752623D01*
X144888845Y-69750929D01*
X144876139Y-69748587D01*
X144863641Y-69745614D01*
X144851370Y-69742029D01*
X144839343Y-69737849D01*
X144827576Y-69733090D01*
X144816087Y-69727771D01*
X144804894Y-69721908D01*
X144794013Y-69715520D01*
X144783461Y-69708623D01*
X144773257Y-69701235D01*
X144763416Y-69693374D01*
X144753957Y-69685056D01*
X144744896Y-69676300D01*
X144736251Y-69667122D01*
X144728039Y-69657540D01*
X144720277Y-69647571D01*
X144712983Y-69637233D01*
X144706173Y-69626543D01*
X144699865Y-69615519D01*
X144694076Y-69604177D01*
X144688823Y-69592536D01*
X144684124Y-69580612D01*
X144679995Y-69568424D01*
X144676455Y-69555988D01*
X144673519Y-69543322D01*
X144671206Y-69530444D01*
X144669533Y-69517370D01*
X144668516Y-69504118D01*
X144668173Y-69490706D01*
X144668173Y-69298242D01*
X144823756Y-69298242D01*
X145144203Y-69298242D01*
X145144203Y-69280657D01*
X145143689Y-69269490D01*
X145142176Y-69258732D01*
X145139707Y-69248427D01*
X145136326Y-69238617D01*
X145132074Y-69229344D01*
X145126995Y-69220653D01*
X145121132Y-69212586D01*
X145114527Y-69205186D01*
X145107224Y-69198495D01*
X145099266Y-69192558D01*
X145090695Y-69187416D01*
X145081554Y-69183112D01*
X145071887Y-69179691D01*
X145061736Y-69177193D01*
X145051145Y-69175663D01*
X145040155Y-69175144D01*
X144928048Y-69175144D01*
X144917055Y-69175677D01*
X144906456Y-69177243D01*
X144896293Y-69179795D01*
X144886610Y-69183284D01*
X144877451Y-69187662D01*
X144868860Y-69192880D01*
X144860879Y-69198890D01*
X144853554Y-69205644D01*
X144846926Y-69213093D01*
X144841041Y-69221190D01*
X144835941Y-69229886D01*
X144831671Y-69239132D01*
X144828274Y-69248880D01*
X144825793Y-69259083D01*
X144824272Y-69269691D01*
X144823756Y-69280657D01*
X144823756Y-69298242D01*
X144668173Y-69298242D01*
X144668173Y-69280657D01*
X144668516Y-69267186D01*
X144669533Y-69253894D01*
X144671206Y-69240798D01*
X144673519Y-69227914D01*
X144676455Y-69215258D01*
X144679995Y-69202847D01*
X144684124Y-69190696D01*
X144688823Y-69178823D01*
X144694076Y-69167243D01*
X144699865Y-69155973D01*
X144706173Y-69145028D01*
X144712983Y-69134426D01*
X144720277Y-69124182D01*
X144728039Y-69114313D01*
X144736251Y-69104836D01*
X144744896Y-69095765D01*
X144753957Y-69087118D01*
X144763416Y-69078911D01*
X144773257Y-69071160D01*
X144783461Y-69063882D01*
X144794013Y-69057092D01*
X144804894Y-69050807D01*
X144816087Y-69045044D01*
X144827576Y-69039818D01*
X144839343Y-69035146D01*
X144851370Y-69031044D01*
X144863641Y-69027529D01*
X144876139Y-69024616D01*
X144888845Y-69022322D01*
X144901744Y-69020663D01*
X144914817Y-69019656D01*
X144928048Y-69019317D01*
X145040155Y-69019317D01*
X145053107Y-69019635D01*
G37*
G36*
X145892325Y-69019635D02*
G01*
X145905114Y-69020579D01*
X145917723Y-69022135D01*
X145930140Y-69024287D01*
X145942348Y-69027021D01*
X145954333Y-69030321D01*
X145966080Y-69034174D01*
X145977574Y-69038563D01*
X145988801Y-69043474D01*
X145999745Y-69048892D01*
X146010392Y-69054802D01*
X146020727Y-69061190D01*
X146030735Y-69068040D01*
X146040401Y-69075338D01*
X146049710Y-69083068D01*
X146058648Y-69091216D01*
X146067199Y-69099767D01*
X146075349Y-69108706D01*
X146083083Y-69118018D01*
X146090386Y-69127688D01*
X146097243Y-69137701D01*
X146103640Y-69148043D01*
X146109561Y-69158698D01*
X146114992Y-69169652D01*
X146119917Y-69180890D01*
X146124323Y-69192396D01*
X146128193Y-69204157D01*
X146131514Y-69216156D01*
X146134271Y-69228380D01*
X146136447Y-69240813D01*
X146138030Y-69253440D01*
X146139004Y-69266247D01*
X146139004Y-69425737D01*
X145662974Y-69425737D01*
X145662974Y-69490706D01*
X145663504Y-69501723D01*
X145665061Y-69512392D01*
X145667597Y-69522663D01*
X145671061Y-69532487D01*
X145675406Y-69541812D01*
X145680581Y-69550589D01*
X145686539Y-69558768D01*
X145693230Y-69566299D01*
X145700605Y-69573131D01*
X145708615Y-69579215D01*
X145717211Y-69584500D01*
X145726344Y-69588937D01*
X145735965Y-69592475D01*
X145746025Y-69595064D01*
X145756475Y-69596654D01*
X145767266Y-69597196D01*
X145879374Y-69597196D01*
X145890162Y-69596654D01*
X145900604Y-69595064D01*
X145910652Y-69592475D01*
X145920258Y-69588937D01*
X145929372Y-69584500D01*
X145937947Y-69579215D01*
X145945935Y-69573131D01*
X145953288Y-69566299D01*
X145959956Y-69558768D01*
X145965891Y-69550589D01*
X145971046Y-69541812D01*
X145975372Y-69532487D01*
X145978821Y-69522663D01*
X145981344Y-69512392D01*
X145982894Y-69501723D01*
X145983421Y-69490706D01*
X145983421Y-69468724D01*
X146139004Y-69468724D01*
X146139004Y-69490706D01*
X146138665Y-69504118D01*
X146137660Y-69517370D01*
X146136006Y-69530444D01*
X146133718Y-69543322D01*
X146130814Y-69555988D01*
X146127309Y-69568424D01*
X146123220Y-69580612D01*
X146118564Y-69592536D01*
X146113356Y-69604177D01*
X146107615Y-69615519D01*
X146101355Y-69626543D01*
X146094593Y-69637233D01*
X146087347Y-69647571D01*
X146079632Y-69657540D01*
X146071464Y-69667122D01*
X146062861Y-69676300D01*
X146053838Y-69685056D01*
X146044413Y-69693374D01*
X146034601Y-69701235D01*
X146024419Y-69708623D01*
X146013884Y-69715520D01*
X146003012Y-69721908D01*
X145991819Y-69727771D01*
X145980322Y-69733090D01*
X145968538Y-69737849D01*
X145956482Y-69742029D01*
X145944171Y-69745614D01*
X145931622Y-69748587D01*
X145918852Y-69750929D01*
X145905876Y-69752623D01*
X145892711Y-69753652D01*
X145879374Y-69754000D01*
X145767266Y-69754000D01*
X145754035Y-69753652D01*
X145740962Y-69752623D01*
X145728064Y-69750929D01*
X145715357Y-69748587D01*
X145702860Y-69745614D01*
X145690589Y-69742029D01*
X145678561Y-69737849D01*
X145666794Y-69733090D01*
X145655306Y-69727771D01*
X145644112Y-69721908D01*
X145633231Y-69715520D01*
X145622680Y-69708623D01*
X145612475Y-69701235D01*
X145602634Y-69693374D01*
X145593175Y-69685056D01*
X145584114Y-69676300D01*
X145575469Y-69667122D01*
X145567257Y-69657540D01*
X145559496Y-69647571D01*
X145552201Y-69637233D01*
X145545391Y-69626543D01*
X145539083Y-69615519D01*
X145533294Y-69604177D01*
X145528042Y-69592536D01*
X145523342Y-69580612D01*
X145519214Y-69568424D01*
X145515673Y-69555988D01*
X145512738Y-69543322D01*
X145510425Y-69530444D01*
X145508751Y-69517370D01*
X145507734Y-69504118D01*
X145507392Y-69490706D01*
X145507392Y-69298242D01*
X145662974Y-69298242D01*
X145983421Y-69298242D01*
X145983421Y-69280657D01*
X145982907Y-69269490D01*
X145981395Y-69258732D01*
X145978926Y-69248427D01*
X145975544Y-69238617D01*
X145971292Y-69229344D01*
X145966213Y-69220653D01*
X145960350Y-69212586D01*
X145953745Y-69205186D01*
X145946443Y-69198495D01*
X145938484Y-69192558D01*
X145929913Y-69187416D01*
X145920773Y-69183112D01*
X145911106Y-69179691D01*
X145900955Y-69177193D01*
X145890363Y-69175663D01*
X145879374Y-69175144D01*
X145767266Y-69175144D01*
X145756274Y-69175677D01*
X145745674Y-69177243D01*
X145735512Y-69179795D01*
X145725829Y-69183284D01*
X145716670Y-69187662D01*
X145708078Y-69192880D01*
X145700098Y-69198890D01*
X145692772Y-69205644D01*
X145686145Y-69213093D01*
X145680259Y-69221190D01*
X145675160Y-69229886D01*
X145670889Y-69239132D01*
X145667492Y-69248880D01*
X145665011Y-69259083D01*
X145663491Y-69269691D01*
X145662974Y-69280657D01*
X145662974Y-69298242D01*
X145507392Y-69298242D01*
X145507392Y-69280657D01*
X145507734Y-69267186D01*
X145508751Y-69253894D01*
X145510425Y-69240798D01*
X145512738Y-69227914D01*
X145515673Y-69215258D01*
X145519214Y-69202847D01*
X145523342Y-69190696D01*
X145528042Y-69178823D01*
X145533294Y-69167243D01*
X145539083Y-69155973D01*
X145545391Y-69145028D01*
X145552201Y-69134426D01*
X145559496Y-69124182D01*
X145567257Y-69114313D01*
X145575469Y-69104836D01*
X145584114Y-69095765D01*
X145593175Y-69087118D01*
X145602634Y-69078911D01*
X145612475Y-69071160D01*
X145622680Y-69063882D01*
X145633231Y-69057092D01*
X145644112Y-69050807D01*
X145655306Y-69045044D01*
X145666794Y-69039818D01*
X145678561Y-69035146D01*
X145690589Y-69031044D01*
X145702860Y-69027529D01*
X145715357Y-69024616D01*
X145728064Y-69022322D01*
X145740962Y-69020663D01*
X145754035Y-69019656D01*
X145767266Y-69019317D01*
X145879374Y-69019317D01*
X145892325Y-69019635D01*
G37*
G36*
X146502193Y-69091124D02*
G01*
X146608194Y-69019317D01*
X146718592Y-69019317D01*
X146731800Y-69019656D01*
X146744853Y-69020663D01*
X146757732Y-69022322D01*
X146770420Y-69024616D01*
X146782901Y-69027529D01*
X146795156Y-69031044D01*
X146807169Y-69035146D01*
X146818922Y-69039818D01*
X146830399Y-69045044D01*
X146841581Y-69050807D01*
X146852452Y-69057092D01*
X146862994Y-69063882D01*
X146873190Y-69071160D01*
X146883023Y-69078911D01*
X146892475Y-69087118D01*
X146901530Y-69095765D01*
X146910169Y-69104836D01*
X146918377Y-69114313D01*
X146926135Y-69124182D01*
X146933425Y-69134426D01*
X146940232Y-69145028D01*
X146946538Y-69155973D01*
X146952325Y-69167243D01*
X146957576Y-69178823D01*
X146962274Y-69190696D01*
X146966401Y-69202847D01*
X146969941Y-69215258D01*
X146972876Y-69227914D01*
X146975189Y-69240798D01*
X146976863Y-69253894D01*
X146977879Y-69267186D01*
X146978222Y-69280657D01*
X146978222Y-69492904D01*
X146977879Y-69506245D01*
X146976863Y-69519423D01*
X146975189Y-69532418D01*
X146972876Y-69545216D01*
X146969941Y-69557798D01*
X146966401Y-69570147D01*
X146962274Y-69582248D01*
X146957576Y-69594081D01*
X146952325Y-69605632D01*
X146946538Y-69616882D01*
X146940232Y-69627815D01*
X146933425Y-69638413D01*
X146926135Y-69648661D01*
X146918377Y-69658539D01*
X146910169Y-69668033D01*
X146901530Y-69677124D01*
X146892475Y-69685796D01*
X146883023Y-69694031D01*
X146873190Y-69701814D01*
X146862994Y-69709126D01*
X146852452Y-69715950D01*
X146841581Y-69722271D01*
X146830399Y-69728070D01*
X146818922Y-69733330D01*
X146807169Y-69738036D01*
X146795156Y-69742169D01*
X146782901Y-69745713D01*
X146770420Y-69748651D01*
X146757732Y-69750965D01*
X146744853Y-69752640D01*
X146731800Y-69753657D01*
X146718592Y-69754000D01*
X146608194Y-69754000D01*
X146502193Y-69682436D01*
X146502193Y-69754000D01*
X146346610Y-69754000D01*
X146346610Y-69493148D01*
X146502193Y-69493148D01*
X146656554Y-69598417D01*
X146718592Y-69598417D01*
X146729380Y-69597881D01*
X146739822Y-69596307D01*
X146749870Y-69593745D01*
X146759476Y-69590242D01*
X146768590Y-69585850D01*
X146777166Y-69580617D01*
X146785154Y-69574592D01*
X146792506Y-69567825D01*
X146799174Y-69560366D01*
X146805110Y-69552263D01*
X146810265Y-69543567D01*
X146814591Y-69534326D01*
X146818040Y-69524590D01*
X146820563Y-69514408D01*
X146822112Y-69503829D01*
X146822639Y-69492904D01*
X146822639Y-69280657D01*
X146822112Y-69269691D01*
X146820563Y-69259083D01*
X146818040Y-69248880D01*
X146814591Y-69239132D01*
X146810265Y-69229886D01*
X146805110Y-69221190D01*
X146799174Y-69213093D01*
X146792506Y-69205644D01*
X146785154Y-69198890D01*
X146777166Y-69192880D01*
X146768590Y-69187662D01*
X146759476Y-69183284D01*
X146749870Y-69179795D01*
X146739822Y-69177243D01*
X146729380Y-69175677D01*
X146718592Y-69175144D01*
X146656554Y-69175144D01*
X146502193Y-69280413D01*
X146502193Y-69493148D01*
X146346610Y-69493148D01*
X146346610Y-68737949D01*
X146502193Y-68737949D01*
X146502193Y-69091124D01*
G37*
D11*
%TO.C,SW63*%
X180684000Y-49929000D02*
X180684000Y-51429000D01*
X181934000Y-53929000D02*
X186434000Y-53929000D01*
X186434000Y-47429000D02*
X181934000Y-47429000D01*
X187684000Y-51429000D02*
X187684000Y-49929000D01*
%TO.C,SW11*%
X109327000Y-59363000D02*
X109327000Y-60863000D01*
X110577000Y-63363000D02*
X115077000Y-63363000D01*
X115077000Y-56863000D02*
X110577000Y-56863000D01*
X116327000Y-60863000D02*
X116327000Y-59363000D01*
%TO.C,SW43*%
X145008000Y-30947000D02*
X145008000Y-32447000D01*
X146258000Y-34947000D02*
X150758000Y-34947000D01*
X150758000Y-28447000D02*
X146258000Y-28447000D01*
X152008000Y-32447000D02*
X152008000Y-30947000D01*
%TO.C,SW66*%
X198366000Y-68897000D02*
X198366000Y-70397000D01*
X199616000Y-72897000D02*
X204116000Y-72897000D01*
X204116000Y-66397000D02*
X199616000Y-66397000D01*
X205366000Y-70397000D02*
X205366000Y-68897000D01*
%TO.C,SW14*%
X111754000Y-40379000D02*
X111754000Y-41879000D01*
X113004000Y-44379000D02*
X117504000Y-44379000D01*
X117504000Y-37879000D02*
X113004000Y-37879000D01*
X118754000Y-41879000D02*
X118754000Y-40379000D01*
%TO.C,SW4*%
X82086000Y-49887000D02*
X82086000Y-51387000D01*
X83336000Y-53887000D02*
X87836000Y-53887000D01*
X87836000Y-47387000D02*
X83336000Y-47387000D01*
X89086000Y-51387000D02*
X89086000Y-49887000D01*
%TO.C,SW33*%
X133175000Y-49931000D02*
X133175000Y-51431000D01*
X134425000Y-53931000D02*
X138925000Y-53931000D01*
X138925000Y-47431000D02*
X134425000Y-47431000D01*
X140175000Y-51431000D02*
X140175000Y-49931000D01*
%TO.C,SW17*%
X103597000Y-68894000D02*
X103597000Y-70394000D01*
X104847000Y-72894000D02*
X109347000Y-72894000D01*
X109347000Y-66394000D02*
X104847000Y-66394000D01*
X110597000Y-70394000D02*
X110597000Y-68894000D01*
%TO.C,SW32*%
X140262000Y-40366000D02*
X140262000Y-41866000D01*
X141512000Y-44366000D02*
X146012000Y-44366000D01*
X146012000Y-37866000D02*
X141512000Y-37866000D01*
X147262000Y-41866000D02*
X147262000Y-40366000D01*
%TO.C,SW22*%
X128334000Y-59356000D02*
X128334000Y-60856000D01*
X129584000Y-63356000D02*
X134084000Y-63356000D01*
X134084000Y-56856000D02*
X129584000Y-56856000D01*
X135334000Y-60856000D02*
X135334000Y-59356000D01*
%TO.C,SW39*%
X142678000Y-49948000D02*
X142678000Y-51448000D01*
X143928000Y-53948000D02*
X148428000Y-53948000D01*
X148428000Y-47448000D02*
X143928000Y-47448000D01*
X149678000Y-51448000D02*
X149678000Y-49948000D01*
%TO.C,SW30*%
X129232000Y-70374000D02*
X129232000Y-68874000D01*
X127982000Y-66374000D02*
X123482000Y-66374000D01*
X123482000Y-72874000D02*
X127982000Y-72874000D01*
X122232000Y-68874000D02*
X122232000Y-70374000D01*
%TO.C,SW56*%
X178270000Y-40354000D02*
X178270000Y-41854000D01*
X179520000Y-44354000D02*
X184020000Y-44354000D01*
X184020000Y-37854000D02*
X179520000Y-37854000D01*
X185270000Y-41854000D02*
X185270000Y-40354000D01*
%TO.C,SW44*%
X159266000Y-40362000D02*
X159266000Y-41862000D01*
X160516000Y-44362000D02*
X165016000Y-44362000D01*
X165016000Y-37862000D02*
X160516000Y-37862000D01*
X166266000Y-41862000D02*
X166266000Y-40362000D01*
%TO.C,SW15*%
X104667000Y-49896000D02*
X104667000Y-51396000D01*
X105917000Y-53896000D02*
X110417000Y-53896000D01*
X110417000Y-47396000D02*
X105917000Y-47396000D01*
X111667000Y-51396000D02*
X111667000Y-49896000D01*
%TO.C,SW9*%
X102247000Y-40387000D02*
X102247000Y-41887000D01*
X103497000Y-44387000D02*
X107997000Y-44387000D01*
X107997000Y-37887000D02*
X103497000Y-37887000D01*
X109247000Y-41887000D02*
X109247000Y-40387000D01*
%TO.C,SW29*%
X183008000Y-30919000D02*
X183008000Y-32419000D01*
X184258000Y-34919000D02*
X188758000Y-34919000D01*
X188758000Y-28419000D02*
X184258000Y-28419000D01*
X190008000Y-32419000D02*
X190008000Y-30919000D01*
%TO.C,SW26*%
X130759000Y-40371000D02*
X130759000Y-41871000D01*
X132009000Y-44371000D02*
X136509000Y-44371000D01*
X136509000Y-37871000D02*
X132009000Y-37871000D01*
X137759000Y-41871000D02*
X137759000Y-40371000D01*
%TO.C,SW74*%
X205649000Y-49907000D02*
X205649000Y-51407000D01*
X206899000Y-53907000D02*
X211399000Y-53907000D01*
X211399000Y-47407000D02*
X206899000Y-47407000D01*
X212649000Y-51407000D02*
X212649000Y-49907000D01*
%TO.C,SW21*%
X114169000Y-49907000D02*
X114169000Y-51407000D01*
X115419000Y-53907000D02*
X119919000Y-53907000D01*
X119919000Y-47407000D02*
X115419000Y-47407000D01*
X121169000Y-51407000D02*
X121169000Y-49907000D01*
%TO.C,SW7*%
X92742000Y-40396000D02*
X92742000Y-41896000D01*
X93992000Y-44396000D02*
X98492000Y-44396000D01*
X98492000Y-37896000D02*
X93992000Y-37896000D01*
X99742000Y-41896000D02*
X99742000Y-40396000D01*
%TO.C,SW57*%
X171182000Y-49934000D02*
X171182000Y-51434000D01*
X172432000Y-53934000D02*
X176932000Y-53934000D01*
X176932000Y-47434000D02*
X172432000Y-47434000D01*
X178182000Y-51434000D02*
X178182000Y-49934000D01*
%TO.C,SW55*%
X163999000Y-30935000D02*
X163999000Y-32435000D01*
X165249000Y-34935000D02*
X169749000Y-34935000D01*
X169749000Y-28435000D02*
X165249000Y-28435000D01*
X170999000Y-32435000D02*
X170999000Y-30935000D01*
%TO.C,SW45*%
X152178000Y-49940000D02*
X152178000Y-51440000D01*
X153428000Y-53940000D02*
X157928000Y-53940000D01*
X157928000Y-47440000D02*
X153428000Y-47440000D01*
X159178000Y-51440000D02*
X159178000Y-49940000D01*
%TO.C,SW8*%
X87980000Y-30895000D02*
X87980000Y-32395000D01*
X89230000Y-34895000D02*
X93730000Y-34895000D01*
X93730000Y-28395000D02*
X89230000Y-28395000D01*
X94980000Y-32395000D02*
X94980000Y-30895000D01*
%TO.C,SW59*%
X174639000Y-68898000D02*
X174639000Y-70398000D01*
X175889000Y-72898000D02*
X180389000Y-72898000D01*
X180389000Y-66398000D02*
X175889000Y-66398000D01*
X181639000Y-70398000D02*
X181639000Y-68898000D01*
%TO.C,SW12*%
X91522000Y-68898000D02*
X91522000Y-70398000D01*
X92772000Y-72898000D02*
X97272000Y-72898000D01*
X97272000Y-66398000D02*
X92772000Y-66398000D01*
X98522000Y-70398000D02*
X98522000Y-68898000D01*
%TO.C,SW3*%
X80768000Y-40399000D02*
X80768000Y-41899000D01*
X82018000Y-44399000D02*
X86518000Y-44399000D01*
X86518000Y-37899000D02*
X82018000Y-37899000D01*
X87768000Y-41899000D02*
X87768000Y-40399000D01*
%TO.C,SW65*%
X186373000Y-68895000D02*
X186373000Y-70395000D01*
X187623000Y-72895000D02*
X192123000Y-72895000D01*
X192123000Y-66395000D02*
X187623000Y-66395000D01*
X193373000Y-70395000D02*
X193373000Y-68895000D01*
%TO.C,SW41*%
X154827000Y-68899000D02*
X154827000Y-70399000D01*
X156077000Y-72899000D02*
X160577000Y-72899000D01*
X160577000Y-66399000D02*
X156077000Y-66399000D01*
X161827000Y-70399000D02*
X161827000Y-68899000D01*
%TO.C,SW31*%
X126010000Y-30941000D02*
X126010000Y-32441000D01*
X127260000Y-34941000D02*
X131760000Y-34941000D01*
X131760000Y-28441000D02*
X127260000Y-28441000D01*
X133010000Y-32441000D02*
X133010000Y-30941000D01*
%TO.C,J2*%
X178270000Y-35092000D02*
X129950000Y-35092000D01*
X178270000Y-35092000D02*
X178270000Y-37752000D01*
X129950000Y-35092000D02*
X129950000Y-37752000D01*
X180870000Y-36422000D02*
X180870000Y-37752000D01*
X180870000Y-37752000D02*
X179540000Y-37752000D01*
X178270000Y-37752000D02*
X129950000Y-37752000D01*
%TO.C,SW23*%
X99826000Y-59369000D02*
X99826000Y-60869000D01*
X101076000Y-63369000D02*
X105576000Y-63369000D01*
X105576000Y-56869000D02*
X101076000Y-56869000D01*
X106826000Y-60869000D02*
X106826000Y-59369000D01*
%TO.C,SW13*%
X97487000Y-30940000D02*
X97487000Y-32440000D01*
X98737000Y-34940000D02*
X103237000Y-34940000D01*
X103237000Y-28440000D02*
X98737000Y-28440000D01*
X104487000Y-32440000D02*
X104487000Y-30940000D01*
%TO.C,SW28*%
X137835000Y-59356000D02*
X137835000Y-60856000D01*
X139085000Y-63356000D02*
X143585000Y-63356000D01*
X143585000Y-56856000D02*
X139085000Y-56856000D01*
X144835000Y-60856000D02*
X144835000Y-59356000D01*
%TO.C,SW2*%
X78493000Y-30892000D02*
X78493000Y-32392000D01*
X79743000Y-34892000D02*
X84243000Y-34892000D01*
X84243000Y-28392000D02*
X79743000Y-28392000D01*
X85493000Y-32392000D02*
X85493000Y-30892000D01*
%TO.C,SW58*%
X203581000Y-59319000D02*
X203581000Y-60819000D01*
X204831000Y-63319000D02*
X209331000Y-63319000D01*
X209331000Y-56819000D02*
X204831000Y-56819000D01*
X210581000Y-60819000D02*
X210581000Y-59319000D01*
%TO.C,SW20*%
X121256000Y-40374000D02*
X121256000Y-41874000D01*
X122506000Y-44374000D02*
X127006000Y-44374000D01*
X127006000Y-37874000D02*
X122506000Y-37874000D01*
X128256000Y-41874000D02*
X128256000Y-40374000D01*
%TO.C,SW50*%
X168770000Y-40357000D02*
X168770000Y-41857000D01*
X170020000Y-44357000D02*
X174520000Y-44357000D01*
X174520000Y-37857000D02*
X170020000Y-37857000D01*
X175770000Y-41857000D02*
X175770000Y-40357000D01*
%TO.C,SW35*%
X197279000Y-40338000D02*
X197279000Y-41838000D01*
X198529000Y-44338000D02*
X203029000Y-44338000D01*
X203029000Y-37838000D02*
X198529000Y-37838000D01*
X204279000Y-41838000D02*
X204279000Y-40338000D01*
%TO.C,SW24*%
X185347000Y-59327000D02*
X185347000Y-60827000D01*
X186597000Y-63327000D02*
X191097000Y-63327000D01*
X191097000Y-56827000D02*
X186597000Y-56827000D01*
X192347000Y-60827000D02*
X192347000Y-59327000D01*
%TO.C,SW34*%
X147337000Y-59345000D02*
X147337000Y-60845000D01*
X148587000Y-63345000D02*
X153087000Y-63345000D01*
X153087000Y-56845000D02*
X148587000Y-56845000D01*
X154337000Y-60845000D02*
X154337000Y-59345000D01*
%TO.C,SW73*%
X209208000Y-40333000D02*
X209208000Y-41833000D01*
X210458000Y-44333000D02*
X214958000Y-44333000D01*
X214958000Y-37833000D02*
X210458000Y-37833000D01*
X216208000Y-41833000D02*
X216208000Y-40333000D01*
%TO.C,SW52*%
X175846000Y-59322000D02*
X175846000Y-60822000D01*
X177096000Y-63322000D02*
X181596000Y-63322000D01*
X181596000Y-56822000D02*
X177096000Y-56822000D01*
X182846000Y-60822000D02*
X182846000Y-59322000D01*
%TO.C,SW37*%
X135500000Y-30939000D02*
X135500000Y-32439000D01*
X136750000Y-34939000D02*
X141250000Y-34939000D01*
X141250000Y-28439000D02*
X136750000Y-28439000D01*
X142500000Y-32439000D02*
X142500000Y-30939000D01*
%TO.C,SW40*%
X156839000Y-59339000D02*
X156839000Y-60839000D01*
X158089000Y-63339000D02*
X162589000Y-63339000D01*
X162589000Y-56839000D02*
X158089000Y-56839000D01*
X163839000Y-60839000D02*
X163839000Y-59339000D01*
%TO.C,SW67*%
X192515000Y-30916000D02*
X192515000Y-32416000D01*
X193765000Y-34916000D02*
X198265000Y-34916000D01*
X198265000Y-28416000D02*
X193765000Y-28416000D01*
X199515000Y-32416000D02*
X199515000Y-30916000D01*
%TO.C,SW49*%
X154507000Y-30949000D02*
X154507000Y-32449000D01*
X155757000Y-34949000D02*
X160257000Y-34949000D01*
X160257000Y-28449000D02*
X155757000Y-28449000D01*
X161507000Y-32449000D02*
X161507000Y-30949000D01*
%TO.C,SW1*%
X210295000Y-68883000D02*
X210295000Y-70383000D01*
X211545000Y-72883000D02*
X216045000Y-72883000D01*
X216045000Y-66383000D02*
X211545000Y-66383000D01*
X217295000Y-70383000D02*
X217295000Y-68883000D01*
%TO.C,SW51*%
X161678000Y-49940000D02*
X161678000Y-51440000D01*
X162928000Y-53940000D02*
X167428000Y-53940000D01*
X167428000Y-47440000D02*
X162928000Y-47440000D01*
X168678000Y-51440000D02*
X168678000Y-49940000D01*
%TO.C,SW18*%
X190187000Y-49925000D02*
X190187000Y-51425000D01*
X191437000Y-53925000D02*
X195937000Y-53925000D01*
X195937000Y-47425000D02*
X191437000Y-47425000D01*
X197187000Y-51425000D02*
X197187000Y-49925000D01*
%TO.C,SW72*%
X207026000Y-30917000D02*
X207026000Y-32417000D01*
X208276000Y-34917000D02*
X212776000Y-34917000D01*
X212776000Y-28417000D02*
X208276000Y-28417000D01*
X214026000Y-32417000D02*
X214026000Y-30917000D01*
%TO.C,SW5*%
X84631000Y-59371000D02*
X84631000Y-60871000D01*
X85881000Y-63371000D02*
X90381000Y-63371000D01*
X90381000Y-56871000D02*
X85881000Y-56871000D01*
X91631000Y-60871000D02*
X91631000Y-59371000D01*
%TO.C,SW6*%
X79741000Y-68869000D02*
X79741000Y-70369000D01*
X80991000Y-72869000D02*
X85491000Y-72869000D01*
X85491000Y-66369000D02*
X80991000Y-66369000D01*
X86741000Y-70369000D02*
X86741000Y-68869000D01*
%TO.C,SW25*%
X116497000Y-30939000D02*
X116497000Y-32439000D01*
X117747000Y-34939000D02*
X122247000Y-34939000D01*
X122247000Y-28439000D02*
X117747000Y-28439000D01*
X123497000Y-32439000D02*
X123497000Y-30939000D01*
%TO.C,SW38*%
X149763000Y-40364000D02*
X149763000Y-41864000D01*
X151013000Y-44364000D02*
X155513000Y-44364000D01*
X155513000Y-37864000D02*
X151013000Y-37864000D01*
X156763000Y-41864000D02*
X156763000Y-40364000D01*
%TO.C,SW27*%
X123671000Y-49921000D02*
X123671000Y-51421000D01*
X124921000Y-53921000D02*
X129421000Y-53921000D01*
X129421000Y-47421000D02*
X124921000Y-47421000D01*
X130671000Y-51421000D02*
X130671000Y-49921000D01*
%TO.C,SW19*%
X107003000Y-30928000D02*
X107003000Y-32428000D01*
X108253000Y-34928000D02*
X112753000Y-34928000D01*
X112753000Y-28428000D02*
X108253000Y-28428000D01*
X114003000Y-32428000D02*
X114003000Y-30928000D01*
%TO.C,SW10*%
X95156000Y-49879000D02*
X95156000Y-51379000D01*
X96406000Y-53879000D02*
X100906000Y-53879000D01*
X100906000Y-47379000D02*
X96406000Y-47379000D01*
X102156000Y-51379000D02*
X102156000Y-49879000D01*
%TO.C,SW61*%
X173505000Y-30927000D02*
X173505000Y-32427000D01*
X174755000Y-34927000D02*
X179255000Y-34927000D01*
X179255000Y-28427000D02*
X174755000Y-28427000D01*
X180505000Y-32427000D02*
X180505000Y-30927000D01*
%TO.C,SW46*%
X166344000Y-59331000D02*
X166344000Y-60831000D01*
X167594000Y-63331000D02*
X172094000Y-63331000D01*
X172094000Y-56831000D02*
X167594000Y-56831000D01*
X173344000Y-60831000D02*
X173344000Y-59331000D01*
%TO.C,SW16*%
X118834000Y-59358000D02*
X118834000Y-60858000D01*
X120084000Y-63358000D02*
X124584000Y-63358000D01*
X124584000Y-56858000D02*
X120084000Y-56858000D01*
X125834000Y-60858000D02*
X125834000Y-59358000D01*
%TO.C,SW62*%
X187774000Y-40347000D02*
X187774000Y-41847000D01*
X189024000Y-44347000D02*
X193524000Y-44347000D01*
X193524000Y-37847000D02*
X189024000Y-37847000D01*
X194774000Y-41847000D02*
X194774000Y-40347000D01*
%TD*%
M02*
