%TF.GenerationSoftware,KiCad,Pcbnew,7.0.9*%
%TF.CreationDate,2024-12-06T21:36:11-05:00*%
%TF.ProjectId,panel,70616e65-6c2e-46b6-9963-61645f706362,rev?*%
%TF.SameCoordinates,Original*%
%TF.FileFunction,Paste,Bot*%
%TF.FilePolarity,Positive*%
%FSLAX46Y46*%
G04 Gerber Fmt 4.6, Leading zero omitted, Abs format (unit mm)*
G04 Created by KiCad (PCBNEW 7.0.9) date 2024-12-06 21:36:11*
%MOMM*%
%LPD*%
G01*
G04 APERTURE LIST*
G04 Aperture macros list*
%AMRoundRect*
0 Rectangle with rounded corners*
0 $1 Rounding radius*
0 $2 $3 $4 $5 $6 $7 $8 $9 X,Y pos of 4 corners*
0 Add a 4 corners polygon primitive as box body*
4,1,4,$2,$3,$4,$5,$6,$7,$8,$9,$2,$3,0*
0 Add four circle primitives for the rounded corners*
1,1,$1+$1,$2,$3*
1,1,$1+$1,$4,$5*
1,1,$1+$1,$6,$7*
1,1,$1+$1,$8,$9*
0 Add four rect primitives between the rounded corners*
20,1,$1+$1,$2,$3,$4,$5,0*
20,1,$1+$1,$4,$5,$6,$7,0*
20,1,$1+$1,$6,$7,$8,$9,0*
20,1,$1+$1,$8,$9,$2,$3,0*%
G04 Aperture macros list end*
%ADD10RoundRect,0.225000X-0.375000X0.225000X-0.375000X-0.225000X0.375000X-0.225000X0.375000X0.225000X0*%
G04 APERTURE END LIST*
D10*
%TO.C,D24*%
X188099000Y-58424500D03*
X188099000Y-61724500D03*
%TD*%
%TO.C,D65*%
X189058000Y-68028500D03*
X189058000Y-71328500D03*
%TD*%
%TO.C,D27*%
X126459000Y-49046500D03*
X126459000Y-52346500D03*
%TD*%
%TO.C,D61*%
X176287000Y-30094000D03*
X176287000Y-33394000D03*
%TD*%
%TO.C,D25*%
X119242000Y-30132000D03*
X119242000Y-33432000D03*
%TD*%
%TO.C,D19*%
X109791000Y-29967000D03*
X109791000Y-33267000D03*
%TD*%
%TO.C,D49*%
X157441000Y-29953500D03*
X157441000Y-33253500D03*
%TD*%
%TO.C,D12*%
X94381000Y-68003000D03*
X94381000Y-71303000D03*
%TD*%
%TO.C,D21*%
X116924000Y-48960000D03*
X116924000Y-52260000D03*
%TD*%
%TO.C,D40*%
X159722000Y-58412500D03*
X159722000Y-61712500D03*
%TD*%
%TO.C,D1*%
X212949000Y-68062500D03*
X212949000Y-71362500D03*
%TD*%
%TO.C,D58*%
X206539000Y-58499000D03*
X206539000Y-61799000D03*
%TD*%
%TO.C,D20*%
X124057000Y-39511500D03*
X124057000Y-42811500D03*
%TD*%
%TO.C,D66*%
X201125000Y-68021000D03*
X201125000Y-71321000D03*
%TD*%
%TO.C,D10*%
X97965000Y-49027000D03*
X97965000Y-52327000D03*
%TD*%
%TO.C,D14*%
X114438000Y-39478500D03*
X114438000Y-42778500D03*
%TD*%
%TO.C,D31*%
X128694000Y-30075000D03*
X128694000Y-33375000D03*
%TD*%
%TO.C,D52*%
X178677000Y-58358500D03*
X178677000Y-61658500D03*
%TD*%
%TO.C,D28*%
X140559000Y-58492000D03*
X140559000Y-61792000D03*
%TD*%
%TO.C,D41*%
X119610000Y-69581500D03*
X119610000Y-72881500D03*
%TD*%
%TO.C,D26*%
X133507000Y-39546000D03*
X133507000Y-42846000D03*
%TD*%
%TO.C,D73*%
X211915000Y-39308000D03*
X211915000Y-42608000D03*
%TD*%
%TO.C,D56*%
X181121000Y-39457500D03*
X181121000Y-42757500D03*
%TD*%
%TO.C,D4*%
X84791000Y-49034000D03*
X84791000Y-52334000D03*
%TD*%
%TO.C,D74*%
X208476000Y-49014500D03*
X208476000Y-52314500D03*
%TD*%
%TO.C,D50*%
X171670000Y-39512500D03*
X171670000Y-42812500D03*
%TD*%
%TO.C,D38*%
X152553000Y-39490000D03*
X152553000Y-42790000D03*
%TD*%
%TO.C,D72*%
X209779000Y-30075000D03*
X209779000Y-33375000D03*
%TD*%
%TO.C,D8*%
X90905000Y-29877500D03*
X90905000Y-33177500D03*
%TD*%
%TO.C,D37*%
X138431000Y-29953500D03*
X138431000Y-33253500D03*
%TD*%
%TO.C,D9*%
X105080000Y-39490500D03*
X105080000Y-42790500D03*
%TD*%
%TO.C,D32*%
X143000000Y-39441000D03*
X143000000Y-42741000D03*
%TD*%
%TO.C,D57*%
X174006000Y-48940000D03*
X174006000Y-52240000D03*
%TD*%
%TO.C,D62*%
X190440000Y-39525000D03*
X190440000Y-42825000D03*
%TD*%
%TO.C,D35*%
X200239000Y-39293000D03*
X200239000Y-42593000D03*
%TD*%
%TO.C,D59*%
X177536000Y-68112000D03*
X177536000Y-71412000D03*
%TD*%
%TO.C,D67*%
X195296000Y-29896500D03*
X195296000Y-33196500D03*
%TD*%
%TO.C,D33*%
X135933000Y-48940000D03*
X135933000Y-52240000D03*
%TD*%
%TO.C,D3*%
X83437000Y-39657500D03*
X83437000Y-42957500D03*
%TD*%
%TO.C,D43*%
X147882000Y-30060000D03*
X147882000Y-33360000D03*
%TD*%
%TO.C,D39*%
X145546000Y-49016500D03*
X145546000Y-52316500D03*
%TD*%
%TO.C,D6*%
X82416000Y-68021500D03*
X82416000Y-71321500D03*
%TD*%
%TO.C,D5*%
X87299000Y-58509500D03*
X87299000Y-61809500D03*
%TD*%
%TO.C,D45*%
X154904000Y-49043500D03*
X154904000Y-52343500D03*
%TD*%
%TO.C,D63*%
X183388000Y-49061500D03*
X183388000Y-52361500D03*
%TD*%
%TO.C,D34*%
X150271000Y-58336000D03*
X150271000Y-61636000D03*
%TD*%
%TO.C,D18*%
X192887000Y-49068500D03*
X192887000Y-52368500D03*
%TD*%
%TO.C,D13*%
X100247000Y-30094500D03*
X100247000Y-33394500D03*
%TD*%
%TO.C,D15*%
X107331000Y-49057500D03*
X107331000Y-52357500D03*
%TD*%
%TO.C,D46*%
X169033000Y-58460000D03*
X169033000Y-61760000D03*
%TD*%
%TO.C,D11*%
X112195000Y-58499500D03*
X112195000Y-61799500D03*
%TD*%
%TO.C,D23*%
X102658000Y-58303500D03*
X102658000Y-61603500D03*
%TD*%
%TO.C,D55*%
X166837000Y-29877000D03*
X166837000Y-33177000D03*
%TD*%
%TO.C,D51*%
X164556000Y-49071500D03*
X164556000Y-52371500D03*
%TD*%
%TO.C,D17*%
X106334000Y-67971500D03*
X106334000Y-71271500D03*
%TD*%
%TO.C,D16*%
X121506000Y-58546500D03*
X121506000Y-61846500D03*
%TD*%
%TO.C,D22*%
X131154000Y-58448500D03*
X131154000Y-61748500D03*
%TD*%
%TO.C,D7*%
X95684000Y-39545500D03*
X95684000Y-42845500D03*
%TD*%
%TO.C,D2*%
X81199000Y-30044000D03*
X81199000Y-33344000D03*
%TD*%
%TO.C,D29*%
X185673000Y-30114000D03*
X185673000Y-33414000D03*
%TD*%
%TO.C,D44*%
X161945000Y-39532000D03*
X161945000Y-42832000D03*
%TD*%
M02*
