%TF.GenerationSoftware,KiCad,Pcbnew,7.0.9*%
%TF.CreationDate,2024-12-06T21:36:12-05:00*%
%TF.ProjectId,panel,70616e65-6c2e-46b6-9963-61645f706362,rev?*%
%TF.SameCoordinates,Original*%
%TF.FileFunction,Profile,NP*%
%FSLAX46Y46*%
G04 Gerber Fmt 4.6, Leading zero omitted, Abs format (unit mm)*
G04 Created by KiCad (PCBNEW 7.0.9) date 2024-12-06 21:36:12*
%MOMM*%
%LPD*%
G01*
G04 APERTURE LIST*
%TA.AperFunction,Profile*%
%ADD10C,0.100000*%
%TD*%
G04 APERTURE END LIST*
D10*
X73959714Y-52293059D02*
X74007019Y-52279968D01*
X125583333Y-77499999D02*
X125584537Y-77450931D01*
X126111936Y-22618078D02*
X126155777Y-22596010D01*
X73250000Y-48250000D02*
X73250000Y-23499999D01*
X74348018Y-52254815D02*
X74396731Y-52260823D01*
X73392271Y-48764103D02*
X73368078Y-48721397D01*
X171405843Y-77353268D02*
X171411851Y-77401981D01*
X220881958Y-25351501D02*
X220818505Y-25309682D01*
X175033982Y-76576120D02*
X175079776Y-76558455D01*
X73368078Y-52778602D02*
X73392271Y-52735896D01*
X221738138Y-74714903D02*
X221740700Y-74689704D01*
X223607728Y-48764103D02*
X223581469Y-48805570D01*
X219743666Y-25000000D02*
X175416665Y-25000000D01*
X171358210Y-23163109D02*
X171373607Y-23209714D01*
X220550223Y-76332626D02*
X220619276Y-76300898D01*
X223086890Y-52308455D02*
X223132684Y-52326120D01*
X223523010Y-22865606D02*
X223553207Y-22904300D01*
X174534745Y-78471397D02*
X174512677Y-78427555D01*
X74921559Y-48990951D02*
X74884393Y-49023010D01*
X171298588Y-77028602D02*
X171320656Y-77072444D01*
X73778602Y-78881921D02*
X73735896Y-78857728D01*
X74990951Y-48921559D02*
X74957107Y-48957107D01*
X222554908Y-49230785D02*
X222507019Y-49220031D01*
X223040285Y-22543059D02*
X223086890Y-22558455D01*
X223653989Y-52822444D02*
X223673879Y-52867315D01*
X75245184Y-53151981D02*
X75248795Y-53200931D01*
X175269935Y-22510823D02*
X175318648Y-22504815D01*
X220818505Y-25309682D02*
X220797010Y-25296284D01*
X171320656Y-78427555D02*
X171298588Y-78471397D01*
X122010888Y-76596010D02*
X122054730Y-76618078D01*
X220432623Y-25120398D02*
X220360713Y-25095818D01*
X220797010Y-25296284D02*
X220731521Y-25257733D01*
X222367315Y-49173879D02*
X222322444Y-49153989D01*
X122441062Y-22985896D02*
X122465254Y-23028602D01*
X171012366Y-78803207D02*
X170972237Y-78831469D01*
X222009048Y-52578440D02*
X222042892Y-52542892D01*
X222194429Y-52418530D02*
X222235896Y-52392271D01*
X223384393Y-52476989D02*
X223421559Y-52509048D01*
X76202989Y-76203715D02*
X76268478Y-76242266D01*
X125876226Y-24707107D02*
X125842381Y-24671559D01*
X221661763Y-26413453D02*
X221654181Y-26389286D01*
X73694429Y-78831469D02*
X73654300Y-78803207D01*
X75191544Y-52913109D02*
X75206940Y-52959714D01*
X126436602Y-78989176D02*
X126388242Y-78980785D01*
X220902747Y-76134028D02*
X220964000Y-76089049D01*
X122290440Y-76792892D02*
X122324284Y-76828440D01*
X122324284Y-22828440D02*
X122356344Y-22865606D01*
X76290624Y-76254558D02*
X76357982Y-76289743D01*
X73293059Y-52959714D02*
X73308455Y-52913109D01*
X170888063Y-78881921D02*
X170844222Y-78903989D01*
X74007019Y-49220031D02*
X73959714Y-49206940D01*
X221769214Y-53054908D02*
X221779968Y-53007019D01*
X73654300Y-78803207D02*
X73615606Y-78773010D01*
X222278602Y-52368078D02*
X222322444Y-52346010D01*
X125911774Y-24740951D02*
X125876226Y-24707107D01*
X75053207Y-52654300D02*
X75081469Y-52694429D01*
X223221397Y-49131921D02*
X223177555Y-49153989D01*
X223739176Y-53103268D02*
X223745184Y-53151981D01*
X223653989Y-23072444D02*
X223673879Y-23117315D01*
X223706940Y-52959714D02*
X223720031Y-53007019D01*
X73778602Y-52368078D02*
X73822444Y-52346010D01*
X174585196Y-22944429D02*
X174613458Y-22904300D01*
X122524877Y-78336890D02*
X122507212Y-78382684D01*
X220902747Y-25365971D02*
X220881958Y-25351501D01*
X220642017Y-25210256D02*
X220619276Y-25199101D01*
X175367598Y-76501204D02*
X175416665Y-76500000D01*
X175367598Y-22501204D02*
X175416665Y-22500000D01*
X223177555Y-78903989D02*
X223132684Y-78923879D01*
X75288705Y-26609872D02*
X75275298Y-26684674D01*
X75546284Y-25952989D02*
X75507733Y-26018478D01*
X125659453Y-24382684D02*
X125641789Y-24336890D01*
X75863108Y-75940627D02*
X75881466Y-75958078D01*
X73308455Y-23163109D02*
X73326120Y-23117315D01*
X122054730Y-22618078D02*
X122097436Y-22642271D01*
X121966017Y-22576120D02*
X122010888Y-22596010D01*
X171189677Y-22865606D02*
X171219874Y-22904300D01*
X75259299Y-26810295D02*
X75253528Y-26886069D01*
X221440317Y-25931494D02*
X221398498Y-25868041D01*
X223040285Y-52293059D02*
X223086890Y-52308455D01*
X125948939Y-76726989D02*
X125987633Y-76696792D01*
X122179033Y-24803207D02*
X122138904Y-24831469D01*
X73778602Y-49131921D02*
X73735896Y-49107728D01*
X126069230Y-78857728D02*
X126027762Y-78831469D01*
X170416667Y-22500000D02*
X170465735Y-22501204D01*
X70762272Y-81500000D02*
X226237727Y-81500000D01*
X74805570Y-52418530D02*
X74845699Y-52446792D01*
X170465735Y-78998795D02*
X170416667Y-79000000D01*
X74540285Y-52293059D02*
X74586890Y-52308455D01*
X73279968Y-78242980D02*
X73269214Y-78195091D01*
X75253528Y-74613930D02*
X75259299Y-74689704D01*
X223706940Y-23209714D02*
X223720031Y-23257019D01*
X76357982Y-76289743D02*
X76380723Y-76300898D01*
X75345818Y-26389286D02*
X75338236Y-26413453D01*
X174421481Y-77401981D02*
X174427490Y-77353268D01*
X175079776Y-78941544D02*
X175033982Y-78923879D01*
X223720031Y-78242980D02*
X223706940Y-78290285D01*
X122324284Y-24671559D02*
X122290440Y-24707107D01*
X221661763Y-75086546D02*
X221682669Y-75013484D01*
X126027762Y-78831469D02*
X125987633Y-78803207D01*
X174417871Y-78049068D02*
X174416666Y-78000000D01*
X75248795Y-48299068D02*
X75245184Y-48348018D01*
X122507212Y-23117315D02*
X122524877Y-23163109D01*
X220709375Y-76254558D02*
X220731521Y-76242266D01*
X126583332Y-79000000D02*
X126534264Y-78998795D01*
X121730064Y-78989176D02*
X121681351Y-78995184D01*
X74632684Y-49173879D02*
X74586890Y-49191544D01*
X122524877Y-23163109D02*
X122540273Y-23209714D01*
X171405843Y-78146731D02*
X171397451Y-78195091D01*
X125584537Y-77450931D02*
X125588148Y-77401981D01*
X121583334Y-79000000D02*
X74249999Y-79000000D01*
X174421481Y-23401981D02*
X174427490Y-23353268D01*
X174417871Y-77450931D02*
X174421481Y-77401981D01*
X221118533Y-75958078D02*
X221136891Y-75940627D01*
X122564118Y-77304908D02*
X122572509Y-77353268D01*
X170930769Y-22642271D02*
X170972237Y-22668530D01*
X223745184Y-48348018D02*
X223739176Y-48396731D01*
X77256333Y-25000000D02*
X77243668Y-25000160D01*
X73509048Y-22828440D02*
X73542892Y-22792892D01*
X174459726Y-77209714D02*
X174475122Y-77163109D01*
X174492787Y-77117315D02*
X174512677Y-77072444D01*
X174745107Y-22759048D02*
X174782273Y-22726989D01*
X76097252Y-25365971D02*
X76035999Y-25410950D01*
X121826314Y-22529968D02*
X121873618Y-22543059D01*
X226249704Y-20000294D02*
X226237727Y-20000000D01*
X122578518Y-23401981D02*
X122582128Y-23450931D01*
X126155777Y-24903989D02*
X126111936Y-24881921D01*
X222896731Y-52260823D02*
X222945091Y-52269214D01*
X171274395Y-76985896D02*
X171298588Y-77028602D01*
X76859872Y-76461294D02*
X76934674Y-76474701D01*
X221868078Y-52778602D02*
X221892271Y-52735896D01*
X73509048Y-48921559D02*
X73476989Y-48884393D01*
X126200649Y-76576120D02*
X126246442Y-76558455D01*
X223653989Y-48677555D02*
X223631921Y-48721397D01*
X170844222Y-24903989D02*
X170799350Y-24923879D01*
X73542892Y-52542892D02*
X73578440Y-52509048D01*
X223730785Y-53054908D02*
X223739176Y-53103268D01*
X74249999Y-49250000D02*
X74200931Y-49248795D01*
X73735896Y-22642271D02*
X73778602Y-22618078D01*
X175367598Y-24998795D02*
X175318648Y-24995184D01*
X122217726Y-78773010D02*
X122179033Y-78803207D01*
X122487322Y-78427555D02*
X122465254Y-78471397D01*
X221754815Y-48348018D02*
X221751204Y-48299068D01*
X174492787Y-24382684D02*
X174475122Y-24336890D01*
X222992980Y-52279968D02*
X223040285Y-52293059D01*
X222749999Y-49250000D02*
X222700931Y-49248795D01*
X223748795Y-78049068D02*
X223745184Y-78098018D01*
X75250000Y-27006333D02*
X75250000Y-48250000D01*
X222078440Y-52509048D02*
X222115606Y-52476989D01*
X73418530Y-48805570D02*
X73392271Y-48764103D01*
X171405843Y-24146731D02*
X171397451Y-24195091D01*
X220731521Y-76242266D02*
X220797010Y-76203715D01*
X75507733Y-75481521D02*
X75546284Y-75547010D01*
X170753557Y-76558455D02*
X170799350Y-76576120D01*
X170799350Y-76576120D02*
X170844222Y-76596010D01*
X73542892Y-22792892D02*
X73578440Y-22759048D01*
X223706940Y-48540285D02*
X223691544Y-48586890D01*
X221749839Y-74506331D02*
X221749999Y-74493666D01*
X75379195Y-26293624D02*
X75370398Y-26317376D01*
X174745107Y-78740951D02*
X174709559Y-78707107D01*
X73368078Y-78471397D02*
X73346010Y-78427555D01*
X74445091Y-49230785D02*
X74396731Y-49239176D01*
X74921559Y-52509048D02*
X74957107Y-52542892D01*
X74957107Y-48957107D02*
X74921559Y-48990951D01*
X74103268Y-78989176D02*
X74054908Y-78980785D01*
X121920223Y-22558455D02*
X121966017Y-22576120D01*
X171012366Y-76696792D02*
X171051060Y-76726989D01*
X222459714Y-49206940D02*
X222413109Y-49191544D01*
X76639286Y-25095818D02*
X76567376Y-25120398D01*
X174558937Y-76985896D02*
X174585196Y-76944429D01*
X223607728Y-78514103D02*
X223581469Y-78555570D01*
X75559682Y-75568505D02*
X75601501Y-75631958D01*
X121826314Y-24970031D02*
X121778424Y-24980785D01*
X76357982Y-25210256D02*
X76290624Y-25245441D01*
X221118533Y-25541921D02*
X221062145Y-25490976D01*
X222115606Y-49023010D02*
X222078440Y-48990951D01*
X70750294Y-20000295D02*
X70750000Y-20012272D01*
X174416666Y-78000000D02*
X174416666Y-77499999D01*
X73735896Y-49107728D02*
X73694429Y-49081469D01*
X125751863Y-24555570D02*
X125725604Y-24514103D01*
X175318648Y-78995184D02*
X175269935Y-78989176D01*
X174512677Y-23072444D02*
X174534745Y-23028602D01*
X174745107Y-76759048D02*
X174782273Y-76726989D01*
X77161365Y-76497753D02*
X77243668Y-76499839D01*
X223653989Y-78427555D02*
X223631921Y-78471397D01*
X73346010Y-52822444D02*
X73368078Y-52778602D01*
X174427490Y-24146731D02*
X174421481Y-24098018D01*
X121920223Y-24941544D02*
X121873618Y-24956940D01*
X222042892Y-52542892D02*
X222078440Y-52509048D01*
X170844222Y-76596010D02*
X170888063Y-76618078D01*
X223305570Y-78831469D02*
X223264103Y-78857728D01*
X222507019Y-52279968D02*
X222554908Y-52269214D01*
X221339049Y-75714000D02*
X221384028Y-75652747D01*
X170514684Y-78995184D02*
X170465735Y-78998795D01*
X223673879Y-48632684D02*
X223653989Y-48677555D01*
X121873618Y-24956940D02*
X121826314Y-24970031D01*
X70762272Y-20000000D02*
X70750295Y-20000294D01*
X125594156Y-78146731D02*
X125588148Y-78098018D01*
X75809372Y-25613108D02*
X75791921Y-25631466D01*
X125613302Y-23257019D02*
X125626392Y-23209714D01*
X223691544Y-78336890D02*
X223673879Y-78382684D01*
X76097252Y-76134028D02*
X76118041Y-76148498D01*
X223750000Y-48250000D02*
X223748795Y-48299068D01*
X221208078Y-75868533D02*
X221259023Y-75812145D01*
X221654181Y-75110713D02*
X221661763Y-75086546D01*
X122054730Y-78881921D02*
X122010888Y-78903989D01*
X76015969Y-25426454D02*
X75957073Y-25474478D01*
X70750000Y-20012272D02*
X70750000Y-81487727D01*
X174709559Y-22792892D02*
X174745107Y-22759048D01*
X126027762Y-22668530D02*
X126069230Y-22642271D01*
X125725604Y-24514103D02*
X125701411Y-24471397D01*
X73654300Y-52446792D02*
X73694429Y-52418530D01*
X122583333Y-77499999D02*
X122583333Y-78000000D01*
X75937854Y-25490976D02*
X75881466Y-25541921D01*
X75449101Y-75369276D02*
X75460256Y-75392017D01*
X73418530Y-22944429D02*
X73446792Y-22904300D01*
X175221575Y-76519214D02*
X175269935Y-76510823D01*
X73346010Y-48677555D02*
X73326120Y-48632684D01*
X75881466Y-25541921D02*
X75863108Y-25559372D01*
X223345699Y-78803207D02*
X223305570Y-78831469D01*
X174989111Y-22596010D02*
X175033982Y-22576120D01*
X73260823Y-23353268D02*
X73269214Y-23304908D01*
X75230785Y-48445091D02*
X75220031Y-48492980D01*
X223553207Y-52654300D02*
X223581469Y-52694429D01*
X171219874Y-24595699D02*
X171189677Y-24634393D01*
X74103268Y-52260823D02*
X74151981Y-52254815D01*
X174709559Y-24707107D02*
X174675715Y-24671559D01*
X73822444Y-49153989D02*
X73778602Y-49131921D01*
X125679343Y-24427555D02*
X125659453Y-24382684D01*
X170465735Y-76501204D02*
X170514684Y-76504815D01*
X126200649Y-24923879D02*
X126155777Y-24903989D01*
X174459726Y-78290285D02*
X174446635Y-78242980D01*
X126246442Y-24941544D02*
X126200649Y-24923879D01*
X221946792Y-52654300D02*
X221976989Y-52615606D01*
X73269214Y-78195091D02*
X73260823Y-78146731D01*
X223745184Y-23401981D02*
X223748795Y-23450931D01*
X75107728Y-48764103D02*
X75081469Y-48805570D01*
X171397451Y-77304908D02*
X171405843Y-77353268D01*
X122465254Y-78471397D02*
X122441062Y-78514103D01*
X73392271Y-78514103D02*
X73368078Y-78471397D01*
X74299068Y-52251204D02*
X74348018Y-52254815D01*
X223384393Y-22726989D02*
X223421559Y-22759048D01*
X171298588Y-23028602D02*
X171320656Y-23072444D01*
X75660950Y-75714000D02*
X75676454Y-75734030D01*
X122524877Y-24336890D02*
X122507212Y-24382684D01*
X174558937Y-78514103D02*
X174534745Y-78471397D01*
X174745107Y-24740951D02*
X174709559Y-24707107D01*
X221779968Y-48492980D02*
X221769214Y-48445091D01*
X174475122Y-77163109D02*
X174492787Y-77117315D01*
X223745184Y-78098018D02*
X223739176Y-78146731D01*
X73446792Y-78595699D02*
X73418530Y-78555570D01*
X75676454Y-25765969D02*
X75660950Y-25785999D01*
X220360713Y-25095818D02*
X220336546Y-25088236D01*
X221754815Y-53151981D02*
X221760823Y-53103268D01*
X73542892Y-48957107D02*
X73509048Y-48921559D01*
X73254815Y-48348018D02*
X73251204Y-48299068D01*
X74677555Y-49153989D02*
X74632684Y-49173879D01*
X219964903Y-76488138D02*
X220040288Y-76478537D01*
X223720031Y-48492980D02*
X223706940Y-48540285D01*
X223730785Y-23304908D02*
X223739176Y-23353268D01*
X126436602Y-76510823D02*
X126485315Y-76504815D01*
X75288705Y-74890127D02*
X75293803Y-74914937D01*
X171012366Y-24803207D02*
X170972237Y-24831469D01*
X75310982Y-74988964D02*
X75317330Y-75013484D01*
X222278602Y-49131921D02*
X222235896Y-49107728D01*
X125876226Y-76792892D02*
X125911774Y-76759048D01*
X122507212Y-24382684D02*
X122487322Y-24427555D01*
X174435881Y-77304908D02*
X174446635Y-77257019D01*
X122414803Y-76944429D02*
X122441062Y-76985896D01*
X175033982Y-24923879D02*
X174989111Y-24903989D01*
X73250000Y-53249999D02*
X73251204Y-53200931D01*
X170563397Y-78989176D02*
X170514684Y-78995184D01*
X121778424Y-78980785D02*
X121730064Y-78989176D01*
X122582128Y-23450931D02*
X122583333Y-23499999D01*
X220164937Y-76456196D02*
X220238964Y-76439017D01*
X222945091Y-49230785D02*
X222896731Y-49239176D01*
X223490951Y-78671559D02*
X223457107Y-78707107D01*
X221136891Y-25559372D02*
X221118533Y-25541921D01*
X222848018Y-22504815D02*
X222896731Y-22510823D01*
X125588148Y-77401981D02*
X125594156Y-77353268D01*
X122138904Y-78831469D02*
X122097436Y-78857728D01*
X221868078Y-48721397D02*
X221846010Y-48677555D01*
X126155777Y-76596010D02*
X126200649Y-76576120D01*
X126111936Y-78881921D02*
X126069230Y-78857728D01*
X222992980Y-49220031D02*
X222945091Y-49230785D01*
X122564118Y-78195091D02*
X122553364Y-78242980D01*
X75809372Y-75886891D02*
X75863108Y-75940627D01*
X171219874Y-78595699D02*
X171189677Y-78634393D01*
X171157618Y-76828440D02*
X171189677Y-76865606D01*
X175416665Y-22500000D02*
X222750000Y-22500000D01*
X223490951Y-22828440D02*
X223523010Y-22865606D01*
X223421559Y-52509048D02*
X223457107Y-52542892D01*
X125626392Y-78290285D02*
X125613302Y-78242980D01*
X73418530Y-78555570D02*
X73392271Y-78514103D01*
X220797010Y-76203715D02*
X220818505Y-76190317D01*
X75740976Y-75812145D02*
X75791921Y-75868533D01*
X74632684Y-52326120D02*
X74677555Y-52346010D01*
X222235896Y-49107728D02*
X222194429Y-49081469D01*
X73913109Y-52308455D02*
X73959714Y-52293059D01*
X222848018Y-52254815D02*
X222896731Y-52260823D01*
X126200649Y-78923879D02*
X126155777Y-78903989D01*
X175367598Y-78998795D02*
X175318648Y-78995184D01*
X175318648Y-24995184D02*
X175269935Y-24989176D01*
X170972237Y-78831469D02*
X170930769Y-78857728D01*
X221946792Y-48845699D02*
X221918530Y-48805570D01*
X126155777Y-22596010D02*
X126200649Y-22576120D01*
X170465735Y-22501204D02*
X170514684Y-22504815D01*
X122097436Y-22642271D02*
X122138904Y-22668530D01*
X222700931Y-52251204D02*
X222749999Y-52250000D01*
X170659647Y-76529968D02*
X170706952Y-76543059D01*
X171123773Y-76792892D02*
X171157618Y-76828440D01*
X75460256Y-26107982D02*
X75449101Y-26130723D01*
X121681351Y-78995184D02*
X121632401Y-78998795D01*
X125588148Y-78098018D02*
X125584537Y-78049068D01*
X171123773Y-22792892D02*
X171157618Y-22828440D01*
X223739176Y-48396731D02*
X223730785Y-48445091D01*
X170844222Y-78903989D02*
X170799350Y-78923879D01*
X223523010Y-52615606D02*
X223553207Y-52654300D01*
X171340546Y-24382684D02*
X171320656Y-24427555D01*
X221550898Y-26130723D02*
X221539743Y-26107982D01*
X220140127Y-25038705D02*
X220065325Y-25025298D01*
X223457107Y-78707107D02*
X223421559Y-78740951D01*
X174820966Y-76696792D02*
X174861095Y-76668530D01*
X76663453Y-76411763D02*
X76736515Y-76432669D01*
X74677555Y-52346010D02*
X74721397Y-52368078D01*
X75937854Y-76009023D02*
X75957073Y-76025521D01*
X170465735Y-24998795D02*
X170416667Y-25000000D01*
X171386697Y-23257019D02*
X171397451Y-23304908D01*
X170611757Y-22519214D02*
X170659647Y-22529968D01*
X221779968Y-53007019D02*
X221793059Y-52959714D01*
X170416667Y-25000000D02*
X126583332Y-25000000D01*
X223523010Y-48884393D02*
X223490951Y-48921559D01*
X222700931Y-49248795D02*
X222651981Y-49245184D01*
X171386697Y-24242980D02*
X171373607Y-24290285D01*
X75546284Y-75547010D02*
X75559682Y-75568505D01*
X171416666Y-78000000D02*
X171415462Y-78049068D01*
X223673879Y-23117315D02*
X223691544Y-23163109D01*
X74445091Y-52269214D02*
X74492980Y-52279968D01*
X174643655Y-76865606D02*
X174675715Y-76828440D01*
X125679343Y-23072444D02*
X125701411Y-23028602D01*
X221453715Y-25952989D02*
X221440317Y-25931494D01*
X223691544Y-48586890D02*
X223673879Y-48632684D01*
X223384393Y-49023010D02*
X223345699Y-49053207D01*
X74845699Y-49053207D02*
X74805570Y-49081469D01*
X122054730Y-24881921D02*
X122010888Y-24903989D01*
X125701411Y-23028602D02*
X125725604Y-22985896D01*
X73654300Y-22696792D02*
X73694429Y-22668530D01*
X221629601Y-26317376D02*
X221620804Y-26293624D01*
X175079776Y-22558455D02*
X175126381Y-22543059D01*
X122010888Y-22596010D02*
X122054730Y-22618078D01*
X222507019Y-49220031D02*
X222459714Y-49206940D01*
X75253528Y-26886069D02*
X75252246Y-26911365D01*
X74007019Y-22529968D02*
X74054908Y-22519214D01*
X121873618Y-22543059D02*
X121920223Y-22558455D01*
X74845699Y-52446792D02*
X74884393Y-52476989D01*
X174512677Y-77072444D02*
X174534745Y-77028602D01*
X121920223Y-78941544D02*
X121873618Y-78956940D01*
X73251204Y-53200931D02*
X73254815Y-53151981D01*
X174820966Y-78803207D02*
X174782273Y-78773010D01*
X221793059Y-48540285D02*
X221779968Y-48492980D01*
X76934674Y-76474701D02*
X76959711Y-76478537D01*
X73654300Y-49053207D02*
X73615606Y-49023010D01*
X222322444Y-52346010D02*
X222367315Y-52326120D01*
X170753557Y-24941544D02*
X170706952Y-24956940D01*
X73254815Y-53151981D02*
X73260823Y-53103268D01*
X222945091Y-78980785D02*
X222896731Y-78989176D01*
X125842381Y-22828440D02*
X125876226Y-22792892D01*
X221728537Y-26709711D02*
X221724701Y-26684674D01*
X221892271Y-48764103D02*
X221868078Y-48721397D01*
X122414803Y-24555570D02*
X122386541Y-24595699D01*
X73867315Y-49173879D02*
X73822444Y-49153989D01*
X75660950Y-25785999D02*
X75615971Y-25847252D01*
X223631921Y-52778602D02*
X223653989Y-52822444D01*
X125613302Y-77257019D02*
X125626392Y-77209714D01*
X222750000Y-52250000D02*
X222799068Y-52251204D01*
X125842381Y-24671559D02*
X125810322Y-24634393D01*
X174643655Y-78634393D02*
X174613458Y-78595699D01*
X73913109Y-22558455D02*
X73959714Y-22543059D01*
X126069230Y-22642271D02*
X126111936Y-22618078D01*
X73293059Y-23209714D02*
X73308455Y-23163109D01*
X125701411Y-78471397D02*
X125679343Y-78427555D01*
X73822444Y-52346010D02*
X73867315Y-52326120D01*
X221892271Y-52735896D02*
X221918530Y-52694429D01*
X171373607Y-78290285D02*
X171358210Y-78336890D01*
X75131921Y-52778602D02*
X75153989Y-52822444D01*
X73250000Y-78000000D02*
X73250000Y-53249999D01*
X221724701Y-74815325D02*
X221728537Y-74790288D01*
X73269214Y-23304908D02*
X73279968Y-23257019D01*
X223581469Y-78555570D02*
X223553207Y-78595699D01*
X174613458Y-78595699D02*
X174585196Y-78555570D01*
X121632401Y-76501204D02*
X121681351Y-76504815D01*
X171298588Y-24471397D02*
X171274395Y-24514103D01*
X221539743Y-26107982D02*
X221504558Y-26040624D01*
X75271462Y-26709711D02*
X75261861Y-26785096D01*
X223040285Y-78956940D02*
X222992980Y-78970031D01*
X75271462Y-74790288D02*
X75275298Y-74815325D01*
X175269935Y-76510823D02*
X175318648Y-76504815D01*
X171248136Y-78555570D02*
X171219874Y-78595699D01*
X122097436Y-78857728D02*
X122054730Y-78881921D01*
X76268478Y-25257733D02*
X76202989Y-25296284D01*
X170930769Y-78857728D02*
X170888063Y-78881921D01*
X220984030Y-76073545D02*
X221042926Y-76025521D01*
X125584537Y-78049068D02*
X125583333Y-78000000D01*
X125602548Y-78195091D02*
X125594156Y-78146731D01*
X171386697Y-77257019D02*
X171397451Y-77304908D01*
X220263484Y-25067330D02*
X220238964Y-25060982D01*
X126293047Y-22543059D02*
X126340352Y-22529968D01*
X121681351Y-76504815D02*
X121730064Y-76510823D01*
X171373607Y-23209714D02*
X171386697Y-23257019D01*
X74396731Y-49239176D02*
X74348018Y-49245184D01*
X122583333Y-78000000D02*
X122582128Y-78049068D01*
X74249999Y-22500000D02*
X121583334Y-22500000D01*
X126534264Y-24998795D02*
X126485315Y-24995184D01*
X222799068Y-78998795D02*
X222750000Y-79000000D01*
X122386541Y-78595699D02*
X122356344Y-78634393D01*
X221042926Y-25474478D02*
X220984030Y-25426454D01*
X221398498Y-25868041D02*
X221384028Y-25847252D01*
X75250000Y-74493666D02*
X75250160Y-74506331D01*
X221976989Y-52615606D02*
X222009048Y-52578440D01*
X122582128Y-78049068D02*
X122578518Y-78098018D01*
X175126381Y-24956940D02*
X175079776Y-24941544D01*
X75495441Y-26040624D02*
X75460256Y-26107982D01*
X126388242Y-78980785D02*
X126340352Y-78970031D01*
X222042892Y-48957107D02*
X222009048Y-48921559D01*
X221323545Y-75734030D02*
X221339049Y-75714000D01*
X76543624Y-76370804D02*
X76567376Y-76379601D01*
X73959714Y-49206940D02*
X73913109Y-49191544D01*
X122054730Y-76618078D02*
X122097436Y-76642271D01*
X125751863Y-78555570D02*
X125725604Y-78514103D01*
X73735896Y-52392271D02*
X73778602Y-52368078D01*
X171320656Y-77072444D02*
X171340546Y-77117315D01*
X75173879Y-52867315D02*
X75191544Y-52913109D01*
X170706952Y-76543059D02*
X170753557Y-76558455D01*
X73509048Y-52578440D02*
X73542892Y-52542892D01*
X122138904Y-24831469D02*
X122097436Y-24857728D01*
X174675715Y-24671559D02*
X174643655Y-24634393D01*
X170753557Y-22558455D02*
X170799350Y-22576120D01*
X221760823Y-48396731D02*
X221754815Y-48348018D01*
X174643655Y-24634393D02*
X174613458Y-24595699D01*
X171088225Y-22759048D02*
X171123773Y-22792892D01*
X125725604Y-76985896D02*
X125751863Y-76944429D01*
X220432623Y-76379601D02*
X220456375Y-76370804D01*
X223720031Y-23257019D02*
X223730785Y-23304908D01*
X77136069Y-76496471D02*
X77161365Y-76497753D01*
X76835062Y-25043803D02*
X76761035Y-25060982D01*
X76118041Y-25351501D02*
X76097252Y-25365971D01*
X122290440Y-78707107D02*
X122254892Y-78740951D01*
X76859872Y-25038705D02*
X76835062Y-25043803D01*
X221749999Y-27006333D02*
X221749839Y-26993668D01*
X174421481Y-24098018D02*
X174417871Y-24049068D01*
X126069230Y-24857728D02*
X126027762Y-24831469D01*
X223748795Y-53200931D02*
X223750000Y-53249999D01*
X74200931Y-52251204D02*
X74249999Y-52250000D01*
X73867315Y-52326120D02*
X73913109Y-52308455D01*
X73476989Y-78634393D02*
X73446792Y-78595699D01*
X171051060Y-22726989D02*
X171088225Y-22759048D01*
X223490951Y-48921559D02*
X223457107Y-48957107D01*
X222413109Y-52308455D02*
X222459714Y-52293059D01*
X221711294Y-26609872D02*
X221706196Y-26585062D01*
X122217726Y-22726989D02*
X122254892Y-22759048D01*
X74054908Y-22519214D02*
X74103268Y-22510823D01*
X73326120Y-78382684D02*
X73308455Y-78336890D01*
X77035096Y-76488138D02*
X77060295Y-76490700D01*
X223264103Y-22642271D02*
X223305570Y-22668530D01*
X170799350Y-22576120D02*
X170844222Y-22596010D01*
X171320656Y-24427555D02*
X171298588Y-24471397D01*
X75724478Y-75792926D02*
X75740976Y-75812145D01*
X223607728Y-52735896D02*
X223631921Y-52778602D01*
X126340352Y-78970031D02*
X126293047Y-78956940D01*
X219964903Y-25011861D02*
X219939704Y-25009299D01*
X122217726Y-76726989D02*
X122254892Y-76759048D01*
X175126381Y-22543059D02*
X175173685Y-22529968D01*
X73446792Y-48845699D02*
X73418530Y-48805570D01*
X171415462Y-78049068D02*
X171411851Y-78098018D01*
X221976989Y-48884393D02*
X221946792Y-48845699D01*
X222799068Y-52251204D02*
X222848018Y-52254815D01*
X223040285Y-49206940D02*
X222992980Y-49220031D01*
X76567376Y-76379601D02*
X76639286Y-76404181D01*
X223706940Y-78290285D02*
X223691544Y-78336890D01*
X222413109Y-49191544D02*
X222367315Y-49173879D01*
X122553364Y-77257019D02*
X122564118Y-77304908D01*
X75252246Y-74588634D02*
X75253528Y-74613930D01*
X221384028Y-25847252D02*
X221339049Y-25785999D01*
X125810322Y-24634393D02*
X125780125Y-24595699D01*
X122564118Y-23304908D02*
X122572509Y-23353268D01*
X121778424Y-76519214D02*
X121826314Y-76529968D01*
X175269935Y-24989176D02*
X175221575Y-24980785D01*
X76639286Y-76404181D02*
X76663453Y-76411763D01*
X170888063Y-76618078D02*
X170930769Y-76642271D01*
X170611757Y-78980785D02*
X170563397Y-78989176D01*
X175033982Y-22576120D02*
X175079776Y-22558455D01*
X122465254Y-23028602D02*
X122487322Y-23072444D01*
X73778602Y-22618078D02*
X73822444Y-22596010D01*
X75153989Y-52822444D02*
X75173879Y-52867315D01*
X73392271Y-52735896D02*
X73418530Y-52694429D01*
X73735896Y-78857728D02*
X73694429Y-78831469D01*
X76202989Y-25296284D02*
X76181494Y-25309682D01*
X75460256Y-75392017D02*
X75495441Y-75459375D01*
X70750000Y-81487727D02*
X70750294Y-81499704D01*
X126583332Y-22500000D02*
X170416667Y-22500000D01*
X75345818Y-75110713D02*
X75370398Y-75182623D01*
X125626392Y-77209714D02*
X125641789Y-77163109D01*
X171358210Y-78336890D02*
X171340546Y-78382684D01*
X125701411Y-77028602D02*
X125725604Y-76985896D01*
X75239176Y-48396731D02*
X75230785Y-48445091D01*
X174613458Y-22904300D02*
X174643655Y-22865606D01*
X76543624Y-25129195D02*
X76473052Y-25157385D01*
X121778424Y-22519214D02*
X121826314Y-22529968D01*
X219939704Y-25009299D02*
X219863930Y-25003528D01*
X73913109Y-78941544D02*
X73867315Y-78923879D01*
X75206940Y-48540285D02*
X75191544Y-48586890D01*
X75957073Y-76025521D02*
X76015969Y-76073545D01*
X223086890Y-49191544D02*
X223040285Y-49206940D01*
X222896731Y-78989176D02*
X222848018Y-78995184D01*
X126436602Y-22510823D02*
X126485315Y-22504815D01*
X171416666Y-77499999D02*
X171416666Y-78000000D01*
X221275521Y-75792926D02*
X221323545Y-75734030D01*
X74249999Y-79000000D02*
X74200931Y-78998795D01*
X171274395Y-22985896D02*
X171298588Y-23028602D01*
X170972237Y-76668530D02*
X171012366Y-76696792D01*
X220456375Y-76370804D02*
X220526947Y-76342614D01*
X75275298Y-26684674D02*
X75271462Y-26709711D01*
X122254892Y-24740951D02*
X122217726Y-24773010D01*
X122254892Y-22759048D02*
X122290440Y-22792892D01*
X170930769Y-76642271D02*
X170972237Y-76668530D01*
X126111936Y-24881921D02*
X126069230Y-24857728D01*
X122572509Y-23353268D02*
X122578518Y-23401981D01*
X171415462Y-23450931D02*
X171416666Y-23499999D01*
X175173685Y-22529968D02*
X175221575Y-22519214D01*
X76290624Y-25245441D02*
X76268478Y-25257733D01*
X221689017Y-26511035D02*
X221682669Y-26486515D01*
X223305570Y-49081469D02*
X223264103Y-49107728D01*
X76380723Y-76300898D02*
X76449776Y-76332626D01*
X126485315Y-76504815D02*
X126534264Y-76501204D01*
X174534745Y-77028602D02*
X174558937Y-76985896D01*
X220360713Y-76404181D02*
X220432623Y-76379601D01*
X74990951Y-52578440D02*
X75023010Y-52615606D01*
X223345699Y-49053207D02*
X223305570Y-49081469D01*
X125626392Y-24290285D02*
X125613302Y-24242980D01*
X171189677Y-78634393D02*
X171157618Y-78671559D01*
X221682669Y-26486515D02*
X221661763Y-26413453D01*
X74250000Y-52250000D02*
X74299068Y-52251204D01*
X75601501Y-25868041D02*
X75559682Y-25931494D01*
X174945269Y-24881921D02*
X174902563Y-24857728D01*
X221259023Y-75812145D02*
X221275521Y-75792926D01*
X222603268Y-49239176D02*
X222554908Y-49230785D01*
X171358210Y-77163109D02*
X171373607Y-77209714D01*
X221826120Y-48632684D02*
X221808455Y-48586890D01*
X122010888Y-78903989D02*
X121966017Y-78923879D01*
X125588148Y-23401981D02*
X125594156Y-23353268D01*
X73251204Y-78049068D02*
X73250000Y-78000000D01*
X174861095Y-22668530D02*
X174902563Y-22642271D01*
X126027762Y-24831469D02*
X125987633Y-24803207D01*
X174416666Y-23499999D02*
X174417871Y-23450931D01*
X175221575Y-24980785D02*
X175173685Y-24970031D01*
X75250000Y-53249999D02*
X75250000Y-74493666D01*
X170659647Y-22529968D02*
X170706952Y-22543059D01*
X223221397Y-52368078D02*
X223264103Y-52392271D01*
X220065325Y-25025298D02*
X220040288Y-25021462D01*
X221751204Y-48299068D02*
X221750000Y-48250000D01*
X221592614Y-26223052D02*
X221582626Y-26199776D01*
X223421559Y-22759048D02*
X223457107Y-22792892D01*
X222896731Y-22510823D02*
X222945091Y-22519214D01*
X170799350Y-24923879D02*
X170753557Y-24941544D01*
X73279968Y-48492980D02*
X73269214Y-48445091D01*
X126027762Y-76668530D02*
X126069230Y-76642271D01*
X222848018Y-78995184D02*
X222799068Y-78998795D01*
X222992980Y-78970031D02*
X222945091Y-78980785D01*
X221846010Y-48677555D02*
X221826120Y-48632684D01*
X126485315Y-24995184D02*
X126436602Y-24989176D01*
X221582626Y-75300223D02*
X221592614Y-75276947D01*
X223739176Y-78146731D02*
X223730785Y-78195091D01*
X74884393Y-49023010D02*
X74845699Y-49053207D01*
X73308455Y-78336890D02*
X73293059Y-78290285D01*
X223221397Y-78881921D02*
X223177555Y-78903989D01*
X171397451Y-24195091D02*
X171386697Y-24242980D01*
X125987633Y-22696792D02*
X126027762Y-22668530D01*
X75615971Y-25847252D02*
X75601501Y-25868041D01*
X220619276Y-76300898D02*
X220642017Y-76289743D01*
X222603268Y-52260823D02*
X222651981Y-52254815D01*
X122540273Y-77209714D02*
X122553364Y-77257019D01*
X73694429Y-22668530D02*
X73735896Y-22642271D01*
X125602548Y-24195091D02*
X125594156Y-24146731D01*
X220964000Y-25410950D02*
X220902747Y-25365971D01*
X73392271Y-22985896D02*
X73418530Y-22944429D01*
X174902563Y-76642271D02*
X174945269Y-76618078D01*
X171248136Y-24555570D02*
X171219874Y-24595699D01*
X76473052Y-76342614D02*
X76543624Y-76370804D01*
X221750000Y-74493666D02*
X221750000Y-53249999D01*
X74151981Y-49245184D02*
X74103268Y-49239176D01*
X122572509Y-78146731D02*
X122564118Y-78195091D01*
X75863108Y-25559372D02*
X75809372Y-25613108D01*
X73260823Y-48396731D02*
X73254815Y-48348018D01*
X223691544Y-52913109D02*
X223706940Y-52959714D01*
X221750000Y-48250000D02*
X221750000Y-27006333D01*
X73251204Y-23450931D02*
X73254815Y-23401981D01*
X121632401Y-78998795D02*
X121583334Y-79000000D01*
X223457107Y-22792892D02*
X223490951Y-22828440D01*
X219838634Y-76497753D02*
X219863930Y-76496471D01*
X223305570Y-52418530D02*
X223345699Y-52446792D01*
X220526947Y-25157385D02*
X220456375Y-25129195D01*
X76449776Y-76332626D02*
X76473052Y-76342614D01*
X76035999Y-25410950D02*
X76015969Y-25426454D01*
X222750000Y-79000000D02*
X175416665Y-79000000D01*
X171405843Y-23353268D02*
X171411851Y-23401981D01*
X223631921Y-48721397D02*
X223607728Y-48764103D01*
X75293803Y-74914937D02*
X75310982Y-74988964D01*
X122578518Y-24098018D02*
X122572509Y-24146731D01*
X219756331Y-76499839D02*
X219838634Y-76497753D01*
X226249999Y-20012272D02*
X226249705Y-20000295D01*
X75248795Y-53200931D02*
X75250000Y-53249999D01*
X126340352Y-24970031D02*
X126293047Y-24956940D01*
X125780125Y-24595699D02*
X125751863Y-24555570D01*
X122138904Y-22668530D02*
X122179033Y-22696792D01*
X221259023Y-25687854D02*
X221208078Y-25631466D01*
X221750000Y-53249999D02*
X221751204Y-53200931D01*
X221339049Y-25785999D02*
X221323545Y-25765969D01*
X75252246Y-26911365D02*
X75250160Y-26993668D01*
X174675715Y-78671559D02*
X174643655Y-78634393D01*
X121730064Y-22510823D02*
X121778424Y-22519214D01*
X223221397Y-22618078D02*
X223264103Y-22642271D01*
X221323545Y-25765969D02*
X221275521Y-25707073D01*
X220040288Y-76478537D02*
X220065325Y-76474701D01*
X222009048Y-48921559D02*
X221976989Y-48884393D01*
X221738138Y-26785096D02*
X221728537Y-26709711D01*
X221682669Y-75013484D02*
X221689017Y-74988964D01*
X222154300Y-52446792D02*
X222194429Y-52418530D01*
X220140127Y-76461294D02*
X220164937Y-76456196D01*
X223345699Y-52446792D02*
X223384393Y-52476989D01*
X223673879Y-52867315D02*
X223691544Y-52913109D01*
X121583334Y-22500000D02*
X121632401Y-22501204D01*
X171088225Y-76759048D02*
X171123773Y-76792892D01*
X76959711Y-76478537D02*
X77035096Y-76488138D01*
X73913109Y-49191544D02*
X73867315Y-49173879D01*
X174675715Y-22828440D02*
X174709559Y-22792892D01*
X125659453Y-78382684D02*
X125641789Y-78336890D01*
X75601501Y-75631958D02*
X75615971Y-75652747D01*
X75261861Y-74714903D02*
X75271462Y-74790288D01*
X73418530Y-52694429D02*
X73446792Y-52654300D01*
X221747753Y-26911365D02*
X221746471Y-26886069D01*
X126069230Y-76642271D02*
X126111936Y-76618078D01*
X122553364Y-24242980D02*
X122540273Y-24290285D01*
X222945091Y-22519214D02*
X222992980Y-22529968D01*
X122578518Y-78098018D02*
X122572509Y-78146731D01*
X75379195Y-75206375D02*
X75407385Y-75276947D01*
X125594156Y-23353268D02*
X125602548Y-23304908D01*
X171373607Y-24290285D02*
X171358210Y-24336890D01*
X125987633Y-24803207D02*
X125948939Y-24773010D01*
X222896731Y-49239176D02*
X222848018Y-49245184D01*
X75191544Y-48586890D02*
X75173879Y-48632684D01*
X174446635Y-77257019D02*
X174459726Y-77209714D01*
X121826314Y-76529968D02*
X121873618Y-76543059D01*
X171157618Y-78671559D02*
X171123773Y-78707107D01*
X122487322Y-24427555D02*
X122465254Y-24471397D01*
X175416665Y-79000000D02*
X175367598Y-78998795D01*
X174475122Y-23163109D02*
X174492787Y-23117315D01*
X126534264Y-22501204D02*
X126583332Y-22500000D01*
X226250000Y-81487727D02*
X226250000Y-20012272D01*
X171189677Y-24634393D02*
X171157618Y-24671559D01*
X174435881Y-24195091D02*
X174427490Y-24146731D01*
X170888063Y-22618078D02*
X170930769Y-22642271D01*
X121681351Y-22504815D02*
X121730064Y-22510823D01*
X73822444Y-22596010D02*
X73867315Y-22576120D01*
X223264103Y-78857728D02*
X223221397Y-78881921D01*
X74054908Y-78980785D02*
X74007019Y-78970031D01*
X73308455Y-52913109D02*
X73326120Y-52867315D01*
X175173685Y-78970031D02*
X175126381Y-78956940D01*
X122582128Y-77450931D02*
X122583333Y-77499999D01*
X223421559Y-48990951D02*
X223384393Y-49023010D01*
X221136891Y-75940627D02*
X221190627Y-75886891D01*
X221793059Y-52959714D02*
X221808455Y-52913109D01*
X125810322Y-22865606D02*
X125842381Y-22828440D01*
X76015969Y-76073545D02*
X76035999Y-76089049D01*
X126293047Y-76543059D02*
X126340352Y-76529968D01*
X174613458Y-76904300D02*
X174643655Y-76865606D01*
X75338236Y-75086546D02*
X75345818Y-75110713D01*
X221504558Y-75459375D02*
X221539743Y-75392017D01*
X73476989Y-48884393D02*
X73446792Y-48845699D01*
X73269214Y-48445091D02*
X73260823Y-48396731D01*
X122553364Y-23257019D02*
X122564118Y-23304908D01*
X220818505Y-76190317D02*
X220881958Y-76148498D01*
X174643655Y-22865606D02*
X174675715Y-22828440D01*
X174861095Y-24831469D02*
X174820966Y-24803207D01*
X171415462Y-77450931D02*
X171416666Y-77499999D01*
X226249705Y-81499704D02*
X226249999Y-81487727D01*
X75310982Y-26511035D02*
X75293803Y-26585062D01*
X171189677Y-76865606D02*
X171219874Y-76904300D01*
X222235896Y-52392271D02*
X222278602Y-52368078D01*
X223421559Y-78740951D02*
X223384393Y-78773010D01*
X171157618Y-24671559D02*
X171123773Y-24707107D01*
X174989111Y-24903989D02*
X174945269Y-24881921D01*
X73254815Y-78098018D02*
X73251204Y-78049068D01*
X220164937Y-25043803D02*
X220140127Y-25038705D01*
X221724701Y-26684674D02*
X221711294Y-26609872D01*
X171248136Y-22944429D02*
X171274395Y-22985896D01*
X171416666Y-24000000D02*
X171415462Y-24049068D01*
X125659453Y-23117315D02*
X125679343Y-23072444D01*
X122324284Y-76828440D02*
X122356344Y-76865606D01*
X174459726Y-24290285D02*
X174446635Y-24242980D01*
X73254815Y-23401981D02*
X73260823Y-23353268D01*
X221190627Y-25613108D02*
X221136891Y-25559372D01*
X223730785Y-78195091D02*
X223720031Y-78242980D01*
X75220031Y-48492980D02*
X75206940Y-48540285D01*
X73542892Y-78707107D02*
X73509048Y-78671559D01*
X75881466Y-75958078D02*
X75937854Y-76009023D01*
X126246442Y-22558455D02*
X126293047Y-22543059D01*
X122356344Y-24634393D02*
X122324284Y-24671559D01*
X221760823Y-53103268D02*
X221769214Y-53054908D01*
X174558937Y-22985896D02*
X174585196Y-22944429D01*
X73260823Y-78146731D02*
X73254815Y-78098018D01*
X75250000Y-48250000D02*
X75248795Y-48299068D01*
X174416666Y-77499999D02*
X174417871Y-77450931D01*
X122465254Y-77028602D02*
X122487322Y-77072444D01*
X170611757Y-76519214D02*
X170659647Y-76529968D01*
X126534264Y-78998795D02*
X126485315Y-78995184D01*
X219863930Y-76496471D02*
X219939704Y-76490700D01*
X125613302Y-78242980D02*
X125602548Y-78195091D01*
X223177555Y-49153989D02*
X223132684Y-49173879D01*
X73251204Y-48299068D02*
X73250000Y-48250000D01*
X125987633Y-78803207D02*
X125948939Y-78773010D01*
X171051060Y-76726989D02*
X171088225Y-76759048D01*
X174427490Y-77353268D02*
X174435881Y-77304908D01*
X174945269Y-22618078D02*
X174989111Y-22596010D01*
X174613458Y-24595699D02*
X174585196Y-24555570D01*
X125701411Y-24471397D02*
X125679343Y-24427555D01*
X77060295Y-25009299D02*
X77035096Y-25011861D01*
X221620804Y-26293624D02*
X221592614Y-26223052D01*
X125679343Y-77072444D02*
X125701411Y-77028602D01*
X220238964Y-76439017D02*
X220263484Y-76432669D01*
X74586890Y-49191544D02*
X74540285Y-49206940D01*
X75407385Y-26223052D02*
X75379195Y-26293624D01*
X125876226Y-78707107D02*
X125842381Y-78671559D01*
X223739176Y-23353268D02*
X223745184Y-23401981D01*
X170514684Y-24995184D02*
X170465735Y-24998795D01*
X75417373Y-26199776D02*
X75407385Y-26223052D01*
X122507212Y-78382684D02*
X122487322Y-78427555D01*
X221746471Y-74613930D02*
X221747753Y-74588634D01*
X221769214Y-48445091D02*
X221760823Y-48396731D01*
X171340546Y-77117315D02*
X171358210Y-77163109D01*
X77060295Y-76490700D02*
X77136069Y-76496471D01*
X221042926Y-76025521D02*
X221062145Y-76009023D01*
X121583334Y-25000000D02*
X77256333Y-25000000D01*
X126485315Y-78995184D02*
X126436602Y-78989176D01*
X174534745Y-23028602D02*
X174558937Y-22985896D01*
X125948939Y-22726989D02*
X125987633Y-22696792D01*
X75081469Y-48805570D02*
X75053207Y-48845699D01*
X74054908Y-52269214D02*
X74103268Y-52260823D01*
X175173685Y-24970031D02*
X175126381Y-24956940D01*
X125751863Y-76944429D02*
X125780125Y-76904300D01*
X73615606Y-78773010D02*
X73578440Y-78740951D01*
X125594156Y-24146731D02*
X125588148Y-24098018D01*
X175221575Y-78980785D02*
X175173685Y-78970031D01*
X171274395Y-24514103D02*
X171248136Y-24555570D01*
X122572509Y-24146731D02*
X122564118Y-24195091D01*
X76663453Y-25088236D02*
X76639286Y-25095818D01*
X74492980Y-49220031D02*
X74445091Y-49230785D01*
X126293047Y-78956940D02*
X126246442Y-78941544D01*
X226237727Y-20000000D02*
X70762272Y-20000000D01*
X74151981Y-78995184D02*
X74103268Y-78989176D01*
X171274395Y-78514103D02*
X171248136Y-78555570D01*
X220964000Y-76089049D02*
X220984030Y-76073545D01*
X221654181Y-26389286D02*
X221629601Y-26317376D01*
X223581469Y-52694429D02*
X223607728Y-52735896D01*
X125780125Y-22904300D02*
X125810322Y-22865606D01*
X122217726Y-24773010D02*
X122179033Y-24803207D01*
X171411851Y-23401981D02*
X171415462Y-23450931D01*
X174435881Y-23304908D02*
X174446635Y-23257019D01*
X125583333Y-24000000D02*
X125583333Y-23499999D01*
X76473052Y-25157385D02*
X76449776Y-25167373D01*
X223750000Y-23499999D02*
X223750000Y-48250000D01*
X121632401Y-24998795D02*
X121583334Y-25000000D01*
X219756331Y-25000160D02*
X219743666Y-25000000D01*
X122507212Y-77117315D02*
X122524877Y-77163109D01*
X122097436Y-24857728D02*
X122054730Y-24881921D01*
X221918530Y-52694429D02*
X221946792Y-52654300D01*
X126340352Y-22529968D02*
X126388242Y-22519214D01*
X221440317Y-75568505D02*
X221453715Y-75547010D01*
X223631921Y-23028602D02*
X223653989Y-23072444D01*
X126388242Y-76519214D02*
X126436602Y-76510823D01*
X174989111Y-78903989D02*
X174945269Y-78881921D01*
X125583333Y-23499999D02*
X125584537Y-23450931D01*
X75259299Y-74689704D02*
X75261861Y-74714903D01*
X122386541Y-76904300D02*
X122414803Y-76944429D01*
X121966017Y-78923879D02*
X121920223Y-78941544D01*
X223581469Y-48805570D02*
X223553207Y-48845699D01*
X220642017Y-76289743D02*
X220709375Y-76254558D01*
X170972237Y-22668530D02*
X171012366Y-22696792D01*
X76380723Y-25199101D02*
X76357982Y-25210256D01*
X125842381Y-76828440D02*
X125876226Y-76792892D01*
X171340546Y-23117315D02*
X171358210Y-23163109D01*
X221740700Y-74689704D02*
X221746471Y-74613930D01*
X171123773Y-78707107D02*
X171088225Y-78740951D01*
X73446792Y-52654300D02*
X73476989Y-52615606D01*
X221749839Y-26993668D02*
X221747753Y-26911365D01*
X73578440Y-48990951D02*
X73542892Y-48957107D01*
X223086890Y-22558455D02*
X223132684Y-22576120D01*
X171386697Y-78242980D02*
X171373607Y-78290285D01*
X125725604Y-22985896D02*
X125751863Y-22944429D01*
X74764103Y-49107728D02*
X74721397Y-49131921D01*
X174902563Y-22642271D02*
X174945269Y-22618078D01*
X74586890Y-52308455D02*
X74632684Y-52326120D01*
X74957107Y-52542892D02*
X74990951Y-52578440D01*
X76761035Y-76439017D02*
X76835062Y-76456196D01*
X221706196Y-74914937D02*
X221711294Y-74890127D01*
X220065325Y-76474701D02*
X220140127Y-76461294D01*
X223457107Y-52542892D02*
X223490951Y-52578440D01*
X73959714Y-22543059D02*
X74007019Y-22529968D01*
X223177555Y-22596010D02*
X223221397Y-22618078D01*
X170611757Y-24980785D02*
X170563397Y-24989176D01*
X75724478Y-25707073D02*
X75676454Y-25765969D01*
X221740700Y-26810295D02*
X221738138Y-26785096D01*
X222078440Y-48990951D02*
X222042892Y-48957107D01*
X75173879Y-48632684D02*
X75153989Y-48677555D01*
X125987633Y-76696792D02*
X126027762Y-76668530D01*
X171373607Y-77209714D02*
X171386697Y-77257019D01*
X126485315Y-22504815D02*
X126534264Y-22501204D01*
X223553207Y-22904300D02*
X223581469Y-22944429D01*
X220336546Y-25088236D02*
X220263484Y-25067330D01*
X174782273Y-76726989D02*
X174820966Y-76696792D01*
X73346010Y-23072444D02*
X73368078Y-23028602D01*
X125588148Y-24098018D02*
X125584537Y-24049068D01*
X219838634Y-25002246D02*
X219756331Y-25000160D01*
X171088225Y-24740951D02*
X171051060Y-24773010D01*
X223631921Y-78471397D02*
X223607728Y-78514103D01*
X174820966Y-22696792D02*
X174861095Y-22668530D01*
X122356344Y-76865606D02*
X122386541Y-76904300D01*
X222651981Y-49245184D02*
X222603268Y-49239176D01*
X223132684Y-78923879D02*
X223086890Y-78941544D01*
X122138904Y-76668530D02*
X122179033Y-76696792D01*
X221808455Y-52913109D02*
X221826120Y-52867315D01*
X74200931Y-78998795D02*
X74151981Y-78995184D01*
X126436602Y-24989176D02*
X126388242Y-24980785D01*
X76118041Y-76148498D02*
X76181494Y-76190317D01*
X221689017Y-74988964D02*
X221706196Y-74914937D01*
X221592614Y-75276947D02*
X221620804Y-75206375D01*
X121632401Y-22501204D02*
X121681351Y-22504815D01*
X74200931Y-22501204D02*
X74249999Y-22500000D01*
X122582128Y-24049068D02*
X122578518Y-24098018D01*
X75417373Y-75300223D02*
X75449101Y-75369276D01*
X75559682Y-25931494D02*
X75546284Y-25952989D01*
X170514684Y-76504815D02*
X170563397Y-76510823D01*
X125911774Y-76759048D02*
X125948939Y-76726989D01*
X75261861Y-26785096D02*
X75259299Y-26810295D01*
X126246442Y-76558455D02*
X126293047Y-76543059D01*
X73694429Y-49081469D02*
X73654300Y-49053207D01*
X171219874Y-22904300D02*
X171248136Y-22944429D01*
X174446635Y-23257019D02*
X174459726Y-23209714D01*
X223748795Y-23450931D02*
X223750000Y-23499999D01*
X171397451Y-23304908D02*
X171405843Y-23353268D01*
X122290440Y-22792892D02*
X122324284Y-22828440D01*
X73694429Y-52418530D02*
X73735896Y-52392271D01*
X125626392Y-23209714D02*
X125641789Y-23163109D01*
X223345699Y-22696792D02*
X223384393Y-22726989D01*
X126155777Y-78903989D02*
X126111936Y-78881921D01*
X174945269Y-76618078D02*
X174989111Y-76596010D01*
X170706952Y-22543059D02*
X170753557Y-22558455D01*
X171320656Y-23072444D02*
X171340546Y-23117315D01*
X171340546Y-78382684D02*
X171320656Y-78427555D01*
X75245184Y-48348018D02*
X75239176Y-48396731D01*
X122553364Y-78242980D02*
X122540273Y-78290285D01*
X125911774Y-22759048D02*
X125948939Y-22726989D01*
X125876226Y-22792892D02*
X125911774Y-22759048D01*
X174861095Y-76668530D02*
X174902563Y-76642271D01*
X174475122Y-24336890D02*
X174459726Y-24290285D01*
X223264103Y-52392271D02*
X223305570Y-52418530D01*
X174989111Y-76596010D02*
X175033982Y-76576120D01*
X125602548Y-23304908D02*
X125613302Y-23257019D01*
X222115606Y-52476989D02*
X222154300Y-52446792D01*
X171123773Y-24707107D02*
X171088225Y-24740951D01*
X221582626Y-26199776D02*
X221550898Y-26130723D01*
X75317330Y-26486515D02*
X75310982Y-26511035D01*
X77161365Y-25002246D02*
X77136069Y-25003528D01*
X75275298Y-74815325D02*
X75288705Y-74890127D01*
X171411851Y-77401981D02*
X171415462Y-77450931D01*
X76835062Y-76456196D02*
X76859872Y-76461294D01*
X126246442Y-78941544D02*
X126200649Y-78923879D01*
X221384028Y-75652747D02*
X221398498Y-75631958D01*
X174782273Y-78773010D02*
X174745107Y-78740951D01*
X170753557Y-78941544D02*
X170706952Y-78956940D01*
X223748795Y-48299068D02*
X223745184Y-48348018D01*
X174585196Y-24555570D02*
X174558937Y-24514103D01*
X74721397Y-49131921D02*
X74677555Y-49153989D01*
X75615971Y-75652747D02*
X75660950Y-75714000D01*
X122487322Y-77072444D02*
X122507212Y-77117315D01*
X122254892Y-78740951D02*
X122217726Y-78773010D01*
X175173685Y-76529968D02*
X175221575Y-76519214D01*
X174945269Y-78881921D02*
X174902563Y-78857728D01*
X75293803Y-26585062D02*
X75288705Y-26609872D01*
X73346010Y-78427555D02*
X73326120Y-78382684D01*
X125641789Y-24336890D02*
X125626392Y-24290285D01*
X75053207Y-48845699D02*
X75023010Y-48884393D01*
X174492787Y-23117315D02*
X174512677Y-23072444D01*
X122010888Y-24903989D02*
X121966017Y-24923879D01*
X122254892Y-76759048D02*
X122290440Y-76792892D01*
X125780125Y-76904300D02*
X125810322Y-76865606D01*
X121873618Y-76543059D02*
X121920223Y-76558455D01*
X174417871Y-24049068D02*
X174416666Y-24000000D01*
X171358210Y-24336890D02*
X171340546Y-24382684D01*
X174861095Y-78831469D02*
X174820966Y-78803207D01*
X174512677Y-24427555D02*
X174492787Y-24382684D01*
X223553207Y-78595699D02*
X223523010Y-78634393D01*
X122564118Y-24195091D02*
X122553364Y-24242980D01*
X223177555Y-52346010D02*
X223221397Y-52368078D01*
X170416667Y-79000000D02*
X126583332Y-79000000D01*
X70750295Y-81499705D02*
X70762272Y-81499999D01*
X125594156Y-77353268D02*
X125602548Y-77304908D01*
X125725604Y-78514103D02*
X125701411Y-78471397D01*
X73476989Y-22865606D02*
X73509048Y-22828440D01*
X171219874Y-76904300D02*
X171248136Y-76944429D01*
X222848018Y-49245184D02*
X222799068Y-49248795D01*
X221492266Y-75481521D02*
X221504558Y-75459375D01*
X221275521Y-25707073D02*
X221259023Y-25687854D01*
X121730064Y-24989176D02*
X121681351Y-24995184D01*
X75250160Y-74506331D02*
X75252246Y-74588634D01*
X223553207Y-48845699D02*
X223523010Y-48884393D01*
X77136069Y-25003528D02*
X77060295Y-25009299D01*
X170706952Y-24956940D02*
X170659647Y-24970031D01*
X174459726Y-23209714D02*
X174475122Y-23163109D01*
X126111936Y-76618078D02*
X126155777Y-76596010D01*
X122572509Y-77353268D02*
X122578518Y-77401981D01*
X221062145Y-25490976D02*
X221042926Y-25474478D01*
X221504558Y-26040624D02*
X221492266Y-26018478D01*
X125584537Y-24049068D02*
X125583333Y-24000000D01*
X174427490Y-23353268D02*
X174435881Y-23304908D01*
X171157618Y-22828440D02*
X171189677Y-22865606D01*
X75370398Y-26317376D02*
X75345818Y-26389286D01*
X75676454Y-75734030D02*
X75724478Y-75792926D01*
X73308455Y-48586890D02*
X73293059Y-48540285D01*
X170659647Y-78970031D02*
X170611757Y-78980785D01*
X219743666Y-76499999D02*
X219756331Y-76499839D01*
X175126381Y-76543059D02*
X175173685Y-76529968D01*
X122524877Y-77163109D02*
X122540273Y-77209714D01*
X76736515Y-25067330D02*
X76663453Y-25088236D01*
X126293047Y-24956940D02*
X126246442Y-24941544D01*
X121966017Y-24923879D02*
X121920223Y-24941544D01*
X125641789Y-78336890D02*
X125626392Y-78290285D01*
X121873618Y-78956940D02*
X121826314Y-78970031D01*
X221208078Y-25631466D02*
X221190627Y-25613108D01*
X121583334Y-76500000D02*
X121632401Y-76501204D01*
X73509048Y-78671559D02*
X73476989Y-78634393D01*
X75407385Y-75276947D02*
X75417373Y-75300223D01*
X222322444Y-49153989D02*
X222278602Y-49131921D01*
X223730785Y-48445091D02*
X223720031Y-48492980D01*
X74007019Y-78970031D02*
X73959714Y-78956940D01*
X223132684Y-22576120D02*
X223177555Y-22596010D01*
X73326120Y-23117315D02*
X73346010Y-23072444D01*
X74492980Y-52279968D02*
X74540285Y-52293059D01*
X221453715Y-75547010D02*
X221492266Y-75481521D01*
X74007019Y-52279968D02*
X74054908Y-52269214D01*
X121920223Y-76558455D02*
X121966017Y-76576120D01*
X75370398Y-75182623D02*
X75379195Y-75206375D01*
X171088225Y-78740951D02*
X171051060Y-78773010D01*
X174427490Y-78146731D02*
X174421481Y-78098018D01*
X126388242Y-22519214D02*
X126436602Y-22510823D01*
X223581469Y-22944429D02*
X223607728Y-22985896D01*
X73368078Y-23028602D02*
X73392271Y-22985896D01*
X75081469Y-52694429D02*
X75107728Y-52735896D01*
X221751204Y-53200931D02*
X221754815Y-53151981D01*
X74103268Y-22510823D02*
X74151981Y-22504815D01*
X122414803Y-22944429D02*
X122441062Y-22985896D01*
X76959711Y-25021462D02*
X76934674Y-25025298D01*
X125641789Y-77163109D02*
X125659453Y-77117315D01*
X222799068Y-22501204D02*
X222848018Y-22504815D01*
X223691544Y-23163109D02*
X223706940Y-23209714D01*
X73446792Y-22904300D02*
X73476989Y-22865606D01*
X73476989Y-52615606D02*
X73509048Y-52578440D01*
X170799350Y-78923879D02*
X170753557Y-78941544D01*
X174820966Y-24803207D02*
X174782273Y-24773010D01*
X76761035Y-25060982D02*
X76736515Y-25067330D01*
X222750000Y-22500000D02*
X222799068Y-22501204D01*
X175416665Y-25000000D02*
X175367598Y-24998795D01*
X74054908Y-49230785D02*
X74007019Y-49220031D01*
X126583332Y-25000000D02*
X126534264Y-24998795D01*
X75449101Y-26130723D02*
X75417373Y-26199776D01*
X171411851Y-78098018D02*
X171405843Y-78146731D01*
X76181494Y-76190317D02*
X76202989Y-76203715D01*
X122583333Y-23499999D02*
X122583333Y-24000000D01*
X73326120Y-48632684D02*
X73308455Y-48586890D01*
X175079776Y-76558455D02*
X175126381Y-76543059D01*
X73615606Y-49023010D02*
X73578440Y-48990951D01*
X174435881Y-78195091D02*
X174427490Y-78146731D01*
X125584537Y-23450931D02*
X125588148Y-23401981D01*
X174782273Y-22726989D02*
X174820966Y-22696792D01*
X122540273Y-78290285D02*
X122524877Y-78336890D01*
X125948939Y-78773010D02*
X125911774Y-78740951D01*
X75317330Y-75013484D02*
X75338236Y-75086546D01*
X73250000Y-23499999D02*
X73251204Y-23450931D01*
X222992980Y-22529968D02*
X223040285Y-22543059D01*
X170514684Y-22504815D02*
X170563397Y-22510823D01*
X221808455Y-48586890D02*
X221793059Y-48540285D01*
X122179033Y-76696792D02*
X122217726Y-76726989D01*
X75023010Y-52615606D02*
X75053207Y-52654300D01*
X222554908Y-52269214D02*
X222603268Y-52260823D01*
X221550898Y-75369276D02*
X221582626Y-75300223D01*
X121730064Y-76510823D02*
X121778424Y-76519214D01*
X170416667Y-76500000D02*
X170465735Y-76501204D01*
X122179033Y-78803207D02*
X122138904Y-78831469D01*
X223490951Y-52578440D02*
X223523010Y-52615606D01*
X222194429Y-49081469D02*
X222154300Y-49053207D01*
X223305570Y-22668530D02*
X223345699Y-22696792D01*
X74348018Y-49245184D02*
X74299068Y-49248795D01*
X125911774Y-78740951D02*
X125876226Y-78707107D01*
X75131921Y-48721397D02*
X75107728Y-48764103D01*
X221539743Y-75392017D02*
X221550898Y-75369276D01*
X223523010Y-78634393D02*
X223490951Y-78671559D01*
X121681351Y-24995184D02*
X121632401Y-24998795D01*
X125810322Y-78634393D02*
X125780125Y-78595699D01*
X174709559Y-78707107D02*
X174675715Y-78671559D01*
X174902563Y-24857728D02*
X174861095Y-24831469D01*
X171051060Y-24773010D02*
X171012366Y-24803207D01*
X171012366Y-22696792D02*
X171051060Y-22726989D01*
X73293059Y-78290285D02*
X73279968Y-78242980D01*
X125780125Y-78595699D02*
X125751863Y-78555570D01*
X77256333Y-76500000D02*
X121583334Y-76500000D01*
X77243668Y-25000160D02*
X77161365Y-25002246D01*
X73615606Y-52476989D02*
X73654300Y-52446792D01*
X170563397Y-24989176D02*
X170514684Y-24995184D01*
X125810322Y-76865606D02*
X125842381Y-76828440D01*
X122324284Y-78671559D02*
X122290440Y-78707107D01*
X171415462Y-24049068D02*
X171411851Y-24098018D01*
X75495441Y-75459375D02*
X75507733Y-75481521D01*
X221492266Y-26018478D02*
X221453715Y-25952989D01*
X221746471Y-26886069D02*
X221740700Y-26810295D01*
X174585196Y-76944429D02*
X174613458Y-76904300D01*
X174902563Y-78857728D02*
X174861095Y-78831469D01*
X222799068Y-49248795D02*
X222750000Y-49250000D01*
X221747753Y-74588634D02*
X221749839Y-74506331D01*
X174585196Y-78555570D02*
X174558937Y-78514103D01*
X73867315Y-78923879D02*
X73822444Y-78903989D01*
X174446635Y-78242980D02*
X174435881Y-78195091D01*
X220040288Y-25021462D02*
X219964903Y-25011861D01*
X75338236Y-26413453D02*
X75317330Y-26486515D01*
X122179033Y-22696792D02*
X122217726Y-22726989D01*
X74103268Y-49239176D02*
X74054908Y-49230785D01*
X174675715Y-76828440D02*
X174709559Y-76792892D01*
X171397451Y-78195091D02*
X171386697Y-78242980D01*
X223086890Y-78941544D02*
X223040285Y-78956940D01*
X170930769Y-24857728D02*
X170888063Y-24881921D01*
X77035096Y-25011861D02*
X76959711Y-25021462D01*
X174446635Y-24242980D02*
X174435881Y-24195091D01*
X75791921Y-25631466D02*
X75740976Y-25687854D01*
X221062145Y-76009023D02*
X221118533Y-75958078D01*
X226237727Y-81499999D02*
X226249704Y-81499705D01*
X125751863Y-22944429D02*
X125780125Y-22904300D01*
X170563397Y-76510823D02*
X170611757Y-76519214D01*
X73326120Y-52867315D02*
X73346010Y-52822444D01*
X76934674Y-25025298D02*
X76859872Y-25038705D01*
X220619276Y-25199101D02*
X220550223Y-25167373D01*
X122356344Y-78634393D02*
X122324284Y-78671559D01*
X75107728Y-52735896D02*
X75131921Y-52778602D01*
X74299068Y-49248795D02*
X74250000Y-49250000D01*
X76567376Y-25120398D02*
X76543624Y-25129195D01*
X122386541Y-22904300D02*
X122414803Y-22944429D01*
X174417871Y-23450931D02*
X174421481Y-23401981D01*
X73578440Y-22759048D02*
X73615606Y-22726989D01*
X171248136Y-76944429D02*
X171274395Y-76985896D01*
X121778424Y-24980785D02*
X121730064Y-24989176D01*
X174558937Y-24514103D02*
X174534745Y-24471397D01*
X76268478Y-76242266D02*
X76290624Y-76254558D01*
X174475122Y-78336890D02*
X174459726Y-78290285D01*
X73260823Y-53103268D02*
X73269214Y-53054908D01*
X74540285Y-49206940D02*
X74492980Y-49220031D01*
X122441062Y-78514103D02*
X122414803Y-78555570D01*
X175416665Y-76500000D02*
X219743666Y-76500000D01*
X75507733Y-26018478D02*
X75495441Y-26040624D01*
X122578518Y-77401981D02*
X122582128Y-77450931D01*
X222367315Y-52326120D02*
X222413109Y-52308455D01*
X126340352Y-76529968D02*
X126388242Y-76519214D01*
X175318648Y-22504815D02*
X175367598Y-22501204D01*
X73822444Y-78903989D02*
X73778602Y-78881921D01*
X170888063Y-24881921D02*
X170844222Y-24903989D01*
X75153989Y-48677555D02*
X75131921Y-48721397D01*
X223264103Y-49107728D02*
X223221397Y-49131921D01*
X221620804Y-75206375D02*
X221629601Y-75182623D01*
X122414803Y-78555570D02*
X122386541Y-78595699D01*
X220263484Y-76432669D02*
X220336546Y-76411763D01*
X170706952Y-78956940D02*
X170659647Y-78970031D01*
X125583333Y-78000000D02*
X125583333Y-77499999D01*
X125641789Y-23163109D02*
X125659453Y-23117315D01*
X74396731Y-52260823D02*
X74445091Y-52269214D01*
X122540273Y-24290285D02*
X122524877Y-24336890D01*
X75239176Y-53103268D02*
X75245184Y-53151981D01*
X75957073Y-25474478D02*
X75937854Y-25490976D01*
X77243668Y-76499839D02*
X77256333Y-76499999D01*
X174534745Y-24471397D02*
X174512677Y-24427555D01*
X126534264Y-76501204D02*
X126583332Y-76500000D01*
X73293059Y-48540285D02*
X73279968Y-48492980D01*
X122386541Y-24595699D02*
X122356344Y-24634393D01*
X175221575Y-22519214D02*
X175269935Y-22510823D01*
X75740976Y-25687854D02*
X75724478Y-25707073D01*
X222945091Y-52269214D02*
X222992980Y-52279968D01*
X125948939Y-24773010D02*
X125911774Y-24740951D01*
X122356344Y-22865606D02*
X122386541Y-22904300D01*
X171298588Y-78471397D02*
X171274395Y-78514103D01*
X220550223Y-25167373D02*
X220526947Y-25157385D01*
X175126381Y-78956940D02*
X175079776Y-78941544D01*
X74151981Y-22504815D02*
X74200931Y-22501204D01*
X174421481Y-78098018D02*
X174417871Y-78049068D01*
X221728537Y-74790288D02*
X221738138Y-74714903D01*
X75220031Y-53007019D02*
X75230785Y-53054908D01*
X223132684Y-49173879D02*
X223086890Y-49191544D01*
X221711294Y-74890127D02*
X221724701Y-74815325D01*
X221846010Y-52822444D02*
X221868078Y-52778602D01*
X220336546Y-76411763D02*
X220360713Y-76404181D01*
X74764103Y-52392271D02*
X74805570Y-52418530D01*
X223745184Y-53151981D02*
X223748795Y-53200931D01*
X122097436Y-76642271D02*
X122138904Y-76668530D01*
X76736515Y-76432669D02*
X76761035Y-76439017D01*
X73959714Y-78956940D02*
X73913109Y-78941544D01*
X122487322Y-23072444D02*
X122507212Y-23117315D01*
X222651981Y-52254815D02*
X222700931Y-52251204D01*
X74721397Y-52368078D02*
X74764103Y-52392271D01*
X122290440Y-24707107D02*
X122254892Y-24740951D01*
X175318648Y-76504815D02*
X175367598Y-76501204D01*
X221826120Y-52867315D02*
X221846010Y-52822444D01*
X175033982Y-78923879D02*
X174989111Y-78903989D01*
X122441062Y-76985896D02*
X122465254Y-77028602D01*
X75791921Y-75868533D02*
X75809372Y-75886891D01*
X223750000Y-53249999D02*
X223750000Y-78000000D01*
X73578440Y-78740951D02*
X73542892Y-78707107D01*
X220456375Y-25129195D02*
X220432623Y-25120398D01*
X73279968Y-53007019D02*
X73293059Y-52959714D01*
X220238964Y-25060982D02*
X220164937Y-25043803D01*
X74805570Y-49081469D02*
X74764103Y-49107728D01*
X221706196Y-26585062D02*
X221689017Y-26511035D01*
X220526947Y-76342614D02*
X220550223Y-76332626D01*
X74200931Y-49248795D02*
X74151981Y-49245184D01*
X73867315Y-22576120D02*
X73913109Y-22558455D01*
X222459714Y-52293059D02*
X222507019Y-52279968D01*
X76449776Y-25167373D02*
X76380723Y-25199101D01*
X223607728Y-22985896D02*
X223631921Y-23028602D01*
X126388242Y-24980785D02*
X126340352Y-24970031D01*
X175269935Y-78989176D02*
X175221575Y-78980785D01*
X223132684Y-52326120D02*
X223177555Y-52346010D01*
X121966017Y-76576120D02*
X122010888Y-76596010D01*
X122540273Y-23209714D02*
X122553364Y-23257019D01*
X223750000Y-78000000D02*
X223748795Y-78049068D01*
X219863930Y-25003528D02*
X219838634Y-25002246D01*
X126583332Y-76500000D02*
X170416667Y-76500000D01*
X75206940Y-52959714D02*
X75220031Y-53007019D01*
X175079776Y-24941544D02*
X175033982Y-24923879D01*
X125659453Y-77117315D02*
X125679343Y-77072444D01*
X122465254Y-24471397D02*
X122441062Y-24514103D01*
X223384393Y-78773010D02*
X223345699Y-78803207D01*
X174416666Y-24000000D02*
X174416666Y-23499999D01*
X171416666Y-23499999D02*
X171416666Y-24000000D01*
X174492787Y-78382684D02*
X174475122Y-78336890D01*
X220881958Y-76148498D02*
X220902747Y-76134028D01*
X220709375Y-25245441D02*
X220642017Y-25210256D01*
X171411851Y-24098018D02*
X171405843Y-24146731D01*
X170659647Y-24970031D02*
X170611757Y-24980785D01*
X223673879Y-78382684D02*
X223653989Y-78427555D01*
X221918530Y-48805570D02*
X221892271Y-48764103D01*
X74151981Y-52254815D02*
X74200931Y-52251204D01*
X220984030Y-25426454D02*
X220964000Y-25410950D01*
X171051060Y-78773010D02*
X171012366Y-78803207D01*
X73578440Y-52509048D02*
X73615606Y-52476989D01*
X174512677Y-78427555D02*
X174492787Y-78382684D01*
X125679343Y-78427555D02*
X125659453Y-78382684D01*
X73279968Y-23257019D02*
X73293059Y-23209714D01*
X220731521Y-25257733D02*
X220709375Y-25245441D01*
X76181494Y-25309682D02*
X76118041Y-25351501D01*
X221398498Y-75631958D02*
X221440317Y-75568505D01*
X73615606Y-22726989D02*
X73654300Y-22696792D01*
X75230785Y-53054908D02*
X75239176Y-53103268D01*
X223457107Y-48957107D02*
X223421559Y-48990951D01*
X170972237Y-24831469D02*
X170930769Y-24857728D01*
X74884393Y-52476989D02*
X74921559Y-52509048D01*
X170844222Y-22596010D02*
X170888063Y-22618078D01*
X126200649Y-22576120D02*
X126246442Y-22558455D01*
X125842381Y-78671559D02*
X125810322Y-78634393D01*
X221190627Y-75886891D02*
X221208078Y-75868533D01*
X125602548Y-77304908D02*
X125613302Y-77257019D01*
X174709559Y-76792892D02*
X174745107Y-76759048D01*
X76035999Y-76089049D02*
X76097252Y-76134028D01*
X125613302Y-24242980D02*
X125602548Y-24195091D01*
X122583333Y-24000000D02*
X122582128Y-24049068D01*
X122441062Y-24514103D02*
X122414803Y-24555570D01*
X73368078Y-48721397D02*
X73346010Y-48677555D01*
X221629601Y-75182623D02*
X221654181Y-75110713D01*
X170563397Y-22510823D02*
X170611757Y-22519214D01*
X174782273Y-24773010D02*
X174745107Y-24740951D01*
X222154300Y-49053207D02*
X222115606Y-49023010D01*
X223720031Y-53007019D02*
X223730785Y-53054908D01*
X121826314Y-78970031D02*
X121778424Y-78980785D01*
X75250160Y-26993668D02*
X75250000Y-27006333D01*
X73269214Y-53054908D02*
X73279968Y-53007019D01*
X75023010Y-48884393D02*
X74990951Y-48921559D01*
X219939704Y-76490700D02*
X219964903Y-76488138D01*
M02*
